<?xml version="1.0" encoding="UTF-8" standalone="no"?>
<!-- Created with Inkscape (http://www.inkscape.org/) -->

<svg
   xmlns:dc="http://purl.org/dc/elements/1.1/"
   xmlns:cc="http://creativecommons.org/ns#"
   xmlns:rdf="http://www.w3.org/1999/02/22-rdf-syntax-ns#"
   xmlns:svg="http://www.w3.org/2000/svg"
   xmlns="http://www.w3.org/2000/svg"
   xmlns:sodipodi="http://sodipodi.sourceforge.net/DTD/sodipodi-0.dtd"
   xmlns:inkscape="http://www.inkscape.org/namespaces/inkscape"
   version="1.1"
   id="svg2"
   width="539.4494"
   height="86.886642"
   viewBox="0 0 539.4494 86.886642"
   sodipodi:docname="1607537061_Science_Daily.svg"
   inkscape:version="0.92.4 (5da689c313, 2019-01-14)">
  <metadata
     id="metadata8">
    <rdf:RDF>
      <cc:Work
         rdf:about="">
        <dc:format>image/svg+xml</dc:format>
        <dc:type
           rdf:resource="http://purl.org/dc/dcmitype/StillImage" />
        <dc:title></dc:title>
      </cc:Work>
    </rdf:RDF>
  </metadata>
  <defs
     id="defs6" />
  <sodipodi:namedview
     pagecolor="#ffffff"
     bordercolor="#666666"
     borderopacity="1"
     objecttolerance="10"
     gridtolerance="10"
     guidetolerance="10"
     inkscape:pageopacity="0"
     inkscape:pageshadow="2"
     inkscape:window-width="3440"
     inkscape:window-height="1346"
     id="namedview4"
     showgrid="false"
     inkscape:zoom="2.3123288"
     inkscape:cx="247.39585"
     inkscape:cy="-33.384147"
     inkscape:window-x="-11"
     inkscape:window-y="-11"
     inkscape:window-maximized="1"
     inkscape:current-layer="svg2" />
  <path
     id="path4520"
     style="fill:#ffffff;fill-opacity:1"
     d="m 27.293014,0.00189586 c -7.1346,-0.0578 -11.9883,1.20330004 -16.37305,4.15821004 -11.9472097,8.0511901 -11.43963971,25.3439301 0.92969,31.6542901 2.0164,1.02869 7.74129,2.98656 12.72265,4.35156 14.89981,4.08287 18.77423,7.04281 16.47657,12.58985 -1.43553,3.46567 -4.01959,5.02745 -9.57618,5.78906 -3.07217,0.42109 -5.86479,0.0856 -8.89648,-1.07226 -4.61189,-1.76133 -6.79884,-4.19642 -7.94141,-8.83594 -0.65821,-2.6727 -0.87347,-2.75 -7.6581997,-2.75 -6.57449001,0 -6.98156001,0.131 -6.976560007871,2.25 C 0.02284429,57.345906 6.8231943,65.699936 16.988324,69.005806 c 1.37856,0.44833 7.23086,0.69517 13.00586,0.54883 11.25968,-0.28531 16.07822,-1.87582 20.70312,-6.83399 7.82301,-8.38673 6.50611,-23.39389 -2.57422,-29.34375 -1.99587,-1.30779 -8.8039,-3.79201 -15.1289,-5.52148 -14.2775,-3.90395 -16,-4.92402 -16,-9.46875 0,-4.66935 3.57567,-7.01772 10.58008,-6.94922 6.32021,0.0618 10.06717,2.30455 11.20312,6.70508 0.83702,3.24251 0.84276,3.24546 8.02735,3.53906 8.03761,0.32846 8.15,0.20029 6.14648,-7.01367 -2.46389,-8.8716301 -10.21043,-13.89426014 -22.45703,-14.56250014 -1.11763,-0.061 -2.18195,-0.0953 -3.20117,-0.10352 z m 88.701166,0.88477 V 6.3866659 11.886666 h 6.5 6.5 V 6.3866659 0.88666586 h -6.5 z m 239,0 V 34.970646 69.052676 l 17.25,-0.33984 c 19.51746,-0.38387 22.23591,-1.19285 28.94336,-8.61719 5.27742,-5.84149 7.23633,-12.66467 7.23633,-25.20898 0,-13.61959 -1.93723,-19.60129 -8.45118,-26.1152401 -6.63214,-6.63213 -11.41964,-7.88476004 -30.16015,-7.88476004 z m 113,0 c -2.9333,0 -3,0.11111 -3,5.00000004 0,4.8888901 0.0667,5.0000001 3,5.0000001 2.9333,0 3,-0.11111 3,-5.0000001 0,-4.88889004 -0.0667,-5.00000004 -3,-5.00000004 z m 14,0 v 34.00000014 34 h 3 3 v -34 -34.00000014 h -3 z m -119.5,5.50000004 10.5,0.25976 c 15.90783,0.39348 21.77242,3.07803 26.14844,11.9648501 2.03773,4.13822 2.35156,6.24668 2.35156,15.77539 0,8.23171 -0.45632,12.18535 -1.81445,15.70508 -2.14768,5.56572 -7.18883,10.31933 -12.42188,11.71484 -2.06972,0.55194 -8.60823,1.31364 -14.5293,1.69141 l -10.76562,0.68554 0.26562,-28.89843 z m 176.45117,1.4082 c 0.004,0.0687 0.0168,0.13891 0.0195,0.20703 0.159,0.11549 0.31417,0.24051 0.47656,0.34766 0.003,-0.0503 0.006,-0.10317 0.008,-0.15235 -0.17621,-0.12087 -0.34607,-0.2521 -0.50391,-0.40234 z m -3.11523,0.36719 c 0.0565,0.0851 0.11333,0.16012 0.17578,0.24414 0.0483,0.0198 0.0963,0.0403 0.14453,0.0606 -0.0127,-0.0199 -0.0281,-0.0446 -0.0352,-0.0586 -0.0955,-0.0812 -0.1657,-0.2179 -0.28515,-0.24609 z m 3.29492,0.95898 c -0.005,-0.004 -0.0118,8.1e-4 -0.0195,0.0156 -0.062,0.11873 -0.10414,0.24749 -0.15235,0.37304 0.0225,0.006 0.0439,0.0155 0.0664,0.0215 0.11356,0.0302 0.14184,-0.38565 0.10547,-0.41016 z M 160.98246,18.736276 c -3.09059,0.0492 -6.12297,0.59955 -8.76953,1.70507 -18.57211,7.75802 -19.16598,39.65851 -0.89258,47.94141 2.12584,0.96359 6.00802,1.36592 11.75,1.2207 7.4816,-0.18921 9.10699,-0.5675 12.73633,-2.9707 2.63682,-1.746 5.07999,-4.57151 6.67383,-7.7168 1.38299,-2.7292 2.51367,-5.2028 2.51367,-5.49609 0,-0.29328 -2.51833,-0.5332 -5.59766,-0.5332 -4.8985,0 -5.94145,0.3668 -8.33008,2.92383 -5.61798,6.01406 -15.65137,4.72115 -18.62695,-2.40039 -0.7946,-1.90175 -1.44531,-3.92258 -1.44531,-4.49024 0,-0.67049 6.1814,-1.0332 17.64062,-1.0332 h 17.64063 l -0.56055,-5.42383 c -0.63582,-6.16055 -3.76526,-13.92139 -7.01953,-17.41016 -3.83796,-4.11453 -10.9136,-6.42461 -17.71289,-6.3164 z m 44.01172,0.0508 -5.75,0.30078 -5.75,0.29883 -0.26758,24.75 -0.26758,24.75 h 6.43164 6.43164 l 0.375,-16.25 c 0.4013,-17.42018 1.19083,-20.69574 5.45508,-22.63867 3.86893,-1.7628 7.23979,-1.30514 9.88867,1.34375 2.41955,2.41953 2.45313,2.70482 2.45313,20 v 17.54492 h 7.07617 7.07422 l -0.32422,-19.75 c -0.36138,-21.95644 -1.00417,-24.5073 -7.125,-28.34375 -2.6316,-1.64945 -4.57117,-1.95269 -10.90039,-1.70117 -7.23659,0.28758 -7.91331,0.51399 -11.25,3.74804 l -3.55078,3.43946 v -3.7461 z m 328.54883,0.0273 c -2.59234,0.10219 -4.23406,4.16722 -10.01954,20.82227 -3.8655,11.12794 -7.25429,20.22861 -7.52929,20.22461 -0.275,-0.004 -3.875,-9.11189 -8,-20.24024 -6.64452,-17.92545 -7.7697,-20.27187 -9.86524,-20.56836 -1.30093,-0.18407 -2.71661,0.0409 -3.14648,0.5 -0.42987,0.45906 0.79361,4.88399 2.71875,9.83399 1.92515,4.95 6.13811,15.88581 9.36328,24.30078 l 5.86524,15.30078 -2.04102,5.45312 c -2.20279,5.88751 -4.05054,7.44532 -8.82813,7.44532 -2.60346,0 -3.0664,0.37698 -3.0664,2.5 0,2.30163 0.36294,2.5 4.5664,2.5 8.78597,0 9.0005,-0.3409 20.88868,-33.28516 4.60719,-12.76736 9.31369,-25.59092 10.45898,-28.49609 1.74938,-4.43751 1.85204,-5.36988 0.64258,-5.83399 -0.76215,-0.29246 -1.40958,-0.48061 -2.00781,-0.45703 z m -263.48047,0.0352 c -4.26202,0.0257 -8.46326,0.70903 -11.07031,2.03906 -8.24122,4.20435 -12.97269,12.58539 -12.98829,23.00586 -0.0179,11.94354 3.80036,19.22304 12.30079,23.45898 6.9934,3.48496 17.40333,3.57647 23.7832,0.20704 4.77991,-2.52444 9.41667,-8.8863 10.51367,-14.42383 l 0.64258,-3.25 h -6.42383 -6.42383 l -1.26953,3.50976 c -2.53343,7.0061 -11.53121,8.37063 -16.47266,2.49805 -4.60644,-5.47444 -4.41157,-17.23979 0.38672,-23.33984 4.04152,-5.13796 12.9564,-4.23685 15.75,1.59179 1.23461,2.57593 1.70786,2.74024 7.875,2.74024 6.3171,0 6.53945,-0.084 5.95899,-2.25 -0.33164,-1.2375 -0.60919,-2.79649 -0.61719,-3.46485 -0.0249,-2.21408 -6.43131,-8.56978 -10.50391,-10.41992 -2.85513,-1.29705 -7.17939,-1.92807 -11.4414,-1.90234 z m 52.2832,0.0254 c -4.01691,-0.003 -8.11152,0.62903 -10.90625,1.89844 -5.32257,2.41758 -10.87932,9.0289 -12.5293,14.90625 -3.7197,13.24989 1.13863,27.05571 11.28907,32.08007 3.24156,1.60454 6.15993,2.12637 11.88867,2.12696 10.13744,0.001 15.15008,-2.54374 19.62304,-9.96289 1.76907,-2.9343 2.98044,-5.71788 2.69141,-6.18555 -0.28903,-0.46766 -2.92227,-0.85156 -5.85156,-0.85156 -4.55366,0 -5.56013,0.35685 -6.9375,2.45898 -1.87,2.85398 -8.29909,5.08998 -11.98047,4.16602 -3.84402,-0.96479 -7.56524,-4.73695 -8.26367,-8.375 l -0.625,-3.25 h 17.76367 17.76172 l -0.66602,-5.66992 c -1.21686,-10.35361 -5.63769,-17.74332 -12.81836,-21.42579 -2.48327,-1.27347 -6.42254,-1.9129 -10.43945,-1.91601 z m 113.35938,0.0156 c -11.82167,-0.006 -17.21366,3.57878 -19.17383,12.7461 -0.66669,3.11798 -0.57014,3.25 2.4082,3.25 2.65387,0 3.19272,-0.43822 3.70898,-3.01953 0.33215,-1.66077 1.93145,-4.13577 3.55274,-5.5 2.47328,-2.08113 3.98859,-2.48047 9.41602,-2.48047 5.53467,0 6.82369,0.35495 8.92382,2.45508 2.82085,2.82084 3.41701,9.50146 1.02539,11.48632 -0.78575,0.65212 -5.76359,1.83708 -11.06054,2.63282 -5.29695,0.79573 -11.34199,2.31964 -13.4336,3.38672 -8.90305,4.54197 -9.42908,18.80553 -0.88672,24.01367 2.46089,1.50035 5.05431,2.02043 10.10938,2.02343 7.44847,0.004 11.35514,-1.47107 14.50586,-5.47656 2.3118,-2.93898 3.19336,-3.17436 3.19336,-0.84961 0,3.03132 3.08604,5.32813 7.15625,5.32813 3.43468,0 3.84375,-0.2668 3.84375,-2.5 0,-1.81841 -0.53571,-2.5 -1.96485,-2.5 -3.36308,0 -4.03515,-3.24375 -4.03515,-19.48242 0,-17.43633 -0.72858,-20.16028 -6.29883,-23.55664 -2.44994,-1.49382 -5.02898,-1.95404 -10.99023,-1.95704 z m -346.949216,0.0645 c -1.22906,-0.0163 -2.63268,0.0145 -4.29102,0.084 -7.29186,0.30564 -8.82573,0.71419 -12.63476,3.35547 -2.78518,1.93131 -5.28509,4.8749 -6.99024,8.23437 -7.1362,14.0597 -3.09805,30.51329 9.0625,36.93165 3.43241,1.81163 5.97618,2.32178 11.5,2.30468 12.76334,-0.0395 20.219196,-5.67152 23.193356,-17.52148 0.60813,-2.423 0.52668,-2.45703 -6.01758,-2.45703 -6.314966,0 -6.682996,0.1317 -7.677726,2.74804 -1.55057,4.07829 -3.79458,6.14179 -7.42188,6.82227 -7.1384,1.33918 -12.48437,-4.8705 -12.48437,-14.50195 0,-6.30162 1.87992,-11.04208 5.51367,-13.90039 4.68456,-3.68487 11.41034,-2.21992 13.71484,2.98632 1.20281,2.71735 1.56194,2.84571 7.910156,2.84571 h 6.65039 l -0.79492,-3.52344 c -1.16023,-5.14435 -5.63614,-10.43126 -10.749996,-12.69336 -2.68192,-1.18632 -4.79525,-1.66591 -8.48242,-1.71484 z m 27.238276,0.93164 v 24.5 24.5 h 6.5 6.5 v -24.5 -24.5 h -6.5 z m 349,0 v 24.5 24.5 h 3 3 v -24.5 -24.5 h -3 z m -302.6875,9.23437 c 3.49054,0.0826 6.81329,1.82283 8.31055,5.40625 0.75733,1.81259 1.37695,3.53547 1.37695,3.82813 0,0.29267 -4.75434,0.53125 -10.56641,0.53125 -10.49427,0 -10.56236,-0.0156 -9.88476,-2.25 1.51247,-4.98748 6.27583,-7.62177 10.76367,-7.51563 z m 159.71875,0.002 c 3.42183,0.0549 6.73202,1.74611 8.39844,5.25781 0.86359,1.81988 1.57031,3.57882 1.57031,3.9082 0,0.32938 -4.75434,0.59766 -10.56641,0.59766 -10.49427,0 -10.56236,-0.0156 -9.88476,-2.25 1.50126,-4.95051 6.08292,-7.58428 10.48242,-7.51367 z m 124.96875,13.86914 -0.004,5.69726 c -0.004,6.68314 -2.3027,11.19506 -7.23633,14.20313 -3.92174,2.39111 -12.33095,2.68369 -15.39843,0.53515 -2.79043,-1.9545 -4.73612,-6.90969 -3.94727,-10.05273 0.90076,-3.58892 5.73583,-6.17451 13.99805,-7.48828 3.89921,-0.62002 8.32539,-1.52555 9.83789,-2.01172 z"
     inkscape:connector-curvature="0" />
</svg>
