<svg xmlns="http://www.w3.org/2000/svg" id="Layer_1" width="750.2" height="200.6"><style id="style2">.st0{fill:#ec012a}</style><path class="st0" d="M408.97 96.16v-1.6c-5.1 0-9.4-1.9-9.4-10.4v-21.8h26.1v22.1c0 8.7-4.7 10-9.4 10v1.7h54.3l3-21.9h-1.2c-2.9 8.3-11.1 19.7-23.6 19.7h-11.1v-31.7c12.6.2 16.2 7.2 18.3 15.5h1.4l-4.2-33.3h-1.2c-.4 7.9-1.2 15.5-14.3 15.5v-30.7h8.4c12.5 0 20.7 11.4 23.6 19.7h1.2l-3-21.9h-51.5v1.7c4.7 0 9.4 1.3 9.4 10v21.4h-26.1v-21.2c0-8.5 4.3-10.4 9.4-10.4v-1.6h-76.2l-3 21.9h1.3c2.9-8.3 13.7-20.3 23.2-20.3v55.5c0 7.7-6.1 10.4-11.2 10.4v1.6h23.1v-67.5c15.6 0 21.1 7.6 21.4 18.2v37.3c0 7.7-6.1 10.4-11.2 10.4v1.6h32.5z" id="path6" style="fill:#fff"/><path class="st0" d="M338.47 108.36h-12.2v1.6c4.9 0 11.1 2.7 11.1 10.4v45.1c0 7.7-6.1 10.4-11.2 10.4v1.6h25v-1.6c-3.9 0-11.1-1.9-11.1-10.4v-42.5l21.8 47.6h1l21.5-50.2v44.9c0 8.7-6.8 10.5-11.1 10.5v1.7h56.2l3-21.9h-1.2c-2.9 8.3-11.1 19.7-23.6 19.7h-11v-31.7c12.5.2 16.2 7.2 18.2 15.5h1.4l-4.1-33.3h-1.2c-.4 7.9-1.2 15.4-14.2 15.5v-30.7h6.5c15 0 18.7 11.9 19.5 19.8h1.2c1-8.9 4.8-20.1 18.3-20.1v67.3h23.2v-1.6c-5.1 0-11.2-2.7-11.2-10.4v-55.6c11.8 0 20.3 14.9 22 20.4h1.2l-2.5-22h-80c-5-.2-9.6 2.8-11.4 7.5l-16.1 37.9-17.8-39.3c-1.4-3.1-5.6-6.1-11.2-6.1z" id="path8" style="fill:#fff"/><path d="M286.8 94.85v-4.76h-5.91v-7.4l-.2.06-5.55 1.7-.1.03v5.6h-8.77v-3.11c0-1.46.33-2.57.97-3.31a3.4 3.4 0 0 1 2.7-1.1c.84 0 1.7.19 2.57.58l.22.1v-5.02l-.1-.03a10 10 0 0 0-3.28-.44c-1.73 0-3.3.37-4.66 1.12a7.96 7.96 0 0 0-3.2 3.15 9.41 9.41 0 0 0-1.12 4.64v3.43h-4.12v4.76h4.12v20.04h5.9V94.85h8.76v12.73c0 5.25 2.48 7.9 7.35 7.9a12.06 12.06 0 0 0 4.34-.85l.08-.05v-4.8l-.24.16c-.32.21-.72.39-1.2.52-.46.13-.85.2-1.16.2-1.14 0-1.99-.31-2.51-.92-.53-.61-.8-1.68-.8-3.19v-11.7zm-43.74 15.8c-2.14 0-3.83-.7-5.02-2.1-1.2-1.41-1.8-3.42-1.8-5.97 0-2.62.6-4.68 1.8-6.12a6.17 6.17 0 0 1 4.98-2.14c2.04 0 3.67.69 4.84 2.05 1.18 1.37 1.77 3.41 1.77 6.07 0 2.7-.56 4.76-1.66 6.15-1.1 1.37-2.75 2.07-4.9 2.07m.26-21.17c-4.1 0-7.34 1.2-9.66 3.56-2.31 2.37-3.48 5.64-3.48 9.73 0 3.88 1.14 7 3.4 9.28 2.26 2.27 5.33 3.43 9.14 3.43 3.96 0 7.15-1.22 9.46-3.62 2.32-2.39 3.49-5.63 3.49-9.62 0-3.94-1.1-7.1-3.27-9.35-2.18-2.26-5.23-3.4-9.08-3.4m-22.67 0c-2.78 0-5.08.7-6.84 2.1a6.75 6.75 0 0 0-2.66 5.5c0 1.17.2 2.2.57 3.08.39.88.98 1.66 1.77 2.3.78.65 1.99 1.33 3.59 2.02 1.34.55 2.34 1.02 2.98 1.39.62.36 1.07.72 1.32 1.08.24.34.36.82.36 1.4 0 1.67-1.25 2.48-3.81 2.48-.96 0-2.04-.2-3.23-.6a12.13 12.13 0 0 1-3.3-1.67l-.25-.17v5.68l.09.04c.83.39 1.89.71 3.13.97s2.36.39 3.34.39c3.02 0 5.45-.72 7.22-2.13a6.88 6.88 0 0 0 2.7-5.63c0-1.67-.5-3.1-1.45-4.26-.96-1.15-2.61-2.2-4.92-3.13-1.84-.74-3.01-1.35-3.5-1.82-.47-.46-.7-1.1-.7-1.91 0-.73.29-1.3.89-1.77.6-.47 1.45-.71 2.51-.71a10.29 10.29 0 0 1 5.6 1.67l.25.17v-5.4l-.1-.04c-.67-.29-1.56-.54-2.65-.74a16.2 16.2 0 0 0-2.9-.3m-24.9 21.17c-2.15 0-3.84-.71-5.03-2.11-1.2-1.41-1.8-3.42-1.8-5.97 0-2.62.6-4.68 1.8-6.12a6.16 6.16 0 0 1 4.97-2.14c2.05 0 3.68.69 4.85 2.05 1.17 1.37 1.77 3.41 1.77 6.07 0 2.7-.56 4.76-1.67 6.15-1.1 1.37-2.74 2.07-4.9 2.07m.27-21.17c-4.1 0-7.34 1.2-9.66 3.56-2.31 2.37-3.49 5.64-3.49 9.73 0 3.88 1.15 7 3.4 9.28 2.27 2.27 5.34 3.43 9.15 3.43 3.96 0 7.14-1.22 9.46-3.62 2.31-2.39 3.49-5.63 3.49-9.62 0-3.94-1.1-7.1-3.28-9.35-2.17-2.26-5.22-3.4-9.07-3.4m-22.11 4.88v-4.3h-5.84v24.8h5.84V102.2c0-2.16.49-3.93 1.45-5.27.96-1.32 2.23-1.99 3.78-1.99a6.85 6.85 0 0 1 3.11.8l.24.19v-5.88l-.09-.04a6.04 6.04 0 0 0-2.28-.35c-1.47 0-2.78.47-3.9 1.4a7.9 7.9 0 0 0-2.25 3.32zm-16.28-4.89c-2.68 0-5.07.57-7.1 1.7a11.49 11.49 0 0 0-4.68 4.82 15.32 15.32 0 0 0-1.6 7.12c0 2.35.52 4.5 1.56 6.4 1.04 1.9 2.5 3.38 4.36 4.4a13 13 0 0 0 6.38 1.56c2.77 0 5.14-.56 7.04-1.65l.08-.04v-5.35l-.25.18c-.86.63-1.82 1.13-2.85 1.49a8.62 8.62 0 0 1-2.8.54c-2.29 0-4.12-.72-5.46-2.13-1.34-1.41-2.01-3.4-2.01-5.9 0-2.51.7-4.55 2.1-6.05a7.14 7.14 0 0 1 5.47-2.26c1.92 0 3.78.65 5.55 1.93l.25.18V90.8l-.08-.05a9.63 9.63 0 0 0-2.7-.9 16.12 16.12 0 0 0-3.26-.36m-17.4.6h-5.83v24.8h5.83zm-2.86-10.57c-.96 0-1.8.33-2.48.98a3.22 3.22 0 0 0-1.04 2.43c0 .95.34 1.75 1.03 2.39.68.63 1.52.95 2.5.95a3.6 3.6 0 0 0 2.5-.95 3.11 3.11 0 0 0 1.04-2.39c0-.93-.34-1.74-1.01-2.4-.67-.67-1.53-1-2.54-1m-14.55 8.73v26.63h5.95v-34.6h-8.24l-10.47 25.7-10.17-25.7h-8.57v34.6h5.6V88.26h.19l10.73 26.63h4.22l10.57-26.63z" id="path2" style="fill:#fff;stroke-width:.26169297"/><path d="M43.72 96.16H16.27V68.72h27.45z" id="path4" style="fill:#fff;stroke-width:.26169297"/><path d="M74.02 96.16H46.57V68.72h27.45z" id="path6-7" style="fill:#fff;stroke-width:.26169297"/><path d="M43.71 126.47H16.27V99.03h27.44z" id="path8-2" style="fill:#fff;stroke-width:.26169297"/><path d="M74.02 126.47H46.57V99.03h27.45z" id="path10" style="fill:#fff;stroke-width:.26169297"/><g transform="translate(165.72 135.75) scale(.13634)" id="g79"><path class="st0" id="rect74" style="fill:#fff;stroke-width:11.28376007" d="M3543.24-591.98h315.95v135.41h-315.95z"/><path class="st0" id="rect76" style="fill:#fff;stroke-width:11.28376007" d="M2866.21-591.98h135.41v428.78h-135.41z"/><path class="st0" id="rect78" style="fill:#fff;stroke-width:11.28376007" d="M3091.89-591.98h135.41V39.91h-135.41z"/><path class="st0" id="rect80" style="fill:#fff;stroke-width:11.28376007" d="M2640.54-591.98h135.41V39.91h-135.41z"/><path class="st0" id="rect82" style="fill:#fff;stroke-width:11.28376007" d="M3543.24-366.31h135.41V39.91h-135.41z"/><path class="st0" id="rect84" style="fill:#fff;stroke-width:11.28376007" d="M3317.56-591.98h135.41v135.41h-135.41z"/><path class="st1" id="rect86" style="fill:#c3c0bf;stroke-width:11.28376007" d="M3317.56-366.31h135.41V39.91h-135.41z"/></g></svg>