<?xml version="1.0" encoding="UTF-8" standalone="no"?>
<!-- Created with Inkscape (http://www.inkscape.org/) -->

<svg
   xmlns:dc="http://purl.org/dc/elements/1.1/"
   xmlns:cc="http://creativecommons.org/ns#"
   xmlns:rdf="http://www.w3.org/1999/02/22-rdf-syntax-ns#"
   xmlns:svg="http://www.w3.org/2000/svg"
   xmlns="http://www.w3.org/2000/svg"
   xmlns:sodipodi="http://sodipodi.sourceforge.net/DTD/sodipodi-0.dtd"
   xmlns:inkscape="http://www.inkscape.org/namespaces/inkscape"
   version="1.1"
   id="svg2"
   width="752.66943"
   height="238.23453"
   viewBox="0 0 752.66944 238.23453"
   sodipodi:docname="6PJXJPT53HOUOZE2KCRJOT746U.svg"
   inkscape:version="0.92.4 (5da689c313, 2019-01-14)">
  <metadata
     id="metadata8">
    <rdf:RDF>
      <cc:Work
         rdf:about="">
        <dc:format>image/svg+xml</dc:format>
        <dc:type
           rdf:resource="http://purl.org/dc/dcmitype/StillImage" />
        <dc:title></dc:title>
      </cc:Work>
    </rdf:RDF>
  </metadata>
  <defs
     id="defs6" />
  <sodipodi:namedview
     pagecolor="#ffffff"
     bordercolor="#666666"
     borderopacity="1"
     objecttolerance="10"
     gridtolerance="10"
     guidetolerance="10"
     inkscape:pageopacity="0"
     inkscape:pageshadow="2"
     inkscape:window-width="3440"
     inkscape:window-height="1346"
     id="namedview4"
     showgrid="false"
     inkscape:zoom="2"
     inkscape:cx="578.33866"
     inkscape:cy="35.33173"
     inkscape:window-x="-11"
     inkscape:window-y="-11"
     inkscape:window-maximized="1"
     inkscape:current-layer="layer1" />
  <g
     inkscape:groupmode="layer"
     id="layer1"
     inkscape:label="Layer 1"
     transform="translate(-36.819214,-32.860535)">
    <rect
       style="opacity:1;fill:#e03a3e;fill-opacity:1;stroke:none;stroke-width:33.25593948;stroke-miterlimit:4;stroke-dasharray:none;stroke-opacity:1"
       id="rect895"
       width="752.66943"
       height="238.23453"
       x="36.819214"
       y="32.860535" />
  </g>
  <g
     inkscape:groupmode="layer"
     id="layer2"
     inkscape:label="Layer 2"
     transform="translate(-36.819214,-32.860535)">
    <path
       id="path817"
       style="fill:#ffffff;fill-opacity:1;stroke-width:0.66666669"
       d="m 57.666016,49 -0.185547,9.28125 c -0.102422,5.104245 0.04823,9.497246 0.333984,9.763672 0.285755,0.266427 3.368229,-0.245639 6.851563,-1.138672 22.585214,-5.790263 49.823064,0.756901 72.000004,17.308594 9.40445,7.01898 20.04568,17.975876 24.57031,25.296876 0.84598,1.36884 1.81784,2.48828 2.1582,2.48828 0.37436,0 0.55009,-12.4437 0.44531,-31.5 L 163.66602,49 h -53 z M 194,49.318359 v 52.562501 c 0,28.90953 0.20087,52.76337 0.44531,53.00781 0.24444,0.24445 13.14379,0.44531 28.66602,0.44531 h 28.22265 V 144.01172 132.68945 L 235.16602,132.51172 219,132.33398 218.81641,122.16602 218.63281,112 H 233.31641 248 V 101.01367 90.025391 l -14.5,-0.179688 -14.5,-0.179687 -0.18555,-8.820313 -0.18554,-8.822265 15.85156,-0.177735 15.85351,-0.179687 v -11 -11 l -28.16796,-0.173828 z m 228.66602,0.01563 v 53.015631 53.01366 L 434.5,155.18164 446.33398,155 l 0.1836,-10.50391 c 0.17947,-10.26631 0.22546,-10.57192 2.08984,-13.51171 l 1.9082,-3.00782 5.95899,13.51172 L 462.43359,155 h 22.2793 22.28125 l 1.26758,-9.16602 1.26758,-9.16796 h 9.55664 c 9.36977,0 9.56251,0.0292 9.8789,1.5 0.17747,0.825 0.8572,4.95129 1.51172,9.16796 l 1.18946,7.66602 12.61914,0.18164 c 6.94001,0.1 12.8595,-0.0587 13.15429,-0.35352 0.29479,-0.29479 -0.9597,-7.27708 -2.78711,-15.51562 -1.8274,-8.23854 -4.09812,-18.57852 -5.04687,-22.97852 -0.94875,-4.4 -2.43838,-11.15 -3.30859,-15 C 545.4266,97.484021 543.02308,86.533333 540.95508,77 538.88708,67.466667 536.677,57.416016 536.04297,54.666016 l -1.15235,-5 -15.23242,-0.179688 c -8.37764,-0.09872 -15.46844,0.05633 -15.75586,0.34375 C 503.44765,50.284766 500.127,64.477131 497.07617,79 c -0.53918,2.566667 -1.89247,8.716016 -3.00586,13.666016 -1.11338,4.949999 -3.09646,13.950004 -4.4082,20.000004 -5.41711,24.98478 -6.57924,30.00104 -6.94531,29.99804 -0.21141,-0.002 -4.09095,-7.81312 -8.62305,-17.35742 l -8.24023,-17.35352 9.74023,-16.220698 c 5.3571,-8.921147 9.74023,-16.409958 9.74023,-16.642578 0,-0.232627 -5.71282,-0.423828 -12.69531,-0.423828 h -12.69726 l -6.58008,13.5 L 446.7793,101.66602 446.7227,75.5 446.6661,49.333984 h -12 z m 136,0 v 52.554691 c 0,28.90556 0.20812,52.76283 0.46093,53.01563 0.2528,0.25278 5.5765,0.37737 11.83203,0.27734 l 11.375,-0.18164 0.16993,-52.83398 0.16992,-52.832041 h -12.00391 z m 185,0.332032 -0.19336,15.667968 c -0.16853,13.65184 0.95175,40.598991 2.27929,54.832041 l 0.41993,4.5 h 8.88476 8.88281 L 764.27734,122.5 c 1.3146,-8.44798 2.69038,-35.342518 2.70508,-52.833984 l 0.0176,-20 H 755.334 Z m -47.33204,2 -0.18554,10.5 -0.1836,10.5 h -5.85156 c -4.986,0 -6.37348,0.261098 -9.37695,1.757812 -3.58186,1.784893 -6.40166,4.917288 -8.14453,9.048828 -0.91473,2.168353 -0.92835,2.132754 -1.25782,-3.138672 L 671,75 h -11.66602 -11.66796 l -0.17383,39.47461 c -0.16166,37.11325 -0.10186,39.50519 1,40 0.64457,0.28941 6.19622,0.4369 12.33789,0.32812 l 11.16601,-0.19726 0.008,-23.4707 c 0.002,-14.08664 0.27813,-24.45913 0.6914,-25.94727 0.93847,-3.37899 3.51647,-6.262684 6.49414,-7.267578 1.363,-0.459986 5.62657,-0.856106 9.47657,-0.878906 l 7,-0.04102 0.39843,23.333984 c 0.23307,13.69775 0.69166,24.21587 1.11133,25.47071 1.9098,5.71084 5.1277,8.40236 11.4375,9.56836 3.5922,0.6638 20.09214,0.18715 20.88281,-0.60352 0.2995,-0.29933 0.46056,-4.41933 0.35743,-9.15625 L 729.66602,137 l -3.32813,-0.20898 c -5.8608,-0.36942 -5.67187,0.33744 -5.67187,-21.22852 V 96.666016 H 725.33398 730 v -12 -12 h -4.66602 c -3.99026,0 -4.67134,-0.168449 -4.69336,-1.166016 -0.0141,-0.641666 -0.0884,-5.366667 -0.16601,-10.5 l -0.14063,-9.333984 h -12 z m -339.20312,21 c -6.43552,0 -11.78315,3.708869 -14.93555,10.357422 L 341,85.542969 340.66602,80.271484 340.33398,75 H 328.66602 317 v 40 40 h 12 12 l 0.33398,-25 c 0.34545,-25.90856 0.38693,-26.29134 3.23829,-29.55469 1.84344,-2.109767 5.33861,-3.111326 10.85742,-3.111326 h 5.26758 l -0.36915,5.499996 c -0.20375,3.025 -0.50743,6.78519 -0.67382,8.35743 -0.51473,4.86356 0.9182,21.54977 2.24609,26.1582 3.36032,11.66193 9.62338,17.6322 20.20703,19.25977 5.49468,0.84495 15.30061,0.37817 19.69727,-0.9375 4.11831,-1.23242 8.33047,-4.29333 11.33789,-8.23633 2.69908,-3.53872 5.06086,-11.0926 5.13476,-16.41993 L 418.33398,127 H 407.66602 397 l -0.45703,4.61523 c -0.50568,5.11723 -1.91485,7.66016 -4.82227,8.69532 -2.40936,0.85783 -5.00789,-0.58995 -6.56445,-3.65821 -0.9528,-1.87817 -1.14319,-3.71517 -1,-9.65234 l 0.17773,-7.33398 17.59766,-0.17774 17.59766,-0.17773 -0.37891,-10.82227 c -0.31501,-8.965426 -0.68,-11.839958 -2.125,-16.755858 -4.21232,-14.330273 -13.06442,-19.903926 -29.98437,-18.88086 -13.35923,0.807761 -20.6664,6.525548 -24.7461,19.365235 L 360.77539,97 360.7207,84.833984 360.66602,72.666016 Z m 257.8457,0.103515 c -4.58957,0.01573 -9.13015,0.640563 -12.52344,1.910157 -7.50963,2.809719 -12.96211,9.825583 -15.51953,19.970703 -2.22202,8.814384 -2.24658,33.213404 -0.043,41.800774 3.06516,11.94328 9.84551,18.58094 20.54883,20.11328 8.97353,1.2847 17.42588,0.44858 23.0293,-2.27734 4.35281,-2.11752 9.06403,-7.29523 10.75781,-11.82227 1.47202,-3.93433 3.06941,-13.3998 2.50782,-14.86328 -0.30773,-0.80192 -2.18524,-0.93715 -10.88672,-0.78515 L 622.33398,127 l -0.17187,2 c -0.54359,6.32608 -1.01666,7.95806 -2.83399,9.77539 -2.02836,2.02835 -4.85641,2.46427 -6.72656,1.03711 -2.60809,-1.9903 -3.31874,-4.87338 -3.12304,-12.6543 l 0.1875,-7.49218 17.58984,-0.17774 17.58789,-0.17773 -0.37695,-10.1543 c -0.71956,-19.350289 -4.62226,-28.775965 -13.875,-33.511719 -3.73213,-1.910182 -9.71435,-2.895218 -15.61524,-2.875 z m -95.8164,0.648438 c 0.35517,-0.01864 0.74057,1.403945 1.13086,4.248047 0.66748,4.864206 4.9714,33.682719 5.35156,35.833989 l 0.32422,1.83398 h -6.70899 -6.70898 l 0.39062,-2.5 c 1.27971,-8.20915 5.07153,-33.734654 5.45899,-36.746094 0.22762,-1.76911 0.48547,-2.655428 0.76172,-2.669922 z M 254,74.666016 254.00977,107.5 c 0.008,24.86294 0.22495,33.74185 0.89257,36.57812 1.63763,6.95716 5.86019,11.1621 12.64844,12.59571 7.99614,1.6887 16.32939,-1.16048 20.25,-6.92383 l 2.13477,-3.13672 0.19922,4.19336 L 290.33398,155 H 302 313.66602 V 115 75 h -12 -12 l -0.33204,29.43164 c -0.31424,27.74571 -0.40623,29.50974 -1.60351,30.83203 -0.91762,1.01343 -2.07048,1.40235 -4.15235,1.40235 -2.39566,0 -3.07969,-0.30365 -4.0625,-1.80274 -1.07819,-1.64459 -1.19884,-4.36772 -1.375,-31 L 277.94727,74.666016 H 265.97266 Z M 95.546875,78.087891 c -1.793681,-0.0031 -3.444673,0.242321 -6.220703,0.734375 -13.230913,2.34518 -24.404221,10.596462 -30.332031,22.398434 l -1.660157,3.30664 v 24.625 c 0,13.54397 0.198915,24.82588 0.44336,25.07032 0.678832,0.67883 65.556636,0.53385 65.556636,-0.14649 0,-0.32449 -0.77111,-1.09385 -1.71289,-1.71094 -3.30472,-2.16533 -11.81629,-10.73525 -14.75781,-14.85742 -6.16277,-8.63634 -9.103594,-16.8285 -9.078124,-25.29883 0.01359,-4.51482 0.317006,-6.06969 1.757813,-9 3.988331,-8.111389 8.333271,-11.184141 15.791011,-11.171871 7.8098,0.01283 15.64883,3.832339 23.24414,11.324221 5.76446,5.68591 8.94554,11.74897 9.01954,17.19336 0.0638,4.69323 -1.11137,6.74277 -5.4375,9.48633 -5.35988,3.39913 -12.019,2.32199 -18.45508,-2.98829 -3.37585,-2.78533 -6.83997,-8.48803 -7.42969,-12.22851 -0.43392,-2.7522 -0.34037,-2.94871 2.96484,-6.25391 3.15782,-3.15783 3.59401,-3.38493 5.84571,-3.01953 1.33852,0.21721 3.62255,1.18191 5.07422,2.14258 l 2.63867,1.74609 -1.51563,1.61328 c -1.82613,1.94382 -2.16187,1.97069 -4.47656,0.34766 -2.63788,-1.84966 -5.40802,-2.34676 -5.90234,-1.05859 -0.70914,1.84799 1.89556,7.18989 5.03711,10.32812 3.7385,3.73454 8.23068,5.9961 11.90429,5.9961 2.57754,0 2.79898,-0.15095 3.39258,-2.30079 2.72832,-9.88116 -12.0207,-25.047418 -24.54297,-25.236324 -4.09451,-0.06177 -7.1852,1.262834 -8.39258,3.597654 -2.3789,4.60028 -0.22431,15.29077 4.60352,22.83789 8.29832,12.97236 24.34588,23.10157 36.59961,23.10157 6.75298,0 9.87467,-3.66387 10.36719,-12.17188 0.37021,-6.39516 -0.59433,-11.18011 -3.55078,-17.62305 C 147.01558,98.589157 125.04542,82.214602 102.62109,78.845703 99.275774,78.343122 97.340556,78.090976 95.546875,78.087891 Z M 390.40234,88.666016 c 2.30533,0 3.11596,0.360906 4.49024,1.99414 1.81628,2.15852 2.70739,6.756455 2.32617,12.005864 l -0.21875,3 -6.36719,0.18945 c -3.5015,0.10406 -6.5752,-0.0205 -6.83203,-0.27735 -0.85942,-0.85942 -0.47886,-9.376347 0.55078,-12.32812 1.27526,-3.655934 2.50024,-4.583984 6.05078,-4.583984 z m 225.20508,0 c 2.44681,0 3.22177,0.335786 4.61719,1.99414 1.81628,2.15852 2.70739,6.756455 2.32617,12.005864 l -0.2168,3 -6.36718,0.18945 c -3.5015,0.10406 -6.57716,-0.0205 -6.83399,-0.27735 -0.71818,-0.71817 -0.54492,-8.931491 0.24805,-11.787104 1.03504,-3.72738 2.73127,-5.125 6.22656,-5.125 z m 151.08985,42.634764 -11.18165,0.1836 -11.18164,0.18164 -0.18359,10.9746 c -0.10114,6.03596 -0.0344,11.36808 0.15039,11.84961 0.2624,0.68426 2.71162,0.83651 11.18555,0.69336 L 766.33398,155 766.51562,143.15039 Z M 545,172.66602 c -8.25,0 -15,0.23986 -15,0.5332 0,0.29333 0.27535,0.81964 0.61133,1.16797 1.20847,1.25292 6.75834,12.98466 10.11914,21.39062 3.40879,8.526 13.42303,36.23375 16.89453,46.74219 0.99932,3.025 2.01878,5.49996 2.26367,5.5 0.24488,3e-5 0.37115,-16.42497 0.28125,-36.5 -0.0899,-20.07504 -0.16401,-37.02435 -0.16601,-37.66602 -0.003,-1.07647 -1.16386,-1.16796 -15.00391,-1.16796 z m -41.15234,0.0996 c -1.9842,-0.004 -4.46511,0.0163 -7.58204,0.0547 L 481.66602,173 l -0.17188,38.16602 c -0.0947,20.99167 0.0828,38.16796 0.39453,38.16796 0.60335,0 0.74801,-0.35734 10.11719,-25 10.3356,-27.18448 13.27733,-34.69401 13.30273,-33.95898 0.0254,0.73475 -3.78275,13.21454 -5.98828,19.625 -2.75481,8.00697 -11.98589,37.90453 -11.96679,38.75781 0.0456,2.04552 0.98175,-0.34869 16.25781,-41.61719 2.4143,-6.52224 4.4125,-12.22162 4.4414,-12.66601 0.0337,-0.51739 0.15972,-0.54706 0.35157,-0.084 0.16478,0.39788 -1.22428,5.64722 -3.08789,11.66602 -1.86362,6.0188 -4.40262,14.24401 -5.64258,18.27734 -1.82708,5.94309 -5.37726,17.3772 -7.39844,23.83204 -0.20093,0.64167 -0.0357,1.16796 0.36719,1.16796 0.40288,0 0.85496,-0.37564 1.0039,-0.83398 0.28771,-0.88537 2.22389,-6.19015 9.31055,-25.5 7.02565,-19.14364 7.98045,-21.61916 8.23438,-21.36523 0.13185,0.13185 -0.0489,1.2427 -0.40039,2.46875 -0.65656,2.29004 -10.84227,35.85578 -12.51172,41.23046 -2.48585,8.00304 -0.0176,4.28578 6.42187,-9.66796 3.0458,-6.6 5.61052,-12.10053 5.69922,-12.22461 0.0887,-0.12408 0.61223,-0.12408 1.16211,0 0.78676,0.17754 0.006,2.63983 -3.66406,11.55859 -2.5651,6.23334 -4.93529,12.00898 -5.26563,12.83398 l -0.59961,1.5 h 18.98242 c 20.48957,0 19.82168,0.12624 18.36329,-3.46875 -0.34168,-0.84225 -1.87242,-5.58125 -3.40235,-10.53125 -3.78274,-12.23892 -11.26706,-34.27935 -14.26172,-42 -3.07977,-7.94009 -8.18339,-18.28054 -9.69922,-19.65234 -0.73646,-0.66644 -2.21537,-0.90381 -8.16796,-0.91602 z m 95.45507,17.9004 c -0.92581,0 -1.79467,1.76062 -4.28125,8.66796 -1.38598,3.85 -4.11577,11.34935 -6.06445,16.66602 -1.94869,5.31666 -5.07152,13.86667 -6.94141,19 -3.73436,10.25216 -5.71309,13 -9.35937,13 -1.32398,0 -1.99023,0.33451 -1.99023,1 0,0.83981 1.4517,1 9.05664,1 6.94798,0 8.99023,-0.19459 8.77734,-0.83398 -0.15261,-0.45833 -0.85174,-0.93209 -1.55469,-1.05469 -3.33049,-0.58086 -3.24687,-2.49237 0.58985,-13.44531 l 2.21875,-6.33204 8.37695,-0.1875 c 7.51126,-0.16676 8.42712,-0.0633 8.85156,1 3.71267,9.301 6.3551,17.2719 6.20508,18.7168 l -0.1875,1.80274 14.16602,0.17968 c 12.0291,0.15278 14.16796,0.0337 14.16796,-0.78906 0,-0.56148 -0.77164,-1.05745 -1.83398,-1.17969 -2.70751,-0.31153 -2.62948,-2.33666 0.44336,-11.45898 1.46663,-4.35397 2.76377,-8.01377 2.88086,-8.13086 0.11709,-0.1171 3.80331,-0.271 8.19336,-0.3418 L 659,227.81836 l 0.94727,1.91992 c 2.72865,5.52994 6.6714,17.22055 6.30273,18.68945 l -0.40039,1.59961 14.07617,-0.17968 c 8.7868,-0.11245 14.09124,-0.43151 14.11524,-0.84766 0.0211,-0.36667 -0.62753,-0.82398 -1.43946,-1.01562 -2.98336,-0.70429 -2.97553,-1.98147 0.0684,-10.91797 1.5836,-4.64984 3.1367,-8.61424 3.45117,-8.8086 0.31453,-0.19438 4.09158,-0.35537 8.39258,-0.35937 l 7.82031,-0.008 3.50196,9.20508 c 1.92593,5.06259 3.42463,9.96294 3.33203,10.88868 L 719,249.66602 l 7.83398,0.1875 c 6.6724,0.15998 7.83204,0.0378 7.83204,-0.83204 0,-0.58496 -0.58244,-1.02148 -1.36524,-1.02148 -4.01693,0 -6.67474,-3.34215 -10.20508,-12.83203 -2.40093,-6.45399 -10.15353,-26.56969 -13.875,-36.00195 -1.84446,-4.675 -3.58791,-8.5 -3.87304,-8.5 -1.22994,0 -1.65377,0.98337 -7.9375,18.33398 -8.51794,23.51962 -12.68973,34.48536 -13.70899,36.04102 -1.27547,1.94663 -3.83351,3.10656 -5.52929,2.50781 -3.24168,-1.14458 -4.93526,-4.18538 -10.5254,-18.88281 -1.32487,-3.48333 -3.57385,-9.33333 -4.99609,-13 -1.42225,-3.66666 -3.65524,-9.51666 -4.96289,-13 -3.38837,-9.02597 -4.93221,-12.13993 -5.86914,-11.83204 -0.44966,0.14777 -2.40072,4.59654 -4.33398,9.88477 -1.93327,5.28824 -4.06227,11.11394 -4.73243,12.94727 -0.67016,1.83334 -3.41647,9.39528 -6.10351,16.80468 -2.68702,7.40941 -5.53408,14.28593 -6.32617,15.2793 -2.19882,2.75759 -5.30337,2.50068 -8.03907,-0.66406 -2.2131,-2.56018 -3.22881,-4.92104 -11.9414,-27.75196 -9.75294,-25.55707 -10.21206,-26.66796 -11.03907,-26.66796 z m 156.35352,0.0859 c -0.55975,-0.0121 -1.10825,-0.008 -1.64648,0.0137 -9.32934,0.37076 -15.34375,5.7322 -15.34375,14.41016 0,6.8476 2.33349,10.23371 13.60156,19.75 7.66473,6.47319 9.69756,11.30424 7.05469,16.76367 -2.56213,5.29276 -9.08976,7.16677 -15.00196,4.30469 -3.02947,-1.46652 -4.3101,-3.31031 -4.92383,-7.08594 -0.22047,-1.35626 -0.7362,-2.57679 -1.14453,-2.71289 -0.94387,-0.31463 -1.58593,2.87349 -1.58593,7.87305 0,3.39897 0.20934,4.03727 1.625,4.96484 0.89367,0.58556 3.06931,1.32457 4.83398,1.64063 3.64587,0.65298 9.35041,0.30108 13.04688,-0.80469 9.42804,-2.82035 13.54764,-15.6217 7.87304,-24.46484 -1.3732,-2.13989 -5.0279,-5.84184 -9.31836,-9.4375 -8.2886,-6.94628 -10.06054,-9.26929 -10.06054,-13.19727 0,-5.13505 3.3473,-8.10356 9.13476,-8.10156 4.75954,0.002 7.61705,1.70498 8.94531,5.33203 0.60427,1.65 1.35819,3 1.67579,3 0.31758,0 0.66373,-2.4391 0.76953,-5.41992 l 0.19336,-5.41992 -4.41993,-0.83399 c -1.85475,-0.34996 -3.62933,-0.53796 -5.30859,-0.57422 z m -240.49414,13.19532 c 0.0191,-0.0178 0.0328,-0.0183 0.0391,0 0.21304,0.62734 -0.88228,4.9547 -3.47265,13.71875 -1.03764,3.51064 -1.94402,5.40694 -2.65235,5.54882 -0.59185,0.11856 -1.08094,-0.0301 -1.08594,-0.33203 -0.0183,-1.02607 6.57857,-18.38454 7.17188,-18.93554 z m 188.63281,0.29101 c 0.37147,0.37146 6.8711,18.50336 6.8711,19.16797 0,0.32646 -3.02131,0.59375 -6.71485,0.59375 -5.043,0 -6.66186,-0.2082 -6.5,-0.83398 0.85454,-3.30379 6.15448,-19.11703 6.34375,-18.92774 z m -53.13867,0.36133 c 0.51638,0.0174 1.42084,2.31243 4.07422,10.05078 L 657.93555,224 h -6.63477 c -4.50152,0 -6.63476,-0.24288 -6.63476,-0.75586 0,-0.7553 5.38875,-17.99589 5.78906,-18.52148 0.0619,-0.0813 0.1274,-0.12553 0.20117,-0.12305 z m -52.72266,0.0664 c 0.40333,0 6.76914,17.77752 6.74414,18.83398 -0.007,0.275 -3.0441,0.5 -6.75,0.5 -5.11491,0 -6.66041,-0.20138 -6.41992,-0.83398 0.17425,-0.45833 1.59516,-4.80769 3.15821,-9.66602 1.56306,-4.85834 3.03354,-8.83398 3.26757,-8.83398 z"
       inkscape:connector-curvature="0" />
  </g>
</svg>
