<?xml version="1.0" encoding="UTF-8" standalone="no"?>
<!-- Created with Inkscape (http://www.inkscape.org/) by Marsupilami -->
<svg
   xmlns:svg="http://www.w3.org/2000/svg"
   xmlns="http://www.w3.org/2000/svg"
   version="1.0"
   width="1024"
   height="240"
   viewBox="0 0 157.53763 36.92625"
   id="svg2310">
  <defs
     id="defs2312" />
  <g
     transform="translate(58.91167,6.7488393)"
     id="layer1">
    <path
       d="M 141.15625,1.09375 L 132.3125,2.28125 L 132.3125,9.25 L 127.6875,9.25 L 127.6875,15.5 L 132.34375,15.53125 L 132.34375,27.84375 C 132.34375,30.355625 132.53626,31.408749 133.21875,32.78125 C 134.43125,35.195875 137.13863,36.593749 140.65625,36.59375 C 142.34462,36.59375 144.25975,36.283001 146,35.78125 L 149.09375,34.9375 L 147.40625,28.34375 L 144.375,28.96875 C 143.46313,29.16575 142.87963,29.25 142.21875,29.25 C 141.3,29.25 141.19063,28.846499 141.15625,26.90625 L 141.15625,15.53125 L 146.90625,15.5 L 146.90625,9.25 L 141.15625,9.25 L 141.15625,1.09375 z M 61.75,1.125 L 52.90625,2.28125 L 52.90625,9.28125 L 48.25,9.28125 L 48.25,15.53125 L 52.9375,15.53125 L 52.9375,27.84375 C 52.9375,30.357125 53.131501,31.440001 53.8125,32.8125 C 55.025125,35.225625 57.732625,36.59375 61.25,36.59375 C 62.93825,36.59375 64.853498,36.314625 66.59375,35.8125 L 69.65625,34.96875 L 67.96875,28.34375 L 64.96875,29 C 64.05875,29.198625 63.474002,29.25 62.8125,29.25 C 61.894125,29.25 61.752501,28.8775 61.71875,26.9375 L 61.71875,15.53125 L 67.46875,15.53125 L 67.46875,9.28125 L 61.75,9.28125 L 61.75,1.125 z M 80.15625,7.65625 L 71.9375,10.5 C 71.9375,10.5 72.089248,10.88525 72.25,11.25 C 72.41025,11.61625 72.593752,12.15625 72.59375,12.15625 C 73.300625,13.70875 73.624999,15.147875 73.625,17.1875 L 73.625,35.78125 L 82.34375,35.78125 L 82.34375,16.875 C 83.86575,15.6925 84.895751,15.28125 86.1875,15.28125 C 87.35575,15.28125 88.406247,15.5215 88.40625,18.59375 L 88.40625,35.78125 L 97.15625,35.78125 L 97.15625,17.1875 C 97.15625,11.262625 94.554122,8.40625 89.1875,8.40625 C 86.313875,8.40625 84.002252,9.1076246 81.53125,10.875 L 81.46875,10.9375 L 80.15625,7.65625 z M 33.9375,7.90625 L 25.84375,10.5625 C 25.84375,10.5625 26.133875,11.2315 26.34375,11.71875 C 26.552375,12.206125 26.905,12.96725 26.90625,12.96875 C 27.776376,14.819125 28.03125,16.415875 28.03125,18.8125 L 28.03125,35.8125 L 36.75,35.8125 L 36.78125,17.6875 C 38.088498,16.406 39.088125,15.84375 39.9375,15.84375 C 40.4125,15.84375 41.06125,15.933375 41.75,16.15625 C 42.437875,16.379874 43.28125,16.65625 43.28125,16.65625 L 46.125,9.625 L 44.53125,8.9375 C 43.839499,8.6623753 42.848875,8.426375 41.65625,8.40625 C 39.180751,8.3640004 37.4265,9.214625 35.28125,11.40625 L 33.9375,7.90625 z M 12.28125,8.40625 C 9.5865003,8.4062496 6.91825,8.779625 4.96875,9.4375 C 3.3712501,9.9763753 2.09375,10.6875 2.09375,10.6875 L 4.46875,16.75 L 6.4375,15.90625 C 8.6964998,15.164625 10.22775,15.09375 11.75,15.09375 C 13.87275,15.09375 14.2465,15.6965 14.3125,17.84375 L 14.25,18.71875 C 10.011,18.792625 7.649125,19.19075 5.125,20.25 C 1.72225,21.676874 0,24.289125 0,28.0625 C 0,33.173125 3.571625,36.5 9.09375,36.5 C 11.599125,36.5 13.5395,35.87575 15.46875,34.40625 L 15.5625,34.3125 L 16.71875,36.9375 L 24.1875,34.125 L 23.625,32.78125 C 22.69125,30.799 22.5,29.57925 22.5,27.5625 L 22.6875,17.34375 C 22.6875,15.803499 22.628375,14.895 22.3125,13.84375 C 21.238125,10.34975 17.550875,8.40625 12.28125,8.40625 z M 113.40625,8.40625 C 105.772,8.40625 100.65625,14.164125 100.65625,22.75 C 100.65625,31.702875 105.27625,36.625002 113.6875,36.625 C 116.16725,36.625 118.4375,36.247876 120.78125,35.4375 C 120.78125,35.4375 122.52863,34.815876 123,34.625 C 123.46863,34.435875 125.03125,33.750001 125.03125,33.75 L 122.1875,27.5625 L 120.15625,28.34375 C 118.17063,29.092625 115.99313,29.718751 114.375,29.71875 C 111.27612,29.71875 109.74287,28.358374 109.40625,25.25 L 109.375,25.09375 L 125.125,25.09375 L 125.125,22.9375 C 125.125,13.276 121.17513,8.40625 113.40625,8.40625 z M 113.09375,14.6875 C 114.589,14.6875 115.74663,15.011 116,18.75 L 109.5625,18.75 C 110.12725,15.36575 111.2865,14.6875 113.09375,14.6875 z M 14.34375,24.5625 L 14.125,28.84375 C 13.120875,29.8105 12.07775,30.3125 10.9375,30.3125 C 9.4927504,30.3125 8.40625,29.194375 8.40625,27.71875 C 8.4062498,26.119875 9.3255,24.634875 14.34375,24.5625 z "
       transform="translate(-58.91167,-6.7488393)"
       style="fill:#ff5909;fill-opacity:1;fill-rule:nonzero;stroke:none"
       id="path16928" />
    <path
       d="M 93.66058,-2.8908393 L 94.41458,-2.8908393 C 95.068205,-2.8908393 95.700205,-2.9253393 95.700205,-3.7000893 C 95.700205,-4.3658393 95.12408,-4.4433393 94.62383,-4.4433393 L 93.66058,-4.4433393 L 93.66058,-2.8908393 z M 92.93108,-5.0409643 L 94.747205,-5.0409643 C 95.88783,-5.0409643 96.43133,-4.5879643 96.43133,-3.6670893 C 96.43133,-2.7920893 95.876455,-2.4265893 95.15708,-2.3492143 L 96.541455,-0.22058929 L 95.756455,-0.22058929 L 94.44733,-2.2932143 L 93.66058,-2.2932143 L 93.66058,-0.22058929 L 92.93108,-0.22058929 L 92.93108,-5.0409643 z M 94.503455,0.89816071 C 96.38658,0.89816071 97.89483,-0.63196429 97.89483,-2.6258393 C 97.89483,-4.6202143 96.38658,-6.1495893 94.503455,-6.1495893 C 92.608205,-6.1495893 91.11208,-4.6202143 91.11208,-2.6258393 C 91.11208,-0.63196429 92.608205,0.89816071 94.503455,0.89816071 z M 94.503455,-6.7488393 C 96.74233,-6.7488393 98.625955,-4.9757143 98.625955,-2.6258393 C 98.625955,-0.27646429 96.74233,1.4966607 94.503455,1.4966607 C 92.25308,1.4966607 90.38133,-0.27646429 90.38133,-2.6258393 C 90.38133,-4.9757143 92.25308,-6.7488393 94.503455,-6.7488393"
       style="fill:#231f20;fill-opacity:1;fill-rule:nonzero;stroke:none"
       id="path16940" />
  </g>
</svg>
