<?xml version="1.0" encoding="UTF-8" standalone="no"?>
<!-- Created with Inkscape (http://www.inkscape.org/) -->

<svg
   xmlns:dc="http://purl.org/dc/elements/1.1/"
   xmlns:cc="http://creativecommons.org/ns#"
   xmlns:rdf="http://www.w3.org/1999/02/22-rdf-syntax-ns#"
   xmlns:svg="http://www.w3.org/2000/svg"
   xmlns="http://www.w3.org/2000/svg"
   xmlns:sodipodi="http://sodipodi.sourceforge.net/DTD/sodipodi-0.dtd"
   xmlns:inkscape="http://www.inkscape.org/namespaces/inkscape"
   version="1.1"
   id="svg2"
   width="942.43011"
   height="181.32582"
   viewBox="0 0 942.43014 181.32582"
   sodipodi:docname="big-think-big-think-png-3230_733.svg"
   inkscape:version="0.92.4 (5da689c313, 2019-01-14)">
  <metadata
     id="metadata8">
    <rdf:RDF>
      <cc:Work
         rdf:about="">
        <dc:format>image/svg+xml</dc:format>
        <dc:type
           rdf:resource="http://purl.org/dc/dcmitype/StillImage" />
        <dc:title></dc:title>
      </cc:Work>
    </rdf:RDF>
  </metadata>
  <defs
     id="defs6" />
  <sodipodi:namedview
     pagecolor="#ffffff"
     bordercolor="#666666"
     borderopacity="1"
     objecttolerance="10"
     gridtolerance="10"
     guidetolerance="10"
     inkscape:pageopacity="0"
     inkscape:pageshadow="2"
     inkscape:window-width="3440"
     inkscape:window-height="1346"
     id="namedview4"
     showgrid="false"
     inkscape:zoom="0.70710678"
     inkscape:cx="1660.3948"
     inkscape:cy="55.508245"
     inkscape:window-x="-11"
     inkscape:window-y="-11"
     inkscape:window-maximized="1"
     inkscape:current-layer="layer2" />
  <g
     inkscape:groupmode="layer"
     id="layer1"
     inkscape:label="Layer 2"
     style="display:inline"
     transform="translate(-81.632812,-25.430329)">
    <path
       style="opacity:1;fill:#e46030;fill-opacity:1;stroke:none;stroke-width:25.86571884;stroke-miterlimit:4;stroke-dasharray:none;stroke-opacity:1"
       d="M 999.81616,107.591 V 69.132779 l -9.74615,-9.7185 -9.74615,-9.71851 -37.37494,-0.22584 -37.37494,-0.22585 10.90162,-11.90687 10.90162,-11.90688 h 48.34283 48.34285 v 48.980898 48.980893 l -7.1441,6.69092 c -3.9293,3.68001 -9.3848,8.77786 -12.1234,11.32856 l -4.97924,4.63762 z"
       id="path826"
       inkscape:connector-curvature="0" />
  </g>
  <g
     inkscape:groupmode="layer"
     id="layer2"
     inkscape:label="Layer 1"
     style="display:inline"
     transform="translate(-81.632812,-25.430329)">
    <path
       id="path817"
       style="fill:#ffffff;fill-opacity:1;stroke-width:0.31999999"
       d="m 315.92578,74.710938 c -9.25002,0.05775 -18.47605,1.817204 -26.92187,5.310546 -19.76373,8.174637 -33.74447,25.920966 -37.5586,47.673826 -1.00176,5.71326 -1.17383,7.62171 -1.17383,13.1211 0,3.07348 0.15052,6.63479 0.33399,7.91406 0.52208,3.64012 1.26705,7.97666 1.58008,9.20508 0.62717,2.46117 2.36008,7.85877 2.61523,8.14453 0.14929,0.1672 0.27149,0.50697 0.27149,0.75586 0,0.82424 4.10748,8.81381 5.95117,11.57617 7.9098,11.85109 19.31774,20.4199 33.4082,25.09375 4.04714,1.34244 11.40807,2.82486 15.83984,3.18945 0.88,0.0724 4.55215,0.0818 8.16016,0.0195 6.81643,-0.11776 11.11424,-0.65837 16.48047,-2.07031 13.27413,-3.49262 24.99217,-11.23615 33.18164,-21.92969 4.55341,-5.94572 8.85892,-14.42477 10.95898,-21.57812 0.2842,-0.968 0.642,-2.1927 0.79493,-2.7207 0.26409,-0.91165 0.83641,-3.58866 1.61718,-7.5586 0.32682,-1.66173 0.67166,-5.08533 1.17969,-11.7207 l 0.20313,-2.64063 h -34.44727 -34.44727 v 10.84571 c 0,9.73039 0.0535,10.86531 0.52149,11.04492 0.28691,0.11014 7.16221,0.19645 15.2793,0.18945 8.1171,-0.007 14.86367,-0.009 14.99218,-0.006 0.12851,0.003 -0.14272,0.68939 -0.60351,1.52539 -3.70305,6.71831 -10.2801,11.28967 -19.31055,13.42188 -3.4974,0.8258 -12.66287,0.79934 -16,-0.0449 -6.75428,-1.709 -11.94364,-4.94832 -16.01172,-9.99805 -2.16076,-2.68216 -4.72765,-7.62852 -5.61523,-10.81836 -3.87341,-13.92043 -0.64716,-28.8272 8.02148,-37.06055 4.37245,-4.15288 8.97662,-6.46186 15.47461,-7.75781 3.66657,-0.73126 10.68812,-0.50697 14.29102,0.45508 8.64945,2.30959 15.66042,7.60638 19.21484,14.51758 l 0.94336,1.83398 17.88281,0.0859 c 14.71459,0.0701 17.9095,0.009 18.04492,-0.34375 0.22391,-0.58376 -0.68664,-4.30795 -2.04687,-8.3711 C 374.4469,102.3225 363.7448,90.046906 350.11133,82.845703 339.75034,77.373017 327.81865,74.636689 315.92578,74.710938 Z M 81.632812,77.912109 v 62.906251 62.90625 l 32.240238,-0.11328 c 31.68396,-0.11074 32.29046,-0.12494 35.1914,-0.80274 8.69382,-2.03129 14.96624,-5.36122 20.60938,-10.94336 3.89171,-3.84964 6.22875,-7.43384 8.04101,-12.33007 1.44482,-3.9035 1.83789,-6.43491 1.83789,-11.85547 0,-4.98159 -0.18157,-6.28182 -1.49414,-10.70313 -1.18793,-4.00148 -4.01077,-8.84225 -7.17187,-12.29883 -1.93567,-2.1166 -6.01709,-5.26815 -8.35938,-6.45507 -0.84449,-0.42794 -1.53421,-0.88269 -1.5332,-1.01172 0.001,-0.12904 0.55887,-0.55157 1.23828,-0.93946 0.67942,-0.38789 2.39739,-1.79997 3.81836,-3.13671 6.5349,-6.14756 9.85359,-13.16647 10.21094,-21.59961 0.23664,-5.58466 -0.53378,-9.55717 -2.75977,-14.240238 -1.5212,-3.20031 -4.44655,-7.15888 -6.92968,-9.378906 -4.25758,-3.806448 -9.90016,-6.803255 -15.82032,-8.400391 -5.20068,-1.403035 -4.06852,-1.35672 -37.35937,-1.482422 z m 536.644528,0.01758 -0.082,22.642581 -0.084,22.64257 H 599.71289 581.3125 l -0.082,-22.63867 -0.082,-22.640622 H 563.711 546.27154 v 62.666012 c 0,34.46666 0.0975,62.76352 0.21485,62.88086 0.11732,0.11733 7.96477,0.21289 17.43945,0.21289 H 581.1524 V 179.53516 155.375 h 18.56055 18.55859 v 24.16406 24.16211 l 17.52149,-0.082 17.51953,-0.084 V 140.81641 78.095703 l -17.51758,-0.08203 z m 253.43555,0 v 62.886721 62.88476 l 17.19922,-0.082 17.19922,-0.084 0.16015,-27.27735 0.16016,-27.27929 2.02539,3.11914 c 2.42743,3.73917 5.03006,7.77095 8.69531,13.47265 1.496,2.32719 3.34685,5.19824 4.11328,6.37891 0.7664,1.18068 3.0548,4.73825 5.08594,7.90625 2.03113,3.168 4.72172,7.34525 5.97852,9.28125 1.25683,1.936 3.11883,4.81443 4.13867,6.39844 1.01987,1.584 2.60001,4.0334 3.50977,5.4414 l 1.65429,2.5586 20.43555,0.084 c 16.30838,0.0657 20.4034,8.1e-4 20.2793,-0.32031 -0.1712,-0.44296 -4.20102,-6.45416 -23.4375,-34.96289 -2.25639,-3.344 -7.06162,-10.47185 -10.67774,-15.83985 -3.6161,-5.368 -7.12001,-10.57035 -7.78711,-11.56054 -0.66711,-0.99019 -1.21289,-1.93842 -1.21289,-2.10743 0,-0.169 1.13088,-2.02235 2.51367,-4.11914 2.84614,-4.31572 8.34983,-12.70157 13.00391,-19.8125 1.72784,-2.64 4.89612,-7.4647 7.03906,-10.7207 6.39168,-9.71148 9.79699,-14.897205 13.55664,-20.640623 l 3.56055,-5.439453 -19.75586,-0.08203 c -10.8665,-0.04564 -19.91667,-0.02286 -20.10937,0.05078 -0.25731,0.09831 -20.07852,31.687886 -22.36914,35.650386 -0.17602,0.30446 -0.62093,0.98347 -0.98829,1.50782 -0.36736,0.52434 -0.76421,1.16959 -0.88281,1.43359 -0.11856,0.264 -0.46543,0.86259 -0.77148,1.33008 -0.30608,0.46749 -2.14017,3.38436 -4.07618,6.48242 l -3.52148,5.63281 -0.16016,-26.0039 -0.16015,-26.001956 -17.19922,-0.08203 z m -673.91992,0.0059 v 62.882811 62.88281 l 17.35937,-0.082 17.35938,-0.084 0.082,-62.79883 0.0801,-62.800781 h -17.44141 z m 230.71289,0 0.084,15.599609 0.082,15.601562 16.96093,0.1582 16.95899,0.16016 0.082,47.12304 0.0801,47.12305 17.19921,-0.082 17.19922,-0.084 0.0801,-47.11914 0.082,-47.1211 h 16.79883 16.79883 V 93.615234 77.935547 h -51.20313 z m 248.64648,0 v 62.880861 62.8789 h 17.43946 17.4414 v -62.8789 -62.880861 h -17.4414 z m 58.88086,0 v 62.882811 62.88281 l 16.71875,-0.082 16.72071,-0.084 0.16015,-33.75977 0.16016,-33.75977 0.7832,1.1211 c 0.43152,0.616 0.86444,1.1913 0.96094,1.2793 0.0965,0.088 0.67344,0.87976 1.2832,1.75976 0.60973,0.88 1.25914,1.77098 1.44141,1.98047 0.18224,0.20948 0.66142,0.85889 1.0664,1.44141 0.72314,1.04014 4.93743,6.83141 5.42774,7.45898 0.1375,0.176 6.93685,9.53483 15.10937,20.79883 8.17251,11.264 16.71436,23.03823 18.98243,26.16406 l 4.12304,5.68359 14.29102,-0.084 14.29101,-0.084 0.0801,-62.79883 0.0801,-62.800781 H 830.9141 814.11527 l -0.082,32.720701 -0.0801,32.71875 -6.85351,-9.43945 c -3.76944,-5.192 -9.45807,-13.0053 -12.64063,-17.36328 -3.1826,-4.35796 -6.29025,-8.62198 -6.90625,-9.47657 -0.616,-0.85459 -5.63635,-7.765973 -11.15625,-15.357417 L 766.35938,77.935547 H 751.19531 Z M 126.37891,104.87305 c 3.2544,0.0174 6.18041,0.11256 7.22461,0.25 4.4684,0.58814 7.35166,2.50292 8.99218,5.9707 0.67655,1.4301 0.79688,2.14496 0.79688,4.76172 0,2.64066 -0.11722,3.32628 -0.82031,4.8125 -1.57977,3.33937 -4.27582,5.21588 -8.46094,5.88867 -3.12121,0.50179 -18.85597,0.45028 -19.05274,-0.0625 -0.0849,-0.22133 -0.11682,-5.15427 -0.0703,-10.96094 l 0.084,-10.55664 8,-0.0937 c 1.1,-0.0128 2.22184,-0.0146 3.30664,-0.01 z m -11.4668,47.57812 11.12109,0.10156 11.11914,0.10352 2.08008,1.01953 c 3.53525,1.7346 5.46149,4.25074 6.11133,7.98242 0.99248,5.69923 -1.9448,10.89086 -7.23242,12.78711 -1.38383,0.49627 -3.0249,0.58978 -12.15821,0.69922 -5.80799,0.0696 -10.66878,0.0194 -10.80078,-0.11328 -0.132,-0.13268 -0.24023,-5.26729 -0.24023,-11.41016 z"
       inkscape:connector-curvature="0" />
  </g>
</svg>
