<?xml version="1.0" encoding="UTF-8" standalone="no"?>
<svg
   xmlns:dc="http://purl.org/dc/elements/1.1/"
   xmlns:cc="http://creativecommons.org/ns#"
   xmlns:rdf="http://www.w3.org/1999/02/22-rdf-syntax-ns#"
   xmlns:svg="http://www.w3.org/2000/svg"
   xmlns="http://www.w3.org/2000/svg"
   xmlns:sodipodi="http://sodipodi.sourceforge.net/DTD/sodipodi-0.dtd"
   xmlns:inkscape="http://www.inkscape.org/namespaces/inkscape"
   width="2279.3916"
   height="371.52081"
   viewBox="0 0 175.74656 28.645146"
   version="1.1"
   id="svg34"
   sodipodi:docname="daily-mail.svg"
   inkscape:version="0.92.4 (5da689c313, 2019-01-14)">
  <metadata
     id="metadata40">
    <rdf:RDF>
      <cc:Work
         rdf:about="">
        <dc:format>image/svg+xml</dc:format>
        <dc:type
           rdf:resource="http://purl.org/dc/dcmitype/StillImage" />
        <dc:title></dc:title>
      </cc:Work>
    </rdf:RDF>
  </metadata>
  <defs
     id="defs38" />
  <sodipodi:namedview
     pagecolor="#ffffff"
     bordercolor="#666666"
     borderopacity="1"
     objecttolerance="10"
     gridtolerance="10"
     guidetolerance="10"
     inkscape:pageopacity="0"
     inkscape:pageshadow="2"
     inkscape:window-width="3440"
     inkscape:window-height="1346"
     id="namedview36"
     showgrid="false"
     inkscape:zoom="0.7552"
     inkscape:cx="1318.7533"
     inkscape:cy="53.59576"
     inkscape:window-x="-11"
     inkscape:window-y="-11"
     inkscape:window-maximized="1"
     inkscape:current-layer="svg34"
     inkscape:pagecheckerboard="true" />
  <path
     style="clip-rule:evenodd;fill-rule:evenodd;fill:#ffffff;fill-opacity:0.95736432"
     inkscape:connector-curvature="0"
     id="path4"
     d="m 89.091686,15.912487 0.391,0.293 c -0.049,-0.439 0.025,-1.174 0.025,-1.174 -0.295,0.195 -0.367,0.562 -0.367,0.562 l -0.416,0.049 z m 16.027004,3.179 c -0.049,-0.098 -0.123,-0.17 -0.246,-0.17 -0.121,0 -0.244,0.121 -0.244,0.293 0,0.172 0.123,0.293 0.244,0.293 0.146,0 0.27,-0.121 0.27,-0.293 -0.001,-0.048 -0.024,-0.074 -0.024,-0.123 z m -0.01,-1.148 c 0.006,0.021 0.01,0.047 0.01,0.072 a 0.301,0.301 0 0 1 -0.197,0.277 v 0.361 a 0.491,0.491 0 0 1 0.344,0.193 0.611,0.611 0 0 1 0.121,0.367 c 0,0.264 -0.15,0.477 -0.369,0.543 0.604,-0.047 0.982,-0.102 0.982,-0.102 -0.588,-0.123 -0.246,-0.465 -0.246,-0.465 0.27,-0.221 0.783,-0.393 0.783,-0.393 -0.611,-0.074 -0.953,-0.562 -1.102,-0.855 h -0.326 z m -0.308,1.828 c -0.234,-0.039 -0.416,-0.268 -0.416,-0.557 0,-0.277 0.168,-0.5 0.391,-0.551 v -0.359 a 0.321,0.321 0 0 1 -0.268,-0.266 l -0.002,0.002 c -0.244,0.072 -0.465,0.072 -0.465,0.072 -0.049,0.123 0.049,0.172 0.049,0.172 0.514,0.367 0.172,0.709 0.172,0.709 -0.244,0.221 -0.367,0.221 -0.367,0.221 -0.244,0.074 -0.832,0.588 -0.832,0.588 0.654,0.02 1.253,0 1.738,-0.031 z m -6.705004,-2.269 a 0.212,0.212 0 0 0 0.123,-0.039 l 0.488,0.211 c 0,0.146 0.098,0.27 0.221,0.27 0.076,0 0.143,-0.049 0.182,-0.119 l 0.414,0.061 c 0.027,0.123 0.111,0.205 0.211,0.205 0.113,0 0.227,-0.104 0.242,-0.254 l 0.346004,-0.164 c 0.041,0.061 0.102,0.1 0.172,0.1 0.121,0 0.244,-0.123 0.244,-0.27 l 0.221,-0.365 a 6.409,6.409 0 0 0 1.248,-0.025 c 0.66,-0.344 1.199,-0.539 1.199,-0.539 -0.197,0.146 -0.393,0.27 -0.516,0.416 a 3.721,3.721 0 0 0 -0.342,0.391 0.655,0.655 0 0 0 -0.27,0.564 0.944,0.944 0 0 0 0.146,0.391 c 0.123,0.146 0.295,0.221 0.295,0.221 l 0.27,0.244 c -0.221,0.172 -0.711,0.293 -0.711,0.293 -0.27,0.1 -0.635,-0.072 -0.635,-0.072 -0.857,-0.195 -1.15,0.195 -1.15,0.195 -0.172,0.195 -0.49,0.221 -0.49,0.221 l 0.146,0.221 c -0.318004,0.098 -0.488004,-0.025 -0.488004,-0.025 -0.025,-0.416 0.195,-0.832 0.195,-0.832 -0.098,-0.66 -1.469,-0.539 -1.469,-0.539 l -0.341,-0.32 -0.074,-0.074 -0.783,-0.734 c 0,0.221 -0.098,0.539 -0.219,0.809 -0.098,0.219 -0.221,0.416 -0.221,0.416 l -0.293,-0.148 a 0.843,0.843 0 0 0 0.121,-0.268 c 0.244,-0.588 0.416,-1.42 0.416,-1.42 0.146,0 0.27,0.025 0.367,0.049 0.074,0.049 0.123,0.074 0.123,0.074 0.057,0.027 0.119,0.053 0.186,0.08 l 0.27,0.383 a 0.3,0.3 0 0 0 -0.039,0.148 c -10e-4,0.146 0.072,0.244 0.195,0.244 z m 2.732004,-0.381 -0.143,0.203 a 0.233,0.233 0 0 0 -0.191,-0.115 c -0.123,0 -0.221,0.121 -0.221,0.293 0,0.023 0.002,0.047 0.008,0.068 l -0.312004,0.146 c -0.033,-0.115 -0.133,-0.215 -0.234,-0.215 -0.121,0 -0.219,0.146 -0.219,0.293 l -0.373,-0.064 a 0.276,0.276 0 0 0 0.006,-0.057 c 0,-0.146 -0.1,-0.295 -0.221,-0.295 -0.092,0 -0.168,0.082 -0.201,0.184 l -0.432,-0.195 a 0.265,0.265 0 0 0 0.021,-0.109 c 0,-0.123 -0.098,-0.244 -0.221,-0.244 a 0.137,0.137 0 0 0 -0.057,0.01 l -0.115,-0.207 h -0.002 c 0.623,0.203 1.396,0.344 1.396,0.344 h 0.539 l 0.172004,-0.27 c 0.222,0.124 0.509,0.195 0.8,0.23 z m -2.900004,-4.178 c 0.02,0.025 0.039,0.048 0.059,0.069 l -0.031,0.055 a 0.109,0.109 0 0 0 -0.055,-0.018 c -0.098,0 -0.172,0.098 -0.172,0.196 l -0.023,-0.024 -0.197,-0.221 -0.072,-0.073 -0.441,-0.465 c -0.514,-0.685 -1.297,0 -1.297,0 l -0.121,-0.098 c 0.414,-0.245 0.049,-0.563 0.049,-0.563 l 0.807,-2.0799998 -0.221,-0.269 c 0.393,-0.808 -0.439,-0.832 -0.439,-0.832 -0.246,-0.734 -0.686,-0.391 -0.686,-0.391 -0.146,-0.71 -0.686,-0.343 -0.686,-0.343 -0.195,-0.489 -0.66,-0.196 -0.66,-0.196 l 0.023,-1.15 -0.537,0.024 -0.588,-0.024 0.049,1.174 c -0.586,-0.293 -0.686,0.294 -0.686,0.294 -0.684,-0.392 -0.684,0.367 -0.684,0.367 -0.564,-0.172 -0.539,0.367 -0.539,0.367 -0.758,0.073 -0.66,0.734 -0.66,0.734 l 0.586,2.0059998 c -0.146,0.367 -1.883,2.496 -1.883,2.496 l -0.735,-0.22 -0.049,-0.122 c 0.171,0.098 0.294,0.049 0.294,0.049 -0.073,-0.245 0.024,-0.734 0.024,-0.734 0.221,-0.954 -0.171,-1.297 -0.171,-1.297 0.024,-0.392 -0.245,-0.856 -0.245,-0.856 0.367,-0.465 -0.171,-0.9299998 -0.171,-0.9299998 l -0.074,-0.123 -0.024,-1.003 c -0.098,0 -0.147,-0.123 -0.147,-0.123 -0.147,-0.416 -0.416,-0.146 -0.416,-0.146 -0.196,-0.44 -0.514,-0.098 -0.514,-0.098 -0.27,-0.367 -0.539,0 -0.539,0 l -0.22,-0.71 -0.734,0.293 0.245,0.783 c -0.539,-0.123 -0.367,0.416 -0.367,0.416 -0.465,0.024 -0.245,0.44 -0.245,0.44 -0.44,0.049 -0.269,0.5389998 -0.269,0.5389998 l 0.489,0.807 c -0.392,0.44 -0.024,0.734 -0.024,0.734 0.123,0.221 0.27,0.221 0.27,0.221 -0.221,0.661 0.073,1.346 0.073,1.346 -0.318,0.367 -0.783,0.66 -1.199,0.88 -0.611,0.294 -1.15,0.441 -1.15,0.441 -0.955,0.221 -2.838,0.832 -2.838,0.832 -0.661,0.17 -1.713,0.488 -1.713,0.488 -1.321,0.393 -1.664,-0.023 -1.664,-0.023 -0.318,-0.197 -0.073,-0.711 -0.073,-0.711 0.318,-0.636 0.979,-0.783 0.979,-0.783 0.465,0.295 0.636,0.465 0.636,0.465 0.293,0.295 0.808,0.27 0.808,0.27 l 0.024,-0.098 c 0.22,0.025 0.367,-0.049 0.367,-0.049 -0.147,-0.146 -0.147,-0.318 -0.147,-0.318 0,-0.122 -0.171,-0.317 -0.171,-0.317 l 3.401,-0.147 c 0.123,-0.023 0.22,-0.023 0.318,-0.049 1.174,-0.22 1.444,-0.489 1.444,-0.489 0.807,-0.637 0.465,-1.689 0.465,-1.689 -0.441,-1.027 -1.297,-1.077 -1.297,-1.077 -0.661,-0.171 -1.15,-0.073 -1.15,-0.073 -0.367,0.025 -1.125,-0.171 -1.125,-0.171 -0.025,0.146 0.293,0.611 0.293,0.611 a 0.826,0.826 0 0 1 -0.611,-0.195 c -0.392,-0.367 -1.028,-0.196 -1.028,-0.196 0.098,0.196 0.686,0.686 0.686,0.686 -0.343,0.024 -1.272,-0.367 -1.272,-0.367 0.171,0.808 1.101,1.37 1.101,1.37 1.101,0.465 2.055,-0.024 2.055,-0.024 0.465,-0.293 0.93,-0.465 0.93,-0.465 a 0.532,0.532 0 0 1 0.734,0.343 c -0.049,0.832 -0.661,0.856 -0.661,0.856 -1.762,0.367 -4.111,0.122 -4.111,0.122 0.171,-0.22 0.196,-0.783 0.196,-0.783 l -0.196,0.049 c -1.027,-0.098 -1.297,0.123 -1.297,0.123 -0.367,0.22 -0.538,0.685 -0.538,0.685 -0.465,0.196 -0.832,0.44 -1.102,0.685 -0.685,0.662 -0.758,1.395 -0.758,1.395 -0.049,0.881 0.44,1.004 0.44,1.004 -0.44,0.855 0.22,1.174 0.22,1.174 0.294,-0.219 0.416,-0.465 0.416,-0.465 0.587,-0.439 2.3,-0.807 2.3,-0.807 -0.343,0.27 -0.539,1.076 -0.539,1.076 -0.293,0.098 -0.783,-0.074 -0.783,-0.074 -0.269,-0.023 -0.269,0.197 -0.269,0.197 l -0.123,0.293 -0.171,0.539 c -1.052,-0.049 -0.905,0.562 -0.905,0.562 l -0.147,1.639 c 0.245,0.611 0.636,0.514 0.636,0.514 v -0.611 h 0.269 c 0.318,0.66 0.808,0.807 0.808,0.807 h 0.147 c 0.171,-0.049 0.245,0.197 0.245,0.197 l 0.171,0.023 0.024,-0.416 0.195,-0.023 c 0.123,0.049 0.196,0.244 0.196,0.244 h 0.146 c 0.049,-0.098 0.074,-0.367 0.074,-0.367 0.196,-0.123 0.146,-0.562 0.146,-0.562 0.392,-0.074 0.808,0.074 0.808,0.074 l -0.024,0.365 c 0.293,0.49 0.661,0.564 0.661,0.564 0.245,0.072 0.611,0.121 1.052,0.146 0.759,0.049 1.713,0.023 2.594,0 a 53.805,53.805 0 0 0 2.863,-0.221 c 0.098,0.146 0.146,0.123 0.146,0.123 0.416,0.146 0.881,-0.295 0.881,-0.295 l -0.146,0.295 c 0.318,-0.025 0.661,-0.246 0.661,-0.246 a 0.675,0.675 0 0 0 0.342,0.246 l 0.074,-0.074 0.098,0.146 c 0.195,-0.098 0.318,-0.439 0.318,-0.439 0.221,0.195 0.539,0.146 0.539,0.146 l 0.098,0.146 0.072,-0.123 c 0.146,0.1 0.416,0.221 0.416,0.221 0.295,-0.367 0.172,-0.904 0.172,-0.904 l 0.074,0.121 0.072,-0.293 c 0.146,0.146 0.393,0.146 0.393,0.146 -0.465,0.195 -0.197,0.539 -0.197,0.539 a 0.546,0.546 0 0 0 0.246,0.219 0.31,0.31 0 0 1 0.342,0.246 c 0.367,0.172 0.588,-0.221 0.588,-0.221 l 0.049,-0.293 c -0.074,-0.172 -0.074,-0.441 -0.074,-0.441 l 0.074,0.318 0.121,0.074 0.832,0.66 0.711,-0.588 c 0.391,0.27 0.93,0.27 0.93,0.27 0.195,0 0.049,-0.244 0.049,-0.244 0.637,0.514 1.59,0.391 1.59,0.391 0.146,-0.121 0.049,-0.195 0.049,-0.195 0.172,-0.074 0.465,0.172 0.465,0.172 0.244,0.17 0.611,0.023 0.611,0.023 -0.023,-0.121 -0.146,-0.146 -0.146,-0.146 0.172,0 0.074,-0.244 0.074,-0.244 0.17,0.023 0.318,0.219 0.318,0.219 0.146,0.197 0.416,0.148 0.416,0.148 l 0.023,-0.123 c 0.172,0.123 0.562,0.146 0.562,0.146 0.1,-0.098 0.025,-0.244 0.025,-0.244 1.762004,0.539 4.379004,0.439 4.379004,0.439 3.402,-0.023 3.867,-0.684 3.867,-0.684 0.123,-0.148 0.049,-0.318 0.049,-0.318 v -0.195 c 0.172,-0.1 0.441,-0.025 0.441,-0.025 l -0.246,0.514 -0.072,0.172 c 0.586,0.66 1.467,-0.074 1.467,-0.074 v -0.221 c 0.172,-0.072 0.318,-0.268 0.318,-0.268 l 0.393,0.098 c 0.049,0.221 -0.098,0.465 -0.098,0.465 0.611,0.17 0.83,-0.465 0.83,-0.465 l -0.316,-1.641 c -0.49,-0.562 -1.371,-0.465 -1.371,-0.465 l -0.025,-0.416 c -0.049,-0.146 -0.219,-0.244 -0.367,-0.268 l -0.189,-0.068 -0.178,0.068 c -0.27,0.023 -0.662,0.023 -0.662,0.023 v -0.023 l 0.049,-0.564 v -0.635 l -0.049,-0.221 0.516,0.074 c 0.391,0.17 1.297,0.17 1.297,0.17 0.293,0.123 0.293,0.416 0.293,0.416 l -0.098,0.344 c 0.832,-0.074 0.734,-1.004 0.734,-1.004 0.586,-0.49 0.439,-1.811 0.439,-1.811 -0.074,-0.318 -0.195,-0.514 -0.27,-0.588 l -0.023,-0.023 c 0,-0.833 -0.832,-1.2 -0.832,-1.2 -0.146,-0.123 -0.318,-0.123 -0.318,-0.123 -0.195,-0.048 -0.465,-0.367 -0.465,-0.367 -0.318,0.587 -0.049,1.027 -0.049,1.027 -0.49,-0.098 -2.938,0.392 -2.938,0.392 -0.586,0.147 -1.564,-0.171 -1.564,-0.171 -0.613,-0.343 -0.514,-0.783 -0.514,-0.783 0.121,-0.71 0.709,-0.612 0.709,-0.612 h 0.172 c 0.514,-0.098 0.881,0.098 0.881,0.098 1.027,0.489 2.861,0 2.861,0 0.881,-0.343 1.127,-1.493 1.127,-1.493 -0.588,0.539 -1.15,0.441 -1.15,0.441 a 3.044,3.044 0 0 0 -0.367,0.098 c 0.098,-0.416 0.586,-0.612 0.586,-0.612 -0.635,-0.269 -1.32,0.196 -1.32,0.196 -0.342,0.367 -1.102,0.489 -1.102,0.489 0.562,-0.22 0.857,-0.832 0.857,-0.832 -0.367,0.22 -1.027,0.171 -1.027,0.171 -1.004,-0.196 -2.105,0.709 -2.105,0.709 -1.004,0.93 -0.514,1.958 -0.514,1.958 0.123,0.293 0.416,0.514 0.734,0.636 0.465,0.221 0.953,0.27 0.953,0.27 1.053,0.122 3.207,-0.123 3.207,-0.123 0.195,-0.049 0.416,-0.049 0.416,-0.049 -0.393,0.294 -0.465,0.955 -0.465,0.955 0.391,-0.146 0.684,-0.146 0.684,-0.146 l -0.023,0.098 c 0.465,-0.074 0.855,0 0.855,0 0.246,0.023 0.295,-0.195 0.295,-0.195 0.293,0.439 -0.295,0.93 -0.295,0.93 -0.342,0.342 -1.1,0.072 -1.1,0.072 -0.416,-0.195 -1.494,-0.27 -1.494,-0.27 -0.195,-0.244 -2.422,-0.684 -2.422,-0.684 -0.123,-0.221 -0.342,-0.123 -0.342,-0.123 l -0.197,-0.025 c -0.195,-0.465 -0.635,-0.195 -0.635,-0.195 -0.318,-0.049 -0.832,-0.342 -1.127,-0.514 -0.146,-0.073 -0.219,-0.146 -0.219,-0.146 1.174,-1.297 1.1,-2.691 1.1,-2.691 -0.146,-2.0069998 -1.785,-2.3249998 -1.785,-2.3249998 -0.244,-0.587 -1.027,-0.636 -1.027,-0.636 l -0.049,0.123 0.072,0.171 c -0.023,0.123 0.123,0.343 0.123,0.343 l -0.318004,0.073 -1.982,-1.15 c -0.488,-0.122 -0.293,0.293 -0.293,0.293 l 0.098,0.147 1.713,1.346 c -0.172,0.3419998 -0.758,0.7829998 -0.758,0.7829998 l -0.221,0.049 -0.27,0.293 0.025,0.392 c -0.123,0.098 -0.393,0.098 -0.393,0.098 l -0.023,0.245 c 0.17,0.245 0.66,0.245 0.66,0.245 l 0.391,0.391 c 0.123,0.074 0.221,-0.024 0.221,-0.024 l 0.342,-0.391 0.465,-0.22 c 0.123004,0.073 0.344004,0.098 0.344004,0.098 -0.318004,0.123 -0.660004,0.587 -0.660004,0.587 -0.27,-0.074 -0.711,0.024 -0.711,0.024 l -0.049,0.269 -0.014,0.065 -0.107,-0.065 c -0.172,-0.709 -0.711,-0.269 -0.711,-0.269 a 0.555,0.555 0 0 0 -0.044,0.701 z m 0.011,0.512 c 0.059,-0.027 0.107,-0.111 0.107,-0.211 a 0.196,0.196 0 0 0 -0.018,-0.082 l 0.033,-0.082 a 0.426,0.426 0 0 0 0.271,0.095 c 0.252,-0.008 0.35,-0.372 0.35,-0.372 h 0.061 l -0.061,0.293 c -0.246,0.147 -0.465,0.636 -0.465,0.636 z m 0.153,-0.699 c -0.131,-0.272 0.15,-0.393 0.15,-0.393 0.342,-0.049 0.27,0.391 0.27,0.391 -0.092,0.115 -0.166,0.158 -0.227,0.163 -0.133,0.011 -0.191,-0.159 -0.193,-0.161 z m -13.357,5.162 c -0.196,0.172 -0.539,0.416 -0.979,0.441 l -0.196,0.316 0.465,0.123 0.098,0.049 0.416,0.123 c 0,0 0.024,-0.27 0.343,-0.221 0,0 0.22,-0.588 1.101,-0.391 0,0 0.147,-0.049 0.342,0.049 0.074,0.049 0.147,0.098 0.22,0.17 l -0.098,-0.318 c 0,0 0.098,-0.146 0.342,-0.098 0,0 -0.098,-0.098 -0.171,-0.244 a 0.907,0.907 0 0 1 -0.171,-0.49 c 0,0 0.293,-0.121 0.587,-0.072 v -0.27 h 0.171 l -0.318,-0.195 c 0,0 -0.808,0.904 -2.325,0.465 a 3.61,3.61 0 0 1 -0.856,-0.367 c 0,0 0.294,0.734 1.224,0.709 10e-4,0 -0.072,0.098 -0.195,0.221 z m -3.939,0 c 0.489,0.146 1.346,0.221 1.346,0.221 -0.074,0.072 -0.147,0.146 -0.22,0.195 -0.269,0.221 -0.489,0.27 -0.489,0.27 -0.147,0.244 -0.073,0.686 -0.073,0.686 0.073,0.098 0.293,0.17 0.489,0.244 0.245,0.098 0.489,0.172 0.489,0.172 a 2.27,2.27 0 0 1 -0.905,0 c -0.27,-0.025 -0.44,-0.1 -0.44,-0.1 l 0.122,-0.244 c -0.098,-0.637 -1.052,-0.709 -1.052,-0.709 l 0.049,-0.293 c 0.122,-0.148 0.245,-0.318 0.294,-0.441 a 0.647,0.647 0 0 0 0.073,-0.146 c 0.049,0.049 0.171,0.098 0.294,0.146 h 0.023 z m 17.423,2.031 c -0.074,0.049 -0.123,0.098 -0.123,0.195 0,0 0.049,0.146 0.367,0.244 0,0 0.049,-0.268 -0.025,-0.562 -0.001,0 -0.122,0.049 -0.219,0.123 z m -11.159,-0.442 0.171,-0.049 c 0,0 -0.171,-0.146 -0.195,-0.244 0,0 0,-0.195 -0.22,-0.367 l 0.024,0.172 v 0.244 l 0.073,0.074 v 0.195 z m 0.783,0.858 0.025,0.367 0.318,-0.344 a 0.135,0.135 0 0 1 -0.123,-0.072 c -0.122,-0.098 -0.195,-0.244 -0.195,-0.244 z m 1.106,-2.438 c 0.186,-0.021 0.342,-0.008 0.43,0.098 -0.002,-0.156 0.066,-0.312 0.299,-0.352 0,0 -0.514,-0.098 -0.979,-0.27 -0.293,-0.098 -0.587,-0.221 -0.685,-0.367 l -0.22,0.074 -0.172,0.072 v 0.074 c 0,0 0.465,0.072 0.71,0.27 v -0.1 c 0,10e-4 0.445,0.085 0.617,0.501 z m 1.291,0.969 c 0,-0.049 0.025,-0.098 0.025,-0.172 l 0.367,0.393 c 0,0 0.072,0.244 -0.074,0.391 0,0 -0.072,-0.072 -0.17,-0.121 a 0.457,0.457 0 0 0 -0.197,-0.049 l -0.023,-0.318 c 0,-10e-4 0.049,-0.05 0.072,-0.124 z m -29.753,-13.3599998 c 0,0 3.646,1.86 4.086,2.227 0.465,0.367 0.22,0.612 0.22,0.612 0,0 -0.171,0.244 -0.587,0.342 -0.417,0.073 -0.293,0.416 -0.293,0.416 l -0.049,8.6869998 c 1.713,1.688 3.328,0.783 3.328,0.783 0.612,-0.195 0.539,-0.734 0.539,-0.734 0,0 0.123,-8.1719998 0.073,-8.4419998 -0.049,-0.293 -0.293,-0.293 -0.293,-0.293 0,0 -1.517,-0.955 -1.762,-1.125 -0.27,-0.171 0.024,-0.44 0.024,-0.44 0,0 2.569,-1.786 2.937,-2.129 0.367,-0.318 0.661,-0.123 0.661,-0.123 0,0 4.233,2.374 4.722,2.741 0.489,0.367 0.245,0.489 0.245,0.489 l -1.199,1.199 c -0.245,0.245 -0.123,0.4649998 -0.123,0.4649998 l -0.049,8.026 c -0.318,2.055 -3.548,2.35 -3.548,2.35 -3.891,0.049 -5.701,-1.615 -5.701,-1.615 -1.542,-0.955 -3.328,-0.295 -3.328,-0.295 -2.275,0.783 -2.447,2.252 -2.447,2.252 -0.074,1.053 1.101,1.566 1.101,1.566 1.444,0.93 3.548,0.342 3.548,0.342 1.786,-0.611 4.551,-1.541 4.551,-1.541 1.737,-0.367 3.107,-0.074 3.107,-0.074 1.566,0.344 2.178,1.078 2.178,1.078 1.003,1.027 0.93,2.348 0.93,2.348 0.073,2.889 -3.475,3.867 -3.475,3.867 -1.59,0.318 -2.03,-0.049 -2.03,-0.049 -1.126,-0.246 0.073,-0.367 0.073,-0.367 0,0 -2.056,0.121 0.171,0.023 2.227,-0.072 2.472,-1.148 2.472,-1.148 0.808,-1.445 -0.44,-1.689 -0.44,-1.689 -1.713,-0.244 -3.572,1.15 -3.572,1.15 -4.16,1.859 -7.316,0.318 -7.316,0.318 -3.23,-1.248 -2.814,-3.646 -2.814,-3.646 0.073,-3.107 2.031,-4.33 2.031,-4.33 l -0.122,-9.6169998 c -0.098,-0.245 -0.343,-0.318 -0.343,-0.318 0,0 -1.346,-0.539 -1.566,-0.832 -0.196,-0.294 0.122,-0.416 0.122,-0.416 l 3.108,-2.056 c 0.365,-0.515 0.83,-0.002 0.83,-0.002 z m -60.29200047,-1.468 c -0.465,-0.318 0.049,-0.489 0.049,-0.489 L 4.9176855,0.15348721 H 17.273686 c 2.667,0.244 2.447,3.66999999 2.447,3.66999999 l -0.049,12.6249998 c -4.331,0.832 -6.411,4.504 -6.411,4.504 -4.0380005,-1.15 -10.9620005,-0.123 -10.9620005,-0.123 -0.612,0.049 -0.196,-0.416 -0.196,-0.416 2.398,-4.209 6.998,-4.086 6.998,-4.086 0.297,-0.006 0.588,0.002 0.871,0.02 l 0.024,-12.1509998 z m 6.16599997,0.685 c 0.905,-0.416 0.734,0.196 0.734,0.196 v 7.0219998 c -0.073,2.961 -2.398,4.577 -2.398,4.577 -0.685,0.93 -3.303,2.006 -3.303,2.006 -0.90499997,0.342 -0.367,-0.539 -0.367,-0.539 0.856,-1.271 0.856,-2.178 0.856,-2.178 V 7.3964872 c 0,-0.245 0.098,-0.343 0.098,-0.343 z M 10.385686,16.382487 c 2.139,0.215 3.708,0.973 3.708,0.973 l -0.032,-5.429 -0.033,0.025 c -0.005,-0.006 -1.717,-2.2659998 -3.635,0.083 z m 3.672,-5.006 -0.013,-2.2769998 c -0.655,0.613 -2.182,1.6439998 -3.646,-0.265 l -0.005,2.5779998 c 1.612,-1.6359998 3.062,-0.617 3.664,-0.036 z m -0.017,-2.8709998 -0.022,-3.801 c 0.171,-0.636 -0.709,-0.465 -0.709,-0.465 l -2.901,-0.038 -0.007,3.899 c 1.641,2.7199998 3.471,0.61 3.639,0.405 z m 33.77,-5.954 c 0,0 5.383,-1.73699999 6.068,-1.90799999 0.709,-0.171 0.661,0.171 0.661,0.171 0,0 -0.146,15.31699979 -0.024,15.85599979 0.122,0.539 0.367,0.393 0.367,0.393 0,0 1.248,0.881 1.517,1.002 0.294,0.123 0.147,0.416 0.147,0.416 l -3.034,2.35 c 0,0 -4.943,-2.178 -5.334,-2.422 -0.489,-0.344 -0.171,-0.539 -0.171,-0.539 l 0.881,-0.881 c 0,0 0.146,-12.5279998 -0.098,-13.1889998 -0.245,-0.661 -1.028,-0.93 -1.028,-0.93 -0.172,-0.27 0.048,-0.319 0.048,-0.319 z m -6.043,2.594 c 0.171,0.416 0.611,0.343 0.611,0.343 1.958,-0.783 2.741,-2.643 2.741,-2.643 0.489,-1.835 -0.661,-2.32399999 -0.661,-2.32399999 -1.028,-0.612 -1.786,-0.123 -1.786,-0.123 -1.175,0.63599999 -1.493,1.85999999 -1.493,1.85999999 -0.293,1.615 0.588,2.887 0.588,2.887 z m -0.881,0.832 c 0,0 -3.181,1.958 -3.426,2.325 -0.245,0.367 -0.048,0.539 -0.048,0.539 0,0 1.37,0.856 1.737,1.003 0.391,0.122 0.244,0.3179998 0.244,0.3179998 l 0.098,6.362 c 0.049,0.172 0,0.611 0,0.611 0,0 -0.539,0.441 -0.832,0.686 -0.342,0.293 -0.074,0.588 -0.074,0.588 l 4.919,2.471 c 0,0 3.327,-2.398 3.621,-2.52 0.293,-0.123 0,-0.367 0,-0.367 0,0 -1.444,-0.832 -1.688,-0.955 -0.244,-0.123 -0.146,-0.367 -0.146,-0.367 0,0 -0.196,-6.29 -0.049,-6.8279998 0.122,-0.514 0.293,-0.343 0.293,-0.343 0,0 0.44,-0.122 0.832,-0.367 0.367,-0.245 0.025,-0.465 0.025,-0.465 0,0 -4.576,-2.397 -4.918,-2.691 -0.344,-0.294 -0.588,0 -0.588,0 z m -20.273,10.5949998 c -0.012,-0.049 0.379,3.695 5.175,4.307 l 3.181,-2.568 c 0,0 0.171,-0.295 0.416,-0.051 l 5.383,2.619 3.279,-2.568 c 0,0 0.147,-0.295 -0.098,-0.588 l -2.276,-1.518 V 9.9654872 c 0,0 -0.024,-0.293 0.171,-0.342 l 0.881,-0.709 c 0,0 0.147,-0.245 -0.146,-0.563 -0.27,-0.342 -5.628,-2.985 -5.628,-2.985 0,0 -0.196,-0.293 -0.686,0.049 0,0 -5.848,2.349 -8.148,5.3579998 0.001,0 -1.834,1.174 -1.504,5.799 z m 4.588,-2.006 c 0.147,0.268 -0.979,-1.591 -0.44,-3.622 0,0 0.074,-1.7859998 2.153,-2.6909998 l 2.814,1.8349998 -0.049,7.242 c 0,0 -0.367,0.613 -1.272,0.197 0,0 -2.325,-1.15 -3.206,-2.961 z M 160.05069,6.1724872 c 0,0 -3.18,1.933 -3.426,2.325 -0.244,0.367 -0.049,0.538 -0.049,0.538 0,0 1.371,0.856 1.738,0.9789998 0.391,0.123 0.244,0.342 0.244,0.342 l 0.098,6.362 c 0.049,0.172 0,0.611 0,0.611 0,0 -0.539,0.416 -0.832,0.662 -0.342,0.293 -0.072,0.586 -0.072,0.586 l 4.918,2.496 c 0,0 3.328,-2.398 3.621,-2.545 0.293,-0.121 0,-0.367 0,-0.367 0,0 -1.42,-0.832 -1.688,-0.953 -0.246,-0.123 -0.148,-0.367 -0.148,-0.367 0,0 -0.195,-6.289 -0.049,-6.827 0.123,-0.4889998 0.295,-0.3419998 0.295,-0.3419998 0,0 0.439,-0.123 0.832,-0.367 0.367,-0.245 0.023,-0.44 0.023,-0.44 0,0 -4.576,-2.398 -4.918,-2.692 -0.318,-0.294 -0.587,-0.001 -0.587,-0.001 z m -48.645,-2.08 c -0.758,-0.416 -0.219,-0.612 -0.219,-0.612 l 3.816,-2.447 c 0.195,-0.17099999 0.367,0.074 0.367,0.074 l 3.475,2.031 c 0,0 4.697,-2.49599999 5.016,-2.69099999 0.195,-0.123 0.367,0.049 0.367,0.049 l 3.965,2.20199999 3.988,-2.49599999 c 0.439,-0.367 0.562,-0.123 0.562,-0.123 l 4.674,2.74099999 c 0.391,0.245 0.219,0.318 0.219,0.318 V 15.814487 c 0.172,1.564 1.494,2.178 1.494,2.178 0.367,0.293 0.195,0.514 0.195,0.514 l -3.598,2.568 c -3.107,-1.053 -3.4,-3.572 -3.4,-3.572 V 5.3894872 c -0.074,-0.416 -0.367,-0.514 -0.367,-0.514 l -2.402,-1.224 0.018,5.383 h 2.58 l -2.568,3.7019998 0.016,4.456 1.795,1.215 c 0.244,0.293 -0.146,0.342 -0.146,0.342 l -3.721,2.324 -5.529,-2.936 c -0.514,-0.344 -0.123,-0.539 -0.123,-0.539 l 1.199,-0.758 v -3.891 h -2.633 l 0.01,4.995 0.887,0.561 c 0.27,0.293 -0.049,0.488 -0.049,0.488 l -3.695,2.08 -4.82,-2.545 c -0.416,-0.27 0.023,-0.488 0.023,-0.488 l 1.371,-0.783 V 6.0504872 l -2.643,-1.908 z m 17.82,-0.592 c -0.73,-0.227 -0.617,0.226 -0.617,0.226 l 0.049,4.918 v 0.392 h 0.588 z m 0.032,9.4499998 h -0.6 v 3.598 c 0.023,0.098 0.318,0.219 0.318,0.219 l 0.295,0.201 z m -8.813,-0.696 2.168,-3.2189998 h 0.465 v -3.646 c -0.072,-0.195 -0.342,-0.391 -0.342,-0.391 l -2.305,-1.199 z m -0.345,-8.5339998 c -0.676,0.015 -0.715,0.471 -0.715,0.471 l -0.051,13.0669998 c 0,0.072 0.221,0.121 0.221,0.121 l 0.568,0.359 z m 19.683,12.8519998 c -0.012,-0.049 0.379,3.695 5.176,4.307 l 3.18,-2.568 c 0,0 0.172,-0.295 0.416,-0.051 l 5.383,2.619 3.279,-2.568 c 0,0 0.146,-0.295 -0.098,-0.588 l -2.275,-1.518 V 9.9654872 c 0,0 -0.023,-0.293 0.172,-0.342 l 0.881,-0.709 c 0,0 0.146,-0.245 -0.146,-0.563 -0.27,-0.342 -5.629,-2.985 -5.629,-2.985 0,0 -0.195,-0.293 -0.686,0.049 0,0 -5.848,2.349 -8.148,5.3579998 -0.001,0 -1.835,1.174 -1.505,5.799 z m 4.588,-2.006 c 0.146,0.268 -0.979,-1.591 -0.439,-3.622 0,0 0.072,-1.7859998 2.152,-2.6909998 l 2.814,1.8349998 -0.049,7.242 c 0,0 -0.367,0.613 -1.273,0.197 0,0 -2.324,-1.15 -3.205,-2.961 z m 22.605,-12.0149998 c 0,0 5.357,-1.73699999 6.068,-1.90799999 0.684,-0.171 0.66,0.171 0.66,0.171 0,0 -0.146,15.48899979 -0.025,16.02799979 0.123,0.537 0.367,0.416 0.367,0.416 0,0 1.248,0.881 1.518,1.002 0.293,0.123 0.146,0.416 0.146,0.416 l -3.033,2.35 c 0,0 -4.943,-2.178 -5.334,-2.447 -0.49,-0.318 -0.172,-0.537 -0.172,-0.537 l 0.881,-0.857 c 0,0 0.146,-12.7479998 -0.098,-13.4089998 -0.244,-0.661 -1.027,-0.905 -1.027,-0.905 -0.171,-0.296 0.049,-0.32 0.049,-0.32 z m -6.044,2.79 c 0.172,0.416 0.611,0.342 0.611,0.342 1.959,-0.808 2.742,-2.667 2.742,-2.667 0.488,-1.811 -0.662,-2.29999999 -0.662,-2.29999999 -1.027,-0.636 -1.785,-0.123 -1.785,-0.123 -1.176,0.63599999 -1.492,1.85999999 -1.492,1.85999999 -0.295,1.615 0.586,2.888 0.586,2.888 z" />
  <path
     style="clip-rule:evenodd;fill:#000000;fill-rule:evenodd;fill-opacity:1"
     inkscape:connector-curvature="0"
     id="path6"
     d="m 85.346686,8.0574872 0.343,-0.171 v 0.245 l 0.122,-0.122 0.146,0.342 -0.195,0.025 0.123,0.122 c 0.269,0.196 0.098,0.367 0.098,0.367 l -0.123,0.098 c -0.392,0.146 -0.269,-0.465 -0.269,-0.465 l -0.123,0.122 -0.146,-0.367 h 0.196 z" />
  <path
     style="clip-rule:evenodd;fill:#000000;fill-rule:evenodd;fill-opacity:1"
     inkscape:connector-curvature="0"
     id="path8"
     d="m 84.979686,9.5984872 c 0.294,0.024 0.318,0.245 0.318,0.245 0.024,-0.416 0.342,-0.049 0.342,-0.049 a 0.61,0.61 0 0 0 -0.269,0.171 c 0,0.2449998 0.367,0.2449998 0.367,0.2449998 0.318,-0.172 0.269,-0.3669998 0.269,-0.3669998 0.049,-0.27 -0.269,-0.123 -0.269,-0.123 l -0.123,-0.269 0.196,-0.024 v -0.098 l -0.171,-0.098 0.539,-0.269 -0.074,0.22 0.049,0.049 0.122,-0.147 0.098,0.392 c -0.245,-0.049 -0.147,0.171 -0.147,0.171 0.139,0.15 0.25,0.164 0.331,0.132 a 0.34,0.34 0 0 0 0.158,-0.157 c 0.147,-0.171 -0.024,-0.245 -0.024,-0.245 -0.195,0.073 -0.22,0.147 -0.22,0.147 -0.098,-0.514 0.171,-0.417 0.171,-0.417 -0.073,-0.244 0,-0.367 0,-0.367 0.196,0.098 0.22,0.293 0.22,0.293 0.293,-0.318 0.342,0.024 0.342,0.024 -0.391,0.074 -0.22,0.294 -0.22,0.294 0.092,0.145 0.164,0.168 0.221,0.132 0.124,-0.081 0.17,-0.453 0.17,-0.453 -0.22,-0.318 -0.783,-0.375 -0.783,-0.343 l -0.024,0.199 -0.294,0.049 -0.049,-0.147 -0.073,-0.024 v -0.123 c 0.709,-0.269 1.346,0.318 1.346,0.318 l 0.024,0.979 c -1.052,0.1469998 -2.349,1.0029998 -2.349,1.0029998 l -0.514,-0.881 c 0.172,-0.7089998 0.832,-1.1009998 0.832,-1.1009998 l 0.098,0.098 -0.123,0.147 0.049,0.171 -0.293,0.245 -0.245,-0.123 c -0.105,0.186 -0.207,0.367 -0.171,0.5629998 l 0.171,0.367 c 0.343,0.147 0.221,-0.269 0.221,-0.269 -0.098,-0.123 -0.221,0.146 -0.221,0.146 -0.22,-0.4159998 0.074,-0.3919998 0.074,-0.3919998 -0.121,-0.118 -0.072,-0.314 -0.072,-0.314 z m -7.952,8.9559998 c -0.318,0.832 -0.147,1.908 -0.147,1.908 h -0.196 v -1.346 c -0.563,-0.123 -0.318,-0.342 -0.318,-0.342 0.22,-0.294 0.661,-0.22 0.661,-0.22 z m 1.076,2.471 c 0.123,0.195 0.098,0.465 0.098,0.465 -0.049,-0.195 -0.245,-0.172 -0.245,-0.172 -0.097,-0.293 0.147,-0.293 0.147,-0.293 z m 0.465,0 c 0.123,-0.072 0.123,-0.244 0.123,-0.244 0.27,0.121 0.098,0.514 0.098,0.514 -0.049,-0.172 -0.221,-0.27 -0.221,-0.27 z m -0.318,-0.953 c 0.392,-0.074 0.49,0.293 0.49,0.293 0.171,0.172 0.171,-0.074 0.171,-0.074 -0.221,-0.686 -0.661,-0.219 -0.661,-0.219 z m 0.538,0.465 c 0.122,0.049 0.171,-0.049 0.171,-0.049 0.098,0.219 -0.025,0.391 -0.025,0.391 -0.024,-0.195 -0.146,-0.195 -0.146,-0.195 z" />
  <path
     style="clip-rule:evenodd;fill:#000000;fill-rule:evenodd;fill-opacity:1"
     inkscape:connector-curvature="0"
     id="path10"
     d="m 79.082686,20.242487 c -0.245,-0.904 -0.881,-0.293 -0.881,-0.293 -0.171,-0.562 0.074,-1.004 0.074,-1.004 0.367,0.049 0.856,0 0.856,0 0.122,0 0.073,0.074 0.073,0.074 0.098,0.439 -0.171,0.439 -0.171,0.439 0.196,0.172 0.245,0.098 0.245,0.098 0.392,0.049 0.734,-0.732 0.734,-0.732 0.367,-0.025 0.808,0.293 0.808,0.293 0.245,0.221 0,0.293 0,0.293 -0.343,-0.072 -0.955,0.049 -0.955,0.049 -0.073,0.049 -0.049,0.197 -0.049,0.197 0.049,0.146 0.074,0.635 0.074,0.635 -0.318,-0.073 -0.808,-0.049 -0.808,-0.049 z m 1.615,-2.692 c 0.098,-0.367 0.832,-0.758 0.832,-0.758 0.367,-0.146 0.905,-0.27 0.905,-0.27 0.637,0.025 1.077,0.709 1.077,0.709 l -0.245,0.195 0.098,0.074 c 0.221,-0.221 0.465,0.025 0.465,0.025 0.22,0.121 0.758,0.318 0.758,0.318 -0.245,0.365 -1.003,0.219 -1.003,0.219 0.024,0.393 -0.416,0.66 -0.416,0.66 0.294,0.246 1.419,0.467 1.419,0.467 0.416,-0.588 0.856,-0.172 0.856,-0.172 0.098,0.072 0.221,0.195 0.221,0.195 -0.245,0.123 -0.172,0.441 -0.172,0.441 -0.489,0.098 -1.859,0.098 -1.859,0.098 -1.346,-0.197 -2.031,-0.539 -2.031,-0.539 -0.122,-0.074 -0.048,-0.172 -0.048,-0.172 l -0.025,-0.146 c -0.024,-0.172 0.123,-0.146 0.123,-0.146 0.489,-0.074 0.905,-0.611 0.905,-0.611 0.123,-0.293 -0.147,-0.244 -0.147,-0.244 -0.832,-0.048 -1.713,-0.343 -1.713,-0.343 z" />
  <path
     style="clip-rule:evenodd;fill:#000000;fill-rule:evenodd;fill-opacity:1"
     inkscape:connector-curvature="0"
     id="path12"
     d="m 85.053686,18.750487 c 0.318,-0.439 0.758,-0.146 0.758,-0.146 0.098,0.072 0.196,0.293 0.196,0.293 -0.196,0 -0.245,0.172 -0.245,0.172 -0.171,-0.345 -0.709,-0.319 -0.709,-0.319 z m 0.587,0.855 c -0.049,-0.195 0.123,-0.268 0.123,-0.268 0.098,0.072 0.195,0.244 0.195,0.244 -0.098,0.024 -0.318,0.024 -0.318,0.024 z m 0.171,-0.414 c 0.22,0.098 0.245,0.365 0.245,0.365 l 0.171,-0.023 c 0.049,-0.367 -0.147,-0.562 -0.147,-0.562 -0.22,0.023 -0.269,0.22 -0.269,0.22 z m 0.245,-0.662 c 0.123,0.074 0.098,0.318 0.098,0.318 0.171,0.123 0.22,0.367 0.22,0.367 0.123,-0.074 0.318,-0.049 0.318,-0.049 -0.098,-0.685 -0.636,-0.636 -0.636,-0.636 z m 0.367,0.783 0.024,0.195 0.269,-0.023 c 0.024,-0.146 -0.049,-0.244 -0.049,-0.244 -0.146,-0.026 -0.244,0.072 -0.244,0.072 z m 1.713,-5.285 c 0.049,0.195 0,0.539 0,0.539 -0.074,0.146 -0.269,0.439 -0.269,0.439 l 0.342,0.344 0.833,0.023 c 0.098,-0.293 0.586,-0.783 0.586,-0.783 0.318,-1.468 1.125,-2.08 1.125,-2.08 v -0.122 c -0.195,-0.049 -0.219,-0.245 -0.219,-0.245 a 0.47,0.47 0 0 1 0.195,-0.391 c 0.098,0.098 0.098,-0.074 0.098,-0.074 -0.049,-0.049 -0.123,-0.049 -0.123,-0.049 l -0.049,0.098 -0.219,0.342 c -0.098,0.318 -0.711,1.248 -0.711,1.248 -0.195,0.196 -0.832,0.905 -0.832,0.905 l -0.098,-0.049 c -0.218,0.027 -0.659,-0.145 -0.659,-0.145 z m 1.42,4.135 0.17,-0.293 0.123,0.025 c 0.049,0.342 0.27,0.586 0.27,0.586 l -0.025,0.49 c -0.072,-0.172 -0.244,-0.172 -0.244,-0.172 0.122,-0.439 -0.294,-0.636 -0.294,-0.636 z m -1.103,2.275 h -0.171 l -0.416,0.465 c -0.025,0.27 -0.367,0.393 -0.367,0.393 0.661,-0.049 0.759,-0.293 0.759,-0.293 a 1.62,1.62 0 0 1 -0.147,0.365 c 0.415,-0.219 0.318,-0.316 0.318,-0.316 0.074,-0.246 0.049,-0.27 0.049,-0.27 0.025,-0.123 0.048,-0.146 0.048,-0.146 0.051,-0.198 -0.073,-0.198 -0.073,-0.198 z m 0.294,0.197 c 0.27,0.049 0.416,0.023 0.416,0.023 0.344,0.318 -0.023,0.783 -0.023,0.783 -0.098,-0.221 -0.049,-0.318 -0.049,-0.318 0.049,-0.121 -0.049,-0.27 -0.049,-0.27 -0.148,0.197 -0.051,0.539 -0.051,0.539 -0.293,-0.123 -0.365,-0.416 -0.365,-0.416 0,-0.194 0.121,-0.341 0.121,-0.341 z m 2.74,-2.839 0.221,-0.17 c 0.098,0.244 -0.072,0.488 -0.072,0.488 a 0.967,0.967 0 0 0 -0.149,-0.318 z m -0.342,0.318 c 0.074,-0.072 0.172,-0.219 0.172,-0.219 0.146,0.219 0.072,0.514 0.072,0.514 -0.121,-0.074 -0.072,-0.025 -0.072,-0.025 z" />
  <path
     style="clip-rule:evenodd;fill:#000000;fill-rule:evenodd;fill-opacity:1"
     inkscape:connector-curvature="0"
     id="path14"
     d="m 91.071686,15.642487 v 0.832 c 0.711,-0.074 0.637,0.465 0.637,0.465 0.293,0.098 0.098,0.611 0.098,0.611 0.123,0.295 -0.023,0.637 -0.023,0.637 0.367,0.855 1.467,1.174 1.467,1.174 l -0.049,-3.744 z m -0.146,-1.469 0.025,0.49 c -0.393,0.832 -0.172,1.957 -0.172,1.957 a 0.262,0.262 0 0 0 -0.195,0.146 c -0.27,-1.761 0.342,-2.593 0.342,-2.593 z m 1.566,4.944 -0.025,1.836 0.783,0.635 0.662,-0.586 v -1.664 l -0.27,0.023 v 1.42 l -0.392,0.439 -0.44,-0.318 v -1.564 z" />
  <path
     style="clip-rule:evenodd;fill:#000000;fill-rule:evenodd;fill-opacity:1"
     inkscape:connector-curvature="0"
     id="path16"
     d="m 93.225686,19.972487 c 0.072,0 0.123,-0.049 0.123,-0.146 0,-0.097 -0.051,-0.17 -0.123,-0.17 -0.049,0 -0.098,0.072 -0.098,0.17 0,0.098 0.05,0.146 0.098,0.146 z m 0.221,0.393 c 0.049,0 0.098,-0.074 0.098,-0.146 0,-0.098 -0.049,-0.172 -0.098,-0.172 -0.074,0 -0.123,0.074 -0.123,0.172 0,0.072 0.049,0.146 0.123,0.146 z m -0.197,0.293 c 0.049,0 0.1,-0.072 0.1,-0.146 0,-0.074 -0.051,-0.146 -0.1,-0.146 -0.072,0 -0.121,0.072 -0.121,0.146 0,0.074 0.049,0.146 0.121,0.146 z m -0.195,-0.319 c 0.074,0 0.123,-0.072 0.123,-0.17 0,-0.074 -0.049,-0.148 -0.123,-0.148 -0.072,0 -0.121,0.074 -0.121,0.148 0,0.098 0.048,0.17 0.121,0.17 z m -2.104,-1.98 c -0.025,-0.197 0.072,-0.221 0.072,-0.221 0.098,0.244 0.295,0.391 0.295,0.391 v -0.023 c 0.072,0.17 0.293,0.342 0.293,0.342 0.025,0.172 -0.146,0.172 -0.146,0.172 -0.319,-0.27 -0.514,-0.661 -0.514,-0.661 z m 0.488,0.146 c 0.123,-0.146 0.098,-0.27 0.098,-0.27 0.074,0.123 0.123,0.123 0.123,0.123 l 0.074,-0.049 0.146,0.219 c -0.172,0.025 -0.27,0.221 -0.27,0.221 -0.145,-0.074 -0.171,-0.244 -0.171,-0.244 z m -0.904,0.219 0.17,0.246 c 0,-0.098 0.049,-0.172 0.049,-0.172 l 0.197,-0.195 -0.098,-0.172 -0.197,0.221 c -0.049,0.023 -0.121,0.072 -0.121,0.072 z m -0.269,-0.439 0.146,0.195 c 0.025,-0.098 0.074,-0.121 0.074,-0.121 l 0.244,-0.221 -0.146,-0.098 z m -0.612,-2.717 v 0.27 l 0.072,-0.024 0.368,-0.025 -0.44,0.513 0.293,0.196 h 0.416 v -0.196 h -0.439 l 0.439,-0.488 v -0.221 l -0.074,0.024 h -0.563 z m 0.049,-0.611 -0.025,0.244 0.048,-0.049 0.563,0.074 0.074,0.098 0.049,-0.293 h -0.098 l -0.513,-0.074 -0.098,-0.073 z m 0.439,-1.321 0.172,0.122 -0.123,0.049 c -0.195,0.171 -0.072,0.269 -0.072,0.269 0.121,0.074 0.146,-0.073 0.146,-0.073 0.195,-0.269 0.342,-0.123 0.342,-0.123 0.246,0.171 0.074,0.441 0.074,0.441 l -0.074,0.098 -0.023,0.073 -0.195,-0.073 0.098,-0.073 c 0.098,-0.074 0.072,-0.195 0.072,-0.195 -0.049,-0.221 -0.17,0 -0.17,0 -0.295,0.293 -0.441,-0.025 -0.441,-0.025 -0.124,-0.222 0.194,-0.49 0.194,-0.49 z m 0.711,-0.808 v 0.196 c -0.295,-0.074 -0.27,0.22 -0.27,0.22 0.072,0.342 0.318,0.293 0.318,0.293 v 0.147 c -0.344,0.049 -0.465,-0.27 -0.465,-0.27 -0.122,-0.561 0.417,-0.586 0.417,-0.586 z m 0.219,2.691 h 2.129 v -3.131 l -2.226,-0.025 z m -0.17,-6.2389998 a 4.33,4.33 0 0 1 1.98,-0.979 v 0.489 c -0.732,-0.097 -1.98,0.49 -1.98,0.49 z m 2.643,-0.954 v 0.44 c 1.516,-0.049 2.227,0.612 2.227,0.612 -0.907,-1.102 -2.227,-1.052 -2.227,-1.052 z m -0.539,-0.025 v 0.49 h 0.416 v -0.49 z m -2.717,1.297 c -0.146,-0.685 0.367,-0.416 0.367,-0.416 z m 0.539,-0.538 c -0.049,-0.709 0.416,-0.318 0.416,-0.318 z m 0.66,-0.465 c -0.023,-0.709 0.441,-0.293 0.441,-0.293 z m 0.637,-0.342 c 0.098,-0.93 0.49,-0.196 0.49,-0.196 z m 0.758,-0.466 h 0.662 c 0.098,0.147 -0.098,0.367 -0.098,0.367 -0.221,0.074 -0.441,-0.024 -0.441,-0.024 -0.342,-0.073 -0.123,-0.343 -0.123,-0.343 z m 0.025,-1.101 h 0.637 l -0.195,0.294 0.121,0.123 0.146,-0.197 0.025,0.612 -0.318,-0.244 0.147,0.367 -0.563,-0.025 0.244,-0.294 -0.072,-0.073 -0.246,0.22 -0.024,-0.587 0.245,0.221 0.074,-0.074 z m 2.74,2.178 0.367,0.343 c 0.124,-0.759 -0.367,-0.343 -0.367,-0.343 z m -0.195,-0.147 -0.441,-0.245 c 0.513,-0.513 0.441,0.245 0.441,0.245 z m -1.076,-0.611 0.439,0.196 c 0,-0.759 -0.439,-0.196 -0.439,-0.196 z m -0.172,-0.025 c -0.049,-0.343 -0.244,-0.343 -0.244,-0.343 -0.221,-0.049 -0.246,0.318 -0.246,0.318 z m -3.254,3.7439998 c 2.348,-0.465 4.453,0 4.453,0 0.293,0.049 0.172,0.269 0.172,0.269 -0.221,0.073 -0.318,0.024 -0.318,0.024 -1.811,-0.367 -4.234,0.074 -4.234,0.074 -0.367,0.024 -0.293,-0.147 -0.293,-0.147 0.074,-0.269 0.22,-0.22 0.22,-0.22 z m 2.373,0.563 v 3.157 h 2.031 l 0.073,-3.157 z m 2.031,3.254 h -2.031 l 0.025,3.744 c 1.125,-0.195 1.443,-0.881 1.443,-0.881 0.049,-0.344 0.562,-1.762 0.562,-1.762 v -1.101 z m -1.273,3.647 v 0.367 c 0.441,0.293 0.979,0.439 0.979,0.439 0.221,-0.074 0.123,-0.27 0.123,-0.27 a 0.621,0.621 0 0 0 -0.244,-0.121 c -0.465,-0.048 -0.858,-0.415 -0.858,-0.415 z m 0.76,-0.711 0.121,0.123 -0.44,0.637 -0.074,-0.172 z m 0.218,0.197 -0.414,0.586 c 0.635,0.416 1.002,-0.562 1.002,-0.562 -0.367,0.097 -0.588,-0.024 -0.588,-0.024 z m 0.418,-4.797 v 0.588 c 0.219,0.391 0.268,1.223 0.268,1.223 l 0.197,-0.342 c -0.025,-0.858 -0.465,-1.469 -0.465,-1.469 z m -1.42,6.777 v 0.27 c 0.195,0.172 0.709,0.293 0.709,0.293 0.123,-0.049 0,-0.219 0,-0.219 -0.292,0 -0.709,-0.344 -0.709,-0.344 z" />
  <path
     style="clip-rule:evenodd;fill:#000000;fill-rule:evenodd;fill-opacity:1"
     inkscape:connector-curvature="0"
     id="path18"
     d="m 94.864686,20.658487 0.123,-0.439 c 0.416,-0.025 0.27,-0.49 0.27,-0.49 0.342,-0.098 0.732,-0.734 0.732,-0.734 l 0.1,0.246 0.146,0.293 c 0.072,0.146 0.121,0.221 0.098,0.221 l -0.221,0.195 v -0.123 l -0.416,0.367 0.146,-0.807 -0.391,0.904 c -0.22,0.246 -0.587,0.367 -0.587,0.367 z m 0.074,0.221 c 0.342,0.514 1.469,0.514 1.469,0.514 -0.123,-0.293 -0.441,-0.416 -0.441,-0.416 0.49,-0.195 0.93,0.244 0.93,0.244 0.27,0.246 0.562,0.246 0.562,0.246 a 1.415,1.415 0 0 0 -0.244,-0.27 c 0.146,0.072 0.293,0.023 0.293,0.023 -0.17,-0.293 -0.66,-0.562 -0.66,-0.562 0.514,-0.27 0.955,0.344 0.955,0.344 0.219,0.316 0.416,0.391 0.416,0.391 l -0.148,-0.49 c 0.148,0.441 0.734,0.564 0.734,0.564 0.074,-0.074 0,-0.221 0,-0.221 -0.17,0 -0.318,-0.244 -0.318,-0.244 l -0.023,-0.49 c -0.539,-0.074 -0.539,-0.367 -0.539,-0.367 0.074,-0.439 0.465,-0.488 0.465,-0.488 l -0.049,-0.564 c 0.318,-0.293 0.93,-0.121 0.93,-0.121 -0.049,-0.344 -0.318,-0.246 -0.318,-0.246 0,-0.268 -0.316,-0.293 -0.316,-0.293 v 0.074 l -0.883,0.686 c 0.123,0.684 -0.195,0.904 -0.195,0.904 -0.611,0.393 -1.051,-0.146 -1.051,-0.146 l -0.344,0.221 c 0.318,0.023 0.539,0.318 0.539,0.318 l -0.049,0.049 a 1.39,1.39 0 0 0 -0.539,-0.27 l -0.293,0.121 -0.146,0.123 z" />
  <path
     style="clip-rule:evenodd;fill:#000000;fill-rule:evenodd;fill-opacity:1"
     inkscape:connector-curvature="0"
     id="path20"
     d="m 96.895686,18.408487 c 0.27,-0.393 0.391,-1.029 0.391,-1.029 l 0.1,0.123 -0.146,0.465 0.098,0.098 0.17,-0.391 0.123,0.146 -0.195,0.318 0.146,0.121 0.195,-0.268 0.123,0.098 -0.27,0.27 0.121,0.17 0.221,-0.342 0.172,0.123 -0.293,0.293 0.121,0.098 0.295,-0.244 0.098,0.072 -0.711,0.588 c -0.245,-0.539 -0.759,-0.709 -0.759,-0.709 z m 2.52,0.586 c 0.613004,-0.146 0.1,-0.465 0.1,-0.465 -0.539,-0.195 -0.613,-0.098 -0.613,-0.098 0.197,0.074 0.172,0.195 0.172,0.195 0.269,0.026 0.341,0.368 0.341,0.368 z m 0.025,0.588 0.221,-0.539 c -0.344,0.123 -0.562,0.049 -0.562,0.049 -0.367,-0.049 -0.516,0.049 -0.516,0.049 -0.219,0.123 -0.047,0.148 -0.047,0.148 0.268,0.267 0.904,0.293 0.904,0.293 z m 0.709004,-0.075 0.123,0.149 0.588,-0.197 -0.344,0.246 0.637,0.049 -0.293,-0.442 z M 98.388686,8.6934872 c -0.049,-0.44 -0.293,-0.636 -0.293,-0.636 -0.27,-0.171 -0.293,-0.024 -0.293,-0.024 0,0.22 0.17,0.293 0.17,0.293 z m 0.562,0.342 c -0.049,-0.269 -0.072,-0.293 -0.072,-0.293 -0.098,-0.171 -0.172,-0.269 -0.172,-0.269 l -0.318,-0.22 c 0.098,0.196 0.123,0.44 0.123,0.44 z m 0.025,-0.391 c 0.146,0.245 0.123,0.44 0.123,0.44 l 0.391,0.392 c 0,-0.392 -0.195,-0.636 -0.195,-0.636 l -0.318,-0.245 v 0.049 z m -0.757,2.7159998 c -0.172,0.098 -0.295,0.049 -0.295,0.049 0,0.245 0.441,0.245 0.441,0.245 0.172,0 0.318,-0.171 0.318,-0.171 v -0.098 c -0.146,0.098 -0.318,0.123 -0.318,0.123 z m 0.537,1.688 0.049,-0.171 c 0.465,-0.123 0.123,-0.465 0.123,-0.465 0.172,-0.073 0.221,-0.024 0.221,-0.024 0.219,-0.123 0.293,0.146 0.293,0.146 0.172,-0.146 0.293,-0.049 0.293,-0.049 -0.367,0.343 0.074,0.465 0.074,0.465 0.221004,0 0.270004,-0.22 0.270004,-0.22 -0.098,-0.099 -0.123004,-0.171 -0.123004,-0.171 a 0.597,0.597 0 0 1 0.195004,0.122 c -0.023,-0.147 0.123,-0.147 0.123,-0.147 0.072,0.123 0.049,0.22 0.049,0.22 0.074,-0.073 0.221,0 0.221,0 -0.221,0.245 0.072,0.465 0.072,0.465 0.344,0.195 0.295,-0.367 0.295,-0.367 0.244,0 0.219,0.22 0.219,0.22 l 0.148,-0.122 c 0.049,0.147 0.049,0.245 0.049,0.245 0.098,-0.123 0.244,-0.024 0.244,-0.024 -0.393,0.244 -0.123,0.465 -0.123,0.465 0.123,0.098 0.221,0.024 0.221,0.024 l -0.023,-0.171 0.316,0.049 -0.316,0.367 c -1.666004,-0.955 -2.890004,-0.857 -2.890004,-0.857 z m 0.76,-4.0859998 0.316,0.196 c -0.023,0.196 -0.195,0.391 -0.195,0.391 0.048,-0.195 -0.121,-0.587 -0.121,-0.587 z m 1.515004,0.196 c 0.662,-0.171 1.102,0.709 1.102,0.709 l -0.488,-0.195 c -0.198,-0.221 -0.614,-0.514 -0.614,-0.514 z m 0.662,0.66 c 0.146,0.1959998 0.219,0.5139998 0.219,0.5139998 0.172,0.196 0.662,0.49 0.662,0.49 -0.123,-0.808 -0.881,-1.0039998 -0.881,-1.0039998 z m 0.317,0.8079998 c 0.857,0.318 0.588,1.223 0.588,1.223 -0.123,-0.318 -0.342,-0.416 -0.342,-0.416 -0.246,-0.244 -0.246,-0.807 -0.246,-0.807 z m 0.148,0.954 c 0.023,0.196 -0.049,0.538 -0.049,0.538 0.121,0.196 0.219,0.587 0.219,0.587 0.098,-0.098 0.221,-0.685 0.221,-0.685 -0.074,-0.268 -0.391,-0.44 -0.391,-0.44 z m -0.098,0.783 c -0.051,0.269 -0.344,0.758 -0.344,0.758 l 0.123,0.147 0.146,0.098 c 0.417,-0.538 0.075,-1.003 0.075,-1.003 z m 5.04,7.953 -0.219,-0.832 c -0.172,-0.27 -0.441,-0.098 -0.441,-0.098 -0.221,0.17 -0.49,0.072 -0.49,0.072 -0.293,-0.049 -0.049,-0.244 -0.049,-0.244 0.393,-0.244 0.783,-0.367 0.783,-0.367 0.295,0.123 0.832,0.098 0.832,0.098 0.465,-0.072 0.367,0.318 0.367,0.318 0.025,0.367 -0.098,1.004 -0.098,1.004 -0.293,0 -0.685,0.049 -0.685,0.049 z m 0.783,0.172 0.123,0.121 -0.367,0.66 -0.172,-0.098 c 0.244,-0.195 0.416,-0.683 0.416,-0.683 z m 0.22,0.17 -0.293,0.637 c 0.537,0.098 0.93,-0.27 0.93,-0.27 l -0.074,-0.391 c -0.27,0.121 -0.563,0.024 -0.563,0.024 z m 1.102,-0.27 c 0.121,0.025 0.367,0.123 0.367,0.123 0.098,-0.439 -0.123,-0.979 -0.123,-0.979 0.416,0.146 0.416,-0.025 0.416,-0.025 0.123,-0.342 -0.293,-0.439 -0.293,-0.439 -0.711,-0.221 -0.955,-0.172 -0.955,-0.172 0.049,0.195 0.025,0.318 0.025,0.318 0.023,0.049 0.023,0.244 0.023,0.244 0.686,0.247 0.54,0.93 0.54,0.93 z m -13.703004,-7.584 v 0.195 l 0.244,-0.171 -0.244,0.563 -0.024,0.343 0.391,-0.833 -0.123,-0.22 z m 0.074,1.052 h 0.098 l 0.513,-0.392 0.049,-0.098 0.121,0.27 h -0.072 l -0.465,0.367 0.072,0.196 0.124,0.122 -0.172,0.073 z m 0.44,1.077 0.074,0.293 0.121,-0.074 0.197,-0.072 0.17,0.121 h 0.244 l -0.293,-0.196 0.221,-0.244 -0.098,-0.293 -0.049,0.121 -0.22,0.295 -0.293,0.073 z m 0.392,1.737 c -0.123,0.025 -0.074,0.098 -0.074,0.098 0.244,0.318 0.391,0.049 0.391,0.049 0.074,-0.146 0.049,-0.244 0.049,-0.244 l -0.072,-0.023 c 0,0.293 -0.146,0.219 -0.146,0.219 -0.099,-0.002 -0.148,-0.099 -0.148,-0.099 z m -0.269,0.464 -0.049,0.319 0.097,0.172 0.049,-0.295 0.244,0.123 -0.123,0.244 -0.072,0.025 0.172,0.098 0.17,-0.393 0.074,-0.097 h -0.074 l -0.488,-0.244 z m -4.821,2.692 c -0.049,0.195 -0.221,0.172 -0.221,0.172 l -0.27,-0.318 c -0.172,-0.27 -0.023,-0.342 -0.023,-0.342 l 0.342,-0.49 a 0.45,0.45 0 0 1 0.172,0.195 l -0.246,0.318 c -0.072,0.172 0.049,0.221 0.049,0.221 z" />
  <path
     style="clip-rule:evenodd;fill:#000000;fill-rule:evenodd;fill-opacity:1"
     inkscape:connector-curvature="0"
     id="path22"
     d="m 91.659686,18.798487 c 0.098,0.416 -0.318,0.318 -0.318,0.318 -0.146,0.293 0.074,0.293 0.074,0.293 0.342,0.025 0.465,-0.318 0.465,-0.318 0,-0.218 -0.221,-0.293 -0.221,-0.293 z m 7.242,-6.777 -0.293,-0.269 c 0,0 0.244,-0.196 0.195,-0.44 0,0 0.172,-0.024 -0.17,-0.024 l -0.123,0.073 c 0,0 -0.123,-0.049 -0.146,-0.123 l -0.049,-0.293 0.221,-0.269 0.195,0.024 c 0.143,-0.195 0.514,-0.528 0.83,-0.7979998 l 0.1,0.1129998 c -0.123,0.269 0.023,0.342 0.023,0.342 0.195,0.123 0.27,-0.122 0.27,-0.122 0.195004,0.098 0.123004,-0.024 0.123004,-0.024 -0.197004,-0.044 -0.416004,-0.3039998 -0.457004,-0.3569998 0.252,-0.214 0.457004,-0.377 0.457004,-0.377 0.121,-0.269 0.318,-0.392 0.318,-0.392 -0.123,-0.146 -0.221,-0.538 -0.221,-0.538 0.611,0 0.709,0.636 0.709,0.636 1.885,1.4929998 0.711,3.8419998 0.711,3.8419998 -0.564,-0.465 -1.836004,-0.759 -1.836004,-0.759 0.172,-0.342 0.586004,-0.563 0.586004,-0.563 0.809,0.025 0.686,-0.954 0.686,-0.954 -0.17,-0.343 -0.121,0.171 -0.121,0.171 -0.344,1.125 -1.225004,0.123 -1.225004,0.123 -0.098,-0.074 0,0.171 0,0.171 0.049,0.122 0.098,0.098 0.098,0.098 l 0.074,0.073 -0.611,0.245 c -0.098,0.147 -0.27,0.392 -0.27,0.392 h -0.074 z m -11.377,-1.933 c -1.027,0.098 -2.275,1.003 -2.275,1.003 -0.147,0.098 -0.171,0.073 -0.171,0.073 -0.245,0.44 0.269,0.636 0.269,0.636 a 1.793,1.793 0 0 0 0.196,1.174 c 0.22,0.27 0.269,0.955 0.269,0.955 0.171,-0.123 0.22,-0.392 0.22,-0.392 0.196,0.831 0.832,1.003 0.832,1.003 a 0.593,0.593 0 0 1 0.392,0.293 c 0.073,-0.244 0.049,-0.488 0.049,-0.488 0.073,0.318 0.367,0.488 0.367,0.488 0.049,-0.293 0.147,-0.562 0.147,-0.562 0.22,-0.464 0.049,-0.929 0.049,-0.929 0.098,0.171 0.318,0.22 0.318,0.22 -0.147,-0.44 0,-0.808 0,-0.808 0.074,-0.44 -0.098,-0.734 -0.098,-0.734 l -0.047,-0.177 c -0.106,0.308 -0.052,0.789 -0.052,0.789 -0.122,-0.024 -0.245,-0.073 -0.245,-0.073 0.074,0.44 -0.22,1.027 -0.22,1.027 -0.171,0.269 -0.196,0.465 -0.196,0.465 -0.22,-0.293 -0.905,-0.489 -0.905,-0.489 a 3.044,3.044 0 0 1 -0.293,-0.44 c -0.098,0.171 -0.196,0.123 -0.196,0.123 -0.073,-0.245 -0.293,-0.539 -0.293,-0.539 -0.171,-0.293 -0.171,-0.587 -0.171,-0.587 0.221,0.416 0.294,0.514 0.294,0.514 0.171,0.099 0.171,0.44 0.171,0.44 0.147,-0.073 0.171,-0.244 0.171,-0.244 0.343,0.562 0.808,0.661 0.808,0.661 0.196,0.098 0.367,0.269 0.367,0.269 0.024,-0.392 0.171,-0.562 0.171,-0.562 0.293,-0.441 0.122,-0.979 0.122,-0.979 a 0.473,0.473 0 0 0 0.343,0.269 c -0.049,-0.22 -0.024,-0.416 -0.024,-0.416 0.04,-0.158 0.058,-0.381 0.066,-0.552 l -0.066,-0.256 c -0.147,-0.318 -0.171,-0.538 -0.171,-0.538 0.242,-0.442 -0.198,-0.637 -0.198,-0.637 z m -1.003,2.177 c 0.195,0.269 0.465,0.367 0.465,0.367 0.146,-0.318 0.098,-0.562 0.098,-0.562 -0.22,0.024 -0.318,-0.049 -0.318,-0.049 -0.074,0.269 -0.245,0.244 -0.245,0.244 z m -0.955,-1.076 c 0.343,0.098 0.465,-0.049 0.465,-0.049 0.367,-0.147 0.416,0.245 0.416,0.245 0,0.171 0.074,0.293 0.074,0.293 0.105,0.011 0.292,-0.023 0.367,-0.098 0.098,-0.123 -0.049,-0.245 -0.049,-0.245 -0.049,-0.171 -0.098,-0.269 -0.098,-0.269 0,-0.392 0.27,-0.367 0.27,-0.367 0.171,0.024 0.293,-0.147 0.293,-0.147 a 0.438,0.438 0 0 1 -0.269,0.465 c -0.171,0.123 -0.123,0.27 -0.123,0.27 0.171,0.293 0.024,0.318 0.024,0.318 a 0.275,0.275 0 0 1 -0.19,0.162 c 0.077,0.204 0.264,0.181 0.264,0.181 0.269,-0.146 0.269,-0.44 0.269,-0.44 0.122,0.342 0,0.44 0,0.44 0.122,0.22 -0.074,0.318 -0.074,0.318 0,0.416 -0.22,0.612 -0.22,0.612 -0.832,-0.489 -0.856,-1.052 -0.856,-1.052 0.269,0.465 0.538,0.245 0.538,0.245 0.053,-0.054 0.042,-0.21 0.032,-0.292 -0.117,0.021 -0.228,-10e-4 -0.228,-10e-4 -0.147,-0.196 -0.122,-0.342 -0.122,-0.342 -0.123,-0.27 -0.196,-0.049 -0.196,-0.049 -0.44,0.266 -0.587,-0.198 -0.587,-0.198 z m -5.652,8.416 c 0.685,0.416 3.206,0.416 3.206,0.416 2.422,0.025 3.744,-0.316 3.744,-0.316 0.293,0 0.783,-0.221 0.783,-0.221 0.098,-0.025 0.048,0.172 0.048,0.172 -0.146,0.562 -0.024,1.125 -0.024,1.125 0,0.391 -0.416,0.367 -0.416,0.367 -3.548,0.488 -6.386,0.244 -6.386,0.244 -0.832,-0.146 -0.857,-0.588 -0.857,-0.588 0.196,-0.684 -0.073,-1.076 -0.073,-1.076 -0.099,-0.072 -0.025,-0.123 -0.025,-0.123 z m 0.783,1.445 0.074,-0.074 v -0.709 l -0.049,-0.123 c 0.538,-0.023 0.709,0.195 0.709,0.195 0.367,0.613 -0.27,0.76 -0.27,0.76 a 0.798,0.798 0 0 1 -0.464,-0.049 z m 1.223,-0.808 0.367,0.025 c -0.098,0.049 -0.073,0.195 -0.073,0.195 l -0.024,0.66 0.098,0.146 -0.392,-0.023 c 0.098,-0.074 0.098,-0.123 0.098,-0.123 v -0.709 c 0,-0.097 -0.074,-0.171 -0.074,-0.171 z m -0.905,0.025 -0.024,0.686 c 0.269,0.023 0.318,-0.197 0.318,-0.197 0.049,-0.121 -0.049,-0.293 -0.049,-0.293 -0.098,-0.196 -0.245,-0.196 -0.245,-0.196 z m 1.664,0.049 h 0.709 l 0.024,0.172 c -0.098,-0.051 -0.22,-0.051 -0.22,-0.051 h -0.147 v 0.27 h 0.074 l 0.171,-0.049 -0.024,0.221 -0.122,-0.025 h -0.098 v 0.295 h 0.171 c 0.098,0 0.171,-0.074 0.171,-0.074 v 0.195 l -0.538,-0.023 h -0.147 c -0.024,-0.025 0,-0.025 0,-0.025 0.049,0 0.098,-0.049 0.098,-0.049 v -0.758 c -0.024,-0.05 -0.122,-0.099 -0.122,-0.099 z m 1.101,-0.025 0.367,0.025 a 0.407,0.407 0 0 0 -0.049,0.121 v 0.49 c 0.024,0.195 0.171,0.172 0.171,0.172 0.171,-0.025 0.147,-0.246 0.147,-0.246 v -0.488 l -0.049,-0.049 h 0.269 c -0.024,0.023 -0.024,0.072 -0.024,0.072 v 0.514 c -0.025,0.318 -0.367,0.344 -0.367,0.344 -0.367,-0.025 -0.367,-0.367 -0.367,-0.367 v -0.49 a 0.336,0.336 0 0 0 -0.098,-0.098 z m 1.786,-0.098 0.587,-0.049 0.073,0.172 c -0.073,-0.025 -0.171,-0.025 -0.171,-0.025 h -0.146 v 0.246 h 0.146 c 0.024,-0.025 0.074,-0.049 0.074,-0.049 l 0.024,0.219 c -0.049,-0.049 -0.098,-0.049 -0.098,-0.049 h -0.146 v 0.27 h 0.171 c 0.049,0 0.123,-0.074 0.123,-0.074 v 0.172 l -0.563,0.074 0.049,-0.049 -0.024,-0.783 c -10e-4,-0.05 -0.099,-0.075 -0.099,-0.075 z m 1.053,-0.098 0.024,0.195 c 0.049,-0.098 0.22,-0.098 0.22,-0.098 l 0.024,0.709 -0.049,0.051 0.293,-0.051 -0.049,-0.023 -0.024,-0.709 c 0.146,-0.049 0.22,0.023 0.22,0.023 l -0.024,-0.195 -0.025,0.023 -0.562,0.051 h -0.049 v 0.024 z m 1.418,-0.783 c -0.171,-0.318 -0.049,-0.537 -0.049,-0.537 0.147,-0.441 0.563,-0.393 0.563,-0.393 0.244,0.146 0.221,-0.049 0.221,-0.049 0.244,-0.342 0.537,-0.146 0.537,-0.146 a 0.556,0.556 0 0 0 0.318,0.195 c 0.172,0.221 0.074,0.342 0.074,0.342 a 0.3,0.3 0 0 0 0.049,0.221 c 0.221,0.049 0.195,0.295 0.195,0.295 0.049,0.268 -0.123,0.709 -0.123,0.709 -0.146,0.123 -0.316,0.023 -0.316,0.023 -0.123,0.025 -0.074,0.074 -0.074,0.074 0.123,0.195 0,0.293 0,0.293 -0.195,0.221 -0.465,0.197 -0.465,0.197 -0.391,0 -0.416,-0.197 -0.416,-0.197 -0.049,-0.17 -0.269,-0.17 -0.269,-0.17 -0.318,-0.098 -0.343,-0.416 -0.343,-0.416 -0.024,-0.172 0.098,-0.246 0.098,-0.246 0.123,-0.072 0,-0.195 0,-0.195 z m 0.661,0.221 c 0.098,0.367 -0.121,0.514 -0.121,0.514 -0.197,0.025 -0.221,-0.123 -0.221,-0.123 0,-0.146 -0.123,-0.17 -0.123,-0.17 -0.073,-0.295 0.074,-0.295 0.074,-0.295 0.245,-0.073 0.391,0.074 0.391,0.074 z m 0.465,-0.147 c 0.049,0.244 0.393,0.439 0.393,0.439 0.17,0 0.098,-0.244 0.098,-0.244 -0.098,-0.123 -0.049,-0.195 -0.049,-0.195 0.244,-0.049 0.072,-0.27 0.072,-0.27 -0.465,-0.122 -0.514,0.27 -0.514,0.27 z m -0.342,-0.392 c 0,-0.465 -0.295,-0.439 -0.295,-0.439 -0.146,0.023 -0.146,0.17 -0.146,0.17 0.049,0.246 -0.049,0.246 -0.049,0.246 -0.22,0.049 -0.073,0.293 -0.073,0.293 0.073,0.098 0.122,0.074 0.122,0.074 0.22,0 0.392,-0.123 0.392,-0.123 0.121,-0.024 0.049,-0.221 0.049,-0.221 z m 0.319,-0.514 c 0.072,0.146 0.195,0.123 0.195,0.123 0.27,0 0.098,0.27 0.098,0.27 -0.146,0.195 -0.342,0.219 -0.342,0.219 -0.27,-0.316 -0.246,-0.488 -0.246,-0.488 0,-0.393 0.295,-0.124 0.295,-0.124 z m -0.172,1.176 c 0.367,0.049 0.342,0.439 0.342,0.439 -0.098,0.172 -0.195,0.098 -0.195,0.098 -0.123,-0.121 -0.195,-0.023 -0.195,-0.023 0,0.219 -0.172,0.072 -0.172,0.072 -0.099,-0.514 0.22,-0.586 0.22,-0.586 z" />
  <path
     style="clip-rule:evenodd;fill:#000000;fill-rule:evenodd;fill-opacity:1"
     inkscape:connector-curvature="0"
     id="path24"
     d="m 89.309686,20.634487 c 0.367,-0.098 0.367,-0.441 0.367,-0.441 a 0.36,0.36 0 0 0 0.084,-0.039 c 0.268,0.168 0.332,0.383 0.332,0.383 0.098,0.049 0.246,0.293 0.246,0.293 -0.025,-0.318 -0.172,-0.393 -0.172,-0.393 a 1.068,1.068 0 0 0 -0.262,-0.408 c 0.188,-0.234 0.188,-0.594 0.188,-0.594 0.27,-0.098 0.514,0.244 0.514,0.244 -0.098,0.049 -0.195,0.025 -0.195,0.025 0.393,0.17 0.318,0.783 0.318,0.783 -0.172,0 -0.244,-0.074 -0.244,-0.074 0.293,0.342 0,1.004 0,1.004 -0.295,-0.123 -0.344,-0.465 -0.344,-0.465 0.049,0.244 -0.049,0.316 -0.049,0.316 -0.244,-0.049 -0.342,-0.367 -0.342,-0.367 -0.025,0.295 -0.172,0.172 -0.172,0.172 -0.072,-0.049 -0.072,-0.221 -0.072,-0.221 -0.122,-0.022 -0.197,-0.218 -0.197,-0.218 z m 3.059,-0.269 a 1.698,1.698 0 0 1 -0.295,-0.096 c -0.061,0.166 -0.223,0.57 -0.414,0.781 0,0 0.217,-0.436 0.344,-0.812 a 2.43,2.43 0 0 1 -0.588,-0.387 c -0.025,0.367 -0.416,0.17 -0.416,0.17 -0.195,0.367 0.17,0.467 0.17,0.467 0.295,-0.025 0.441,-0.197 0.441,-0.197 0.342,-0.072 0.098,0.197 0.098,0.197 -0.123,0.121 -0.391,0.17 -0.391,0.17 -0.367,0.123 -0.172,0.416 -0.172,0.416 0.195,0.27 0.391,0.172 0.391,0.172 0.172,0.023 0.172,0.146 0.172,0.146 0.123,0.293 0.318,0.123 0.318,0.123 0.221,-0.246 0.098,-0.49 0.098,-0.49 -0.123,-0.318 -0.049,-0.439 -0.049,-0.439 -0.074,-0.441 0.123,-0.123 0.123,-0.123 0.049,0.074 0.098,0.27 0.098,0.27 0.072,0.17 0.098,0.049 0.098,0.049 z m -3.816,-2.106 0.146,-0.268 c -0.023,-0.295 -0.318,-0.465 -0.318,-0.465 -0.049,0.098 0,0.219 0,0.219 -0.147,-0.219 -0.587,-0.367 -0.587,-0.367 -0.049,0.123 0,0.367 0,0.367 -0.221,-0.416 -0.686,-0.439 -0.686,-0.439 0,0.195 0.098,0.318 0.098,0.318 -0.22,-0.172 -0.661,-0.123 -0.661,-0.123 0.074,0.441 0.441,0.734 0.441,0.734 l -0.049,0.123 c -0.269,-0.197 -0.342,-0.049 -0.342,-0.049 -0.024,0.023 0,0.072 0,0.072 0.146,0.244 0.685,0.465 0.685,0.465 -0.147,0.049 -0.196,0.172 -0.196,0.172 0.196,0.391 0.783,0.367 0.783,0.367 a 1.384,1.384 0 0 1 0.015,-0.814 c -0.062,-0.039 -0.394,-0.25 -0.504,-0.361 0,0 -0.098,-0.121 -0.293,-0.293 l -0.343,-0.27 c 0,0 0.27,0.098 0.465,0.246 0,0 0.439,0.373 0.756,0.537 0.244,-0.235 0.59,-0.171 0.59,-0.171 z m 9.984,1.274 c 0.146,0.611 0.047,1.42 0.047,1.42 2.742004,1.051 7.439004,0.414 7.439004,0.414 0.783,-0.098 0.809,-0.219 0.809,-0.219 0.293,-0.025 0.244,-0.465 0.244,-0.465 -0.172,-0.221 -0.27,-1.102 -0.27,-1.102 -0.637,0.367 -4.232,0.465 -4.232,0.465 -2.912004,0.075 -4.037004,-0.513 -4.037004,-0.513 z m 0.342,0.367 0.27,0.049 0.146,0.539 0.293,-0.416 0.244,0.023 -0.023,0.074 v 0.783 l 0.049,0.098 -0.342,-0.049 0.049,-0.074 v -0.416 l -0.318,0.416 -0.221,-0.514 v 0.465 l -0.195,-0.098 0.023,-0.049 0.025,-0.711 z m 1.297004,0.367 c -0.416004,0.391 0,0.832 0,0.832 0.244,0.219 0.562,0 0.562,0 0.367,-0.514 -0.025,-0.832 -0.025,-0.832 -0.367,-0.195 -0.537,0 -0.537,0 z m 0.269,0.024 c -0.416,0.197 -0.123,0.637 -0.123,0.637 0.098,0.221 0.244,0.049 0.244,0.049 0.197,-0.195 0.049,-0.514 0.049,-0.514 -0.049,-0.221 -0.17,-0.172 -0.17,-0.172 z m 0.635,-0.049 h 0.197 l 0.318,0.441 -0.025,-0.344 -0.025,-0.072 0.318,0.023 -0.049,0.074 v 0.832 l 0.025,0.072 h -0.172 l -0.342,-0.514 v 0.344 l 0.023,0.098 -0.244,-0.025 0.023,-0.121 0.025,-0.711 z m 1.543,0.049 h 0.342 c 0.367,0 0.441,0.49 0.441,0.49 0,0.537 -0.516,0.514 -0.516,0.514 l -0.268,-0.025 0.098,-0.072 -0.025,-0.832 z m 0.293,0.123 v 0.783 c 0.318,-0.123 0.244,-0.49 0.244,-0.49 -0.072,-0.293 -0.244,-0.293 -0.244,-0.293 z m 0.66,-0.123 0.146,-0.023 c 0.197,-0.098 0.441,-0.025 0.441,-0.025 0.244,0.27 -0.025,0.514 -0.025,0.514 l 0.221,0.344 a 0.162,0.162 0 0 1 0.098,0.072 c -0.121,0.049 -0.195,0 -0.195,0 -0.221,-0.146 -0.27,-0.342 -0.27,-0.342 h -0.121 v 0.367 l 0.023,0.072 h -0.244 l 0.023,-0.072 -0.023,-0.857 z m 0.295,0.441 v -0.393 c 0.098,-0.098 0.17,0.025 0.17,0.025 0.123,0.195 0,0.318 0,0.318 -0.049,0.073 -0.17,0.05 -0.17,0.05 z m 1.076,-0.611 c 0.465,-0.025 0.465,0.586 0.465,0.586 -0.049,0.49 -0.49,0.49 -0.49,0.49 -0.416,-0.049 -0.439,-0.562 -0.439,-0.562 0.072,-0.563 0.464,-0.514 0.464,-0.514 z m 0,0.146 c 0.244,0.023 0.221,0.391 0.221,0.391 0.023,0.344 -0.221,0.416 -0.221,0.416 -0.123,0.025 -0.172,-0.146 -0.172,-0.146 -0.146,-0.465 0.049,-0.611 0.049,-0.611 0.026,-0.05 0.123,-0.05 0.123,-0.05 z m 0.611,-0.172 0.342,-0.023 -0.049,0.098 0.025,0.855 0.049,0.049 -0.293,0.025 0.023,-0.049 -0.023,-0.881 z m 0.588,-0.074 0.023,0.246 0.074,-0.074 0.123,-0.023 v 0.783 l -0.025,0.072 0.244,-0.049 -0.023,-0.074 v -0.807 h 0.17 l -0.023,-0.195 -0.049,0.023 -0.441,0.098 z m -10.007004,-1.099 c 0.006,0.062 0.016,0.121 0.029,0.176 a 0.327,0.327 0 0 1 0.033,-0.018 c 0.078,-0.217 0.035,-0.305 0.035,-0.305 l 0.072,-0.051 c 0.033,0.084 0,0.234 -0.025,0.322 a 0.509,0.509 0 0 1 0.205,-0.021 1.12,1.12 0 0 0 0.041,-0.35 l -0.352,-0.043 c -0.079,0.129 -0.038,0.29 -0.038,0.29 z m 0.06,0.287 c 0.061,0.188 0.156,0.332 0.262,0.443 0.113,-0.086 0.088,-0.416 0.074,-0.539 a 0.464,0.464 0 0 0 -0.336,0.096 z m 0.317,0.498 c 0.115,0.105 0.234,0.176 0.332,0.221 a 0.84,0.84 0 0 0 0.055,-0.398 c -0.139,0 -0.285,0.047 -0.346,0.066 -0.014,0.052 -0.032,0.089 -0.041,0.111 z m 0.412,0.254 c 0.07,0.027 0.115,0.037 0.115,0.037 0.086,0.012 0.156,0.01 0.217,0 l -0.018,-0.223 c -0.078,-0.004 -0.215,0.064 -0.281,0.102 z m 0.41,0.017 a 0.367,0.367 0 0 0 0.236,-0.287 0.433,0.433 0 0 0 -0.232,-0.02 z m 0.244,-0.385 c -0.008,-0.332 -0.115,-0.562 -0.26,-0.727 0.018,0.062 0.08,0.295 0.041,0.441 l 0.121,-0.045 0.023,0.074 -0.17,0.021 a 0.82,0.82 0 0 1 -0.006,0.24 c 0.128,-0.041 0.212,-0.021 0.251,-0.004 z m -0.322,-0.791 a 1.136,1.136 0 0 0 -0.311,-0.201 c 0.02,0.029 0.08,0.139 0.072,0.301 a 0.503,0.503 0 0 1 0.239,-0.1 z m -0.453,-0.255 a 1.4,1.4 0 0 0 -0.35,-0.066 0.394,0.394 0 0 0 -0.232,0.096 l 0.359,0.025 z m -0.211,0.14 c 0.018,0.094 0.037,0.18 0.004,0.264 0.184,-0.07 0.303,-0.035 0.348,-0.016 a 0.576,0.576 0 0 0 -0.072,-0.303 z m 0.445,0.334 a 0.52,0.52 0 0 1 -0.014,0.336 c 0.135,-0.062 0.219,-0.057 0.264,-0.043 a 0.684,0.684 0 0 0 -0.051,-0.375 0.292,0.292 0 0 0 -0.199,0.082 z m -0.047,0.438 a 0.667,0.667 0 0 1 -0.008,0.336 c 0.127,-0.137 0.242,-0.141 0.271,-0.141 0.035,-0.049 0.039,-0.207 0.035,-0.248 a 0.91,0.91 0 0 0 -0.298,0.053 z m -0.037,-0.395 a 0.536,0.536 0 0 0 -0.371,0.025 c 0.021,0.166 0.014,0.303 -0.006,0.406 a 0.609,0.609 0 0 1 0.352,-0.066 0.667,0.667 0 0 0 0.025,-0.365 z m -6.055,-7.411 -0.416,-1.321 0.219,-0.5869998 0.246,0.9539998 -0.221,-0.098 c 0.172,0.758 0.783,0.367 0.783,0.367 0.27,-0.293 0.023,-0.391 0.023,-0.391 -0.316,-0.172 -0.367,0.024 -0.367,0.024 -0.219,-0.8319998 0.344,-0.514 0.344,-0.514 -0.025,-0.5389998 0.195,-0.5869998 0.195,-0.5869998 0.293,0.098 0.293,0.5629998 0.293,0.5629998 0.318,-0.5139998 0.516,0.024 0.516,0.024 0.023,0.074 -0.025,0.22 -0.025,0.22 -0.391,-0.146 -0.439,0.27 -0.439,0.27 -0.051,0.269 0.439,0.342 0.439,0.342 0.588,-0.171 0.588,-0.808 0.588,-0.808 -0.172,0.025 -0.465,0.293 -0.465,0.293 V 9.3034872 c 0.146,0.269 0.514,0.416 0.514,0.416 -0.074,-0.489 -0.344,-0.758 -0.344,-0.758 l 1.029,-0.024 c -0.344,0.318 -0.318,0.783 -0.318,0.783 0.293,-0.048 0.439,-0.342 0.439,-0.342 l 0.025,0.9539998 c -0.221,-0.3419998 -0.441,-0.195 -0.441,-0.195 -0.098,0.733 0.539,0.758 0.539,0.758 0.439,0 0.465,-0.367 0.465,-0.367 -0.098,-0.44 -0.393,-0.196 -0.393,-0.196 -0.121,-0.7339998 0.416,-0.4159998 0.416,-0.4159998 -0.195,-0.489 0.146,-0.661 0.146,-0.661 0.418,0.245 0.221,0.661 0.221,0.661 0.564,-0.293 0.465,0.4159998 0.465,0.4159998 -0.537,-0.245 -0.465,0.318 -0.465,0.318 0.246,0.587 0.734,0.146 0.734,0.146 0.098,-0.146 0.123,-0.293 0.123,-0.293 l -0.221,0.049 0.221,-0.7579998 0.195,0.3919998 0.146,-0.4159998 0.123,0.146 -0.711,1.7859998 c -2.15,-0.489 -4.621,-0.049 -4.621,-0.049 z m 3.645,-0.342 c -0.121,-0.024 -0.244,-0.074 -0.219,-0.123 0,-0.073 0.098,-0.098 0.244,-0.073 0.121,0.024 0.244,0.073 0.221,0.122 0,0.074 -0.1,0.098 -0.246,0.074 z m -2.643,0.024 c 0.123,-0.024 0.221,-0.073 0.221,-0.146 0,-0.049 -0.123,-0.073 -0.244,-0.049 -0.146,0 -0.244,0.073 -0.244,0.122 0,0.049 0.121,0.098 0.267,0.073 z m 1.346,-0.489 0.344,0.294 -0.344,0.22 -0.316,-0.22 z m 4.601,3.841 c 0.023,-0.342 0.219,-0.733 0.219,-0.733 l -0.285,-0.306 -0.098,0.176 c 0.053,0.05 0.09,0.123 0.09,0.203 0,0.111 -0.07,0.209 -0.158,0.25 l -0.023,0.104 z m -0.144,-1.122 -0.713,-0.761 c -0.488,-0.71 -0.832,-0.367 -0.832,-0.367 l -0.342,0.123 c 0.27,0.171 0.416,0.465 0.416,0.465 0.293,-0.049 0.318,0.098 0.318,0.098 l 0.758,0.917 v -0.012 c 0,-0.147 0.098,-0.269 0.221,-0.269 0.027,0 0.057,0.006 0.082,0.018 z" />
  <path
     style="clip-rule:evenodd;fill:#000000;fill-rule:evenodd;fill-opacity:1"
     inkscape:connector-curvature="0"
     id="path26"
     d="m 96.700686,13.464487 c -0.172,-0.195 -0.293,-0.342 -0.367,-0.269 0,0 0.221,0.416 0.391,0.929 0.123,0.367 0.221,0.783 0.197,1.174 l 0.365,0.025 0.096,0.012 -0.033,-0.188 c -0.105,-0.021 -0.184,-0.133 -0.184,-0.264 0,-0.172 0.098,-0.295 0.221,-0.295 0.006,0 0.014,0 0.02,0.002 l 0.045,-0.211 c -0.061,-0.072 -0.123,-0.15 -0.188,-0.23 -0.098,-0.123 -0.221,-0.246 -0.318,-0.368 -0.073,-0.121 -0.173,-0.219 -0.245,-0.317 z m 0.781,1.883 0.393,0.051 c 0,0 -0.123,-0.197 -0.049,-0.564 l -0.26,-0.312 -0.029,0.133 a 0.316,0.316 0 0 1 0.094,0.23 0.277,0.277 0 0 1 -0.168,0.252 z" />
  <path
     style="clip-rule:evenodd;fill:#000000;fill-rule:evenodd;fill-opacity:1"
     inkscape:connector-curvature="0"
     id="path28"
     d="m 94.962686,18.480487 c 0.172,0.244 0.686,0.172 0.686,0.172 0.074,-0.049 0.049,-0.342 0.049,-0.342 -0.049,-0.172 -0.023,-0.27 -0.023,-0.27 0.121,0.023 0.146,0.17 0.146,0.17 0,0.049 -0.074,0.295 -0.074,0.295 0.539,-0.344 0.074,-1.004 0.074,-1.004 0.123,-0.686 0.293,-0.855 0.293,-0.855 0.562,-0.49 0.857,-0.318 0.857,-0.318 0.488,0 1.297,0.27 1.297,0.27 0.316,0.098 1.443,0.293 1.443,0.293 a 0.389,0.389 0 0 1 0.098,-0.195 c 0.318004,-0.221 0.537004,-1.273 0.537004,-1.273 0,-0.17 0.074,-0.098 0.074,-0.098 0.049,0.195 0.025,0.27 0.025,0.27 0.049,0.367 -0.246,1.027 -0.246,1.027 0.588,0.342 1.592,0.27 1.592,0.27 0.709,0 1.271,-0.367 1.271,-0.367 0.66,-0.293 1.492,-0.221 1.492,-0.221 l -0.023,-0.146 c -0.611,-0.27 -0.195,-0.588 -0.195,-0.588 l -0.246,-0.342 c -0.66,-0.049 -2.715,-1.125 -2.715,-1.125 -1.762004,-0.979 -2.691004,-0.808 -2.691004,-0.808 -0.76,0.808 -0.637,2.154 -0.637,2.154 l 0.439,0.049 c -0.023,-0.93 0.539,-1.42 0.539,-1.42 0.172,-0.073 0.049,0.123 0.049,0.123 -0.611,0.904 -0.367,1.541 -0.367,1.541 -0.27,-0.123 -1.885,-0.195 -1.885,-0.195 a 0.98,0.98 0 0 0 -0.781,0.121 c -0.295,0.246 -0.416,0.637 -0.416,0.637 l -0.318,1.102 c -0.319,0.682 -0.344,1.073 -0.344,1.073 z m 6.828004,-2.863 c -0.098,0.514 -0.416,1.078 -0.416,1.078 0.049,0.17 0.244,-0.098 0.244,-0.098 0.221,-0.393 0.293,-0.932 0.293,-0.932 -0.049,-0.413 -0.121,-0.048 -0.121,-0.048 z m -0.809,-0.342 c -0.121,0.758 -0.488,1.248 -0.488,1.248 -0.074,0.195 0.146,0.049 0.146,0.049 0.318,-0.441 0.416,-1.248 0.416,-1.248 -0.025,-0.221 -0.074,-0.049 -0.074,-0.049 z m 0.393,0.221 c -0.025,0.514 -0.465,1.076 -0.465,1.076 -0.098,0.172 0.121,0.074 0.121,0.074 0.393,-0.344 0.465,-1.176 0.465,-1.176 -0.049,-0.269 -0.121,0.026 -0.121,0.026 z m 2.691,1.002 a 1.1,1.1 0 0 1 0.539,-0.045 l 0.053,0.262 a 0.327,0.327 0 0 0 -0.176,0.299 c 0,0.17 0.121,0.316 0.27,0.316 h 0.023 v 0.381 a 4.85,4.85 0 0 1 -0.807,0.184 c -0.416,0.098 -0.123,0.342 -0.123,0.342 0.221,0.195 0.27,0.367 0.27,0.367 0.195,0.221 -0.123,0.391 -0.123,0.391 -0.66,0.123 -1.395,0.783 -1.395,0.783 -0.514,0.049 -1.271,-0.023 -1.271,-0.023 -0.197,-0.148 -0.344,-0.49 -0.344,-0.49 0.27,-0.244 0.514,0.049 0.514,0.049 0.221,0.123 0.637,0.074 0.637,0.074 0.367,-0.195 0.906,-0.441 0.906,-0.441 0.098,-0.072 0.244,-0.049 0.244,-0.049 0.146,-0.049 -0.025,-0.172 -0.025,-0.172 a 3.35,3.35 0 0 1 -0.66,-0.611 c -0.195,-0.318 0,-0.465 0,-0.465 0.293,-0.344 1.468,-1.152 1.468,-1.152 z m 0.69,0 a 0.817,0.817 0 0 1 0.387,0.318 c 0.146,0.318 0.098,0.393 0.098,0.393 -0.049,0.098 0,0.293 0,0.293 a 1.973,1.973 0 0 1 -0.342,0.166 v -0.391 a 0.34,0.34 0 0 0 0.121,-0.264 c 0,-0.164 -0.111,-0.307 -0.25,-0.318 z" />
  <path
     style="clip-rule:evenodd;fill:#000000;fill-rule:evenodd;fill-opacity:1"
     inkscape:connector-curvature="0"
     id="path30"
     d="m 110.10869,15.740487 c 0.123,-0.514 0.025,-1.076 0.025,-1.076 -0.172,-0.367 -0.344,-0.441 -0.344,-0.441 0,-1.051 -0.635,-1.198 -0.635,-1.198 0,0.196 0.121,0.465 0.121,0.465 0.049,0.098 -0.121,-0.025 -0.121,-0.025 -0.025,-0.342 -0.344,-0.514 -0.344,-0.514 -0.244,-0.146 -0.367,-0.318 -0.367,-0.318 -0.27,0.44 0.441,0.906 0.441,0.906 -1.102,-0.049 -3.01,0.342 -3.01,0.342 -1.346,0.319 -2.105,-0.146 -2.105,-0.146 -0.781,-0.367 -0.488,-1.077 -0.488,-1.077 0.367,-0.734 1.174,-0.661 1.174,-0.661 a 4.367,4.367 0 0 1 1.176,0.196 c 1.174,0.318 2.422,-0.049 2.422,-0.049 0.611,-0.293 0.807,-0.905 0.807,-0.905 -0.367,0.27 -0.881,0.22 -0.881,0.22 -0.316,0.294 -1.346,0.343 -1.346,0.343 0.686,-0.269 0.662,-0.539 0.662,-0.539 0.049,-0.171 0.316,-0.392 0.316,-0.392 -0.416,0.074 -0.904,0.465 -0.904,0.465 -0.293,0.221 -1.053,0.221 -1.053,0.221 -0.121,0.049 -0.342,-0.024 -0.342,-0.024 0.488,-0.147 0.514,-0.343 0.514,-0.343 -1.15,-0.318 -2.154,0.392 -2.154,0.392 -0.979,0.808 -0.684,1.615 -0.684,1.615 0.17,0.783 1.564,1.027 1.564,1.027 1.297,0.074 2.84,-0.146 2.84,-0.146 1.174,-0.146 1.492,0.025 1.492,0.025 0.146,0.098 0,0.121 0,0.121 -0.711,-0.098 -0.93,0.734 -0.93,0.734 0.488,-0.538 1.15,-0.391 1.15,-0.391 0.121,0.023 0,0.049 0,0.049 -0.344,-0.049 -0.588,0.172 -0.588,0.172 0.465,0.293 0.807,0.17 0.807,0.17 0.197,-0.049 0.295,-0.244 0.295,-0.244 0.293,0.439 0.27,0.783 0.146,1.027 -0.172,0.293 -0.49,0.416 -0.49,0.416 -0.709,0.172 -1.713,-0.195 -1.713,-0.195 -0.293,-0.146 -0.807,-0.123 -0.807,-0.123 -0.074,-0.023 -0.195,-0.072 -0.293,-0.098 -0.734,-0.221 -2.105,-0.416 -2.105,-0.416 l 0.123,0.172 c 0.195,0.049 0.293,0.146 0.318,0.244 0.023,0.098 -0.025,0.195 -0.025,0.195 -0.049,0.123 -0.123,0.195 -0.123,0.195 l 0.1,0.197 c 0.783,0.244 0.635,0.93 0.635,0.93 0.074,0.611 0.441,0.855 0.441,0.855 0.832,0.734 1.688,0.611 1.688,0.611 0.295,0 0.344,0.074 0.344,0.074 0.293,0.172 0.244,0.955 0.244,0.955 0,0.318 -0.146,0.66 -0.146,0.66 0.098,0.244 0.586,0.123 0.586,0.123 0.074,-0.025 0.1,-0.123 0.1,-0.123 0.049,-0.146 -0.074,-0.293 -0.074,-0.293 -0.049,-0.074 0,-0.049 0,-0.049 0.318,0.146 0.293,0.514 0.293,0.514 0.49,-0.613 -0.195,-1.029 -0.195,-1.029 -0.098,-0.023 -0.172,-0.049 -0.172,-0.049 -0.072,-0.316 -0.098,-0.953 -0.098,-0.953 v -0.172 l -0.244,-0.27 c -0.686,0.172 -1.174,-0.072 -1.174,-0.072 0.023,-0.146 0.023,-0.318 0.023,-0.318 0.049,-0.441 -0.098,-1.518 -0.098,-1.518 0.195,0.098 1.322,0.293 1.322,0.293 0.268,0.123 0.807,0.1 0.807,0.1 0.637,0.146 0.441,0.586 0.441,0.586 0.514,-0.416 0.072,-0.709 0.072,-0.709 0.346,-0.123 0.492,-0.416 0.564,-0.734 z m -34.182004,0.244 c -0.22,-0.514 0.122,-1.174 0.122,-1.174 0.636,-1.003 1.517,-1.248 1.517,-1.248 0.465,-0.709 1.175,-0.709 1.175,-0.709 -0.098,0.196 -0.27,0.367 -0.27,0.367 0.44,-0.098 0.832,-0.465 0.832,-0.465 0,0.563 -0.514,0.783 -0.514,0.783 1.884,0.245 4.453,-0.049 4.453,-0.049 1.053,-0.171 1.003,-1.15 1.003,-1.15 -0.22,-0.881 -1.321,-0.367 -1.321,-0.367 -2.325,1.346 -3.45,-0.44 -3.45,-0.44 0.563,0.22 1.664,0.22 1.664,0.22 -0.416,-0.171 -0.954,-0.783 -0.954,-0.783 0.343,0.049 0.514,0.196 0.514,0.196 0.587,0.318 1.248,0.245 1.248,0.245 -0.196,-0.22 -0.514,-0.587 -0.514,-0.587 0.392,0.171 0.783,0.171 0.783,0.171 0.245,0.024 0.44,0.049 0.44,0.049 0.416,0.073 0.636,0 0.636,0 1.248,0.122 1.395,1.272 1.395,1.272 0.122,1.468 -1.566,1.59 -1.566,1.59 -0.686,0.197 -4.478,0.147 -4.478,0.147 0.392,0.171 0.49,0.538 0.49,0.538 0.073,0.172 0.171,0.295 0.171,0.295 -0.392,0.023 -0.783,-0.49 -0.783,-0.49 0.123,0.244 0.441,0.611 0.441,0.611 -0.22,0.098 -0.685,-0.465 -0.685,-0.465 -0.734,-0.611 -1.37,0.025 -1.37,0.025 -0.686,0.537 -0.563,1.002 -0.563,1.002 a 0.55,0.55 0 0 0 0.171,0.416 c 0.245,0.295 0.685,0.246 0.685,0.246 0.465,0 0.93,-0.123 1.321,-0.246 a 3.97,3.97 0 0 0 0.759,-0.293 0.99,0.99 0 0 1 0.22,0.025 c 0.22,-0.148 0.539,-0.123 0.539,-0.123 1.076,-0.098 4.159,-1.225 4.159,-1.225 0.417,-0.195 1.175,-0.978 1.175,-0.978 0.269,0.171 0.44,0.808 0.44,0.808 a 0.456,0.456 0 0 0 0.171,-0.221 c 0.147,0.538 0.881,0.832 0.881,0.832 0.22,0.023 0.392,0.244 0.392,0.244 l 0.073,-0.221 c 0.098,0.148 0.832,0.662 1.591,1.15 a 48.896,48.896 0 0 0 1.566,1.029 c 0.66,-0.734 1.125,-0.295 1.125,-0.295 -0.098,0.098 -0.221,0.074 -0.221,0.074 -0.342,-0.025 -0.562,0.17 -0.562,0.17 0.809,-0.121 0.955,0.148 0.955,0.148 0.17,0.391 -0.393,0.586 -0.393,0.586 0,-0.537 -0.514,-0.514 -0.514,-0.514 a 0.676,0.676 0 0 1 0.367,0.562 c -0.172,0.465 -0.588,0.1 -0.588,0.1 -0.146,-0.074 -0.367,-0.27 -0.367,-0.27 -1.197,-0.074 -2.348,-0.906 -2.348,-0.906 l -0.612,0.27 a 2.629,2.629 0 0 1 -0.783,-0.955 c -0.073,-0.121 -0.122,-0.219 -0.122,-0.219 v 0.219 c 0.074,0.344 0.293,0.637 0.293,0.637 -1.052,1.199 -2.936,0.123 -2.936,0.123 -0.22,-0.074 -0.906,-0.441 -0.906,-0.441 -1.957,-0.023 -2.863,1.738 -2.863,1.738 l -0.147,0.244 c -0.146,1.102 -0.489,1.102 -0.489,1.102 0.171,-0.416 -0.244,-0.611 -0.244,-0.611 -0.294,0.049 -0.979,0.023 -0.979,0.023 -0.44,0.783 -0.074,1.346 -0.074,1.346 0.856,-0.023 0.489,0.66 0.489,0.66 -0.073,0.221 -0.269,0.221 -0.269,0.221 0.024,-0.709 -0.636,-0.66 -0.636,-0.66 0.562,0.221 0.44,0.562 0.44,0.562 -0.146,-0.025 -0.293,0.221 -0.293,0.221 -0.832,-0.514 -0.709,-1.492 -0.709,-1.492 0.098,-1.689 0.465,-2.008 0.465,-2.008 0.123,-0.049 0.171,0.025 0.171,0.025 0.367,0.172 0.856,0.023 0.856,0.023 0.196,-0.049 0.245,-0.439 0.245,-0.439 0.123,-0.686 0.587,-1.225 0.587,-1.225 -0.318,0.148 -2.104,0.613 -2.104,0.613 -0.832,0.195 -1.052,0.904 -1.052,0.904 -0.538,-0.66 0.318,-1.027 0.318,-1.027 -0.366,-0.095 -0.586,-0.29 -0.659,-0.536 z m 9.567,-0.562 c 0.221,0.441 0.881,1.004 0.881,1.004 0.073,0.072 0.196,0.146 0.196,0.146 -0.049,0.049 -0.171,0.049 -0.171,0.049 -0.563,-0.318 -0.93,-0.979 -0.93,-0.979 -0.123,-0.244 0.024,-0.22 0.024,-0.22 z m -0.808,0.513 c 0.342,0.416 0.465,0.514 0.465,0.514 0.245,0.295 0.563,0.441 0.563,0.441 -0.636,0 -1.028,-0.709 -1.028,-0.709 -0.098,-0.197 -0.073,-0.27 -0.073,-0.27 z m 0.416,-0.318 c 0.171,0.49 0.905,0.98 0.905,0.98 0.171,0.049 0.123,0.17 0.123,0.17 -0.147,0.025 -0.196,-0.049 -0.196,-0.049 -0.66,-0.221 -0.88,-0.953 -0.88,-0.953 -0.123,-0.269 0.048,-0.148 0.048,-0.148 z" />
</svg>
