<?xml version="1.0" encoding="UTF-8" standalone="no"?>
<!-- Generator: Adobe Illustrator 19.2.1, SVG Export Plug-In . SVG Version: 6.00 Build 0)  -->

<svg
   xmlns:dc="http://purl.org/dc/elements/1.1/"
   xmlns:cc="http://creativecommons.org/ns#"
   xmlns:rdf="http://www.w3.org/1999/02/22-rdf-syntax-ns#"
   xmlns:svg="http://www.w3.org/2000/svg"
   xmlns="http://www.w3.org/2000/svg"
   xmlns:sodipodi="http://sodipodi.sourceforge.net/DTD/sodipodi-0.dtd"
   xmlns:inkscape="http://www.inkscape.org/namespaces/inkscape"
   version="1.1"
   id="layer"
   x="0px"
   y="0px"
   viewBox="0 0 600.00031 98.230003"
   xml:space="preserve"
   sodipodi:docname="designboom-vector-logo.svg"
   width="600.00031"
   height="98.230003"
   inkscape:version="0.92.4 (5da689c313, 2019-01-14)"><metadata
   id="metadata35"><rdf:RDF><cc:Work
       rdf:about=""><dc:format>image/svg+xml</dc:format><dc:type
         rdf:resource="http://purl.org/dc/dcmitype/StillImage" /><dc:title></dc:title></cc:Work></rdf:RDF></metadata><defs
   id="defs33" /><sodipodi:namedview
   pagecolor="#ffffff"
   bordercolor="#666666"
   borderopacity="1"
   objecttolerance="10"
   gridtolerance="10"
   guidetolerance="10"
   inkscape:pageopacity="0"
   inkscape:pageshadow="2"
   inkscape:window-width="3440"
   inkscape:window-height="1346"
   id="namedview31"
   showgrid="false"
   inkscape:zoom="0.36196319"
   inkscape:cx="304.47"
   inkscape:cy="44.13"
   inkscape:window-x="-11"
   inkscape:window-y="-11"
   inkscape:window-maximized="1"
   inkscape:current-layer="layer" />
<g
   transform="matrix(0.1,0,0,-0.1,-21.53,212.1)"
   id="g28"
   style="fill:#ffffff;fill-opacity:1">
	<path
   d="m 602.3,2095.1 -25.8,-25.8 v -77.7 -77.5 H 473.6 L 370.5,1913.9 293,1837 215.3,1759.9 v -130.3 -130.5 l 77.7,-77.7 77.5,-77.5 H 525.7 681 l 26,26 25.8,25.8 v 336.8 336.8 l -26,26 -25.8,25.7 h -26.4 -26.4 z m -39.6,-350.9 13.8,-13.6 v -101.5 -101.5 l -12.6,-12.8 -12.6,-12.8 h -77.1 -77.1 l -12.8,12.6 -12.8,12.6 v 102.5 102.5 l 12.6,12.8 12.6,12.8 h 76.1 76.1 z"
   id="path2"
   inkscape:connector-curvature="0"
   style="fill:#ffffff;fill-opacity:1" />
	<path
   d="m 3447,2095.1 -25.8,-25.8 v -336.8 l 0.2,-336.8 26,-24.8 26.2,-25 h 156 155.8 l 77.7,77.7 77.5,77.5 v 128.9 128.8 l -78.1,78.1 -78.1,78.1 -102.5,0.6 -102.5,0.6 v 76.5 76.5 l -26,26 -25.8,25.8 h -27.4 -27.4 z m 322.6,-349.9 12.8,-12.6 v -102.5 -102.5 l -12.6,-12.8 -12.6,-12.8 h -76.1 -76.1 l -12.8,12.6 -12.8,12.6 v 103.5 103.5 l 11.6,11.8 11.6,11.8 h 77.1 77.1 z"
   id="path4"
   inkscape:connector-curvature="0"
   style="fill:#ffffff;fill-opacity:1" />
	<path
   d="m 2075.3,2093 -25.8,-25.8 v -26.4 -26.4 l 26,-26 25.8,-25.8 h 26.4 26.4 l 26,26 25.8,25.8 v 26.4 26.4 l -26,26 -25.8,25.8 h -26.4 -26.4 z"
   id="path6"
   inkscape:connector-curvature="0"
   style="fill:#ffffff;fill-opacity:1" />
	<path
   d="m 6087.4,2056.9 c -28.8,-7.7 -54.6,-28.4 -66.8,-54 -17.4,-36.9 -10.8,-80.8 17.2,-111 17.9,-19.5 48.7,-32.7 75.9,-32.7 44.2,0 83.6,27.8 97.2,68.4 5.7,16.8 5.9,45.9 0.4,63.3 -10.1,32.5 -37.9,58.2 -71.6,66.1 -16,3.8 -37.7,3.8 -52.3,-0.1 z m 58,-26.2 c 46.7,-22.7 57.8,-85.8 21.9,-124.6 -15.2,-16.6 -30.6,-23.3 -52.6,-23.1 -30.6,0 -55,15.4 -68.4,42.8 -6.3,12.6 -6.7,15 -6.7,33.9 0,17.9 0.6,21.7 5.5,32.1 15,31.9 38.8,46.9 71.8,45.5 13.1,-0.7 19,-1.9 28.5,-6.6 z"
   id="path8"
   inkscape:connector-curvature="0"
   style="fill:#ffffff;fill-opacity:1" />
	<path
   d="m 6081.9,2010 -6.7,-0.8 v -50.7 -50.5 h 12.2 12.2 v 19.3 19.3 h 8.9 c 12.4,0 16.6,-4.3 22.1,-22.3 l 4.7,-15.2 13.8,-0.6 c 12.8,-0.6 13.8,-0.2 12.6,3 -0.8,2 -2.8,9.7 -4.7,17 -3.4,15.6 -9.1,26.2 -15,27.6 -3.7,1 -3.4,1.6 2.4,4.3 18.5,9.1 18.1,36.3 -0.8,46.5 -5.1,2.6 -12.2,3.7 -30.8,3.9 -13.5,0.1 -27.5,-0.2 -30.9,-0.8 z m 39.8,-19 c 8.5,-3 11.8,-10.6 7.3,-17.2 -3,-4.9 -14,-8.9 -23.7,-8.9 -5.7,0 -5.7,0.2 -5.7,12.8 0,7.1 0.6,13.6 1.4,14.2 2,2.1 13.6,1.5 20.7,-0.9 z"
   id="path10"
   inkscape:connector-curvature="0"
   style="fill:#ffffff;fill-opacity:1" />
	<path
   d="m 969.1,1916.7 -22.3,-0.8 -77.5,-77.5 -77.7,-77.5 V 1632 1503.2 l 77.7,-77.5 77.5,-77.7 h 156 l 156,-0.2 26.2,26 26,26 v 26 25.8 l -26.8,26.4 -27,26.2 -142,0.2 H 973 l -12,12.2 -12.2,12.4 12.6,12 12.4,12.2 h 142.8 142.6 l 26,26 25.8,25.8 v 78.1 78.1 l -78.5,78.5 -78.7,78.7 -81.2,-0.4 c -44.6,-0.5 -91.1,-1.1 -103.5,-1.3 z m 170.9,-168.2 13,-11.6 -12.6,-12.8 -12.8,-13 H 1050.3 973 l -12,12.2 -12,12.2 12,12.2 12,12.2 h 77.1 76.9 z"
   id="path12"
   inkscape:connector-curvature="0"
   style="fill:#ffffff;fill-opacity:1" />
	<path
   d="m 2868.9,1892.4 -26,-26 V 1632 1397.6 l 26,-26 25.8,-25.8 h 26.4 26.4 l 26,26 25.8,25.8 v 154.2 154.2 l 25.6,27 25.6,26.8 h 50.9 51.1 l 26,-26 25.8,-25.8 v -155.2 -155.2 l 26,-26 25.8,-25.8 h 27.4 27.4 l 26,26 25.8,25.8 v 181.6 181.6 l -77.5,77.5 -77.7,77.5 -156.2,1.4 -156.2,1.2 z"
   id="path14"
   inkscape:connector-curvature="0"
   style="fill:#ffffff;fill-opacity:1" />
	<path
   d="m 5186.1,1892.2 -26,-26.6 v -233.9 -233.9 l 26,-26 25.8,-25.8 h 27.4 27.4 l 26,26 25.8,25.8 v 155.2 155.2 l 26,26 25.8,25.8 h 50.7 50.7 l 26,-26 25.8,-25.8 V 1553 1397.8 l 26,-26 25.8,-25.8 h 27.4 27.4 l 25,25 24.8,24.8 v 156.2 156.2 l 26,26 25.8,25.8 h 50.7 50.7 l 26,-26 25.8,-25.8 V 1553 1397.8 l 26,-26 25.8,-25.8 h 27.4 27.4 l 26,26 25.8,25.8 v 181.6 181.6 l -78.5,78.5 -78.7,78.7 H 5783 5680.5 l -39.8,-39.8 -39.6,-39.6 -38.3,39 -38.1,39 -156.4,1 -156.4,1 z"
   id="path16"
   inkscape:connector-curvature="0"
   style="fill:#ffffff;fill-opacity:1" />
	<path
   d="m 1567.7,1914.7 -44.6,-0.6 -76.5,-76.7 -76.7,-76.5 v -79.1 -79.1 l 25,-24.6 24.8,-24.8 143,-1.2 142.8,-1.2 12.4,-12.2 12.2,-12.2 -12.2,-12.2 -12,-12.2 h -142.2 -142 l -26,-26 -25.8,-25.8 v -26.4 -26.4 l 26,-26 25.8,-25.8 h 155.2 155.1 l 77.7,77.7 77.5,77.5 v 78.1 78.1 l -26,26 -25.8,25.8 H 1694 1552.6 l -13.4,12.6 -13.4,12.4 12.8,13 12.6,12.8 h 142.2 142 l 26,25.6 25.8,25.6 v 26.8 26.6 l -26,26 -25.8,25.8 -111.6,-0.4 c -61.4,-0.4 -131.6,-0.8 -156.1,-1 z"
   id="path18"
   inkscape:connector-curvature="0"
   style="fill:#ffffff;fill-opacity:1" />
	<path
   d="m 2342.2,1836.4 -77.5,-77.5 V 1629 1499.1 l 77.7,-77.7 77.5,-77.5 h 91.5 91.5 l 10.6,-11 c 5.7,-6.1 10.3,-11.8 10.3,-12.8 0,-0.8 -5.3,-6.7 -11.6,-13.2 l -11.6,-11.8 h -142.2 -142 l -26,-26 -25.8,-25.8 v -27.4 -27.4 l 25,-25 24.8,-24.8 h 157.3 157.3 l 77.7,77.7 77.5,77.5 v 232.3 232.3 l -77.7,77.7 -77.5,77.5 H 2524.5 2420 Z m 270.8,-91.2 12.8,-12.6 v -102.5 -102.5 l -12.6,-12.8 -12.6,-12.8 h -77.1 -77.1 l -11.8,11.6 -11.8,11.6 v 103.5 103.5 l 12.6,12.8 12.6,12.8 h 76.1 76.1 z"
   id="path20"
   inkscape:connector-curvature="0"
   style="fill:#ffffff;fill-opacity:1" />
	<path
   d="m 4077,1836.4 -77.5,-77.5 v -130.1 -129.9 l 76.9,-76.5 76.9,-76.5 h 105.9 105.9 l 77.9,76.3 77.9,76.3 v 130.3 130.1 l -77.7,77.7 -77.5,77.5 h -105.5 -105.5 z m 271.9,-92.2 13.8,-13.6 v -102.5 -102.5 l -12.6,-12.8 -12.6,-12.8 h -77.1 -77.1 l -12.8,12.6 -12.8,12.6 v 103.5 103.5 l 12.6,12.8 12.6,12.8 h 76.1 76.1 z"
   id="path22"
   inkscape:connector-curvature="0"
   style="fill:#ffffff;fill-opacity:1" />
	<path
   d="m 4657.3,1836.4 -77.5,-77.5 v -130.3 -130.1 l 77.5,-76.3 77.3,-76.3 h 105.7 105.7 l 77.7,76.3 77.5,76.3 v 130.1 130.3 l -77.7,77.7 -77.5,77.5 H 4840.5 4735 Z m 272.9,-91.2 12.8,-12.6 v -103.5 -103.5 l -12.6,-12.8 -12.6,-12.8 h -77.1 -77.1 l -12.8,12.6 -12.8,12.6 v 103.5 103.5 l 12.6,12.8 12.6,12.8 h 77.1 77.1 z"
   id="path24"
   inkscape:connector-curvature="0"
   style="fill:#ffffff;fill-opacity:1" />
	<path
   d="m 1971.9,1886.1 -25.8,-25.8 v -26.4 -26.4 l 26,-26 25.8,-25.8 h 26 25.8 v -180.2 -180 l 26,-26 25.8,-25.8 h 26.4 26.4 l 26,26 25.8,25.8 v 232.5 232.3 l -26,26 -25.8,25.8 h -78.1 -78.1 z"
   id="path26"
   inkscape:connector-curvature="0"
   style="fill:#ffffff;fill-opacity:1" />
</g>
</svg>