<?xml version="1.0" encoding="UTF-8" standalone="no"?>
<!-- Generator: Adobe Illustrator 19.2.1, SVG Export Plug-In . SVG Version: 6.00 Build 0)  -->

<svg
   xmlns:dc="http://purl.org/dc/elements/1.1/"
   xmlns:cc="http://creativecommons.org/ns#"
   xmlns:rdf="http://www.w3.org/1999/02/22-rdf-syntax-ns#"
   xmlns:svg="http://www.w3.org/2000/svg"
   xmlns="http://www.w3.org/2000/svg"
   xmlns:sodipodi="http://sodipodi.sourceforge.net/DTD/sodipodi-0.dtd"
   xmlns:inkscape="http://www.inkscape.org/namespaces/inkscape"
   version="1.1"
   id="layer"
   x="0px"
   y="0px"
   viewBox="0 0 600.09998 120.1"
   xml:space="preserve"
   sodipodi:docname="discover-magazine-logo-vector.svg"
   width="600.09998"
   height="120.1"
   inkscape:version="0.92.4 (5da689c313, 2019-01-14)"><metadata
   id="metadata17"><rdf:RDF><cc:Work
       rdf:about=""><dc:format>image/svg+xml</dc:format><dc:type
         rdf:resource="http://purl.org/dc/dcmitype/StillImage" /><dc:title></dc:title></cc:Work></rdf:RDF></metadata><defs
   id="defs15" /><sodipodi:namedview
   pagecolor="#ffffff"
   bordercolor="#666666"
   borderopacity="1"
   objecttolerance="10"
   gridtolerance="10"
   guidetolerance="10"
   inkscape:pageopacity="0"
   inkscape:pageshadow="2"
   inkscape:window-width="3440"
   inkscape:window-height="1346"
   id="namedview13"
   showgrid="false"
   inkscape:zoom="1.0237865"
   inkscape:cx="-46.175646"
   inkscape:cy="115.68015"
   inkscape:window-x="-11"
   inkscape:window-y="-11"
   inkscape:window-maximized="1"
   inkscape:current-layer="layer" />
<style
   type="text/css"
   id="style2">
	.st0{fill:#FF0000;}
</style>
<path
   class="st0"
   d="m 485.4,74.8 c -0.4,17.2 3.9,36.5 24.4,36.5 13.1,0 19.1,-7.8 23.7,-17.4 l 5.3,2.8 c -4.6,13.3 -14.2,23.4 -32.8,23.4 -28,0 -38.6,-16.1 -38.6,-42.3 0,-25 12.4,-43.6 38.6,-43.6 30.5,0 33.8,23.7 33.8,33.8 0,5.5 -3.2,6.7 -6.9,6.7 h -47.5 z m 31.1,-6.9 c 4.6,0 5.7,-1.9 5.7,-5.3 0,-6.6 -1.9,-22.1 -17,-22.1 -17.2,0 -19.7,20.4 -19.7,27.5 h 31 z m 52.5,35 c 0,8.3 0.9,8.9 15.8,9.6 v 5.5 h -44.3 v -5.5 c 11.5,-0.9 12.4,-1.2 12.4,-9.6 v -51 c 0,-6 -1.1,-7.1 -5.3,-7.6 l -6.2,-0.7 v -5 l 25.7,-4.3 2,13.6 c 10.8,-9.7 15.9,-13.8 22,-13.8 6.6,0 9,4.4 9,8.3 0,5.1 -3.7,10.3 -8,10.3 -1.1,0 -2.3,-0.2 -3.5,-1.1 -4.2,-3 -7.1,-4.1 -9.7,-4.1 -3.9,0 -9.7,4.4 -9.7,17 v 38.4 z M 348.3,34.2 c 26.9,0 40,15.9 40,43 0,26.9 -13.1,42.9 -40.2,42.9 -26.7,0 -40,-15.9 -40,-42.9 0,-27.1 13.3,-43 40,-43 z M 326,77.4 c 0,22.7 7.1,36.5 22.1,36.5 15.2,0 22.3,-13.8 22.3,-36.7 0,-23 -7.1,-36.8 -22.3,-36.8 C 333,40.4 326,54.2 326,77.2 Z m 94.4,40.6 c -8.3,-23 -16.6,-46 -25.3,-68.5 -2.5,-6.2 -4.3,-6.9 -12.2,-7.4 v -5.7 h 38.6 v 5.7 l -7.4,0.7 c -3.2,0.4 -3.7,1.8 -2.7,5 6.4,18.4 12.9,36.8 19.5,54.9 h 0.4 C 437,87.5 446,62.5 450.4,47.4 c 0.7,-2.3 0.2,-4.1 -2.5,-4.6 l -8.1,-0.7 v -5.7 h 31.6 v 5.7 c -7.6,0.4 -9.4,1.4 -11.9,7.1 -5.5,11.5 -17.4,42.9 -26.9,68.9 h -12.2 z"
   id="path4"
   inkscape:connector-curvature="0"
   style="fill:#ff0000" />
<path
   class="st0"
   d="m 55.9,2.4 c 20.2,0 35.6,3.5 46.4,13.8 10.1,9.7 14.3,24.6 14.3,41.8 0,41.6 -26.2,60 -64.5,60 H 0 v -5.5 c 14.5,-1.1 14.9,-1.2 14.9,-10.6 V 18.3 C 14.9,8.9 14.5,8.7 0,7.7 V 2.4 Z M 32.5,97.1 c 0,12.8 2.1,14.7 16.5,14.7 28.2,0 47.8,-11 47.8,-53.3 C 96.8,30.3 86,8.6 50.9,8.6 33.4,8.6 32.5,9.5 32.5,17.8 Z M 134.2,51.9 c 0,-6 -1.1,-6.9 -5.3,-7.6 l -6.2,-0.7 v -4.8 l 26.4,-4.4 1.2,1.1 V 103 c 0,8.3 0.7,8.7 12.4,9.6 v 5.5 h -40.9 v -5.5 c 11.9,-0.7 12.4,-1.2 12.4,-9.6 z M 142.3,0 c 6,0 10.3,4.6 10.1,10.6 0,6 -4.1,10.3 -10.3,10.3 -6.2,0 -10.4,-4.3 -10.4,-10.3 0,-6 4.2,-10.6 10.4,-10.6 z m 72.3,59.9 C 213.4,49.6 208,40.4 196.4,40.4 c -8.2,0 -14.5,4.6 -14.5,13.1 0,8.7 10.6,13.1 17.7,15.4 17.7,6.2 25.9,11.3 25.9,26 0,14.3 -11.3,25.1 -31.2,25.1 -9.9,0 -19.8,-2.3 -26,-7.8 l -1.8,-22 h 5.3 c 3.4,14.2 10.3,23.6 23.6,23.6 8.3,0 15.2,-5 15.2,-13.3 0,-8.9 -8.1,-12.9 -18.4,-16.8 -14.3,-5 -24.3,-10.1 -24.3,-25.1 0,-15.9 12.2,-24.4 30.3,-24.4 7.6,0 16.1,1.8 21.8,5.1 v 20.5 h -5.4 z M 303,96.2 c -5,18.1 -20.5,23.9 -32.4,23.9 -24.8,0 -38.6,-14.2 -38.6,-42 0,-22.7 10.5,-43.9 40.6,-43.9 17.9,0 29.2,8.3 29.2,16.3 0,6.4 -6.6,8.5 -10.1,8.5 -3.4,0 -4.4,-1.4 -5.3,-4.3 -3.4,-9.2 -8.1,-14.3 -15.6,-14.3 -11.2,0 -20.9,9.9 -20.9,34.5 0,16.3 5,36.1 24.3,36.1 12,0 18.4,-5.8 23.6,-17.5 z"
   id="path6"
   inkscape:connector-curvature="0"
   style="fill:#ff0000" />
<path
   class="st0"
   d="m 587.2,115.1 c 0,-1.7 1.4,-3.2 3.2,-3.2 1.7,0 3.2,1.4 3.2,3.2 0,1.7 -1.4,3.2 -3.2,3.2 -1.8,0 -3.2,-1.4 -3.2,-3.2 z m 5.5,0 c 0,-1.5 -1.1,-2.5 -2.4,-2.5 -1.3,0 -2.4,1.1 -2.4,2.5 0,1.5 1.1,2.5 2.4,2.5 1.4,0.1 2.4,-1 2.4,-2.5 z m -3.6,-1.8 h 1.3 c 0.9,0 1.3,0.3 1.3,1.1 0,0.6 -0.4,0.9 -0.9,1 l 1,1.6 h -0.7 l -0.9,-1.5 h -0.4 v 1.5 h -0.7 z m 0.7,1.6 h 0.6 c 0.4,0 0.7,-0.1 0.7,-0.5 0,-0.4 -0.4,-0.5 -0.7,-0.5 h -0.6 z"
   id="path8"
   inkscape:connector-curvature="0"
   style="fill:#ff0000" />
<path
   d="m 320.4,12.5 c -0.4,-2.1 -1.3,-3.1 -3,-3.1 -1.7,0 -2.6,1.1 -2.6,2.6 0,1.6 1.7,2.3 3,2.8 2.4,0.9 4.3,1.8 4.3,4.4 0,2.2 -1.5,4.2 -5.2,4.2 -1.4,0 -3.2,-0.4 -4.1,-1.3 l -0.2,-3.3 h 0.8 c 0.5,2.3 1.8,3.7 3.7,3.7 1.8,0 2.8,-1 2.8,-2.6 0,-1.6 -1.7,-2.5 -3.2,-3.1 -2.1,-0.7 -3.9,-1.6 -3.9,-4.2 0,-2.8 2.2,-4.1 4.8,-4.1 1.4,0 2.8,0.4 3.7,0.9 v 3.1 z m 16.3,6.4 -0.2,3.5 c -1,0.6 -2.9,0.9 -4.5,0.9 -4.9,0 -7.6,-2.4 -7.6,-7.3 0,-2.3 0.7,-4.1 1.9,-5.4 1.2,-1.4 3.3,-2.1 5.8,-2.1 1.7,0 3.3,0.3 4.3,0.8 v 3.3 h -0.8 c -0.4,-2.4 -1.7,-3.2 -3.8,-3.2 -3.8,0 -5,3.4 -5,6.6 0,2.4 0.7,6.5 4.9,6.5 2.6,0 3.6,-1.4 4.1,-3.6 z m 6.1,2.1 c 0,1.2 0.1,1.2 1.9,1.3 v 0.8 h -5.9 v -0.8 c 1.8,-0.1 1.8,-0.2 1.8,-1.3 V 10.9 c 0,-1.2 0,-1.2 -1.8,-1.3 V 8.8 h 5.9 v 0.8 c -1.8,0.1 -1.9,0.1 -1.9,1.3 z m 5.8,-10.1 c 0,-1.1 0,-1.2 -1.8,-1.3 V 8.8 h 10.5 v 3.4 h -0.8 c -0.3,-2.1 -0.7,-2.5 -3,-2.5 h -1.9 c -0.7,0 -0.7,0.1 -0.7,0.7 v 4.7 h 2.7 c 1.7,0 1.6,-0.5 1.8,-1.8 h 0.8 v 4.6 h -0.8 c -0.2,-1.2 -0.2,-1.8 -1.8,-1.8 h -2.7 v 4.3 c 0,1.3 0.2,1.7 2.6,1.7 2.6,0 3.4,-0.5 3.9,-2.9 h 0.8 l -0.4,3.8 h -10.9 v -0.8 c 1.8,-0.1 1.8,-0.2 1.8,-1.3 v -10 z m 22.9,12.2 C 368.6,19 365.9,15 363,10.9 v 0 7.8 c 0,1.2 0,2 0.1,2.7 0.1,0.9 0.8,0.8 2.1,0.9 v 0.8 H 360 v -0.8 c 1.1,-0.1 1.6,-0.1 1.7,-0.9 0.1,-0.7 0.1,-1.5 0.1,-2.7 v -7.8 c 0,-1.2 0,-1.2 -1.8,-1.3 V 8.8 h 4.2 c 2.2,3.1 5,7.3 7.7,11.1 v 0 -6.7 c 0,-1.2 0,-2 -0.1,-2.6 -0.1,-0.9 -0.9,-0.9 -2.1,-0.9 V 8.9 h 5.2 v 0.8 c -1.1,0.1 -1.6,0 -1.7,0.9 -0.1,0.7 -0.1,1.5 -0.1,2.6 v 9.9 z m 17.1,-4.2 -0.2,3.5 c -1,0.6 -2.9,0.9 -4.5,0.9 -4.9,0 -7.6,-2.4 -7.6,-7.3 0,-2.3 0.7,-4.1 1.9,-5.4 1.2,-1.4 3.3,-2.1 5.8,-2.1 1.7,0 3.3,0.3 4.3,0.8 v 3.3 h -0.8 c -0.4,-2.4 -1.7,-3.2 -3.8,-3.2 -3.8,0 -5,3.4 -5,6.6 0,2.4 0.7,6.5 4.9,6.5 2.6,0 3.6,-1.4 4.1,-3.6 z m 3.6,-8 c 0,-1.1 0,-1.2 -1.8,-1.3 V 8.8 h 10.5 v 3.4 h -0.8 c -0.3,-2.1 -0.7,-2.5 -3,-2.5 h -1.9 c -0.7,0 -0.7,0.1 -0.7,0.7 v 4.7 h 2.7 c 1.7,0 1.6,-0.5 1.8,-1.8 h 0.8 v 4.6 H 399 c -0.2,-1.2 -0.2,-1.8 -1.8,-1.8 h -2.7 v 4.3 c 0,1.3 0.2,1.7 2.6,1.7 2.6,0 3.4,-0.5 3.9,-2.9 h 0.8 l -0.4,3.8 h -11 v -0.8 c 1.8,-0.1 1.8,-0.2 1.8,-1.3 z m 26.9,-2 v 3.5 h -0.8 C 418,10.3 417.6,9.8 415.2,9.8 h -1.8 c -0.7,0 -0.8,0.1 -0.8,0.7 v 5 h 2.7 c 1.7,0 1.7,-0.4 1.9,-1.8 h 0.8 v 4.7 h -0.8 C 417,17.1 417,16.5 415.3,16.5 h -2.7 V 21 c 0,1.1 0,1.2 2.2,1.3 v 0.8 h -6.3 v -0.8 c 1.8,-0.1 1.8,-0.2 1.8,-1.3 V 10.9 c 0,-1.2 0,-1.2 -1.8,-1.3 V 8.8 h 10.6 z m 8.8,-0.4 c 4.7,0 6.9,3 6.9,7.5 0,4.5 -2.3,7.4 -7,7.4 -4.7,0 -6.9,-3 -6.9,-7.4 0.1,-4.5 2.3,-7.5 7,-7.5 z m 0,0.9 c -3.6,0 -4.4,3.6 -4.4,6.6 0,3 0.8,6.6 4.4,6.6 3.6,0 4.4,-3.6 4.4,-6.6 0,-3 -0.8,-6.6 -4.4,-6.6 z M 440.7,21 c 0,1.1 0.1,1.2 1.8,1.3 v 0.8 h -5.9 v -0.8 c 1.8,-0.1 1.8,-0.2 1.8,-1.3 V 10.9 c 0,-1.2 0,-1.2 -1.8,-1.3 V 8.8 h 6.5 c 3.5,0 4.5,1.6 4.5,3.5 0,1.9 -1.3,3.1 -3.3,3.5 v 0 c 2.1,0.5 2.7,2.1 2.9,3.8 0.2,1.3 0.5,2.4 2.1,2.6 V 23 h -1.8 c -1.2,0 -2,-0.4 -2.4,-1.7 -0.2,-0.9 -0.5,-2.8 -0.6,-3.2 -0.4,-1.4 -1.5,-1.8 -2.6,-1.8 h -1.3 V 21 Z m 0,-5.6 h 1.6 c 1.9,0 2.9,-0.8 2.9,-2.9 0,-2.8 -1.7,-2.8 -3.2,-2.8 -1.3,0 -1.2,0.1 -1.2,1 v 4.7 z m 21.2,5.6 c 0,0.9 0,1.2 1.2,1.2 l 1.1,0.1 v 0.8 h -6.8 v -0.8 l 1,-0.1 c 1.2,-0.1 1.2,-0.3 1.2,-1.2 V 9.8 h -1.1 c -2.3,0 -2.7,0.4 -3,2.8 h -0.8 V 8.9 h 12 v 3.7 h -0.8 c -0.3,-2.4 -0.6,-2.8 -3,-2.8 h -1.1 V 21 Z m 10.4,-4.8 v 4.9 c 0,1.1 0,1.1 1.9,1.2 v 0.8 h -6 V 22.3 C 470,22.2 470,22.2 470,21.1 V 10.8 c 0,-1.1 0,-1.1 -1.8,-1.2 V 8.8 h 6 v 0.8 c -1.8,0.1 -1.9,0.1 -1.9,1.2 v 4.4 h 6.9 v -4.4 c 0,-1.1 0,-1.1 -1.8,-1.2 V 8.8 h 6 v 0.8 c -1.8,0.1 -1.8,0.1 -1.8,1.2 v 10.3 c 0,1.1 0,1.1 1.8,1.2 v 0.8 h -6 v -0.8 c 1.8,-0.1 1.8,-0.1 1.8,-1.2 V 16.2 Z M 487,10.9 c 0,-1.1 0,-1.2 -1.8,-1.3 V 8.8 h 10.5 v 3.4 h -0.8 c -0.3,-2.1 -0.7,-2.5 -3,-2.5 H 490 c -0.7,0 -0.7,0.1 -0.7,0.7 v 4.7 h 2.7 c 1.7,0 1.6,-0.5 1.8,-1.8 h 0.8 v 4.6 h -0.8 c -0.2,-1.2 -0.2,-1.8 -1.8,-1.8 h -2.7 v 4.3 c 0,1.3 0.2,1.7 2.6,1.7 2.6,0 3.4,-0.5 3.9,-2.9 h 0.8 l -0.4,3.8 h -10.9 v -0.8 c 1.8,-0.1 1.8,-0.2 1.8,-1.3 v -10 z m 28.8,8 -0.2,3.5 c -1,0.6 -2.9,0.9 -4.5,0.9 -4.9,0 -7.6,-2.4 -7.6,-7.3 0,-2.3 0.7,-4.1 1.9,-5.4 1.2,-1.4 3.3,-2.1 5.8,-2.1 1.7,0 3.3,0.3 4.3,0.8 v 3.3 h -0.8 c -0.4,-2.4 -1.7,-3.2 -3.8,-3.2 -3.8,0 -5,3.4 -5,6.6 0,2.4 0.7,6.5 4.9,6.5 2.6,0 3.6,-1.4 4.1,-3.6 z m 16.9,-10 v 0.7 c -1.8,0.1 -1.9,0.2 -1.9,1.3 v 7 c 0,1.2 -0.2,2.3 -0.6,3 -1,2 -3.2,2.5 -5.3,2.5 -2.1,0 -4.2,-0.5 -5.1,-2.4 -0.4,-0.7 -0.6,-1.8 -0.6,-3 v -7 c 0,-1.2 0,-1.2 -1.9,-1.3 V 8.9 h 6 v 0.8 c -1.8,0.1 -1.8,0.1 -1.8,1.3 v 6.5 c 0,2.4 0.6,5.1 3.5,5.1 3,0 3.6,-2.5 3.6,-5.1 V 11 c 0,-1.2 -0.1,-1.2 -1.8,-1.3 V 8.9 Z m 5.5,12.1 c 0,1.1 0.1,1.2 1.8,1.3 v 0.8 h -5.9 v -0.8 c 1.8,-0.1 1.8,-0.2 1.8,-1.3 V 10.9 c 0,-1.2 0,-1.2 -1.8,-1.3 V 8.8 h 6.5 c 3.5,0 4.5,1.6 4.5,3.5 0,1.9 -1.3,3.1 -3.3,3.5 v 0 c 2.1,0.5 2.7,2.1 2.9,3.8 0.2,1.3 0.5,2.4 2.1,2.6 V 23 H 545 c -1.2,0 -2,-0.4 -2.4,-1.7 -0.2,-0.9 -0.5,-2.8 -0.6,-3.2 -0.4,-1.4 -1.5,-1.8 -2.6,-1.8 h -1.3 V 21 Z m 0,-5.6 h 1.6 c 1.9,0 2.9,-0.8 2.9,-2.9 0,-2.8 -1.7,-2.8 -3.2,-2.8 -1.3,0 -1.2,0.1 -1.2,1 v 4.7 z M 552,21 c 0,1.2 0.1,1.2 1.9,1.3 v 0.8 H 548 v -0.8 c 1.8,-0.1 1.8,-0.2 1.8,-1.3 V 10.9 c 0,-1.2 0,-1.2 -1.8,-1.3 V 8.8 h 5.9 V 9.6 C 552.1,9.7 552,9.7 552,10.9 Z M 562.9,8.5 c 4.7,0 6.9,3 6.9,7.5 0,4.5 -2.3,7.4 -7,7.4 -4.7,0 -6.9,-3 -6.9,-7.4 0.1,-4.5 2.3,-7.5 7,-7.5 z m 0,0.9 c -3.6,0 -4.4,3.6 -4.4,6.6 0,3 0.8,6.6 4.4,6.6 3.6,0 4.4,-3.6 4.4,-6.6 0,-3 -0.8,-6.6 -4.4,-6.6 z m 23.6,-0.5 v 0.7 c -1.8,0.1 -1.9,0.2 -1.9,1.3 v 7 c 0,1.2 -0.2,2.3 -0.6,3 -1,2 -3.2,2.5 -5.3,2.5 -2.1,0 -4.2,-0.5 -5.1,-2.4 -0.4,-0.7 -0.6,-1.8 -0.6,-3 v -7 c 0,-1.2 0,-1.2 -1.9,-1.3 V 8.9 h 6 v 0.8 c -1.8,0.1 -1.8,0.1 -1.8,1.3 v 6.5 c 0,2.4 0.6,5.1 3.5,5.1 3,0 3.6,-2.5 3.6,-5.1 V 11 c 0,-1.2 -0.1,-1.2 -1.8,-1.3 V 8.9 Z m 9.3,3.6 c -0.4,-2.1 -1.3,-3.1 -3,-3.1 -1.7,0 -2.6,1.1 -2.6,2.6 0,1.6 1.7,2.3 3,2.8 2.4,0.9 4.3,1.8 4.3,4.4 0,2.2 -1.5,4.2 -5.2,4.2 -1.4,0 -3.2,-0.4 -4.1,-1.3 L 588,18.8 h 0.8 c 0.5,2.3 1.8,3.7 3.7,3.7 1.8,0 2.8,-1 2.8,-2.6 0,-1.6 -1.7,-2.5 -3.2,-3.1 -2.1,-0.7 -3.9,-1.6 -3.9,-4.2 0,-2.8 2.2,-4.1 4.8,-4.1 1.4,0 2.8,0.4 3.7,0.9 v 3.1 z"
   id="path10"
   style="fill:#ffffff;fill-opacity:1"
   inkscape:connector-curvature="0" />
</svg>