<?xml version="1.0" encoding="UTF-8" standalone="no"?>
<!-- Created with Inkscape (http://www.inkscape.org/) -->

<svg
   xmlns:dc="http://purl.org/dc/elements/1.1/"
   xmlns:cc="http://creativecommons.org/ns#"
   xmlns:rdf="http://www.w3.org/1999/02/22-rdf-syntax-ns#"
   xmlns:svg="http://www.w3.org/2000/svg"
   xmlns="http://www.w3.org/2000/svg"
   xmlns:sodipodi="http://sodipodi.sourceforge.net/DTD/sodipodi-0.dtd"
   xmlns:inkscape="http://www.inkscape.org/namespaces/inkscape"
   version="1.1"
   id="svg2"
   width="287.39767"
   height="143.02817"
   viewBox="0 0 287.39767 143.02817"
   sodipodi:docname="f1486606f5927355832ef9a8215de1a4.svg"
   inkscape:version="0.92.4 (5da689c313, 2019-01-14)">
  <metadata
     id="metadata8">
    <rdf:RDF>
      <cc:Work
         rdf:about="">
        <dc:format>image/svg+xml</dc:format>
        <dc:type
           rdf:resource="http://purl.org/dc/dcmitype/StillImage" />
        <dc:title></dc:title>
      </cc:Work>
    </rdf:RDF>
  </metadata>
  <defs
     id="defs6" />
  <sodipodi:namedview
     pagecolor="#ffffff"
     bordercolor="#666666"
     borderopacity="1"
     objecttolerance="10"
     gridtolerance="10"
     guidetolerance="10"
     inkscape:pageopacity="0"
     inkscape:pageshadow="2"
     inkscape:window-width="3440"
     inkscape:window-height="1346"
     id="namedview4"
     showgrid="false"
     inkscape:zoom="2.8284271"
     inkscape:cx="175.94227"
     inkscape:cy="29.972388"
     inkscape:window-x="-11"
     inkscape:window-y="-11"
     inkscape:window-maximized="1"
     inkscape:current-layer="svg2" />
  <path
     id="path817"
     style="fill:#ffffff;stroke-width:0.31999999;fill-opacity:1"
     d="m 143.69884,0 c -5.90597,0 -7.32617,0.0978087 -10.0293,0.69921876 -4.42628,0.98473004 -8.42525,2.37449944 -12.61133,4.38085944 -3.51834,1.6863299 -3.59974,1.7482931 -3.59375,2.7832031 0.008,1.5039 0.84736,7.2148437 1.42579,9.7089837 0.65464,2.82276 0.66016,2.79892 -0.55079,2.53711 -4.23438,-0.91549 -7.61355,-4.941409 -9.5371,-11.3613281 -0.39324,-1.31242 -0.98604,-2.9241844 -1.31641,-3.5839844 -0.6918,-1.38162 -2.47894,-2.6656506 -4.125,-2.9628906 -2.59669,-0.46891 -29.86993,4.906285 -62.70117,12.3593741 -14.45908,3.28239 -39.4694771,9.183636 -40.43554713,9.541016 -0.54054,0.19995 -0.19580246,0.488104 2.05468753,1.714844 17.7150506,9.65648 35.7884226,14.927787 47.0078126,13.710937 3.25214,-0.35273 3.504736,-0.336654 5.628906,0.384766 9.80533,3.33015 23.546955,4.988817 37.263672,4.498047 16.286869,-0.58273 20.794189,-0.249137 28.798829,2.126953 6.5716,1.95071 14.59644,5.6514 19.71679,9.09375 1.38797,0.93313 2.6833,1.713865 2.87891,1.734375 0.19562,0.0205 1.44833,-0.68239 2.7832,-1.5625 7.74107,-5.10388 18.09055,-9.285534 27.04492,-10.927734 4.32963,-0.79404 9.50553,-0.905314 21.81641,-0.464844 13.71672,0.49077 27.45835,-1.167897 37.26367,-4.498047 2.12417,-0.72142 2.37677,-0.737496 5.62891,-0.384766 11.21939,1.21685 29.29276,-4.054457 47.00781,-13.710937 2.25049,-1.22674 2.59522,-1.514894 2.05469,-1.714844 -0.96608,-0.35738 -25.97647,-6.258626 -40.43555,-9.541016 C 213.90666,7.1074569 186.63342,1.7322619 184.03673,2.2011719 c -1.64606,0.29724 -3.4332,1.5812706 -4.125,2.9628906 -0.33037,0.6598 -0.92318,2.2715644 -1.31641,3.5839844 -1.92356,6.4199201 -5.30274,10.4458381 -9.53711,11.3613281 -1.21094,0.26181 -1.20542,0.28565 -0.55078,-2.53711 0.57843,-2.49414 1.41776,-8.2050837 1.42578,-9.7089837 0.006,-1.03491 -0.0754,-1.0968732 -3.59375,-2.7832031 -4.18607,-2.00636 -8.18504,-3.3961294 -12.61132,-4.38085944 C 151.02501,0.09784876 149.60481,1.0000004e-8 143.69884,0 Z m 0.54297,3.15625 c 6.72643,0.0918 13.46943,1.6204507 19.72656,4.5566406 l 2.50781,1.1777344 -0.21484,1.77539 c -0.79488,6.57372 -2.91163,13.869966 -5.7168,19.697266 -3.37505,7.01113 -7.12268,12.233534 -12.80078,17.839844 -1.91623,1.892 -3.7365,3.439453 -4.04492,3.439453 -0.76061,0 -7.0293,-6.239831 -9.6582,-9.613282 -6.96923,-8.94301 -11.53525,-20.041001 -12.9043,-31.363281 l -0.21484,-1.77539 2.50781,-1.1777344 c 1.37988,-0.64752 3.80297,-1.6144375 5.38281,-2.1484374 C 133.78899,3.8822331 139.01014,3.08486 144.24181,3.15625 Z M 102.2086,5.5625 c 0.57599,0 1.29876,0.1839331 1.60547,0.4082032 C 104.12078,6.1949731 104.92726,8.00814 105.60509,10 l 1.23242,3.621093 -1.00976,0.419922 c -0.5549,0.23047 -2.24665,0.916621 -3.75977,1.525391 -4.626954,1.86157 -5.235838,1.824973 -9.417966,-0.560547 -5.062819,-2.88786 -8.678092,-3.762497 -15.753906,-3.810547 l -4.882813,-0.0332 6.802735,-1.3710934 C 89.085955,7.7214257 101.03055,5.5625 102.2086,5.5625 Z m 82.98047,0 c 1.2852,0 14.16362,2.3533925 23.47071,4.2890625 6.20072,1.2896095 6.60965,1.4135955 4.1582,1.2539055 -3.32161,-0.21636 -8.70064,0.330532 -11.87891,1.207032 -1.29837,0.35806 -3.58407,1.310024 -5.08007,2.115234 -1.496,0.80521 -3.07954,1.646421 -3.51954,1.869141 -1.14513,0.57964 -2.57012,0.765488 -3.67968,0.480468 -0.86259,-0.22158 -7.36992,-2.762802 -7.87696,-3.076171 -0.35365,-0.21857 2.21207,-7.2999988 2.80078,-7.7304688 0.30672,-0.22427 1.02949,-0.4082032 1.60547,-0.4082032 z m -40.57421,0.6152344 c -0.69832,-0.0168 -1.39566,-0.015847 -2.0918,0.00195 -1.85637,0.0474 -3.7052,0.2162256 -5.54492,0.5097657 -3.17313,0.50628 -7.68508,1.7055625 -7.67188,2.0390624 0.004,0.1063601 6.665,3.9636125 14.80078,8.5703125 8.13577,4.6067 14.9261,8.342071 15.08985,8.300781 0.50813,-0.12812 2.40103,-6.234159 3.27734,-10.568359 0.98122,-4.85313 1.20898,-4.409678 -3.05469,-5.9609376 -4.97624,-1.8105 -9.9165,-2.7751581 -14.80468,-2.8925781 z M 131.28673,13.05664 c -0.21998,-0.0239 -0.42828,0.03611 -0.68555,0.173828 -0.8433,0.4513 -0.85603,1.506595 -0.0215,1.771485 0.5995,0.19028 0.63867,0.484994 0.63867,4.646484 0,3.8934 0.0698,4.483681 0.56055,4.769531 0.308,0.1794 0.66878,0.330638 0.80078,0.335938 0.132,0.005 0.23828,-2.435878 0.23828,-5.423828 0,-5.40175 -0.003,-5.43614 -0.77734,-5.94336 -0.30281,-0.1984 -0.53393,-0.306228 -0.75391,-0.330078 z m -64.181638,1.183594 c 0.92614,-0.003 1.847235,0.01322 2.771485,0.04492 4.647672,0.15932 9.505847,0.754352 9.498047,1.164062 -0.002,0.10621 -12.42163,3.77687 -27.59961,8.15625 -15.17799,4.37939 -27.740015,8.008113 -27.916015,8.064454 -0.37895,0.12131 -7.390534,-2.694589 -11.621094,-4.667969 -1.89678,-0.88477 -2.8261242,-1.47631 -2.5585941,-1.625 0.3731301,-0.20738 24.0121931,-5.722834 35.4765631,-8.277344 8.79685,-1.96012 15.466298,-2.840035 21.949218,-2.859375 z m 153.187498,0 c 6.48293,0.0193 13.15236,0.899255 21.94922,2.859375 9.02571,2.01113 35.07728,8.020376 35.53711,8.197266 0.60014,0.23087 -3.68979,2.330881 -9.68164,4.738281 -2.4207,0.97259 -4.43717,1.749635 -4.48047,1.728516 -0.0433,-0.0211 -12.56813,-3.657199 -27.83399,-8.080079 -15.26585,-4.42288 -27.75776,-8.128165 -27.75976,-8.234375 -0.008,-0.40967 4.85025,-1.004742 9.49804,-1.164062 0.92424,-0.0317 1.84536,-0.04772 2.77149,-0.04492 z m -112.62695,1.019531 1.16015,1.796875 c 0.63867,0.98814 2.00457,2.548257 3.03516,3.466797 1.03058,0.91855 1.81243,1.709806 1.73633,1.759766 -0.0761,0.05 -0.88823,0.772698 -1.80469,1.605469 -2.09321,1.902049 -3.19937,1.98187 -6.06445,0.4375 -1.91645,-1.03304 -7.550148,-5.02798 -7.359376,-5.21875 0.05234,-0.0523 2.164786,-0.940857 4.695306,-1.972657 z m 72.0664,0 4.60156,1.875 c 2.53052,1.0318 4.64302,1.920316 4.69532,1.972657 0.19077,0.19077 -5.44293,4.18571 -7.35938,5.21875 -2.86508,1.54437 -3.97124,1.46455 -6.06445,-0.4375 -0.91646,-0.832771 -1.72859,-1.555509 -1.80469,-1.605469 -0.0761,-0.05 0.70575,-0.841216 1.73633,-1.759766 1.03059,-0.91854 2.39649,-2.478657 3.03516,-3.466797 z m -43.35156,0.664063 c -0.86024,-0.0362 -1.32228,0.872492 -1.32227,2.632812 0,2.02886 0.60049,3.678114 1.58985,4.371094 l 0.69531,0.486328 -0.79492,1.572266 c -0.73126,1.44307 -0.75385,1.602207 -0.26367,1.935547 1.11095,0.7555 1.54136,0.43984 2.5664,-1.88086 1.92769,-4.36436 1.08242,-8.043689 -2.07812,-9.042969 -0.13903,-0.044 -0.26969,-0.06902 -0.39258,-0.07422 z m -52.832028,0.412109 3.435547,1.732422 c 1.889421,0.95358 3.37766,1.878687 3.30664,2.054687 -0.07102,0.176 -1.367881,0.786712 -2.880859,1.357422 -4.609736,1.73886 -7.444368,1.258535 -11.148438,-1.890625 l -1.035156,-0.882812 2.15625,-0.634766 c 1.186233,-0.3496 3.057577,-0.882637 4.160156,-1.185547 z m 120.300778,0 2.00586,0.550781 c 1.10258,0.30291 2.98013,0.837633 4.17383,1.189454 l 2.16992,0.640624 -1.28125,1.070313 c -0.70462,0.58869 -1.9675,1.405223 -2.80859,1.814453 -2.41551,1.17524 -5.07238,1.131835 -8.28711,-0.134766 -1.4288,-0.56294 -2.65351,-1.16775 -2.72071,-1.34375 -0.0672,-0.175999 1.42308,-1.101107 3.3125,-2.054687 z m -66.45508,1.714844 c 0.13396,0.0215 0.27873,0.257447 0.40039,0.742187 0.1036,0.41278 0.14232,1.285373 0.0859,1.939454 -0.15209,1.76858 -0.90234,0.808843 -0.90234,-1.154297 0,-1.00306 0.19274,-1.563234 0.41601,-1.527344 z m 5.7168,1.591797 c -1.46569,0 -1.85312,2.145456 -0.54297,3.003906 1.02069,0.66878 1.13086,0.653181 1.13086,-0.162109 0,-0.56744 0.0795,-0.61407 0.48047,-0.28125 0.264,0.2191 0.48047,0.828488 0.48047,1.355468 0,0.80057 -0.10587,0.930866 -0.64063,0.791016 -0.5218,-0.13645 -0.64062,-0.01 -0.64062,0.685547 0,0.50651 0.26062,1.016596 0.64062,1.253906 0.48849,0.30507 0.64063,0.745891 0.64063,1.863281 0,1.69822 -0.61682,1.817161 -1.09961,0.212891 -0.16463,-0.54705 -0.63365,-1.146421 -1.04102,-1.332031 -0.68547,-0.31232 -0.74023,-0.263988 -0.74023,0.632812 0,1.36116 0.81301,2.776486 2.01562,3.509766 1.29728,0.79101 2.03283,0.792972 2.45313,0.0078 0.41289,-0.77143 0.42983,-2.92069 0.0312,-3.96875 -0.19212,-0.50542 -0.18109,-1.17693 0.0312,-1.86914 0.48778,-1.58933 -0.1232,-3.497191 -1.50781,-4.712891 -0.61968,-0.54408 -1.38073,-0.990234 -1.69141,-0.990234 z m -74.962889,1.867187 c 1.35052,-0.0393 2.323314,0.184657 3.646484,0.529297 1.7307,0.45079 5.321196,2.072329 6.253907,2.824219 0.324988,0.26198 -2.768539,1.611581 -12.785157,5.582031 -7.267229,2.88062 -13.924388,5.372379 -14.792968,5.53711 -2.22082,0.42117 -8.172591,0.319744 -11.494141,-0.197266 -2.88958,-0.44977 -9.640068,-2.07453 -11.298828,-2.71875 -0.85491,-0.33202 0.771029,-0.859451 18.261719,-5.925781 14.43168,-4.18026 19.237854,-5.54432 22.208984,-5.63086 z m 151.101559,0 c 2.97114,0.0865 7.77729,1.4506 22.20898,5.63086 17.49068,5.06633 19.11663,5.593761 18.26172,5.925781 -1.78176,0.69199 -8.40175,2.257385 -11.5664,2.734375 -3.35233,0.50527 -9.34342,0.58693 -11.49414,0.15625 -0.704,-0.14098 -7.23399,-2.616863 -14.50977,-5.501953 -10.0285,-3.97663 -13.12577,-5.329817 -12.80078,-5.591797 0.93271,-0.75189 4.5232,-2.373429 6.25391,-2.824219 1.32316,-0.34464 2.29597,-0.568637 3.64648,-0.529297 z m -126.828121,0.06445 c 0.2217,-0.006 1.493638,0.793837 2.826172,1.779297 2.755936,2.03811 2.796454,1.827283 -0.695313,3.664063 -2.811021,1.47868 -6.1412,1.068965 -9.527344,-1.171875 l -1.27539,-0.84375 4.134765,-1.708985 c 2.273901,-0.93965 4.315408,-1.71265 4.53711,-1.71875 z m 102.554681,0 c 0.2217,0.006 2.26321,0.7791 4.53711,1.71875 l 4.13477,1.708985 -1.27539,0.84375 c -0.70146,0.4642 -2.08989,1.130388 -3.08594,1.480469 -2.5832,0.90793 -4.28207,0.827286 -6.44141,-0.308594 -3.49177,-1.83678 -3.45125,-1.625953 -0.69531,-3.664063 1.33254,-0.98546 2.60447,-1.785397 2.82617,-1.779297 z m -78.97851,1.509769 c 0.18327,-0.001 0.37279,0.04151 0.60937,0.109375 0.55377,0.15882 1.61844,0.289062 2.36524,0.289063 1.25805,0 1.39306,0.0862 1.84179,1.160156 0.63138,1.51117 0.62227,2.87798 -0.0215,3.125 -0.85893,0.3296 -4.67317,0.164204 -6.69336,-0.291016 -1.056,-0.23795 -2.13639,-0.44908 -2.40039,-0.46875 -0.27288,-0.0203 0.46531,-0.912279 1.71094,-2.068359 1.54453,-1.43351 2.03807,-1.850889 2.58789,-1.855469 z m 55.38867,0.0039 c 0.54776,0.004 1.04582,0.408291 2.56055,1.775391 l 2.16601,1.955078 -1.56836,0.423828 c -1.68597,0.45635 -7.38726,0.83296 -8.04492,0.53125 -0.54335,-0.24927 -0.50398,-1.723679 0.084,-3.130859 0.44872,-1.07391 0.58375,-1.160156 1.8418,-1.160156 0.7468,0 1.80778,-0.12948 2.35742,-0.28711 0.23304,-0.0668 0.42093,-0.108822 0.60352,-0.107422 z m -21.56836,0.443366 c -0.8735,-0.0973 -1.16646,0.653431 -1.25391,2.613281 -0.10272,2.30222 0.41564,3.778726 1.53711,4.378906 0.62635,0.33522 0.62467,0.367881 -0.18359,1.962891 -0.4517,0.89139 -0.7765,1.656632 -0.7207,1.701172 0.0558,0.0445 0.39018,0.24121 0.74218,0.4375 0.352,0.19628 0.78299,0.315592 0.95899,0.263672 0.63303,-0.186741 2.39067,-4.809977 2.38867,-6.285157 -0.002,-2.10065 -0.98515,-4.035778 -2.38867,-4.705078 -0.43444,-0.20716 -0.78891,-0.334767 -1.08008,-0.367187 z m -21.96289,1.607422 c -0.22413,0.224119 3.1727,7.012057 4.90625,9.804687 2.32432,3.74429 4.2215,6.145614 7.69726,9.740234 1.65925,1.716 3.11347,3.119141 3.23047,3.119141 0.30026,0 5.71001,-5.606279 7.21289,-7.474609 1.13664,-1.41302 1.20264,-1.591632 0.71094,-1.951172 -1.11942,-0.81854 -23.63273,-13.363361 -23.75781,-13.238281 z m 22.97851,0.595703 c 0.31826,0.0931 0.54493,0.826974 0.54493,1.927734 0,1.47151 -0.33741,2.007092 -0.79688,1.263672 -0.27191,-0.43995 -0.34317,-2.809147 -0.0918,-3.060547 0.12142,-0.12142 0.23766,-0.161879 0.34374,-0.130859 z m -51.58007,0.693359 c 0.118844,-0.0524 1.08369,0.464048 2.14257,1.148438 1.05887,0.68438 2.36839,1.427933 2.91016,1.652343 1.17323,0.48597 1.05848,0.742394 -0.86914,1.964844 -1.2439,0.78886 -1.77903,0.926289 -3.560547,0.912109 -2.019232,-0.016 -4.820977,-0.809166 -6.197262,-1.753906 -0.517811,-0.35545 -0.261424,-0.582351 2.388672,-2.113281 1.633424,-0.94362 3.066698,-1.758177 3.185547,-1.810547 z m 88.89062,0 c 0.11885,0.0524 1.55213,0.866927 3.18555,1.810547 3.35746,1.93955 3.35727,1.937056 -0.043,3.197265 -2.78248,1.03127 -5.45749,0.942903 -7.32617,-0.242187 -1.92762,-1.22245 -2.04237,-1.478874 -0.86914,-1.964844 0.54177,-0.22441 1.85128,-0.967964 2.91015,-1.652343 1.05888,-0.684391 2.02374,-1.200808 2.14258,-1.148438 z m 20.68555,2.179688 c 3.4741,-0.005 4.44415,0.287383 14.31836,4.314453 6.32727,2.58049 8.42584,3.565263 8.04687,3.777343 -0.28198,0.15781 -2.48016,0.785312 -4.88476,1.394532 -2.40459,0.60921 -5.30717,1.167707 -6.45117,1.242187 -4.08663,0.26607 -8.15105,-1.156357 -15.25,-5.341797 l -5.03125,-2.966797 1.70117,-0.771484 c 2.5996,-1.17961 4.72944,-1.644238 7.55078,-1.648437 z m -130.101561,0.02148 c 1.549828,0.0201 3.088833,0.162339 4.048828,0.417969 0.901424,0.24002 2.40638,0.783634 3.34375,1.208984 l 1.705078,0.773437 -5.263671,3.089844 c -3.492676,2.05 -6.249367,3.41873 -8.195313,4.06836 -4.134743,1.38033 -6.752221,1.497623 -10.988281,0.496093 -3.82248,-0.90374 -7.802043,-2.066528 -7.632813,-2.230468 0.34455,-0.33379 17.700681,-7.240969 18.875,-7.511719 0.998489,-0.23021 2.557594,-0.33261 4.107422,-0.3125 z m 28.269531,2.017578 2.54687,0.738281 c 1.40095,0.40577 2.89049,0.738281 3.31055,0.738281 0.42005,0 0.76367,0.130666 0.76367,0.291016 0,0.53383 -1.9226,1.918886 -3.1289,2.253906 -1.81911,0.50522 -6.38118,0.210622 -7.04688,-0.455078 -0.0736,-0.0736 0.6968,-0.905649 1.71094,-1.849609 z m 73.40234,0 1.81055,1.685547 c 0.995,0.92614 1.80859,1.749018 1.80859,1.830078 0,0.0811 -0.72657,0.303561 -1.61523,0.494141 -3.28334,0.70415 -6.25796,0.21953 -7.85547,-1.28125 -0.97192,-0.913 -0.9731,-1.251953 -0.006,-1.251954 0.42006,0 1.9096,-0.332521 3.31055,-0.738281 z m -57.04492,1.796875 c 0.51185,0 0.88995,0.396872 1.42969,1.507813 l 0.73242,1.509765 -0.70508,0.570313 c -0.3877,0.31394 -1.20864,0.572265 -1.82422,0.572265 -1.00055,0 -1.09981,-0.07709 -0.93945,-0.720703 0.0987,-0.396 0.27757,-1.332078 0.39648,-2.080078 0.17748,-1.11642 0.33937,-1.359375 0.91016,-1.359375 z m 40.6875,0 c 0.57079,0 0.73268,0.242955 0.91016,1.359375 0.11891,0.748 0.29778,1.684078 0.39648,2.080078 0.16036,0.64362 0.0611,0.720703 -0.93945,0.720703 -0.61558,0 -1.43652,-0.258325 -1.82422,-0.572265 l -0.70508,-0.570313 0.73242,-1.509765 c 0.53974,-1.11094 0.91784,-1.507813 1.42969,-1.507813 z m -48.29883,0.160156 2.37695,0.113281 c 1.30755,0.0627 2.44304,0.175534 2.52344,0.251954 0.33333,0.31663 -0.98469,1.914998 -2.02539,2.455078 -0.61634,0.31985 -1.92148,0.664595 -2.90039,0.765625 -2.09628,0.21636 -2.17278,0.02179 -0.85156,-2.146485 z m 55.37305,0.02539 c 0.52326,-0.0259 2.26389,2.419226 2.3164,3.253906 0.0301,0.47879 -1.80357,0.486112 -3.58398,0.01367 -1.28185,-0.34016 -3.11133,-1.914514 -3.11133,-2.677734 0,-0.33732 0.49966,-0.470256 1.92188,-0.509766 1.056,-0.0293 2.16063,-0.06538 2.45703,-0.08008 z m -80.20703,1.59375 c 1.955076,-0.0367 3.982037,0.163066 5.736328,0.603516 l 2.388672,0.599609 -2.068359,1.914062 c -1.137507,1.05318 -2.860125,2.289367 -3.828126,2.748047 -1.689779,0.80069 -1.995889,0.836175 -7.679687,0.865235 -6.652202,0.034 -9.921216,-0.112633 -9.916016,-0.445313 0.007,-0.44499 7.873478,-4.721329 10.070313,-5.474609 1.460296,-0.50072 3.341797,-0.773897 5.296875,-0.810547 z m 105.57812,0 c 1.95508,0.0366 3.83658,0.309827 5.29688,0.810547 2.10668,0.72236 10.06231,5.020976 10.07031,5.441406 0.002,0.10564 -1.31474,0.286041 -2.92578,0.400391 -1.61104,0.11436 -4.95849,0.197326 -7.43945,0.185546 -6.15246,-0.0292 -7.54148,-0.497724 -11.06055,-3.734374 l -2.06641,-1.900391 2.38867,-0.599609 c 1.7543,-0.44045 3.78126,-0.640176 5.73633,-0.603516 z m -91.0039,2.707031 c 0.50961,-0.0172 1.03245,-0.01665 1.5664,0.002 0.61023,0.0212 1.23564,0.0643 1.875,0.132813 l 2.1211,0.228515 -0.63477,1.244141 c -0.34919,0.68447 -0.93502,1.403859 -1.30078,1.599609 -0.36577,0.19575 -2.70361,0.411033 -5.19727,0.476563 -2.49366,0.0655 -5.399072,0.205127 -6.455072,0.310547 l -1.919922,0.191406 1.439453,-1.291016 c 1.992034,-1.78432 4.938571,-2.774171 8.505861,-2.894531 z m 76.41406,0 c 3.55477,0.11848 6.50589,1.099501 8.52148,2.869141 l 1.43946,1.265625 -0.98633,0.0078 c -0.54266,0.005 -1.05492,-0.0569 -1.13672,-0.138672 -0.0818,-0.0818 -2.54024,-0.212938 -5.46485,-0.292968 -3.00001,-0.0821 -5.60853,-0.300813 -5.98437,-0.501953 -0.3664,-0.19609 -0.95159,-0.917093 -1.30078,-1.601563 l -0.63477,-1.244141 2.1211,-0.228515 c 0.63574,-0.0681 1.25971,-0.111663 1.86718,-0.132813 0.53154,-0.0185 1.05077,-0.01885 1.5586,-0.002 z m -64.52344,1.039063 c 0.32686,0.002 0.64692,0.02501 0.95313,0.07031 1.31371,0.19457 1.34275,0.224893 1.16015,1.220703 -0.10307,0.56217 -0.38815,1.346188 -0.63476,1.742188 -0.37875,0.60819 -0.70822,0.714127 -2.1211,0.679687 -0.91994,-0.0224 -2.56959,-0.177503 -3.66406,-0.345703 l -1.98828,-0.306641 0.51758,-0.789062 c 0.84921,-1.29605 3.48933,-2.287074 5.77734,-2.271484 z m 52.64648,0 c 2.28424,-0.0152 4.92975,0.974078 5.77344,2.261718 l 0.51172,0.779297 -2.39648,0.357422 c -3.73097,0.55491 -4.84002,0.478146 -5.36524,-0.365234 -0.24661,-0.396 -0.53169,-1.180018 -0.63476,-1.742188 -0.1826,-0.99582 -0.15356,-1.026123 1.16015,-1.220703 0.30525,-0.0452 0.62486,-0.06811 0.95117,-0.07031 z m -44.08203,0.714843 0.082,1.759766 c 0.0458,0.97288 -0.10103,2.116384 -0.32812,2.558594 -0.50378,0.98101 -1.18371,1.066982 -3.35352,0.419922 -1.81852,-0.54231 -1.93734,-0.783235 -1.22656,-2.484375 0.58565,-1.40166 1.69867,-2.111897 3.43555,-2.191407 z m 35.51953,0 1.39063,0.0625 c 1.73688,0.0795 2.8499,0.789747 3.43555,2.191407 0.72248,1.72915 0.60618,1.939246 -1.40625,2.503906 -1.02355,0.28719 -2.01428,0.521484 -2.20117,0.521484 -0.78849,0 -1.21876,-1.118812 -1.21876,-3.169922 z m -32.51757,2.453125 c 0.61393,0.2343 3.59134,4.493477 3.49414,4.998047 -0.15185,0.7885 -0.84368,0.761548 -2.73633,-0.107422 -1.6134,-0.74075 -1.67969,-0.821859 -1.67969,-2.037109 0,-1.43967 0.50784,-3.011536 0.92188,-2.853516 z m 29.51562,0 c 0.41379,-0.15793 0.92188,1.413753 0.92188,2.851563 0,1.22687 -0.0508,1.285524 -1.79883,2.058594 -2.27551,1.00633 -2.68164,0.99657 -2.68164,-0.06836 0,-0.46354 3.08504,-4.661067 3.55859,-4.841797 z m -43.27539,26.507813 c -10.81553,-0.003 -20.339592,3.904397 -27.642574,11.341797 -9.799974,9.98035 -13.207512,24.995727 -8.785156,38.712877 4.277833,13.26891 15.162266,22.42102 29.74609,25.01368 3.07829,0.54725 11.78233,0.34865 14.82227,-0.33788 7.614,-1.71956 14.03531,-5.24296 19.29687,-10.58986 9.52724,-9.68177 13.05324,-24.06429 9.20703,-37.546864 -1.58577,-5.55879 -4.56174,-10.772473 -8.5664,-15.007813 -7.24811,-7.66565 -16.7392,-11.582337 -28.07813,-11.585937 z m 44.51758,0.599609 v 36.818365 36.8203 l 5.35937,-0.002 c 5.99266,-0.001 6.81436,-0.23528 8.08204,-2.31446 0.59848,-0.98153 0.63572,-1.63024 0.63671,-10.99804 l 0.002,-9.95313 9.35937,-0.18945 c 7.82297,-0.15778 9.88603,-0.29912 12.56055,-0.86719 7.78831,-1.65425 13.53462,-5.27453 17.15625,-10.80858 2.91804,-4.45894 3.97417,-8.750727 3.7168,-15.107427 -0.27632,-6.82473 -2.10911,-11.16331 -6.64258,-15.72461 -2.3883,-2.40295 -3.18272,-2.97444 -6.08789,-4.375 -6.3767,-3.07415 -6.18057,-3.050323 -26.46289,-3.183593 z m -122.152341,0.03906 -0.81836,1.839843 c -1.14104,2.563639 -30.9844605,70.865992 -31.1816405,71.365242 -0.12736,0.323 1.3448373,0.38871 7.1484375,0.32031 l 7.308594,-0.0859 3.642578,-8.5625 3.640625,-8.5625 16.482422,0.082 16.480469,0.084 3.564453,8.55273 3.564453,8.55274 7.439453,0.006 c 4.092,0.004 7.441406,-0.0687 7.441406,-0.16211 0,-0.51478 -31.183143,-71.448579 -31.626953,-71.943359 -1.18387,-1.31984 -2.047788,-1.486328 -7.673828,-1.486328 z m 208.250001,0.03906 c -0.79318,-0.002 -1.81077,0.0123 -3.14649,0.0332 l -5.57422,0.08789 -15.96875,36.558595 c -8.78251,20.10717 -15.96875,36.63251 -15.96875,36.72461 0,0.0921 3.26038,0.12939 7.24414,0.082 l 7.24219,-0.0859 3.60547,-8.48047 3.60742,-8.47851 16.47266,-0.084 16.47461,-0.082 1.92968,4.56836 c 1.06147,2.51345 2.69405,6.40441 3.62891,8.64453 l 1.70117,4.07227 h 7.48047 c 5.85672,0 7.44841,-0.0873 7.32422,-0.40039 -0.59773,-1.50704 -30.46683,-69.751187 -30.91797,-70.640628 -0.31245,-0.615999 -1.05011,-1.445773 -1.63867,-1.845703 -0.76931,-0.52276 -1.11655,-0.668938 -3.49609,-0.673828 z m 23.15234,2.173828 c -0.29196,-0.0335 -0.73051,0.477501 -1.36328,1.494141 l -0.91211,1.46876 -0.92774,-1.46875 c -0.52437,-0.82997 -1.16955,-1.466477 -1.48632,-1.466797 -0.4886,-5e-4 -0.56055,0.339446 -0.56055,2.666016 0,1.46667 0.0956,2.763529 0.21289,2.880859 0.52153,0.52153 0.7236,0.0785 0.8125,-1.787109 l 0.0937,-2 0.74609,1.199219 c 0.41035,0.659999 0.874,1.201171 1.0293,1.201171 0.1553,0 0.64741,-0.538462 1.09375,-1.195312 l 0.8125,-1.193359 v 1.99414 c 0,1.55936 0.1032,1.994141 0.47852,1.994141 0.3911,0 0.48047,-0.5342 0.48046,-2.88086 0,-1.92069 -0.13438,-2.86323 -0.50976,-2.90625 z m -8.44922,0.02734 c -1.77778,0 -2.24023,0.09761 -2.24023,0.478516 0,0.32 0.31898,0.480469 0.95898,0.480469 h 0.96094 v 2.427734 c 0,1.79854 0.10393,2.390999 0.40039,2.292969 0.25804,-0.0853 0.43159,-0.945672 0.49219,-2.425782 0.0901,-2.19759 0.12804,-2.294921 0.88086,-2.294921 0.48531,0 0.78515,-0.184079 0.78515,-0.480469 0,-0.38095 -0.4605,-0.478516 -2.23828,-0.478516 z m -145.51367,10.125 c 2.14655,-0.002 4.30861,0.235015 6.08398,0.708985 4.00741,1.06986 7.33715,2.996244 10.30078,5.958984 3.02179,3.02087 4.60646,5.596805 6.00196,9.765625 0.97164,2.90254 1.01724,3.271673 1.02734,8.160153 0.0118,5.6962 -0.33506,7.51429 -2.20117,11.52149 -2.80463,6.02253 -8.33995,10.70465 -14.74024,12.46875 -2.62698,0.72407 -8.40886,0.90751 -11.03906,0.35156 -11.17394,-2.36182 -18.823392,-12.1652 -18.867182,-24.18164 -0.04234,-11.616381 6.825986,-21.078107 17.445312,-24.035157 1.71207,-0.47675 3.84173,-0.71705 5.98828,-0.71875 z m 58.79297,0.433594 7.75976,0.01172 c 8.85381,0.0127 11.75281,0.385516 14.83789,1.904296 2.40596,1.18445 4.33796,3.252934 5.19141,5.558594 2.74746,7.42251 -0.96905,14.326683 -8.81055,16.369143 -1.40374,0.36562 -3.83967,0.47656 -10.40625,0.47656 h -8.57226 V 93.242187 Z m -130.189453,4.960937 0.419922,0.798828 c 0.75218,1.4344 10.728516,24.656348 10.728516,24.972658 0,0.19088 -4.202342,0.30859 -11.076172,0.30859 -10.39742,0 -11.068069,-0.0349 -10.917969,-0.56054 0.088,-0.308 2.42212,-5.81624 5.1875,-12.240239 2.76537,-6.424 5.17044,-12.040469 5.34375,-12.480469 z m 199.605463,0.394532 c 0.19603,-0.21168 11.22661,24.793834 11.22461,25.445314 -4.1e-4,0.132 -4.96901,0.24023 -11.04101,0.24023 -6.43972,0 -11.03906,-0.12267 -11.03907,-0.29297 0,-0.37779 10.55547,-25.068594 10.85547,-25.392574 z"
     inkscape:connector-curvature="0" />
</svg>
