<?xml version="1.0" encoding="UTF-8" standalone="no"?>
<svg
   width="1000"
   height="190.33725"
   viewBox="0 0 1000 190.33725"
   version="1.1"
   id="svg15"
   sodipodi:docname="Freethink_Logo.svg"
   inkscape:version="1.3 (0e150ed6c4, 2023-07-21)"
   xmlns:inkscape="http://www.inkscape.org/namespaces/inkscape"
   xmlns:sodipodi="http://sodipodi.sourceforge.net/DTD/sodipodi-0.dtd"
   xmlns="http://www.w3.org/2000/svg"
   xmlns:svg="http://www.w3.org/2000/svg"
   xmlns:rdf="http://www.w3.org/1999/02/22-rdf-syntax-ns#"
   xmlns:cc="http://creativecommons.org/ns#"
   xmlns:dc="http://purl.org/dc/elements/1.1/">
  <metadata
     id="metadata21">
    <rdf:RDF>
      <cc:Work
         rdf:about="">
        <dc:format>image/svg+xml</dc:format>
        <dc:type
           rdf:resource="http://purl.org/dc/dcmitype/StillImage" />
      </cc:Work>
    </rdf:RDF>
  </metadata>
  <defs
     id="defs19" />
  <sodipodi:namedview
     pagecolor="#ffffff"
     bordercolor="#666666"
     borderopacity="1"
     objecttolerance="10"
     gridtolerance="10"
     guidetolerance="10"
     inkscape:pageopacity="0"
     inkscape:pageshadow="2"
     inkscape:window-width="1360"
     inkscape:window-height="697"
     id="namedview17"
     showgrid="false"
     fit-margin-top="0"
     fit-margin-left="0"
     fit-margin-right="0"
     fit-margin-bottom="0"
     inkscape:zoom="0.25400851"
     inkscape:cx="1671.2038"
     inkscape:cy="-297.23414"
     inkscape:window-x="-8"
     inkscape:window-y="483"
     inkscape:window-maximized="1"
     inkscape:current-layer="svg15"
     inkscape:showpageshadow="2"
     inkscape:pagecheckerboard="0"
     inkscape:deskcolor="#d1d1d1" />
  <path
     inkscape:connector-curvature="0"
     d="M 938.1003,65.601623 1000,24.065542 l -3.65127,-5.440839 -57.8985,38.85173 A 252.0712,252.0712 0 0 0 945.59162,0 h -6.55357 a 247.27651,247.27651 0 0 1 -7.4069,57.861666 C 921.08252,45.38841 910.02588,33.552092 893.14623,22.609024 l -3.56532,5.497625 c 17.05154,11.050504 28.04833,23.233685 38.83024,36.107522 l -47.93309,32.166175 3.65127,5.440834 43.52517,-29.208626 a 334.02297,334.02297 0 0 1 -14.96729,40.671996 h -6.41083 v 14.12009 a 3.2767814,3.2767814 0 0 0 6.15605,1.56241 316.96989,316.96989 0 0 0 22.27597,-57.17561 c 10.91545,13.117869 22.55224,26.593344 40.53233,39.51169 l 3.82317,-5.32112 C 960.85359,92.882554 949.24442,79.027985 938.1003,65.601623 Z"
     data-name="Path 12088"
     id="Path_12088"
     style="stroke-width:1.53479218;fill:#ffffff" />
  <g
     transform="matrix(1.5347922,0,0,1.5347922,0,21.316729)"
     data-name="Group 12834"
     id="Group_12834-2"
     style="fill:#ffffff">
    <path
       inkscape:connector-curvature="0"
       transform="translate(-574.67,-484.483)"
       d="m 795.812,515.557 c -10.333,0 -18.606,3.53 -24.586,10.495 -6.039,7.035 -9.1,16.909 -9.1,29.352 0,12.336 3.081,22.078 9.158,28.957 5.7,6.457 15.775,10.248 25.291,10.248 8.433,0 14.128,-1.227 19.037,-3.645 a 32.439,32.439 0 0 0 11.05,-8.623 l -9.237,-10.893 c -5.141,5.894 -12.03,8.789 -20.64,8.789 a 19.092,19.092 0 0 1 -12.161,-4.9 c -3.268,-3.321 -4.927,-8.393 -4.927,-13.958 v -1.412 h 49.219 c 0,0 0.3,-3.811 0.3,-6.65 0,-11.83 -3.035,-20.725 -9.021,-27.556 -5.933,-6.772 -14.138,-10.204 -24.383,-10.204 z m 16.115,31.96 H 779.7 v -0.782 c 0,-5.432 3.143,-16.888 16.255,-16.888 13.112,0 15.976,11.467 15.976,16.888 z"
       data-name="Path 12089"
       id="Path_12089"
       style="fill:#ffffff" />
    <path
       inkscape:connector-curvature="0"
       transform="translate(-542.817,-484.483)"
       d="m 690.584,515.557 c -10.332,0 -18.606,3.53 -24.586,10.495 -6.039,7.035 -9.1,16.909 -9.1,29.352 0,12.336 3.081,22.078 9.158,28.957 5.7,6.457 15.775,10.248 25.291,10.248 8.433,0 14.128,-1.227 19.037,-3.645 a 32.44,32.44 0 0 0 11.05,-8.623 L 712.2,571.448 c -5.141,5.894 -12.03,8.789 -20.64,8.789 a 19.092,19.092 0 0 1 -12.161,-4.9 c -3.268,-3.321 -4.927,-8.393 -4.927,-13.958 v -1.412 h 49.219 c 0,0 0.3,-3.811 0.3,-6.65 0,-11.83 -3.035,-20.725 -9.021,-27.556 -5.937,-6.772 -14.141,-10.204 -24.386,-10.204 z m 16.114,31.96 h -32.231 v -0.782 c 0,-5.432 3.143,-16.888 16.255,-16.888 13.112,0 15.978,11.466 15.978,16.887 z"
       data-name="Path 12090"
       id="Path_12090"
       style="fill:#ffffff" />
    <path
       inkscape:connector-curvature="0"
       transform="translate(-603.891,-471.499)"
       d="m 894.435,472.665 h -17.7 v 31.723 h -18.079 v 14.436 h 18.075 v 39.845 c 0,6.469 1.754,11.675 5.212,15.471 3.419,3.756 8.608,5.66 15.421,5.66 h 15.9 v -14.436 h -12.535 a 5.9,5.9 0 0 1 -4.488,-2.013 6.688,6.688 0 0 1 -1.805,-4.682 v -39.845 h 18.831 v -14.436 h -18.832 z"
       data-name="Path 12091"
       id="Path_12091"
       style="fill:#ffffff" />
    <path
       inkscape:connector-curvature="0"
       transform="translate(-522.527,-485.271)"
       d="m 611.008,529.6 h -3.434 v -11.44 h -17.7 v 75.413 h 17.7 v -46.64 a 11.647,11.647 0 0 1 4.356,-9.553 15.336,15.336 0 0 1 9.931,-3.226 h 13.407 v -16 H 629.7 c -12.233,0.005 -18.692,11.446 -18.692,11.446 z"
       data-name="Path 12092"
       id="Path_12092"
       style="fill:#ffffff" />
    <path
       inkscape:connector-curvature="0"
       transform="translate(-493.292,-471.499)"
       d="M 493.292,579.8 H 511 v -45.324 h 41.556 V 518.823 H 511 v -30.505 h 41.556 v -15.653 h -59.264 z"
       data-name="Path 12093"
       id="Path_12093"
       style="fill:#ffffff" />
    <path
       inkscape:connector-curvature="0"
       transform="translate(-680.276,-484.483)"
       d="m 1150.837,515.557 c -12.235,0 -18.7,11.443 -18.7,11.443 h -3.435 v -9.618 h -17.711 v 75.438 h 17.711 v -50.041 a 11.652,11.652 0 0 1 4.357,-9.556 15.456,15.456 0 0 1 9.934,-3.378 c 4.491,0 7.96,1.5 10.312,4.454 2.268,2.851 3.417,6.984 3.417,12.282 v 46.239 h 17.712 v -49.28 c 0,-8.918 -2.053,-15.907 -6.1,-20.776 -4.034,-4.849 -10.805,-7.207 -17.497,-7.207 z"
       data-name="Path 12094"
       id="Path_12094"
       style="fill:#ffffff" />
    <path
       inkscape:connector-curvature="0"
       transform="translate(-630.938,-471.499)"
       d="m 987.847,502.573 c -12.235,0 -18.7,11.443 -18.7,11.443 h -3.435 v -41.352 h -17.71 v 107.172 h 17.71 V 529.8 a 11.656,11.656 0 0 1 4.357,-9.556 15.461,15.461 0 0 1 9.935,-3.378 c 4.49,0 7.959,1.5 10.313,4.454 2.268,2.851 3.417,6.984 3.417,12.282 v 46.237 h 17.711 v -49.284 c 0,-8.918 -2.053,-15.907 -6.1,-20.776 -4.031,-4.849 -10.805,-7.206 -17.498,-7.206 z"
       data-name="Path 12095"
       id="Path_12095"
       style="fill:#ffffff" />
    <path
       inkscape:connector-curvature="0"
       transform="translate(-712.634,-471.499)"
       d="M 1275.945,504.4 H 1257.6 l -16.357,30.135 h -5.643 v -61.871 h -17.705 v 107.172 h 17.705 v -32.854 h 6.215 l 18.045,32.854 h 18.492 l -23.045,-39.8 z"
       data-name="Path 12096"
       id="Path_12096"
       style="fill:#ffffff" />
    <path
       inkscape:connector-curvature="0"
       transform="translate(-661.209,-485.273)"
       d="m 1048.007,532.607 h 13.434 v 61 h 17.713 v -75.441 h -31.147 z"
       data-name="Path 12097"
       id="Path_12097"
       style="fill:#ffffff" />
    <path
       inkscape:connector-curvature="0"
       transform="translate(-666.424,-470.993)"
       d="m 1075.452,470.993 a 10.214,10.214 0 1 0 10.215,10.215 10.214,10.214 0 0 0 -10.215,-10.215 z"
       data-name="Path 12098"
       id="Path_12098"
       style="fill:#ffffff" />
  </g>
</svg>
