<?xml version="1.0" encoding="UTF-8" standalone="no"?>
<!-- Created with Inkscape (http://www.inkscape.org/) -->

<svg
   xmlns:dc="http://purl.org/dc/elements/1.1/"
   xmlns:cc="http://creativecommons.org/ns#"
   xmlns:rdf="http://www.w3.org/1999/02/22-rdf-syntax-ns#"
   xmlns:svg="http://www.w3.org/2000/svg"
   xmlns="http://www.w3.org/2000/svg"
   xmlns:xlink="http://www.w3.org/1999/xlink"
   xmlns:sodipodi="http://sodipodi.sourceforge.net/DTD/sodipodi-0.dtd"
   xmlns:inkscape="http://www.inkscape.org/namespaces/inkscape"
   version="1.1"
   id="svg2"
   width="1361.0358"
   height="1364"
   viewBox="0 0 1361.0358 1364"
   sodipodi:docname="geekspin.svg"
   inkscape:version="0.92.4 (5da689c313, 2019-01-14)">
  <metadata
     id="metadata8">
    <rdf:RDF>
      <cc:Work
         rdf:about="">
        <dc:format>image/svg+xml</dc:format>
        <dc:type
           rdf:resource="http://purl.org/dc/dcmitype/StillImage" />
        <dc:title></dc:title>
      </cc:Work>
    </rdf:RDF>
  </metadata>
  <defs
     id="defs6">
    <linearGradient
       inkscape:collect="always"
       id="linearGradient895">
      <stop
         style="stop-color:#620bc2;stop-opacity:1"
         offset="0"
         id="stop891" />
      <stop
         style="stop-color:#05aefc;stop-opacity:1"
         offset="1"
         id="stop893" />
    </linearGradient>
    <linearGradient
       inkscape:collect="always"
       xlink:href="#linearGradient895"
       id="linearGradient897"
       x1="3659.4463"
       y1="268.74091"
       x2="3660.6714"
       y2="-937.10468"
       gradientUnits="userSpaceOnUse"
       gradientTransform="translate(-2962.3586,1088.5304)" />
  </defs>
  <sodipodi:namedview
     pagecolor="#ffffff"
     bordercolor="#666666"
     borderopacity="1"
     objecttolerance="10"
     gridtolerance="10"
     guidetolerance="10"
     inkscape:pageopacity="0"
     inkscape:pageshadow="2"
     inkscape:window-width="3440"
     inkscape:window-height="1346"
     id="namedview4"
     showgrid="false"
     inkscape:zoom="0.48937595"
     inkscape:cx="820.48807"
     inkscape:cy="878.72382"
     inkscape:window-x="-11"
     inkscape:window-y="-11"
     inkscape:window-maximized="1"
     inkscape:current-layer="svg2" />
  <g
     inkscape:groupmode="layer"
     id="layer1"
     inkscape:label="Layer 1"
     style="display:inline"
     transform="translate(-2.6817627,-0.24786377)">
    <ellipse
       style="opacity:1;fill:url(#linearGradient897);fill-opacity:1;stroke:none;stroke-width:29.90155983;stroke-miterlimit:4;stroke-dasharray:none;stroke-opacity:1"
       id="path889"
       cx="683.19965"
       cy="682.24786"
       rx="680.51788"
       ry="682" />
  </g>
  <g
     inkscape:groupmode="layer"
     id="layer2"
     inkscape:label="Layer 2"
     transform="translate(-2.6817627,-0.24786377)">
    <path
       id="path817"
       style="fill:#ffffff;fill-opacity:1"
       d="M 178,328 V 497 666 H 292.5 407 V 557.99023 449.98047 L 357.75,450.24023 308.5,450.5 308.24219,511.75 307.98438,573 H 292.49219 277 v -76 -76 h 65 65 V 374.5 328 H 292.5 Z m 261,0 V 497 666 H 553.5 668 V 619.5 573 h -65 -65 v -15 -15 h 65 65 V 496.5 450 H 603 538 V 435.5 421 h 65 65 V 374.5 328 H 553.5 Z m 261,0 V 497 666 H 814.5 929 V 619.5 573 H 863.5 798 v -15 -15 h 65.50977 65.50976 L 928.75977,496.75 928.5,450.5 863.25,450.24219 798,449.98633 V 435.49219 421 H 863.5 929 V 374.5 328 H 814.5 Z m 260,0 v 168.33398 c 0,92.58334 0.29935,168.63334 0.66602,169 C 961.03268,665.70065 983.30783,666 1010.166,666 H 1059 v -46 -46 h 16 16 v 46.00977 46.00976 l 49.25,-0.25976 49.25,-0.25977 0.2559,-76.75 0.2558,-76.75 H 1173.5059 1157 v -15 -15 h 16.5 16.5 v -77 -76.9043 c -0.053,-0.0316 -0.1037,-0.064 -0.1562,-0.0957 H 1140.5 1091 v 46 46 h -16 -16 v -46 -46 h -49.5 z M 178,692 V 799.5 907 h 77 77 v 15 15 h -77 -77 v 45.83398 c 0,25.20842 0.29935,46.13342 0.66602,46.50002 0.36666,0.3667 61.11666,0.666 135,0.666 H 448 V 922 814 H 371 294 V 799.5 785 h 77 77 V 738.5 692 H 313 Z m 299,0 v 169.00781 169.00779 l 57.75,-0.2578 57.75,-0.2578 0.26367,-30.75 L 593.0293,968 H 670.01367 747 V 830 692 H 612 Z m 298,0 v 168.33398 c 0,92.58334 0.30273,168.63672 0.67383,169.00782 0.37109,0.3716 26.58359,0.558 58.25,0.416 L 891.5,1029.5 891.75195,860.75 892.00586,692 h -58.50391 z m 145,0 v 169 169 h 58 58 V 907.5 785 h 19 19 v 122.50781 122.50779 l 57.75,-0.2578 57.75,-0.2578 0.252,-168.75 0.2539,-168.75 H 1055.002 Z M 593,785 H 611.5 630 V 830.5 876 H 611.5 593 v -45.5 z"
       inkscape:connector-curvature="0" />
  </g>
</svg>
