<?xml version="1.0" encoding="UTF-8" standalone="no"?>
<!-- Created with Inkscape (http://www.inkscape.org/) -->

<svg
   xmlns:dc="http://purl.org/dc/elements/1.1/"
   xmlns:cc="http://creativecommons.org/ns#"
   xmlns:rdf="http://www.w3.org/1999/02/22-rdf-syntax-ns#"
   xmlns:svg="http://www.w3.org/2000/svg"
   xmlns="http://www.w3.org/2000/svg"
   xmlns:sodipodi="http://sodipodi.sourceforge.net/DTD/sodipodi-0.dtd"
   xmlns:inkscape="http://www.inkscape.org/namespaces/inkscape"
   version="1.1"
   id="svg2"
   width="1148.6725"
   height="210.87175"
   viewBox="0 0 1148.6725 210.87175"
   sodipodi:docname="GeekWire-logo.svg"
   inkscape:version="0.92.4 (5da689c313, 2019-01-14)">
  <metadata
     id="metadata8">
    <rdf:RDF>
      <cc:Work
         rdf:about="">
        <dc:format>image/svg+xml</dc:format>
        <dc:type
           rdf:resource="http://purl.org/dc/dcmitype/StillImage" />
        <dc:title></dc:title>
      </cc:Work>
    </rdf:RDF>
  </metadata>
  <defs
     id="defs6" />
  <sodipodi:namedview
     pagecolor="#ffffff"
     bordercolor="#666666"
     borderopacity="1"
     objecttolerance="10"
     gridtolerance="10"
     guidetolerance="10"
     inkscape:pageopacity="0"
     inkscape:pageshadow="2"
     inkscape:window-width="3440"
     inkscape:window-height="1346"
     id="namedview4"
     showgrid="false"
     inkscape:zoom="0.36473639"
     inkscape:cx="541.02522"
     inkscape:cy="343.48849"
     inkscape:window-x="-11"
     inkscape:window-y="-11"
     inkscape:window-maximized="1"
     inkscape:current-layer="svg2" />
  <path
     style="fill:#ffffff;fill-opacity:1"
     d="M 67.925695,209.80256 C 53.472771,207.7183 38.692534,201.3762 28.478579,192.87606 16.084968,182.56199 7.6255745,168.56944 2.7286495,150.28351 0.29498354,141.1958 0.07899154,138.78346 0.00926854,119.91171 c -0.06689,-18.10426 0.186141,-21.529229 2.16512596,-29.306979 8.2953895,-32.60229 28.0707815,-53.17174 59.0413385,-61.41206 8.784192,-2.33721 11.521482,-2.58709 28.709962,-2.62083 10.449995,-0.0205 27.887495,0.33492 38.749995,0.78985 l 19.75,0.82715 v 27.86144 27.86143 h -13.29488 -13.29487 l -1.95513,-13.75 -1.95512,-13.75 -5.5,-1.94524 c -4.44254,-1.57123 -8.28785,-1.95576 -19.999995,-2 -14.44214,-0.0545 -14.52885,-0.0412 -21.73034,3.33421 -8.323133,3.90119 -16.548569,11.77637 -20.539584,19.66497 -12.601272,24.907549 -10.96826,72.251559 3.202561,92.848149 4.383131,6.37066 11.460843,12.20783 17.920273,14.7793 4.7505,1.89116 7.55235,2.24865 17.64709,2.25159 6.62058,0.002 14.353485,-0.58732 17.249995,-1.31448 l 5.25,-1.31798 v -18.90026 -18.90026 h -9 -8.999995 v -11 -11 h 35.499995 35.5 v 11 11 h -3.56574 c -1.96116,0 -4.47426,0.48622 -5.58466,1.08049 -4.3252,2.31478 -4.8496,6.14133 -4.8496,35.38739 v 27.53212 h -9.92308 c -9.76251,0 -9.97321,-0.0501 -13.02172,-3.09865 -2.17504,-2.17504 -3.6138,-2.88249 -4.82693,-2.37344 -7.02163,2.94639 -15.99668,5.59216 -21.83032,6.4354 -8.161625,1.17973 -24.463825,1.14383 -32.897945,-0.0725 z m 161.999995,-0.03 c -21.67323,-2.7438 -39.65796,-14.08045 -48.22081,-30.39592 -5.94743,-11.33212 -7.74423,-20.02466 -7.74423,-37.46489 0,-17.21286 1.67566,-25.53131 7.44545,-36.96119 11.51189,-22.804929 37.08633,-35.765299 66.41997,-33.659689 17.6707,1.26843 28.77571,5.27334 38.0009,13.70465 6.89095,6.29794 10.8087,12.45944 14.0126,22.037779 2.93252,8.76707 5.25732,28.91689 4.17162,36.15685 l -0.70805,4.7216 h -45.75996 -45.75997 l 0.7575,6.29213 c 1.47171,12.22461 7.20433,23.25487 14.62729,28.14464 14.26549,9.39721 39.36784,6.04788 48.25935,-6.4391 l 2.13453,-2.99771 h 10.9319 10.93191 v 12.4856 12.48561 l -5.95341,3.00527 c -16.07065,8.11244 -41.52903,11.67173 -63.54659,8.88433 z m 36.07841,-88.87053 c -2.0127,-17.7899 -8.5677,-26.088859 -21.7544,-27.542179 -9.25947,-1.02049 -18.75773,3.10935 -23.95015,10.413529 -2.99737,4.2164 -6.32531,12.77763 -7.34232,18.88837 l -0.70734,4.25 h 27.21707 27.21706 z m 101.42159,88.81779 c -16.25812,-2.02426 -29.76693,-8.52774 -39.64131,-19.08432 -10.55766,-11.28708 -15.11606,-23.71722 -16.03445,-43.72379 -0.81304,-17.71177 1.15789,-28.81759 7.38791,-41.62942 5.91251,-12.158869 18.39733,-23.758159 31.05668,-28.853869 19.38943,-7.80474 47.20101,-6.89647 64.32258,2.10066 12.00839,6.31023 21.1853,18.7767 24.80116,33.691389 1.78462,7.36118 3.1634,24.36365 2.46063,30.34316 l -0.62856,5.34808 H 395.2427 349.33506 l 0.61027,3.75 c 2.49155,15.31007 5.52368,22.35768 12.11539,28.15994 6.3738,5.61045 12.75666,7.59407 24.36497,7.57199 8.09711,-0.0154 10.3122,-0.3987 15,-2.59561 3.025,-1.41765 7.51835,-4.67202 9.98523,-7.23193 l 4.48523,-4.65439 h 10.76477 10.76477 v 12.46242 12.46242 l -7.25,3.47907 c -16.78962,8.05688 -40.2758,11.20241 -62.75,8.4042 z m 36.5269,-88.05811 C 401.41412,101.49324 394.68104,93.617881 379.857,93.478281 364.06067,93.329511 353.90632,103.69333 350.77352,123.16171 l -0.60345,3.75 h 27.22165 27.22165 z m 668.97311,88.13338 c -27.2211,-3.9595 -45.7248,-19.97283 -52.672,-45.5829 -3.0223,-11.14149 -3.0241,-33.45331 0,-44.5872 6.5381,-24.099589 22.1805,-39.806439 46.2418,-46.432179 9.0005,-2.47847 32.7604,-2.42079 41.9337,0.10181 15.344,4.21951 26.9175,13.33988 32.8903,25.91878 4.9121,10.345339 6.256,16.930069 6.8263,33.448309 l 0.5266,15.25 h -46.1216 c -40.8907,0 -46.1216,0.17491 -46.1216,1.54216 0,3.68578 3.3283,17.18096 5.088,20.63024 6.872,13.47036 21.0356,19.75175 38.1603,16.92367 8.3529,-1.37946 13.8898,-4.29279 19.0827,-10.04073 l 3.6638,-4.05534 h 11.0026 11.0026 v 12.34107 12.34107 l -4.75,2.58355 c -15.9373,8.6684 -44.7426,12.81881 -66.75,9.61769 z m 37.186,-89.13338 c -1.3023,-13.49478 -6.7367,-23.291489 -14.3056,-25.789479 -8.4354,-2.78392 -19.8474,-0.89262 -26.8522,4.45017 -5.1649,3.939469 -11.4767,17.827269 -11.5163,25.339309 l -0.012,2.25 h 26.6446 26.6446 z m -661.68601,77.75 v -10.5 h 5.04545 c 4.02357,0 5.54259,-0.49713 7.5,-2.45455 l 2.45455,-2.45454 v -63.9106 c 0,-63.142429 -0.0249,-63.942269 -2.07258,-66.545449 -1.82257,-2.31703 -2.78758,-2.63486 -8,-2.63486 h -5.92742 v -11 -11 h 25.4433 c 25.15876,0 25.4607,0.0249 27,2.2225 1.36165,1.94403 1.5567,8.89818 1.5567,55.5 0,29.302629 0.27798,53.277499 0.61774,53.277499 1.38595,0 34.96758,-33.45469 36.01473,-35.8786 0.69544,-1.60978 0.80436,-3.489699 0.28223,-4.871399 -0.68805,-1.82076 -1.6195,-2.25 -4.88248,-2.25 h -4.03222 v -11.5 -11.5 h 30.5 30.5 v 11.5 11.5 h -5.04966 c -2.77731,0 -6.48505,0.74227 -8.23942,1.64949 -4.5094,2.3319 -33.85745,30.526289 -33.29663,31.987749 1.22188,3.18417 37.15561,53.66451 39.76072,55.85656 1.63814,1.37841 4.06891,2.5062 5.40172,2.5062 2.41083,0 2.42327,0.054 2.42327,10.52207 v 10.52206 l -18.62543,-0.27206 -18.62543,-0.27207 -18.53892,-27.22632 -18.53892,-27.22631 -7.74711,7.22631 -7.7471,7.22632 -0.0885,9.75 -0.0886,9.75 h 6.5 6.5 v 10.5 10.5 h -33 -33 z m 194.07627,6.75 c -0.55045,-2.0625 -9.12536,-36.58327 -19.05536,-76.71283 -20.05126,-81.032079 -19.18694,-78.537169 -27.208,-78.537169 h -3.81291 v -11 -11 h 37 37 v 11 11 h -10.5 c -5.775,0 -10.5,0.22976 -10.5,0.51058 0,1.44113 4.17965,19.33622 5.01916,21.48942 0.5361,1.375 5.25969,22.04609 10.49687,45.935749 5.23718,23.88967 9.72796,43.64158 9.97952,43.89313 0.70427,0.70427 0.45385,1.65915 17.78793,-67.828879 l 16.33924,-65.5 15.6347,-0.27512 15.6347,-0.27512 0.88769,3.27512 c 0.48824,1.80131 8.04642,31.96262 16.79597,67.02512 8.74955,35.062499 16.15077,63.749999 16.44715,63.749999 0.29638,0 1.94002,-5.7375 3.65253,-12.75 1.71251,-7.0125 6.58998,-27.0375 10.83882,-44.5 l 7.72516,-31.749999 49.63028,0.0153 c 27.29665,0.008 50.16463,0.35508 50.81772,0.77035 3.01916,1.91975 3.31256,7.02531 3.31256,57.643079 v 51.29853 l 2.63636,2.63637 c 2.24901,2.249 3.49791,2.63636 8.5,2.63636 h 5.86364 v 10.5 10.5 h -35.5 -35.5 v -10.5 -10.5 h 5.54545 c 4.55444,0 5.98411,-0.43865 8,-2.45455 l 2.45455,-2.45454 v -40.9106 c 0,-39.87395 -0.0525,-40.97736 -2.07258,-43.545449 l -2.07258,-2.63486 h -16.02621 -16.02621 l -2.65121,2.85718 c -2.27379,2.450449 -4.63414,10.493659 -16.58043,56.499999 l -13.92922,53.64282 -22.07078,-0.003 -22.07078,-0.003 -13.91037,-55.24668 c -7.6507,-30.38568 -14.18806,-55.574049 -14.52747,-55.974159 -0.33941,-0.40011 -6.42147,22.324889 -13.51568,50.499999 -7.09422,28.17511 -13.51179,53.36497 -14.26127,55.97747 l -1.36269,4.75 h -21.92272 -21.92271 l -1.00082,-3.75 z m 276.92373,-6.75 v -10.5 h 5.54545 c 4.55444,0 5.98411,-0.43865 8,-2.45455 l 2.45455,-2.45454 v -40.9106 c 0,-39.87395 -0.0525,-40.97736 -2.07258,-43.545449 -1.85497,-2.35822 -2.74743,-2.63486 -8.5,-2.63486 h -6.42742 v -11.5 -11.5 h 24.06574 c 14.00737,0 24.84069,0.41474 25.91989,0.99232 2.1574,1.15458 3.6643,5.34396 4.6153,12.83105 l 0.6762,5.32337 4.7694,-5.00042 c 9.7997,-10.27437 20.0854,-15.14632 31.97698,-15.14632 9.4,0 8.9765,-0.70578 8.9765,14.95985 v 13.745869 l -11.75,0.6077 c -12.55078,0.64912 -21.39998,2.40493 -29.34368,5.82224 l -4.9293,2.12052 0.2615,39.12191 0.2615,39.12191 9.25,0.28753 9.25,0.28752 v 10.46248 10.46247 h -36.50003 -36.5 z M 845.49786,58.206951 c -4.02071,-6.07016 -6.07217,-13.10339 -6.07217,-20.81781 0,-24.77041 23.50329,-42.5107499 47.76399,-36.0523899 18.31312,4.87508 30.28364,23.1315399 27.30291,41.6401799 -2.28398,14.18221 -10.41489,24.13734 -14.45289,17.6955 -0.83689,-1.33509 -0.67247,-2.38085 0.7075,-4.5 4.63826,-7.12274 6.1353,-11.72783 6.11787,-18.81928 -0.0289,-11.75811 -5.72835,-20.84855 -16.71718,-26.66337 -6.09438,-3.2248799 -19.28869,-3.2307899 -25.82206,-0.0115 -10.73983,5.29192 -16.87425,15.06567 -16.89037,26.91081 -0.009,6.26748 0.43392,8.02857 3.49023,13.89215 3.85609,7.39799 4.30113,9.90912 1.91821,10.82353 -3.10806,1.19267 -4.27177,0.54353 -7.34604,-4.09777 z m 26.55598,-3.81093 c -15.47837,-3.93012 -18.04839,-24.15849 -4.09858,-32.25962 5.73622,-3.33122 14.72801,-2.79108 19.95923,1.19897 8.63836,6.58879 9.86256,18.34821 2.69758,25.91239 -5.0976,5.38162 -11.09101,7.04426 -18.55823,5.14826 z"
     id="path817"
     inkscape:connector-curvature="0" />
</svg>
