<?xml version="1.0" encoding="UTF-8" standalone="no"?>
<!-- Created with Inkscape (http://www.inkscape.org/) -->

<svg
   xmlns:dc="http://purl.org/dc/elements/1.1/"
   xmlns:cc="http://creativecommons.org/ns#"
   xmlns:rdf="http://www.w3.org/1999/02/22-rdf-syntax-ns#"
   xmlns:svg="http://www.w3.org/2000/svg"
   xmlns="http://www.w3.org/2000/svg"
   xmlns:sodipodi="http://sodipodi.sourceforge.net/DTD/sodipodi-0.dtd"
   xmlns:inkscape="http://www.inkscape.org/namespaces/inkscape"
   version="1.1"
   id="svg2"
   width="354.50269"
   height="109.29842"
   viewBox="0 0 354.50269 109.29842"
   sodipodi:docname="interestingengineering.svg"
   inkscape:version="0.92.4 (5da689c313, 2019-01-14)">
  <metadata
     id="metadata8">
    <rdf:RDF>
      <cc:Work
         rdf:about="">
        <dc:format>image/svg+xml</dc:format>
        <dc:type
           rdf:resource="http://purl.org/dc/dcmitype/StillImage" />
        <dc:title></dc:title>
      </cc:Work>
    </rdf:RDF>
  </metadata>
  <defs
     id="defs6" />
  <sodipodi:namedview
     pagecolor="#ffffff"
     bordercolor="#666666"
     borderopacity="1"
     objecttolerance="10"
     gridtolerance="10"
     guidetolerance="10"
     inkscape:pageopacity="0"
     inkscape:pageshadow="2"
     inkscape:window-width="2496"
     inkscape:window-height="1570"
     id="namedview4"
     showgrid="false"
     inkscape:zoom="0.59"
     inkscape:cx="179.19491"
     inkscape:cy="41.247633"
     inkscape:window-x="-11"
     inkscape:window-y="-11"
     inkscape:window-maximized="1"
     inkscape:current-layer="svg2" />
  <path
     style="fill:#ffffff;fill-opacity:1"
     d="m 55.935825,108.94928 c -0.203671,-0.33082 -0.346277,-9.02955 -0.316903,-19.3305 0.02937,-10.30095 -0.23626,-19.01866 -0.590296,-19.3727 -0.354036,-0.35403 -2.19281,-0.73103 -4.086164,-0.83777 L 47.5,69.21424 v 19.91827 19.91828 h -3.928151 c -3.853229,0 -3.968065,-0.10668 -6.020829,-5.59318 -1.904697,-5.09076 -2.06835,-7.35891 -1.821849,-25.25 L 36,58.55079 49.889077,58.27166 c 11.875385,-0.23865 14.15888,-0.0349 15.75,1.40499 C 67.354142,61.22877 67.5,63.22247 67.5,85.11323 v 23.75246 l -5.596933,0.34255 c -3.078313,0.1884 -5.763572,0.0719 -5.967242,-0.25896 z M 0.282924,83.55151 0.565849,58.05079 h 15.016979 15.01698 L 30.299904,63.66701 30,69.28324 l -9,0.13377 -9,0.13378 -0.307498,4.25 -0.307498,4.25 h 7.057498 c 4.942585,0 7.078145,0.37459 7.126398,1.25 0.03789,0.6875 0.239926,2.56 0.448958,4.16111 0.685301,5.24917 -0.796892,6.46545 -8.278722,6.79345 -6.665558,0.29221 -6.73966,0.32665 -6.787128,3.15434 -0.0264,1.5724 0.529493,3.08051 1.235308,3.35135 0.705815,0.27085 5.223026,0.55934 10.038248,0.6411 l 8.754947,0.14865 1.630493,3.5 c 0.896772,1.925 1.943981,4.5125 2.327132,5.75 l 0.696639,2.25 -17.817387,7.2e-4 L 0,109.05224 Z m 73.872064,23.67054 c -1.436239,-1.58703 -1.650784,-4.72619 -1.623185,-23.75 0.02415,-16.64243 0.351703,-22.34268 1.360243,-23.67126 1.146297,-1.51006 3.125205,-1.75 14.433014,-1.75 15.24313,0 15.17494,-0.04464 15.17494,9.93426 v 6.06574 H 98 c -4.83333,0 -5.5,-0.24242 -5.5,-2 0,-1.1 -0.675,-2.05625 -1.5,-2.125 -0.825,-0.0687 -2.6773,-0.18125 -4.11622,-0.25 l -2.61621,-0.125 -0.13379,13.71341 C 84.00699,96.26156 84.10438,96.99357 86,97.2832 c 4.56006,0.69675 6.10417,-0.25173 6.20508,-3.81153 0.084,-2.96421 -0.22102,-3.42088 -2.28501,-3.42088 -2.71281,0 -3.76683,-2.6358 -3.24375,-8.11163 L 87,78.55079 l 8.25,-0.29044 8.25,-0.29044 v 14.34044 c 0,9.82034 -0.37824,14.71868 -1.2,15.54044 -0.8068,0.8068 -5.34334,1.2 -13.84501,1.2 -10.980293,0 -12.862895,-0.24075 -14.300002,-1.82874 z M 108.73283,83.80079 109,58.55079 h 5.5 5.5 l 0.26717,25.25 0.26717,25.25 H 114.5 108.46566 Z m 16.76717,-0.25 v -25.5 h 13.92857 c 11.32901,0 14.22186,0.29328 15.5,1.57143 1.34119,1.34119 1.57143,5.08462 1.57143,25.5499 v 23.97848 l -5.75,-0.29991 -5.75,-0.2999 -0.5,-19.5 -0.5,-19.5 h -3.5 -3.5 l -0.27114,19.75 -0.27114,19.75 H 130.97886 125.5 Z m 36,0 v -25.5 h 15.39301 c 16.95704,0 16.60699,-0.13749 16.60699,6.52277 0,1.84756 -0.5625,3.70988 -1.25,4.13849 -0.6875,0.42861 -5.3,0.79267 -10.25,0.80902 l -9,0.0297 -0.30539,4.20694 -0.3054,4.20694 7.8054,0.29306 7.80539,0.29306 0.32368,3.38837 c 0.17802,1.86361 0.057,4.45111 -0.26905,5.75 -0.55691,2.21891 -1.04488,2.36165 -8.07368,2.36165 H 172.5 v 3.5 c 0,3.92244 -0.52803,3.75878 11.31418,3.5067 8.43663,-0.17959 9.68582,0.73814 9.68582,7.11574 v 4.87756 h -16 -16 z m 36.23283,0.25 0.26717,-25.25 h 15.41712 15.41712 l 0.17657,2.39673 c 0.0971,1.3182 -0.1056,3.77638 -0.45047,5.46261 L 227.9333,69.47601 218.71665,69.36522 209.5,69.25443 v 4.35437 4.35437 l 7.25,0.29381 7.25,0.29381 0.31111,4.3239 c 0.43806,6.08831 -0.84035,7.1761 -8.43355,7.1761 H 209.5 v 3.5 3.5 h 9.5 c 5.225,0 9.54659,0.3375 9.60353,0.75 0.057,0.4125 0.21274,3.1125 0.34621,6 l 0.24267,5.25 h -15.86338 -15.86337 z m 36.43384,24.58333 c -0.83312,-0.83311 -0.88913,-46.59003 -0.0597,-48.75154 0.51275,-1.33617 2.74024,-1.58179 14.34503,-1.58179 17.25612,0 17.048,-0.15741 17.048,12.89448 0,5.08035 -0.49169,10.15573 -1.09264,11.27862 -0.79019,1.47648 -0.79019,2.34407 0,3.13426 0.66126,0.66126 1.09264,5.55392 1.09264,12.39264 v 11.3 h -6 -6 v -9.38337 c 0,-8.54236 -0.17925,-9.43024 -2,-9.90638 -1.1,-0.28766 -2.9,-0.28766 -4,0 -1.82075,0.47614 -2,1.36402 -2,9.90638 v 9.38337 h -5.33333 c -2.93334,0 -5.63334,-0.3 -6,-0.66667 z M 253.3075,73.80079 c -0.29896,-4.13191 -0.40475,-4.25 -3.8075,-4.25 -3.40275,0 -3.50854,0.11809 -3.8075,4.25 l -0.3075,4.25 h 4.115 4.115 z m 17.1925,9.75 v -25.5 h 5.5 5.5 v 25.5 25.5 H 276 270.5 Z M 286.73272,83.85121 287,58.55079 301,58.26512 c 18.89526,-0.38556 17.5,-2.56985 17.5,27.39645 v 23.38922 h -6 -6 l 2e-5,-19.75 2e-5,-19.75 -3.75002,0.0331 -3.75002,0.0331 -0.5,19.46689 -0.5,19.46689 -5.76728,0.30042 -5.76727,0.30042 0.26727,-25.30042 z m 38.33871,23.62815 c -0.86429,-0.86428 -1.58121,-1.98928 -1.59317,-2.5 -0.012,-0.51071 -0.0217,-10.15357 -0.0217,-21.42857 0,-11.275 0.01,-20.91786 0.0217,-21.42857 0.012,-0.51072 0.72888,-1.63572 1.59317,-2.5 1.26186,-1.26187 4.04734,-1.57143 14.13976,-1.57143 14.87553,0 15.20848,0.21277 15.25701,9.75 l 0.0318,6.25 H 349 c -4.77759,0 -5.5,-0.25494 -5.5,-1.94098 0,-2.66066 -1.51592,-3.37241 -5.56489,-2.61283 L 334.5,70.14142 V 83.5961 97.05079 h 4.5 c 4.45881,0 4.5,-0.0314 4.5,-3.43045 0,-2.79615 -0.41603,-3.48953 -2.25,-3.75 -1.99318,-0.28308 -2.28423,-0.97586 -2.5499,-6.06955 l -0.29991,-5.75 H 346.4501 354.5 V 91.8958 c 0,17.7989 0.59145,17.15499 -15.75731,17.15499 -9.66651,0 -12.41585,-0.31602 -13.67126,-1.57143 z M 0.5,26.05079 v -26 h 4.875 c 4.66,0 4.902564,0.13782 5.5,3.125 0.798966,3.99483 0.794471,43.64072 -0.0053,46.625 -0.520932,1.94385 -1.267438,2.25 -5.486345,2.25 H 0.5 Z m 16,0.0523 V 0.05079 H 30 c 18.942546,0 17.605977,-2.14928 17.268056,27.76806 L 47,51.55079 H 41.5 36 l -0.27114,-19.75 -0.27114,-19.75 H 31.5 27.54228 l -0.27114,19.75 L 27,51.55079 21.75,51.85305 16.5,52.15531 V 26.10305 Z m 46,6 v -20.0523 h -5 -5 v -6 -6 h 15.480948 c 15.425302,0 15.483072,0.008 16.072082,2.35525 0.32512,1.29539 0.41861,3.88289 0.20776,5.75 -0.37554,3.32546 -0.48885,3.4009 -5.55111,3.69628 L 73.541936,12.15385 73.270968,31.85232 73,51.55079 67.75,51.85305 62.5,52.15531 V 32.10305 Z m 26,-6.0523 V 0 L 104.25,0.2754 120,0.55079 v 5.5 5.5 l -9.75,0.28621 -9.75,0.28621 v 3.91998 3.91998 l 7.25,0.29381 7.25,0.29381 v 5.5 5.5 l -7.25,0.29381 -7.25,0.29381 v 3.91998 3.91998 l 9.75,0.28621 9.75,0.28621 v 5.5 5.5 l -15.75,0.27539 -15.75,0.2754 z m 37,0.0523 V 0.05083 H 139 c 17.8252,0 17.83216,0.006 17.13086,14.31502 -0.27455,5.60174 -0.48785,10.85998 -0.474,11.68498 0.0138,0.825 0.0967,6.9 0.18416,13.5 l 0.15898,12 h -5.5 -5.5 l -0.28621,-9.75 -0.28621,-9.75 H 140.5 136.57242 l -0.28621,9.75 -0.28621,9.75 -5.25,0.30226 -5.25,0.30226 z m 19,-10.0523 v -4 h -4 -4 v 4 4 h 4 4 z m 16.82283,33.77502 C 161.14527,48.57455 161.225,36.97579 161.5,24.05079 l 0.5,-23.5 h 15.5 15.5 v 5.5 5.5 l -10.25,0.28498 -10.25,0.28499 v 3.92295 3.92295 l 7.75,0.29207 7.75,0.29206 v 5.5 5.5 l -7.75,0.29206 -7.75,0.29207 v 3.95793 3.95794 h 9.88337 c 11.00315,0 10.78562,-0.15284 10.67464,7.5 l -0.058,4 -15.67717,0.27502 c -15.64132,0.2744 -15.67791,0.26982 -16,-2 z m 39.45709,1.24638 c -2.67086,-1.12463 -3.50946,-3.99596 -3.09221,-10.58767 L 198,35.55079 l 5.75,-0.2999 c 5.57508,-0.29078 5.75,-0.22234 5.75,2.25 0,2.30822 0.37912,2.5499 4,2.5499 h 4 v -4 -4 h -8 c -11.56796,0 -12,-0.57605 -12,-16 0,-16.1389 -0.13828,-16 15.92857,-16 9.38108,0 12.25578,0.32721 13.46072,1.53215 1.75415,1.75414 2.68549,6.38001 2.30886,11.46785 l -0.25909,3.5 h -5.46953 c -4.91076,0 -5.50218,-0.22986 -5.78908,-2.25 -0.26949,-1.8975 -0.93533,-2.25 -4.25,-2.25 -3.91886,0 -3.93045,0.0118 -3.93045,4 v 4 h 7.80887 c 11.60618,0 11.56207,-0.0622 11.38354,16.03855 -0.0878,7.91902 -0.58121,13.75137 -1.21727,14.38908 -1.35696,1.36048 -23.69442,1.85732 -26.69522,0.59377 z m 43.34545,-0.55528 C 243.78142,49.62058 243.5,40.62368 243.5,30.52379 V 12.16037 L 238.75,11.85558 234,11.55079 v -5.5 -5.5 L 249.75,0.2754 265.5,0 v 6.0254 6.02539 h -4.97886 -4.97886 l -0.27114,19.75 -0.27114,19.75 -5.12463,0.29791 c -3.99907,0.23248 -5.26198,-0.06 -5.75,-1.33179 z m 27.0413,0.86721 C 270.8,51.01746 270.5,39.31746 270.5,25.38412 V 0.05079 h 5.5 5.5 v 26 26 h -4.83333 c -2.65834,0 -5.13334,-0.3 -5.5,-0.66667 z m 15.80384,-0.54957 C 286.6916,50.1077 286.58413,38.49651 286.7317,25.0319 L 287,0.55079 300.72196,0.27275 c 19.24193,-0.38988 17.88569,-2.51908 17.5461,27.5461 L 318,51.55079 h -5.5 c -4.78543,0 -5.51867,-0.25984 -5.6437,-2 -0.079,-1.1 -0.19154,-9.9875 -0.25,-19.75 l -0.1063,-17.75 h -3.97886 -3.97886 l -0.27114,19.75 -0.27114,19.75 -5.26118,0.30265 c -3.66497,0.21082 -5.41504,-0.0983 -5.76831,-1.01889 z m 38.752,-0.34046 C 323.53592,48.96254 323.5,48.56753 323.5,26.05079 c 0,-27.85662 -1.12272,-26 15.72251,-26 10.02959,0 11.50394,0.22645 13.324,2.04651 1.70304,1.70304 1.99675,3.08766 1.75,8.25 L 354,16.55079 l -5.25,0.30226 c -5.04095,0.29022 -5.25,0.20063 -5.25,-2.25 0,-2.35823 -0.3421,-2.55226 -4.5,-2.55226 h -4.5 v 14 14 h 4.5 4.5 v -4 c 0,-3.6 -0.25,-4 -2.5,-4 -2.39082,0 -2.5,-0.26386 -2.5,-6.04206 v -6.04207 l 7.75,0.29207 7.75,0.29206 0.27804,13.72196 c 0.36568,18.04758 0.59394,17.77804 -15.05553,17.77804 -8.58855,0 -11.80742,-0.37117 -13.5,-1.5567 z"
     id="path822"
     inkscape:connector-curvature="0" />
</svg>
