<svg xmlns="http://www.w3.org/2000/svg" viewBox="0 0 466.9 78.1"><defs><style>.cls-1{fill:#144e8c;}</style></defs><title>Layer 2</title><g id="Layer_2" data-name="Layer 2"><g id="Layer_1-2" data-name="Layer 1"><g id="Layer_2-2" data-name="Layer 2"><path class="cls-1" d="M14.3,47.8H31.2v12H.2V5.5H14.3Z"/><path class="cls-1" d="M74.1,59.7H61V55.6h-.1c-2.3,3.7-6.8,5.3-11.2,5.3-10.9,0-18.6-9.1-18.6-19.7s7.6-19.7,18.5-19.7c4.2,0,8.7,1.6,11.4,4.8V22.8H74.1V59.7ZM44.6,41.3c0,4.7,3.1,8.3,8.4,8.3s8.4-3.6,8.4-8.3A8.08,8.08,0,0,0,53,32.9,8.14,8.14,0,0,0,44.6,41.3Z"/><path class="cls-1" d="M78.8,0H91.9V26.4a15.26,15.26,0,0,1,11.4-4.8c10.9,0,18.5,9.1,18.5,19.7S114.2,61,103.2,61c-4.3,0-8.8-1.7-11.2-5.3h-.1v4.1H78.8V0ZM91.5,41.3c0,4.7,3.1,8.3,8.4,8.3s8.4-3.6,8.4-8.3a8.4,8.4,0,1,0-16.8,0Z"/><path class="cls-1" d="M144.9,5.5h13.9l11,29,11.7-29h14l8.2,54.3H189.6l-4-31.2h-.1l-13,31.2h-5.6L154.4,28.6h-.1l-4.5,31.2h-14Z"/><path class="cls-1" d="M246.2,59.7H233.1V55.6H233c-2.3,3.7-6.8,5.3-11.2,5.3-10.9,0-18.6-9.1-18.6-19.7s7.6-19.7,18.5-19.7c4.2,0,8.7,1.6,11.4,4.8V22.8h13.1V59.7ZM216.7,41.3c0,4.7,3.1,8.3,8.4,8.3s8.4-3.6,8.4-8.3a8.4,8.4,0,0,0-16.8,0Z"/><path class="cls-1" d="M264.4,27.6h.1c3-4.5,6.7-6,11.8-6,9.9,0,13.9,6.3,13.9,15.3V59.7H277.1v-18c0-3.5.6-9.7-5.9-9.7-5.3,0-6.8,4-6.8,8.6V59.8H251.3v-37h13.1Z"/><path class="cls-1" d="M335.7,59.7H322.6V55.6h-.1c-2.3,3.7-6.8,5.3-11.2,5.3-10.9,0-18.6-9.1-18.6-19.7s7.6-19.7,18.5-19.7c4.2,0,8.7,1.6,11.4,4.8V22.8h13.1V59.7ZM306.2,41.3c0,4.7,3.1,8.3,8.4,8.3S323,46,323,41.3a8.4,8.4,0,1,0-16.8,0Z"/><path class="cls-1" d="M381.3,56.1c0,15.7-7.8,22-21.4,22-8.5,0-19.9-4.4-21-14.1h14.7a4.78,4.78,0,0,0,2.4,2.8,8.39,8.39,0,0,0,3.7.9c7.1,0,8.4-4.6,8.4-10.6V55.4a15.22,15.22,0,0,1-11.7,5c-10.8,0-18.2-8.2-18.2-18.9s7.6-20,18.9-20c4.3,0,8.3,1.4,10.9,5.1h.1V22.8h13.2ZM351.8,41c0,4.7,3.1,8.3,8.4,8.3s8.4-3.6,8.4-8.3a8.4,8.4,0,0,0-16.8,0Z"/><path class="cls-1" d="M423.9,43.5H396.3c0,5.3,2.8,8.2,8.2,8.2a6.59,6.59,0,0,0,6.3-3.4h12.6C421.3,57,413,61,404.6,61c-12.2,0-21.4-6.9-21.4-19.7,0-12.3,8.4-19.7,20.4-19.7,12.8,0,20.2,7.9,20.2,20.5v1.4Zm-12.2-7.6a7.34,7.34,0,0,0-7.4-5.8c-3.8,0-7,2-7.8,5.8Z"/><path class="cls-1" d="M440.8,28.9h.1c2.5-4.5,6.8-6.6,12-6.6h2.5V34.9a10.55,10.55,0,0,0-5.5-1.2c-7.3,0-9.1,4.8-9.1,11.2V59.8H427.7v-37h13.1Z"/><path class="cls-1" d="M463,29.9a3.63,3.63,0,0,1-2.6-1.1,3.69,3.69,0,0,1-1.1-2.7,4,4,0,0,1,1.1-2.7,3.69,3.69,0,0,1,2.7-1.1,4,4,0,0,1,2.7,1.1,3.86,3.86,0,0,1,0,5.4A4.11,4.11,0,0,1,463,29.9Zm0-.6a2.91,2.91,0,0,0,2.5-1.2,3.23,3.23,0,0,0,.8-2.1,3.44,3.44,0,0,0-.8-2.1,3.2,3.2,0,0,0-5,0,3.23,3.23,0,0,0-.8,2.1,3.34,3.34,0,0,0,.9,2.3A3.41,3.41,0,0,0,463,29.3Zm-1.2-1.2V24h1.3a1.22,1.22,0,0,1,.9.3,1,1,0,0,1,.3.8,1.85,1.85,0,0,1-.2.7,1.21,1.21,0,0,1-.5.5l1.2,1.9H464l-1.1-1.7h-.5v1.7h-.6Zm.6-2.2h.2a1.55,1.55,0,0,0,.8-.2.6.6,0,0,0,.3-.6.76.76,0,0,0-.2-.5,1.45,1.45,0,0,0-.7-.2h-.4v1.5Z"/><path class="cls-1" d="M1.3,77.3H0V65.8H1.7c2.2,0,4.2.6,4.2,3.2A3,3,0,0,1,3,72.2l3.7,5.2H5.1l-3.5-5H1.3Zm0-6.2h.4c1.4,0,2.9-.3,2.9-2.1s-1.4-2.1-2.9-2.1H1.3Z"/><path class="cls-1" d="M14.6,74.1c0,1.2.1,2.2,1.6,2.2s1.6-1,1.6-2.2v-4H19v4.1c0,1.9-.7,3.2-2.8,3.2s-2.8-1.3-2.8-3.2V70.1h1.2Z"/><path class="cls-1" d="M27.6,71h0a2.48,2.48,0,0,1,2.1-1.1c2,0,2.4,1.4,2.4,3.1v4.3H30.9v-4c0-1.2-.1-2.2-1.5-2.2-1.7,0-1.8,1.6-1.8,2.8v3.4H26.4V70.1h1.2Z"/><path class="cls-1" d="M48.5,65.8H50l2.9,5.1,2.9-5.1h1.5l-3.8,6.6v4.9H52.3V72.4Z"/><path class="cls-1" d="M61.6,73.7a3.8,3.8,0,1,1,3.8,3.8A3.8,3.8,0,0,1,61.6,73.7Zm1.2,0a2.51,2.51,0,1,0,5,0A2.58,2.58,0,0,0,65.3,71,2.53,2.53,0,0,0,62.8,73.7Z"/><path class="cls-1" d="M77.1,74.1c0,1.2.1,2.2,1.6,2.2s1.6-1,1.6-2.2v-4h1.2v4.1c0,1.9-.7,3.2-2.8,3.2s-2.8-1.3-2.8-3.2V70.1h1.2Z"/><path class="cls-1" d="M90.1,70.9h0c.5-.6.8-1,1.6-1a2.28,2.28,0,0,1,1.1.3l-.6,1.1a.91.91,0,0,0-.7-.3c-1.3,0-1.4,1.7-1.4,2.7v3.6H88.9V70.1h1.2v.8Z"/><path class="cls-1" d="M110.4,76.1h3.2v1.2h-4.5V65.8h1.3Z"/><path class="cls-1" d="M126.6,77.3h-1.2v-1h0a3,3,0,0,1-2.5,1.2,3.82,3.82,0,0,1,0-7.6,3.34,3.34,0,0,1,2.5,1.2h0v-1h1.2Zm-5.9-3.7A2.36,2.36,0,1,0,123,71,2.46,2.46,0,0,0,120.7,73.6Z"/><path class="cls-1" d="M134,64.7h1.2v6.4h0a3,3,0,0,1,2.5-1.2,3.82,3.82,0,0,1,0,7.6,3,3,0,0,1-2.5-1.2h0v1H134Zm1.1,8.9a2.36,2.36,0,1,0,2.3-2.6A2.46,2.46,0,0,0,135.1,73.6Z"/><path class="cls-1" d="M159.2,76.1h3.2v1.2h-4.5V65.8h1.3Z"/><path class="cls-1" d="M170.5,67.4a.9.9,0,1,1-.9-.9A.9.9,0,0,1,170.5,67.4Zm-.3,9.9H169V70.1h1.2Z"/><path class="cls-1" d="M179.1,72.7l2.6-2.7h1.6l-3.1,3,3.6,4.1h-1.5l-2.9-3.3-.3.3V77h-1.2V64.4h1.2v8.3Z"/><path class="cls-1" d="M190.9,73.9a2.35,2.35,0,0,0,2.3,2.4,2.5,2.5,0,0,0,2.2-1.5l1,.6a3.54,3.54,0,0,1-3.3,2,3.47,3.47,0,0,1-3.5-3.7c0-2.1,1.2-3.9,3.5-3.9s3.5,1.9,3.4,4h-5.6Zm4.4-1a2.17,2.17,0,0,0-4.3,0Z"/><path class="cls-1" d="M219.8,77.3h-1.2v-1h0a3,3,0,0,1-2.5,1.2,3.82,3.82,0,0,1,0-7.6,3.34,3.34,0,0,1,2.5,1.2h0v-1h1.2Zm-5.9-3.7a2.36,2.36,0,1,0,2.3-2.6A2.46,2.46,0,0,0,213.9,73.6Z"/><path class="cls-1" d="M237.1,65.8H239c2.1,0,3.8.8,3.8,3.1a2.66,2.66,0,0,1-1.1,2.2,2.89,2.89,0,0,1,2.2,2.9c0,2.3-1.8,3.2-4.1,3.2h-2.7V65.8Zm1.3,5h.5c1.4,0,2.7-.2,2.7-2s-1.1-1.9-2.7-1.9h-.5Zm0,5.3h1.3c1.4,0,2.9-.4,2.9-2.1s-1.7-2-3.1-2h-1.1v4.1Z"/><path class="cls-1" d="M252.1,74.1c0,1.2.1,2.2,1.6,2.2s1.6-1,1.6-2.2v-4h1.2v4.1c0,1.9-.7,3.2-2.8,3.2s-2.8-1.3-2.8-3.2V70.1h1.2v4Z"/><path class="cls-1" d="M266.9,71.8a1.09,1.09,0,0,0-1-.7.88.88,0,0,0-.9.8c0,.7.8.9,1.7,1.2s1.7.9,1.7,2.1a2.29,2.29,0,0,1-2.4,2.3,2.5,2.5,0,0,1-2.5-1.8l1.1-.5a1.5,1.5,0,0,0,1.5,1.1,1.08,1.08,0,0,0,1.2-1.1c0-1.6-3.2-1.1-3.2-3.3a2,2,0,0,1,2.1-2,2.22,2.22,0,0,1,1.9,1.3Z"/><path class="cls-1" d="M276.9,67.4a.9.9,0,1,1-.9-.9A.9.9,0,0,1,276.9,67.4Zm-.2,9.9h-1.2V70.1h1.2Z"/><path class="cls-1" d="M285.6,71h0a2.48,2.48,0,0,1,2.1-1.1c2,0,2.4,1.4,2.4,3.1v4.3h-1.2v-4c0-1.2-.1-2.2-1.5-2.2-1.7,0-1.8,1.6-1.8,2.8v3.4h-1.2V70.1h1.2Z"/><path class="cls-1" d="M298.2,73.9a2.35,2.35,0,0,0,2.3,2.4,2.5,2.5,0,0,0,2.2-1.5l1,.6a3.54,3.54,0,0,1-3.3,2,3.47,3.47,0,0,1-3.5-3.7c0-2.1,1.2-3.9,3.5-3.9s3.5,1.9,3.4,4h-5.6Zm4.4-1a2.17,2.17,0,0,0-4.3,0Z"/><path class="cls-1" d="M313.6,71.8a1.09,1.09,0,0,0-1-.7.88.88,0,0,0-.9.8c0,.7.8.9,1.7,1.2s1.7.9,1.7,2.1a2.29,2.29,0,0,1-2.4,2.3,2.58,2.58,0,0,1-2.5-1.8l1.1-.5a1.5,1.5,0,0,0,1.5,1.1,1.08,1.08,0,0,0,1.2-1.1c0-1.6-3.2-1.1-3.2-3.3a2,2,0,0,1,2.1-2,2.22,2.22,0,0,1,1.9,1.3Z"/><path class="cls-1" d="M324.9,71.8a1.09,1.09,0,0,0-1-.7.88.88,0,0,0-.9.8c0,.7.8.9,1.7,1.2s1.7.9,1.7,2.1a2.29,2.29,0,0,1-2.4,2.3,2.58,2.58,0,0,1-2.5-1.8l1.1-.5a1.5,1.5,0,0,0,1.5,1.1,1.08,1.08,0,0,0,1.2-1.1c0-1.6-3.2-1.1-3.2-3.3a2,2,0,0,1,2.1-2,2.22,2.22,0,0,1,1.9,1.3Z"/></g></g></g></svg>