<?xml version="1.0" encoding="UTF-8" standalone="no"?>
<svg
   width="478.43701"
   height="68.005997"
   version="1.1"
   id="svg3"
   sodipodi:docname="logo-techspot-back1.svg"
   inkscape:version="1.3 (0e150ed6c4, 2023-07-21)"
   xmlns:inkscape="http://www.inkscape.org/namespaces/inkscape"
   xmlns:sodipodi="http://sodipodi.sourceforge.net/DTD/sodipodi-0.dtd"
   xmlns="http://www.w3.org/2000/svg"
   xmlns:svg="http://www.w3.org/2000/svg">
  <defs
     id="defs3" />
  <sodipodi:namedview
     id="namedview3"
     pagecolor="#ffffff"
     bordercolor="#000000"
     borderopacity="0.25"
     inkscape:showpageshadow="2"
     inkscape:pageopacity="0.0"
     inkscape:pagecheckerboard="true"
     inkscape:deskcolor="#d1d1d1"
     inkscape:zoom="1.6211538"
     inkscape:cx="238.41044"
     inkscape:cy="33.618031"
     inkscape:window-width="1360"
     inkscape:window-height="697"
     inkscape:window-x="-8"
     inkscape:window-y="483"
     inkscape:window-maximized="1"
     inkscape:current-layer="svg3" />
  <path
     d="m 73.656,39.474 h 29.796 V 27.55 H 73.656 v -11.9 h 32.74 V 3.894 H 58.76 v 60.212 h 48.415 v -12.9 H 73.655 Z M 216.863,27.564 H 194.519 V 3.894 h -14.9 v 60.212 h 14.9 V 40.454 h 22.344 v 23.654 h 14.896 V 3.894 H 216.863 Z M 0,16.569 h 18.207 v 47.36 H 33.105 V 16.569 H 51.313 V 3.894 H 0 Z m 427.125,0 h 18.207 v 47.36 h 14.898 v -47.36 h 18.207 V 3.894 h -51.312 z m -256.507,26.56 h -14.74 c -0.977,5.662 -5.4,9.124 -11.942,9.383 -0.262,0.012 -0.527,0.018 -0.796,0.018 -4.316,0 -7.523,-1.53 -9.82,-3.938 -3.47,-3.635 -4.87,-9.27 -4.87,-14.686 0,-5.416 1.4,-11.053 4.87,-14.687 2.298,-2.406 5.505,-3.937 9.82,-3.937 a 20.81,20.81 0 0 1 0.796,0.018 c 6.406,0.27 10.616,3.826 11.768,9.9 h 14.984 c -0.02,-0.178 -0.048,-0.352 -0.07,-0.527 -0.824,-6.215 -3.484,-11.396 -7.58,-15.17 -4.785,-4.412 -11.523,-6.907 -19.554,-6.907 a 33.18,33.18 0 0 0 -3.195,0.152 c -15.675,1.512 -26.74,14.144 -26.74,31.145 0,17.001 11.064,29.637 26.74,31.15 a 32.86,32.86 0 0 0 3.195,0.152 c 8.03,0 14.77,-2.496 19.554,-6.907 4.42,-3.73 7.457,-8.87 7.8,-15.17 h -0.2 z m 104.73,-14.985 -5.468,-1.383 -0.066,-0.02 c -7,-1.683 -12.527,-3.012 -12.527,-7.114 0,-4.214 4.236,-5.715 8.197,-5.715 2.2,0 6.22,0.372 8.587,2.852 1.142,1.2 1.73,2.704 1.75,4.5 h 14.883 C 290.317,7.494 277.58,2.606 266.766,2.606 c -12.135,0 -24.375,5.58 -24.375,18.048 0,10.678 8.412,14.545 17.498,17.128 1.566,0.438 3.132,0.834 4.645,1.216 7.115,1.794 13.246,3.347 13.246,8.157 0,4.97 -5.293,6.74 -10.247,6.74 -7.7,0 -11.532,-3.016 -12.013,-9.488 h -14.917 c 0.3,13.022 10.018,20.796 26,20.796 7.84,0 26.085,-1.943 26.085,-19.932 0,-10.792 -8.76,-14.716 -17.33,-17.13 z m 55.315,-24.25 h -28.48 v 60.212 h 14.895 V 43.582 h 13.585 c 14.3,0 21.552,-6.903 21.552,-20.53 C 352.223,5.762 337.163,3.894 330.663,3.894 Z m -2.398,28.38 H 317.077 V 15.63 h 11.188 c 5.753,0 9.053,3.108 9.053,8.534 0,5.306 -3.13,8.1 -9.053,8.1 z M 415.131,8.204 392.591,0 l -22.536,8.204 -11.992,20.77 4.165,23.616 18.37,15.416 h 23.984 l 18.374,-15.416 4.163,-23.616 z"
     fill="#ffffff"
     id="path1" />
  <path
     fill="#0a0b0b"
     d="M 404.24,55.31 H 380.943 L 369.295,35.134 380.943,14.956 h 23.297 l 11.65,20.178 z"
     id="path2" />
  <path
     fill="#ff7f00"
     d="M 404.241,41.859 H 380.943 L 392.591,21.683 Z"
     id="path3" />
</svg>
