<?xml version="1.0" encoding="UTF-8" standalone="no"?>
<!-- Generator: Adobe Illustrator 26.4.1, SVG Export Plug-In . SVG Version: 6.00 Build 0)  -->

<svg
   version="1.1"
   id="Ebene_1"
   x="0px"
   y="0px"
   viewBox="0 0 192.2 36"
   style="enable-background:new 0 0 192.2 36;"
   xml:space="preserve"
   sodipodi:docname="Logo_heise_online_2023.svg"
   inkscape:version="1.3 (0e150ed6c4, 2023-07-21)"
   xmlns:inkscape="http://www.inkscape.org/namespaces/inkscape"
   xmlns:x="adobe:ns:meta/"
   xmlns:sodipodi="http://sodipodi.sourceforge.net/DTD/sodipodi-0.dtd"
   xmlns="http://www.w3.org/2000/svg"
   xmlns:svg="http://www.w3.org/2000/svg"
   xmlns:rdf="http://www.w3.org/1999/02/22-rdf-syntax-ns#"
   xmlns:dc="http://purl.org/dc/elements/1.1/"
   xmlns:xmp="http://ns.adobe.com/xap/1.0/"
   xmlns:xmpGImg="http://ns.adobe.com/xap/1.0/g/img/"
   xmlns:xmpMM="http://ns.adobe.com/xap/1.0/mm/"
   xmlns:stRef="http://ns.adobe.com/xap/1.0/sType/ResourceRef#"
   xmlns:stEvt="http://ns.adobe.com/xap/1.0/sType/ResourceEvent#"
   xmlns:illustrator="http://ns.adobe.com/illustrator/1.0/"
   xmlns:xmpTPg="http://ns.adobe.com/xap/1.0/t/pg/"
   xmlns:stDim="http://ns.adobe.com/xap/1.0/sType/Dimensions#"
   xmlns:xmpG="http://ns.adobe.com/xap/1.0/g/"
   xmlns:pdf="http://ns.adobe.com/pdf/1.3/"
   xmlns:ns="&amp;ns_sfw;"><defs
   id="defs12" /><sodipodi:namedview
   id="namedview12"
   pagecolor="#ffffff"
   bordercolor="#000000"
   borderopacity="0.25"
   inkscape:showpageshadow="2"
   inkscape:pageopacity="0.0"
   inkscape:pagecheckerboard="0"
   inkscape:deskcolor="#d1d1d1"
   inkscape:zoom="4.3860563"
   inkscape:cx="96.099998"
   inkscape:cy="17.897627"
   inkscape:window-width="1360"
   inkscape:window-height="697"
   inkscape:window-x="-8"
   inkscape:window-y="483"
   inkscape:window-maximized="1"
   inkscape:current-layer="Ebene_1" />&#10;<style
   type="text/css"
   id="style1">&#10;	.st0{fill:#323232;}&#10;</style>&#10;<metadata
   id="metadata1">&#10;	<x:xmpmeta>&#10;		<rdf:RDF>&#10;			&#10;				<rdf:Description
   rdf:about="">&#10;				<dc:format>image/svg+xml</dc:format>&#10;				<dc:title>&#10;					<rdf:Alt>&#10;						<rdf:li>heise-online</rdf:li>&#10;					</rdf:Alt>&#10;				</dc:title>&#10;				<xmp:MetadataDate>2022-12-09T16:44:04+01:00</xmp:MetadataDate>&#10;				<xmp:ModifyDate>2022-12-09T16:44:04+01:00</xmp:ModifyDate>&#10;				<xmp:CreateDate>2022-12-09T16:44:04+01:00</xmp:CreateDate>&#10;				<xmp:CreatorTool>Adobe Illustrator 26.4 (Macintosh)</xmp:CreatorTool>&#10;				<xmp:Thumbnails>&#10;					<rdf:Alt>&#10;						<rdf:li
   rdf:parseType="Resource">&#10;							<xmpGImg:width>256</xmpGImg:width>&#10;							<xmpGImg:height>48</xmpGImg:height>&#10;							<xmpGImg:format>JPEG</xmpGImg:format>&#10;							<xmpGImg:image>/9j/4AAQSkZJRgABAgEASABIAAD/7QAsUGhvdG9zaG9wIDMuMAA4QklNA+0AAAAAABAASAAAAAEA&#10;AQBIAAAAAQAB/+4ADkFkb2JlAGTAAAAAAf/bAIQABgQEBAUEBgUFBgkGBQYJCwgGBggLDAoKCwoK&#10;DBAMDAwMDAwQDA4PEA8ODBMTFBQTExwbGxscHx8fHx8fHx8fHwEHBwcNDA0YEBAYGhURFRofHx8f&#10;Hx8fHx8fHx8fHx8fHx8fHx8fHx8fHx8fHx8fHx8fHx8fHx8fHx8fHx8fHx8f/8AAEQgAMAEAAwER&#10;AAIRAQMRAf/EAaIAAAAHAQEBAQEAAAAAAAAAAAQFAwIGAQAHCAkKCwEAAgIDAQEBAQEAAAAAAAAA&#10;AQACAwQFBgcICQoLEAACAQMDAgQCBgcDBAIGAnMBAgMRBAAFIRIxQVEGE2EicYEUMpGhBxWxQiPB&#10;UtHhMxZi8CRygvElQzRTkqKyY3PCNUQnk6OzNhdUZHTD0uIIJoMJChgZhJRFRqS0VtNVKBry4/PE&#10;1OT0ZXWFlaW1xdXl9WZ2hpamtsbW5vY3R1dnd4eXp7fH1+f3OEhYaHiImKi4yNjo+Ck5SVlpeYmZ&#10;qbnJ2en5KjpKWmp6ipqqusra6voRAAICAQIDBQUEBQYECAMDbQEAAhEDBCESMUEFURNhIgZxgZEy&#10;obHwFMHR4SNCFVJicvEzJDRDghaSUyWiY7LCB3PSNeJEgxdUkwgJChgZJjZFGidkdFU38qOzwygp&#10;0+PzhJSktMTU5PRldYWVpbXF1eX1RlZmdoaWprbG1ub2R1dnd4eXp7fH1+f3OEhYaHiImKi4yNjo&#10;+DlJWWl5iZmpucnZ6fkqOkpaanqKmqq6ytrq+v/aAAwDAQACEQMRAD8A9Pavq+m6Pptxqep3CWtj&#10;aoZJ55DRVUfrJ6ADcnFXzR50/wCcifOPmXVP0L5Ft5bO3mf0reSKP1b64P8AkgBvTB8FHL/K7Yqg&#10;7X/nHn83/MnC816+jgdtz+krqW4nAPsgmH3sMVdP/wA48fnB5dL3eh30U0i/Ep067lt5iB/riAV+&#10;TYqj/J3/ADkF528rasuiefraa6to2CTyTRmK+gB/a6KJV7/EKns3bFX0rpWq6fq2m22padOtzY3a&#10;CW3nToyt89x7g9MVRWKqcdzbSNwjlR2H7KsCfuGKqmKuxV2KuxVa0sSukbOod68EJALU3NB3piq7&#10;FXYq7FXYq7FXYq7FXYq7FXYq7FVss0US8pXWNSaAsQBX6cVbSSORQ8bB0PRlNQfpGKtRyxSAmN1c&#10;AlSVINCNiNu4xVdirsVdirsVdir5a/5yQ8+X2u+ao/Jmls72WnOiTwx7m4vZKUWg6+nyCgfzV9sV&#10;ey/lF+VGmeRdFRpEWbzBdIDqF4aEqTv6MR7Iv/DHc9gFUN+fH5i3PkzyeDpsoi1vU5Pq9i9ATGoH&#10;KWYKevFaKP8AKYYq8u/5x1/MTzzqnnh9H1LUbnVdPubeWaf607TGEx0KurtUqCxC0rTfFXs/5ofl&#10;no3nrQZbW4jSLVoUJ0zUafHFJ1CsRuY2OzL9I3piryP/AJxl806npnmHVPIOqckCmWW3hc1MNzbt&#10;wniH+sPip4qfHFX0fir5V/5xv/8AJv6n/wAwl5/1ER4q+qsVdirsVdirxb8x/wAj/NHmj8x7bzLY&#10;61Ha2S+hUOX9e29AD/edQjIasC3xMPiJxV7TirsVdirsVdirsVdirsVdirsVdirxf/nK7/yXenf9&#10;teH/AKhrnFU0/JnTp9T/ACCsdNguGtJr221G3iuk+1E0t1cIHH+qTXFVH8j/AMoPMPkK71W41XUI&#10;J0vVSOK2tS7J+7YkSvzVPioaADxOKvWsVdirsVdirsVfH/5H248zfnTFqd6vNlkutVkUiv708mU/&#10;7GWQN8xir7AxV8Xfnt53/wAVefrtreQPpml1srEr9lhGT6kg8eclaH+WmKvTfyOj8t/l55Cl86+a&#10;bhbKXXpBFZEqzym3jrxVEQM37xgzHanEKcVe0eUfOvlrzdpzahoF4LuCNvTmHFkkjeleLo4Vh7dj&#10;2xV4RFZ+h/zlwyWa0X1TNJTt6ul85SfmXOKvpPFXxN5BtfO97551HTvJ0ottUv1uLea8LBPQtjMr&#10;SyB9ylOIFVHLf4d8VTP8xPy086flpPp/mD9NG4nu5Cn6QtnljlScDnxZmPJgwGxrvQ1GKvoGT81F&#10;sfybtvPN3Gst5LaR8YB8KyXjH0qU7L6gLGn7OKvHfKv5aefPzht5vM3mHzA9pYySstkHjadWKkh/&#10;RgEkSRxqfh2PWuKpx+XWv+b/AMvPzST8vdfv21DSb1litXdmdUaVawSQ8iSgdvgZOlflUqoH87NY&#10;1e2/O7Tra3vriG2b9H8oI5XRDykoaqCBvirJ/wDnJ/zz5j0W30nRdJuZLGHUVllu7mFikjiMqoiV&#10;xQgfFVqddu3VVjmn/wDOOfmgaNaeYvLPm1JNWuYUnHp84VLOAxCXUcjlqdKld/bFXp35keedU/Ln&#10;8t7Nri6GqeZZlSzhu5EUK8/AmSdkUAcUA2Hc0r3xV5T5Z/I3zt+YOkQ+a/MPmSS2ub0GawWdHuZD&#10;Gd0cn1IxErdVCg7U+WKsj/Ivzp5r0zzpqH5b+Z7lryS19UWc0jtI6SQbsiu3xGJ4/iWvSnvir37p&#10;ir5X8w+cPO35v+fn8s+XL1rLQI2f0lR2jjNvEaNc3HD4n5bcV6CoHWpxVDebPy8/MD8nUtfMGi66&#10;01k0wjneBWiVZCDxE0DNIjowFKmu/htir2Obz1/iz8itW8x21bW8bTbpbhI2IMVzEjB+BBqBX4l7&#10;0IxV4l+Wlt+bPnvSLry1pOsPaaLDObnUr+aWTmWmRUWEuC0jLSIkItF3JbtiqA1Oy82/kv8AmBaK&#10;l+Z14x3bGAssV1bM5V45I22qeDDvTYg4q9h/5yrdX/LjTXU1VtWgKnxBtbnFUb+VDvH/AM45xOjF&#10;HSw1VlZTQgie5IIIxVif/OKWq6pfXvmQX15PdCOK09MTSPJxq0taciaVpirEdY8zfmDB+deu6f5W&#10;u5ZNRu7y6s7O3d+caByasiSH01KKtQSNsVWfmP8Ak9588p6TH5w1LXBqN6kqLdzxSTGaFpDRXWaS&#10;jMORpXbrir2z8qvzGkvfyh/xLr8rTTaRHcJfz9XlFsOSnfq7IVHu2KvItD0b8wPz01bUL/UNWOma&#10;BaOEWEBpII2b4kiigDRq7KtCzsa9PliqtHJ5u/JDz7pmn3WqtqXljUOBkU1SJoS/pyMInZxFJFs3&#10;wncU360VSP8AJGf/AAv+dUWl3x4MZbrSpGPw/vd1QU/ypI1H04q+g/zs87nyl5Cvbq3k9PU77/Qt&#10;OI+0JZQeUg/4xoGYHxpir5F8ieVLnzX5s03Qbeo+uSgTyD9iFPilf/Yopp74FZj+f/mu21TzdHoG&#10;mcU0TyxF+j7OJPsCRQBMR/qlBH/scKvRv+cb9Mn8teQ/MHnS9SWS2u15wWkI5SSRWAk5Mq13Zndl&#10;X5e+Kpx+SHlTWtR8w6x+ZnmO3NtfayzrplrICGjgYir0IBpxVUSu/EE9xir2jFXyr/zjf/5N/U/+&#10;YS8/6iI8VZ3/AM5Y/wDKE6R/20l/5MS4qxfzdaXM/wDzi15clhJEdrcRTXFBWsZkniFfD45FxVL/&#10;AMqfyw8z+a/KMN/o/nm50uGKWWGXS4TNxgcOWpRJ0Hxhg/2R1xVmOkf84367b+bNK8w6n5sbU5tN&#10;ure5PrQyPI628okEfqPM5APGmKsM/PT/AMntpv8A27v+TuKvffzE/Lzy1540yLTdYrHcRFn0+6iI&#10;WaJiBz4V+0pFOSnbp3AOKvnzzP5L/M38mjHrGi64ZtFeYRloyVQu1SBPaOXT4gvUE/MYqi/zx8xX&#10;XnH8tvJPmz0/Rjlku4L2FK8Bcniu1e3+juV9jiqY+Rvyg84eYfKel6tpf5hXdvZ3ECBLSM3BWAoO&#10;LQDjcAfuyOPQfLFWWeQv+cf9T8t+erPzXqHmM6rPbes0ivC4kkaaB4atI8sh251xV6/qUMs+nXUE&#10;J4yywyJGw7MykA/fir5d/wCcWry3svzB1Gwu/wBzd3NjJFCj0BLxSozx778uKk09jir1j/nJPULK&#10;2/Kq+t5yvr309tDaKTuXSZZWIH/GONsVYP8AlfaXMH/ONfm2WYER3X6Rmtie8Yto4iR/z0jbFUV/&#10;ziP/AMcrzJ/xntv+ISYqx3/nLP8A5S/Rv+2ef+T74qzP/nJ//wAlbo3/AG0rb/qEuMVTL8rP/WcE&#10;/wC2fq3/ACfucVYV/wA4i/73eZv+MVp/xKbFUn0H/wBanl/7at7/AMmZcVevf85Hf+Sl1X/jLa/9&#10;RKYq858i2txdf84weZYoFLSCW5kIH8sXoyP/AMKpxVin5MeQte83adqCaP5wn0GSzmVptPhMvxLI&#10;oAmpHLEN+PHp2xVnGpf84weaNUMban52kvmiBERuYZZioalePOdqVpiqRf8AOSXkO+0XzPF510tW&#10;Szv3Q3MsdQYL2P7L7fZEgUEH+YHxGKsllu9O/PjyHbafHfR6b5v0h1mmtpR+7kbiUZwBVvTetaqC&#10;VOxHSqrJvyU/JSTyHJd6nqtzDeazdJ6CfVwxihhqGYKzqjMzkCvwjpirD/Nf/OL2q6r5zu9SsdXt&#10;4tH1C5e6nEyubmIzOXdUVVKPQk8SWX3xV7rY2mjeWtAgtEeOy0rTIFiEkrKiJHGAOTu1B7knFUZZ&#10;3tnfWsV3ZTx3VpMvOG4hdZI3U91dSVI+WKq2KvFfyl/JTzV5P893nmDU7qxms7iCeJI7aSZpQ0sq&#10;OtQ8Ua0ou/xYqyX87/y51vz35dsdN0ie2gntrsXMjXbSIhQROlAY0lNauO2Kpr5P8iLYflrZ+TvM&#10;Cw3irbSW16sJYxOJHZvgZljfYMKGgIOKvIZv+cf/AMzPKurz3fkHX1S1m2o0rW83CtVWVQrRSca9&#10;fwGKsw/LP8tPzO03zSvmbzf5lN3IsL25sFkkuA8clDxZnCJHxdQ1EU9OuKoP8yPyV80+Z/zKtPNF&#10;hdWMVhb/AFXnFPJMsx+rvyeipE679vixVNfzf/KTzH5t1Sx13QNdaw1LTEKWltKzRxIxPIyRSxDn&#10;G7bA7GtB0xVgt7+S/wCeHmx7aw83eYITpNtJz5NKZiDQjmsaInN6Gg5sNj1xV7DN+V/lef8AL+Ly&#10;PNGzaVDEI45K0lWUEv66t0D+oS3hvSlNsVeOW35H/nT5TuZ4vJ/mGP8AR85r8EzwE+DPC6vGG91J&#10;xV6J+Uv5d+evLeo6hq/mrzAdUutSiSOW0DSTqDG1Y3M0vE1UMw4hab4q9NxV4f8AmZ/zjzd6p5gk&#10;8z+TL9NM1WaT6xPbyM8S+uTVpoZowWjZjuRTrvUYqx2D/nH780fNGpwS+evMHKytzTed7qfid2ES&#10;sBGnKm5r9BxV7XrfkyBvy7vvKOhJFaxyafJY2SyEiNS6FQzsoZtyasaEnrirFvyM/K/X/INlq0Gs&#10;XFpO9/JC8Js3kcARqwPL1I4v5u2KpV+eH5M+aPPmu6fqGkXVjBDaWv1eRbuSZGLeoz1URxSilG8c&#10;VZX+av5dz+dPIo0OCaOHULZ4rizkkLel60SlCGIBbiyOwrTFWL/lR+XH5heX/KXmPy7rtxC1re2z&#10;Q6PEJmkjhklSUSmgX4VdpFJp77Yqr/kX+UfmTyDc6xLrFzZ3C6gkCwizeVyDEZC3L1Iov5xSlcVQ&#10;Gmfkp5qtfzofzxJdWJ0lr24uhAsk31jhNG6KOJiCVq4r8eKs6/NnyfqfnDyPe6DpksMN5cvCySXL&#10;OsQEUqyNUosjdF2+HFUH+T3kDU/J3kuTQdae2uppLmaV/q5eSIxyqq8T6iRn9k12xV5tr/8Azjp5&#10;q0XX21r8udYFmGLFLaSV4JYlY1MaSKGEiez0964qmnlH8rfzll80abr3mzzTSPTZhLHaJK9wXFCr&#10;pwpHEgdCVLCpocVe0alpthqlhPp+oQJdWV0hjngkFVZT2OKvmvzp/wA46ebfLupjWvIVzJdQwv6k&#10;EKSelfW5/wAh6qJAPEEN2ocVQtn/AM5Cfm55ZC2fmXS1uGT4eV/bS2twaf5S+mp2/wAiuKo0f85N&#10;fmNq9bfQPLlu9wdv3cdxduCfBUKfiMVRun/lh+cH5j3cV3+YOpTaZoisJBYfCjsOwS2jokZ7cpPi&#10;HgcVfQGi6Pp+i6TaaTp8fpWVlEsNvGSWIVRQVJ3JxVG4q7FXYq7FXYq7FXYq7FXYq7FXYq7FXYq7&#10;FXYq7FXYq7FXYq7FXYq7FXYq7FXYq7FX/9k=&#10;								</xmpGImg:image>&#10;						</rdf:li>&#10;					</rdf:Alt>&#10;				</xmp:Thumbnails>&#10;				<xmpMM:InstanceID>xmp.iid:1a5e9b02-e9bf-4c7f-bca8-0fa40991f74e</xmpMM:InstanceID>&#10;				<xmpMM:DocumentID>xmp.did:1a5e9b02-e9bf-4c7f-bca8-0fa40991f74e</xmpMM:DocumentID>&#10;				<xmpMM:OriginalDocumentID>uuid:5D20892493BFDB11914A8590D31508C8</xmpMM:OriginalDocumentID>&#10;				<xmpMM:RenditionClass>default</xmpMM:RenditionClass>&#10;				<xmpMM:DerivedFrom
   rdf:parseType="Resource">&#10;					<stRef:instanceID>xmp.iid:3d7cc148-c1e1-4a13-a1bb-783bc8bec84b</stRef:instanceID>&#10;					<stRef:documentID>xmp.did:8af830e4-b682-49c6-bbb6-522fb3228a73</stRef:documentID>&#10;					<stRef:originalDocumentID>uuid:5D20892493BFDB11914A8590D31508C8</stRef:originalDocumentID>&#10;					<stRef:renditionClass>default</stRef:renditionClass>&#10;				</xmpMM:DerivedFrom>&#10;				<xmpMM:History>&#10;					<rdf:Seq>&#10;						<rdf:li
   rdf:parseType="Resource">&#10;							<stEvt:action>saved</stEvt:action>&#10;							<stEvt:instanceID>xmp.iid:1b020ad4-fb06-4246-b3c7-ab626ddc87e0</stEvt:instanceID>&#10;							<stEvt:when>2022-12-05T11:40:47+01:00</stEvt:when>&#10;							<stEvt:softwareAgent>Adobe Illustrator 26.4 (Macintosh)</stEvt:softwareAgent>&#10;							<stEvt:changed>/</stEvt:changed>&#10;						</rdf:li>&#10;						<rdf:li
   rdf:parseType="Resource">&#10;							<stEvt:action>saved</stEvt:action>&#10;							<stEvt:instanceID>xmp.iid:8af830e4-b682-49c6-bbb6-522fb3228a73</stEvt:instanceID>&#10;							<stEvt:when>2022-12-05T12:45:09+01:00</stEvt:when>&#10;							<stEvt:softwareAgent>Adobe Illustrator 26.4 (Macintosh)</stEvt:softwareAgent>&#10;							<stEvt:changed>/</stEvt:changed>&#10;						</rdf:li>&#10;						<rdf:li
   rdf:parseType="Resource">&#10;							<stEvt:action>converted</stEvt:action>&#10;							<stEvt:parameters>from application/postscript to application/vnd.adobe.illustrator</stEvt:parameters>&#10;						</rdf:li>&#10;						<rdf:li
   rdf:parseType="Resource">&#10;							<stEvt:action>converted</stEvt:action>&#10;							<stEvt:parameters>from application/postscript to application/vnd.adobe.illustrator</stEvt:parameters>&#10;						</rdf:li>&#10;						<rdf:li
   rdf:parseType="Resource">&#10;							<stEvt:action>converted</stEvt:action>&#10;							<stEvt:parameters>from application/postscript to application/vnd.adobe.illustrator</stEvt:parameters>&#10;						</rdf:li>&#10;						<rdf:li
   rdf:parseType="Resource">&#10;							<stEvt:action>saved</stEvt:action>&#10;							<stEvt:instanceID>xmp.iid:1a5e9b02-e9bf-4c7f-bca8-0fa40991f74e</stEvt:instanceID>&#10;							<stEvt:when>2022-12-09T16:44:04+01:00</stEvt:when>&#10;							<stEvt:softwareAgent>Adobe Illustrator 26.4 (Macintosh)</stEvt:softwareAgent>&#10;							<stEvt:changed>/</stEvt:changed>&#10;						</rdf:li>&#10;					</rdf:Seq>&#10;				</xmpMM:History>&#10;				<illustrator:StartupProfile>Print</illustrator:StartupProfile>&#10;				<illustrator:CreatorSubTool>Adobe Illustrator</illustrator:CreatorSubTool>&#10;				<xmpTPg:HasVisibleOverprint>False</xmpTPg:HasVisibleOverprint>&#10;				<xmpTPg:HasVisibleTransparency>False</xmpTPg:HasVisibleTransparency>&#10;				<xmpTPg:NPages>1</xmpTPg:NPages>&#10;				<xmpTPg:MaxPageSize
   rdf:parseType="Resource">&#10;					<stDim:w>192.164495</stDim:w>&#10;					<stDim:h>36.000000</stDim:h>&#10;					<stDim:unit>Pixels</stDim:unit>&#10;				</xmpTPg:MaxPageSize>&#10;				<xmpTPg:PlateNames>&#10;					<rdf:Seq>&#10;						<rdf:li>Black</rdf:li>&#10;					</rdf:Seq>&#10;				</xmpTPg:PlateNames>&#10;				<xmpTPg:SwatchGroups>&#10;					<rdf:Seq>&#10;						<rdf:li
   rdf:parseType="Resource">&#10;							<xmpG:groupName>Standard-Farbfeldgruppe</xmpG:groupName>&#10;							<xmpG:groupType>0</xmpG:groupType>&#10;							<xmpG:Colorants>&#10;								<rdf:Seq>&#10;									<rdf:li
   rdf:parseType="Resource">&#10;										<xmpG:swatchName>Weiß</xmpG:swatchName>&#10;										<xmpG:type>PROCESS</xmpG:type>&#10;										<xmpG:tint>100.000000</xmpG:tint>&#10;										<xmpG:mode>CMYK</xmpG:mode>&#10;										<xmpG:cyan>0.000000</xmpG:cyan>&#10;										<xmpG:magenta>0.000000</xmpG:magenta>&#10;										<xmpG:yellow>0.000000</xmpG:yellow>&#10;										<xmpG:black>0.000000</xmpG:black>&#10;									</rdf:li>&#10;									<rdf:li
   rdf:parseType="Resource">&#10;										<xmpG:swatchName>Schwarz</xmpG:swatchName>&#10;										<xmpG:type>PROCESS</xmpG:type>&#10;										<xmpG:tint>100.000000</xmpG:tint>&#10;										<xmpG:mode>CMYK</xmpG:mode>&#10;										<xmpG:cyan>0.000000</xmpG:cyan>&#10;										<xmpG:magenta>0.000000</xmpG:magenta>&#10;										<xmpG:yellow>0.000000</xmpG:yellow>&#10;										<xmpG:black>100.000000</xmpG:black>&#10;									</rdf:li>&#10;									<rdf:li
   rdf:parseType="Resource">&#10;										<xmpG:swatchName>Online-Dunkelgrau</xmpG:swatchName>&#10;										<xmpG:type>PROCESS</xmpG:type>&#10;										<xmpG:tint>100.000000</xmpG:tint>&#10;										<xmpG:mode>CMYK</xmpG:mode>&#10;										<xmpG:cyan>0.000000</xmpG:cyan>&#10;										<xmpG:magenta>0.000000</xmpG:magenta>&#10;										<xmpG:yellow>0.000000</xmpG:yellow>&#10;										<xmpG:black>93.000001</xmpG:black>&#10;									</rdf:li>&#10;									<rdf:li
   rdf:parseType="Resource">&#10;										<xmpG:swatchName>Developer-Violett</xmpG:swatchName>&#10;										<xmpG:type>PROCESS</xmpG:type>&#10;										<xmpG:tint>100.000000</xmpG:tint>&#10;										<xmpG:mode>CMYK</xmpG:mode>&#10;										<xmpG:cyan>38.000000</xmpG:cyan>&#10;										<xmpG:magenta>100.000000</xmpG:magenta>&#10;										<xmpG:yellow>55.000001</xmpG:yellow>&#10;										<xmpG:black>43.000001</xmpG:black>&#10;									</rdf:li>&#10;									<rdf:li
   rdf:parseType="Resource">&#10;										<xmpG:swatchName>Autos-Rot</xmpG:swatchName>&#10;										<xmpG:type>PROCESS</xmpG:type>&#10;										<xmpG:tint>100.000000</xmpG:tint>&#10;										<xmpG:mode>CMYK</xmpG:mode>&#10;										<xmpG:cyan>25.000000</xmpG:cyan>&#10;										<xmpG:magenta>100.000000</xmpG:magenta>&#10;										<xmpG:yellow>100.000000</xmpG:yellow>&#10;										<xmpG:black>0.000000</xmpG:black>&#10;									</rdf:li>&#10;									<rdf:li
   rdf:parseType="Resource">&#10;										<xmpG:swatchName>Academy-Rot</xmpG:swatchName>&#10;										<xmpG:type>PROCESS</xmpG:type>&#10;										<xmpG:tint>100.000000</xmpG:tint>&#10;										<xmpG:mode>CMYK</xmpG:mode>&#10;										<xmpG:cyan>15.000001</xmpG:cyan>&#10;										<xmpG:magenta>100.000000</xmpG:magenta>&#10;										<xmpG:yellow>100.000000</xmpG:yellow>&#10;										<xmpG:black>0.000000</xmpG:black>&#10;									</rdf:li>&#10;									<rdf:li
   rdf:parseType="Resource">&#10;										<xmpG:swatchName>BrandWorld-Rot</xmpG:swatchName>&#10;										<xmpG:type>PROCESS</xmpG:type>&#10;										<xmpG:tint>100.000000</xmpG:tint>&#10;										<xmpG:mode>CMYK</xmpG:mode>&#10;										<xmpG:cyan>5.000000</xmpG:cyan>&#10;										<xmpG:magenta>100.000000</xmpG:magenta>&#10;										<xmpG:yellow>100.000000</xmpG:yellow>&#10;										<xmpG:black>0.000000</xmpG:black>&#10;									</rdf:li>&#10;									<rdf:li
   rdf:parseType="Resource">&#10;										<xmpG:swatchName>Security-Blau</xmpG:swatchName>&#10;										<xmpG:type>PROCESS</xmpG:type>&#10;										<xmpG:tint>100.000000</xmpG:tint>&#10;										<xmpG:mode>CMYK</xmpG:mode>&#10;										<xmpG:cyan>100.000000</xmpG:cyan>&#10;										<xmpG:magenta>85.000002</xmpG:magenta>&#10;										<xmpG:yellow>0.000000</xmpG:yellow>&#10;										<xmpG:black>10.000000</xmpG:black>&#10;									</rdf:li>&#10;									<rdf:li
   rdf:parseType="Resource">&#10;										<xmpG:swatchName>Shop-Blau</xmpG:swatchName>&#10;										<xmpG:type>PROCESS</xmpG:type>&#10;										<xmpG:tint>100.000000</xmpG:tint>&#10;										<xmpG:mode>CMYK</xmpG:mode>&#10;										<xmpG:cyan>80.000001</xmpG:cyan>&#10;										<xmpG:magenta>44.000000</xmpG:magenta>&#10;										<xmpG:yellow>0.000000</xmpG:yellow>&#10;										<xmpG:black>0.000000</xmpG:black>&#10;									</rdf:li>&#10;									<rdf:li
   rdf:parseType="Resource">&#10;										<xmpG:swatchName>Download-Blau</xmpG:swatchName>&#10;										<xmpG:type>PROCESS</xmpG:type>&#10;										<xmpG:tint>100.000000</xmpG:tint>&#10;										<xmpG:mode>CMYK</xmpG:mode>&#10;										<xmpG:cyan>80.000001</xmpG:cyan>&#10;										<xmpG:magenta>20.000000</xmpG:magenta>&#10;										<xmpG:yellow>5.000000</xmpG:yellow>&#10;										<xmpG:black>0.000000</xmpG:black>&#10;									</rdf:li>&#10;									<rdf:li
   rdf:parseType="Resource">&#10;										<xmpG:swatchName>Jobs-Grün</xmpG:swatchName>&#10;										<xmpG:type>PROCESS</xmpG:type>&#10;										<xmpG:tint>100.000000</xmpG:tint>&#10;										<xmpG:mode>CMYK</xmpG:mode>&#10;										<xmpG:cyan>64.999998</xmpG:cyan>&#10;										<xmpG:magenta>0.000000</xmpG:magenta>&#10;										<xmpG:yellow>100.000000</xmpG:yellow>&#10;										<xmpG:black>0.000000</xmpG:black>&#10;									</rdf:li>&#10;									<rdf:li
   rdf:parseType="Resource">&#10;										<xmpG:swatchName>Business-Services-Grün</xmpG:swatchName>&#10;										<xmpG:type>PROCESS</xmpG:type>&#10;										<xmpG:tint>100.000000</xmpG:tint>&#10;										<xmpG:mode>CMYK</xmpG:mode>&#10;										<xmpG:cyan>40.000001</xmpG:cyan>&#10;										<xmpG:magenta>0.000000</xmpG:magenta>&#10;										<xmpG:yellow>100.000000</xmpG:yellow>&#10;										<xmpG:black>0.000000</xmpG:black>&#10;									</rdf:li>&#10;								</rdf:Seq>&#10;							</xmpG:Colorants>&#10;						</rdf:li>&#10;					</rdf:Seq>&#10;				</xmpTPg:SwatchGroups>&#10;				<pdf:Producer>Adobe PDF library 16.07</pdf:Producer>&#10;			</rdf:Description>&#10;		</rdf:RDF>&#10;	</x:xmpmeta>&#10;	<ns:sfw>&#10;		<ns:slices />&#10;		<ns:sliceSourceBounds
   bottomLeftOrigin="true"
   height="36"
   width="192.2"
   x="0"
   y="0" />&#10;	</ns:sfw>&#10;</metadata>&#10;<g
   id="g11"
   style="fill:#ffffff">&#10;	<path
   class="st0"
   d="M42.3,27.7V5.8h3.6v5.6l-0.1,2.9c0.6-0.6,1.3-1.1,2.1-1.6s1.7-0.7,2.7-0.7c1.6,0,2.8,0.5,3.6,1.6   s1.1,2.5,1.1,4.5v9.5h-3.6v-9.1c0-1.3-0.2-2.1-0.6-2.7c-0.4-0.5-1-0.8-1.8-0.8c-0.7,0-1.2,0.2-1.8,0.5s-1.1,0.8-1.7,1.4v10.6   L42.3,27.7L42.3,27.7z"
   id="path1"
   style="fill:#ffffff" />&#10;	<path
   class="st0"
   d="M65.4,28c-1.1,0-2-0.2-2.9-0.5s-1.7-0.9-2.4-1.6s-1.2-1.5-1.6-2.5S58,21.4,58,20.1c0-1.2,0.2-2.4,0.6-3.3   s0.9-1.8,1.6-2.5s1.4-1.2,2.2-1.6c0.8-0.4,1.7-0.6,2.6-0.6c1,0,1.9,0.2,2.7,0.5c0.8,0.4,1.4,0.9,2,1.5c0.5,0.6,0.9,1.4,1.2,2.3   c0.3,0.9,0.4,1.9,0.4,2.9c0,0.4,0,0.7-0.1,1c0,0.3-0.1,0.6-0.1,0.7h-9.7c0.2,1.4,0.6,2.4,1.4,3.1c0.8,0.7,1.8,1.1,3,1.1   c0.7,0,1.3-0.1,1.8-0.3c0.6-0.2,1.1-0.5,1.7-0.8l1.2,2.2c-0.7,0.5-1.5,0.9-2.4,1.2C67.3,27.9,66.4,28,65.4,28z M61.4,18.6h6.7   c0-1.2-0.2-2.1-0.8-2.8s-1.3-1-2.3-1c-0.9,0-1.7,0.3-2.4,1C62,16.5,61.5,17.4,61.4,18.6z"
   id="path2"
   style="fill:#ffffff" />&#10;	<path
   class="st0"
   d="M75.8,9.8c-0.6,0-1.2-0.2-1.6-0.6c-0.4-0.4-0.6-0.9-0.6-1.4c0-0.6,0.2-1.1,0.6-1.5s0.9-0.6,1.6-0.6   S77,6,77.4,6.3S78,7.2,78,7.8s-0.2,1.1-0.6,1.5C77,9.6,76.4,9.8,75.8,9.8z M74,27.7V12.5h3.6v15.2C77.6,27.7,74,27.7,74,27.7z"
   id="path3"
   style="fill:#ffffff" />&#10;	<path
   class="st0"
   d="M85.7,28c-1.1,0-2.1-0.2-3.1-0.6c-1-0.4-1.9-0.9-2.7-1.5l1.7-2.3c0.7,0.5,1.4,1,2,1.2s1.4,0.5,2.2,0.5   c0.8,0,1.4-0.2,1.8-0.5s0.6-0.8,0.6-1.3c0-0.3-0.1-0.6-0.3-0.8s-0.4-0.5-0.7-0.6c-0.3-0.2-0.7-0.4-1.1-0.5s-0.8-0.3-1.2-0.5   c-0.5-0.2-1-0.4-1.5-0.6s-1-0.5-1.4-0.9c-0.4-0.4-0.7-0.8-1-1.2c-0.3-0.5-0.4-1-0.4-1.6c0-1.3,0.5-2.4,1.5-3.3   c1-0.9,2.3-1.3,4.1-1.3c1.1,0,2,0.2,2.8,0.6c0.8,0.4,1.6,0.8,2.2,1.3l-1.6,2.2c-0.5-0.4-1.1-0.7-1.6-0.9s-1.1-0.4-1.7-0.4   c-0.8,0-1.3,0.2-1.7,0.5s-0.5,0.7-0.5,1.2c0,0.3,0.1,0.6,0.3,0.8c0.2,0.2,0.4,0.4,0.7,0.6c0.3,0.2,0.6,0.3,1,0.5   c0.4,0.1,0.8,0.3,1.2,0.4c0.5,0.2,1,0.4,1.6,0.6c0.5,0.2,1,0.5,1.4,0.9c0.4,0.4,0.8,0.8,1,1.3c0.3,0.5,0.4,1.1,0.4,1.8   c0,0.7-0.1,1.3-0.4,1.8s-0.6,1.1-1.1,1.5c-0.5,0.4-1.1,0.8-1.9,1C87.5,27.9,86.7,28,85.7,28z"
   id="path4"
   style="fill:#ffffff" />&#10;	<path
   class="st0"
   d="M100.7,28c-1.1,0-2-0.2-2.9-0.5s-1.7-0.9-2.4-1.6s-1.2-1.5-1.6-2.5s-0.6-2.1-0.6-3.4c0-1.2,0.2-2.4,0.6-3.3   s0.9-1.8,1.6-2.5c0.7-0.7,1.4-1.2,2.2-1.6c0.8-0.4,1.7-0.6,2.6-0.6c1,0,1.9,0.2,2.7,0.5c0.8,0.4,1.4,0.9,2,1.5   c0.5,0.6,0.9,1.4,1.2,2.3c0.3,0.9,0.4,1.9,0.4,2.9c0,0.4,0,0.7-0.1,1c0,0.3-0.1,0.6-0.1,0.7h-9.7c0.2,1.4,0.6,2.4,1.4,3.1   c0.8,0.7,1.8,1.1,3.1,1.1c0.7,0,1.3-0.1,1.8-0.3c0.6-0.2,1.1-0.5,1.7-0.8l1.2,2.2c-0.7,0.5-1.5,0.9-2.4,1.2S101.7,28,100.7,28z    M96.7,18.6h6.7c0-1.2-0.2-2.1-0.8-2.8s-1.3-1-2.3-1c-0.9,0-1.7,0.3-2.4,1C97.2,16.5,96.8,17.4,96.7,18.6z"
   id="path5"
   style="fill:#ffffff" />&#10;	<path
   class="st0"
   d="M121.1,28c-0.9,0-1.9-0.2-2.7-0.5c-0.9-0.4-1.6-0.9-2.3-1.5c-0.7-0.7-1.2-1.5-1.6-2.5s-0.6-2.1-0.6-3.4   c0-1.3,0.2-2.4,0.6-3.4c0.4-1,0.9-1.8,1.6-2.5s1.4-1.2,2.3-1.6c0.9-0.4,1.8-0.5,2.7-0.5c0.9,0,1.9,0.2,2.7,0.5s1.6,0.9,2.3,1.6   c0.7,0.7,1.2,1.5,1.6,2.5s0.6,2.1,0.6,3.4c0,1.3-0.2,2.4-0.6,3.4c-0.4,1-0.9,1.8-1.6,2.5c-0.7,0.7-1.4,1.2-2.3,1.5   C122.9,27.9,122,28,121.1,28z M121.1,25.1c1.1,0,2-0.5,2.6-1.4s1-2.1,1-3.7c0-1.5-0.3-2.8-1-3.7s-1.5-1.4-2.6-1.4s-2,0.5-2.6,1.4   c-0.6,0.9-0.9,2.1-0.9,3.7c0,1.5,0.3,2.8,0.9,3.7C119.1,24.7,119.9,25.1,121.1,25.1z"
   id="path6"
   style="fill:#ffffff" />&#10;	<path
   class="st0"
   d="M131.2,27.7V12.5h2.9l0.2,2h0.1c0.7-0.7,1.4-1.2,2.2-1.7s1.7-0.7,2.8-0.7c1.6,0,2.8,0.5,3.6,1.6   c0.7,1,1.1,2.5,1.1,4.5v9.5h-3.6v-9.1c0-1.3-0.2-2.1-0.6-2.7c-0.4-0.5-1-0.8-1.8-0.8c-0.7,0-1.2,0.2-1.8,0.5s-1.1,0.8-1.7,1.4v10.6   L131.2,27.7L131.2,27.7z"
   id="path7"
   style="fill:#ffffff" />&#10;	<path
   class="st0"
   d="M151.4,28c-1.3,0-2.2-0.4-2.7-1.1c-0.5-0.8-0.8-1.8-0.8-3.1V5.8h3.6V24c0,0.4,0.1,0.7,0.2,0.9   c0.2,0.2,0.3,0.3,0.5,0.3c0.1,0,0.2,0,0.2,0s0.2,0,0.3-0.1l0.5,2.7C152.8,27.9,152.2,28,151.4,28z"
   id="path8"
   style="fill:#ffffff" />&#10;	<path
   class="st0"
   d="M157.5,9.8c-0.6,0-1.2-0.2-1.6-0.6c-0.4-0.4-0.6-0.9-0.6-1.4c0-0.6,0.2-1.1,0.6-1.5c0.4-0.4,0.9-0.6,1.6-0.6   s1.2,0.2,1.6,0.6s0.6,0.9,0.6,1.5s-0.2,1.1-0.6,1.4C158.6,9.6,158.1,9.8,157.5,9.8z M155.7,27.7V12.5h3.6v15.2   C159.2,27.7,155.7,27.7,155.7,27.7z"
   id="path9"
   style="fill:#ffffff" />&#10;	<path
   class="st0"
   d="M163.2,27.7V12.5h2.9l0.2,2h0.1c0.7-0.7,1.4-1.2,2.2-1.7s1.7-0.7,2.8-0.7c1.6,0,2.8,0.5,3.6,1.6   c0.7,1,1.1,2.5,1.1,4.5v9.5h-3.6v-9.1c0-1.3-0.2-2.1-0.6-2.7c-0.4-0.5-1-0.8-1.8-0.8c-0.7,0-1.2,0.2-1.8,0.5s-1.1,0.8-1.7,1.4v10.6   L163.2,27.7L163.2,27.7z"
   id="path10"
   style="fill:#ffffff" />&#10;	<path
   class="st0"
   d="M186.4,28c-1.1,0-2-0.2-2.9-0.5s-1.7-0.9-2.4-1.6c-0.7-0.7-1.2-1.5-1.6-2.5c-0.4-1-0.6-2.1-0.6-3.4   c0-1.2,0.2-2.4,0.6-3.3s0.9-1.8,1.6-2.5s1.4-1.2,2.2-1.6c0.9-0.4,1.7-0.6,2.6-0.6c1,0,1.9,0.2,2.7,0.5c0.8,0.4,1.4,0.9,2,1.5   c0.5,0.6,0.9,1.4,1.2,2.3c0.3,0.9,0.4,1.9,0.4,2.9c0,0.4,0,0.7-0.1,1S192,20.9,192,21h-9.6c0.2,1.4,0.6,2.4,1.4,3.1   c0.8,0.7,1.8,1.1,3.1,1.1c0.7,0,1.3-0.1,1.8-0.3c0.6-0.2,1.1-0.5,1.7-0.8l1.2,2.2c-0.7,0.5-1.5,0.9-2.4,1.2   C188.3,27.9,187.4,28,186.4,28z M182.3,18.6h6.7c0-1.2-0.2-2.1-0.8-2.8s-1.3-1-2.3-1c-0.9,0-1.7,0.3-2.4,1S182.5,17.4,182.3,18.6z"
   id="path11"
   style="fill:#ffffff" />&#10;</g>&#10;<path
   class="st0"
   d="M22,11.1c0.7-1.5,0-3.3-1.5-4s-3.3-0.1-4,1.5L9.7,23.4c-0.7,1.5-0.1,3.3,1.4,4c1.5,0.7,3.3,0,4-1.5L22,11.1  L22,11.1z M21.4,18l-2.5,5.4c-0.7,1.5,0,3.3,1.5,4c1.5,0.7,3.3,0,4-1.5l2.5-5.4c0.7-1.5,0-3.3-1.5-4S22.1,16.5,21.4,18L21.4,18z   M34.6,14.8c0-8-7-14.8-16.6-14.8C7.7,0,0,8.1,0,18s7.8,18,18.2,18c5,0,9.6-1.9,12.9-5c0.4-0.4,0.4-1.1,0-1.5  c-0.5-0.5-1-0.4-1.3-0.1c-3,2-6.5,3.4-11.2,3.4C10.2,32.7,3.9,26,3.9,18S10.2,3.5,17.8,3.5C26,3.5,31.7,9,31.7,16.1  c0,2.4-0.7,4.4-2.4,6.2c-0.4,0.4-0.4,1,0,1.3c0.3,0.3,0.9,0.4,1.2,0.1C33.3,21.5,34.6,18.1,34.6,14.8L34.6,14.8z"
   id="path12"
   style="fill:#ffffff" />&#10;</svg>
