<?xml version="1.0" encoding="UTF-8" standalone="no"?>
<svg
   xmlns:dc="http://purl.org/dc/elements/1.1/"
   xmlns:cc="http://creativecommons.org/ns#"
   xmlns:rdf="http://www.w3.org/1999/02/22-rdf-syntax-ns#"
   xmlns:svg="http://www.w3.org/2000/svg"
   xmlns="http://www.w3.org/2000/svg"
   xmlns:sodipodi="http://sodipodi.sourceforge.net/DTD/sodipodi-0.dtd"
   xmlns:inkscape="http://www.inkscape.org/namespaces/inkscape"
   id="Layer_1"
   width="270.53"
   height="57.75"
   version="1.1"
   sodipodi:docname="msft_logo_white.svg"
   inkscape:version="0.92.4 (5da689c313, 2019-01-14)">
  <metadata
     id="metadata23">
    <rdf:RDF>
      <cc:Work
         rdf:about="">
        <dc:format>image/svg+xml</dc:format>
        <dc:type
           rdf:resource="http://purl.org/dc/dcmitype/StillImage" />
        <dc:title></dc:title>
      </cc:Work>
    </rdf:RDF>
  </metadata>
  <defs
     id="defs21" />
  <sodipodi:namedview
     pagecolor="#ffffff"
     bordercolor="#666666"
     borderopacity="1"
     objecttolerance="10"
     gridtolerance="10"
     guidetolerance="10"
     inkscape:pageopacity="0"
     inkscape:pageshadow="2"
     inkscape:window-width="3440"
     inkscape:window-height="1334"
     id="namedview19"
     showgrid="false"
     inkscape:pagecheckerboard="true"
     inkscape:zoom="3.1820747"
     inkscape:cx="158.25193"
     inkscape:cy="-27.851021"
     inkscape:window-x="-11"
     inkscape:window-y="-11"
     inkscape:window-maximized="1"
     inkscape:current-layer="Layer_1" />
  <style
     id="style2">.st0{fill:#ec012a}</style>
  <path
     d="m 270.53,26.13 v -4.76 h -5.91 v -7.4 l -0.2,0.06 -5.55,1.7 -0.1,0.03 v 5.6 H 250 v -3.11 c 0,-1.46 0.33,-2.57 0.97,-3.31 a 3.4,3.4 0 0 1 2.7,-1.1 c 0.84,0 1.7,0.19 2.57,0.58 l 0.22,0.1 V 9.5 l -0.1,-0.03 a 10,10 0 0 0 -3.28,-0.44 c -1.73,0 -3.3,0.37 -4.66,1.12 a 7.96,7.96 0 0 0 -3.2,3.15 9.41,9.41 0 0 0 -1.12,4.64 v 3.43 h -4.12 v 4.76 h 4.12 V 46.17 H 250 V 26.13 h 8.76 v 12.73 c 0,5.25 2.48,7.9 7.35,7.9 a 12.06,12.06 0 0 0 4.34,-0.85 l 0.08,-0.05 v -4.8 l -0.24,0.16 c -0.32,0.21 -0.72,0.39 -1.2,0.52 -0.46,0.13 -0.85,0.2 -1.16,0.2 -1.14,0 -1.99,-0.31 -2.51,-0.92 -0.53,-0.61 -0.8,-1.68 -0.8,-3.19 v -11.7 z m -43.74,15.8 c -2.14,0 -3.83,-0.7 -5.02,-2.1 -1.2,-1.41 -1.8,-3.42 -1.8,-5.97 0,-2.62 0.6,-4.68 1.8,-6.12 a 6.17,6.17 0 0 1 4.98,-2.14 c 2.04,0 3.67,0.69 4.84,2.05 1.18,1.37 1.77,3.41 1.77,6.07 0,2.7 -0.56,4.76 -1.66,6.15 -1.1,1.37 -2.75,2.07 -4.9,2.07 m 0.26,-21.17 c -4.1,0 -7.34,1.2 -9.66,3.56 -2.31,2.37 -3.48,5.64 -3.48,9.73 0,3.88 1.14,7 3.4,9.28 2.26,2.27 5.33,3.43 9.14,3.43 3.96,0 7.15,-1.22 9.46,-3.62 2.32,-2.39 3.49,-5.63 3.49,-9.62 0,-3.94 -1.1,-7.1 -3.27,-9.35 -2.18,-2.26 -5.23,-3.4 -9.08,-3.4 m -22.67,0 c -2.78,0 -5.08,0.7 -6.84,2.1 a 6.75,6.75 0 0 0 -2.66,5.5 c 0,1.17 0.2,2.2 0.57,3.08 0.39,0.88 0.98,1.66 1.77,2.3 0.78,0.65 1.99,1.33 3.59,2.02 1.34,0.55 2.34,1.02 2.98,1.39 0.62,0.36 1.07,0.72 1.32,1.08 0.24,0.34 0.36,0.82 0.36,1.4 0,1.67 -1.25,2.48 -3.81,2.48 -0.96,0 -2.04,-0.2 -3.23,-0.6 a 12.13,12.13 0 0 1 -3.3,-1.67 l -0.25,-0.17 v 5.68 l 0.09,0.04 c 0.83,0.39 1.89,0.71 3.13,0.97 1.24,0.26 2.36,0.39 3.34,0.39 3.02,0 5.45,-0.72 7.22,-2.13 a 6.88,6.88 0 0 0 2.7,-5.63 c 0,-1.67 -0.5,-3.1 -1.45,-4.26 -0.96,-1.15 -2.61,-2.2 -4.92,-3.13 -1.84,-0.74 -3.01,-1.35 -3.5,-1.82 -0.47,-0.46 -0.7,-1.1 -0.7,-1.91 0,-0.73 0.29,-1.3 0.89,-1.77 0.6,-0.47 1.45,-0.71 2.51,-0.71 a 10.29,10.29 0 0 1 5.6,1.67 l 0.25,0.17 v -5.4 l -0.1,-0.04 c -0.67,-0.29 -1.56,-0.54 -2.65,-0.74 a 16.2,16.2 0 0 0 -2.9,-0.3 m -24.9,21.17 c -2.15,0 -3.84,-0.71 -5.03,-2.11 -1.2,-1.41 -1.8,-3.42 -1.8,-5.97 0,-2.62 0.6,-4.68 1.8,-6.12 a 6.16,6.16 0 0 1 4.97,-2.14 c 2.05,0 3.68,0.69 4.85,2.05 1.17,1.37 1.77,3.41 1.77,6.07 0,2.7 -0.56,4.76 -1.67,6.15 -1.1,1.37 -2.74,2.07 -4.9,2.07 m 0.27,-21.17 c -4.1,0 -7.34,1.2 -9.66,3.56 -2.31,2.37 -3.49,5.64 -3.49,9.73 0,3.88 1.15,7 3.4,9.28 2.27,2.27 5.34,3.43 9.15,3.43 3.96,0 7.14,-1.22 9.46,-3.62 2.31,-2.39 3.49,-5.63 3.49,-9.62 0,-3.94 -1.1,-7.1 -3.28,-9.35 -2.17,-2.26 -5.22,-3.4 -9.07,-3.4 m -22.11,4.88 v -4.3 h -5.84 v 24.8 h 5.84 V 33.48 c 0,-2.16 0.49,-3.93 1.45,-5.27 0.96,-1.32 2.23,-1.99 3.78,-1.99 a 6.85,6.85 0 0 1 3.11,0.8 l 0.24,0.19 v -5.88 l -0.09,-0.04 a 6.04,6.04 0 0 0 -2.28,-0.35 c -1.47,0 -2.78,0.47 -3.9,1.4 a 7.9,7.9 0 0 0 -2.25,3.32 z m -16.28,-4.89 c -2.68,0 -5.07,0.57 -7.1,1.7 a 11.49,11.49 0 0 0 -4.68,4.82 15.32,15.32 0 0 0 -1.6,7.12 c 0,2.35 0.52,4.5 1.56,6.4 1.04,1.9 2.5,3.38 4.36,4.4 a 13,13 0 0 0 6.38,1.56 c 2.77,0 5.14,-0.56 7.04,-1.65 l 0.08,-0.04 v -5.35 l -0.25,0.18 c -0.86,0.63 -1.82,1.13 -2.85,1.49 a 8.62,8.62 0 0 1 -2.8,0.54 c -2.29,0 -4.12,-0.72 -5.46,-2.13 -1.34,-1.41 -2.01,-3.4 -2.01,-5.9 0,-2.51 0.7,-4.55 2.1,-6.05 a 7.14,7.14 0 0 1 5.47,-2.26 c 1.92,0 3.78,0.65 5.55,1.93 l 0.25,0.18 v -5.63 l -0.08,-0.05 a 9.63,9.63 0 0 0 -2.7,-0.9 16.12,16.12 0 0 0 -3.26,-0.36 m -17.4,0.6 h -5.83 v 24.8 h 5.83 z M 121.11,10.8 c -0.96,0 -1.8,0.33 -2.48,0.98 a 3.22,3.22 0 0 0 -1.04,2.43 c 0,0.95 0.34,1.75 1.03,2.39 0.68,0.63 1.52,0.95 2.5,0.95 a 3.6,3.6 0 0 0 2.5,-0.95 3.11,3.11 0 0 0 1.04,-2.39 c 0,-0.93 -0.34,-1.74 -1.01,-2.4 -0.67,-0.67 -1.53,-1 -2.54,-1 m -14.55,8.73 v 26.63 h 5.95 v -34.6 h -8.24 L 93.8,37.27 83.63,11.57 h -8.57 v 34.6 h 5.6 V 19.54 h 0.19 l 10.73,26.63 h 4.22 l 10.57,-26.63 z"
     id="path2"
     style="fill:#ffffff;stroke-width:0.26169297"
     inkscape:connector-curvature="0" />
  <path
     d="M 27.45,27.44 H 0 V 0 h 27.45 z"
     id="path4"
     style="fill:#ffffff;stroke-width:0.26169297"
     inkscape:connector-curvature="0" />
  <path
     d="M 57.75,27.44 H 30.3 V 0 h 27.45 z"
     id="path6-7"
     style="fill:#ffffff;stroke-width:0.26169297"
     inkscape:connector-curvature="0" />
  <path
     d="M 27.44,57.75 H 0 V 30.31 h 27.44 z"
     id="path8-2"
     style="fill:#ffffff;stroke-width:0.26169297"
     inkscape:connector-curvature="0" />
  <path
     d="M 57.75,57.75 H 30.3 V 30.31 h 27.45 z"
     id="path10"
     style="fill:#ffffff;stroke-width:0.26169297"
     inkscape:connector-curvature="0" />
</svg>
