<?xml version="1.0" encoding="UTF-8" standalone="no"?>
<svg
   xmlns:dc="http://purl.org/dc/elements/1.1/"
   xmlns:cc="http://creativecommons.org/ns#"
   xmlns:rdf="http://www.w3.org/1999/02/22-rdf-syntax-ns#"
   xmlns:svg="http://www.w3.org/2000/svg"
   xmlns="http://www.w3.org/2000/svg"
   xmlns:sodipodi="http://sodipodi.sourceforge.net/DTD/sodipodi-0.dtd"
   xmlns:inkscape="http://www.inkscape.org/namespaces/inkscape"
   viewBox="0 0 273 69"
   class=""
   version="1.1"
   id="svg6"
   sodipodi:docname="nasem.svg"
   inkscape:version="0.92.4 (5da689c313, 2019-01-14)">
  <metadata
     id="metadata12">
    <rdf:RDF>
      <cc:Work
         rdf:about="">
        <dc:format>image/svg+xml</dc:format>
        <dc:type
           rdf:resource="http://purl.org/dc/dcmitype/StillImage" />
        <dc:title></dc:title>
      </cc:Work>
    </rdf:RDF>
  </metadata>
  <defs
     id="defs10" />
  <sodipodi:namedview
     pagecolor="#ffffff"
     bordercolor="#666666"
     borderopacity="1"
     objecttolerance="10"
     gridtolerance="10"
     guidetolerance="10"
     inkscape:pageopacity="0"
     inkscape:pageshadow="2"
     inkscape:window-width="3440"
     inkscape:window-height="1346"
     id="namedview8"
     showgrid="false"
     inkscape:zoom="1.5457875"
     inkscape:cx="136.5"
     inkscape:cy="34.5"
     inkscape:window-x="-11"
     inkscape:window-y="-11"
     inkscape:window-maximized="1"
     inkscape:current-layer="svg6" />
  <g
     fill-rule="evenodd"
     id="g4"
     style="fill:#ffffff;fill-opacity:1">
    <path
       d="M8.18 14.487h1.46c1.08 0 2.24.1 2.32.26.06.12.12.42.1.82l-.08 1.28h.56l.54-3.28c-1.84.02-3.72.06-5.6.06-1.88 0-3.78-.04-5.68-.06l-.36 3.28h.58l.3-1.2c.08-.34.2-.68.36-.9.12-.16 1.06-.26 1.62-.26h2.24l-1.72 10.42c-.2 1.26-.34 1.6-.5 1.76-.1.1-.3.16-.66.18l-1.02.06-.08.56c1.06-.02 1.94-.06 2.84-.06.88 0 1.78.04 2.66.06l.06-.56-1.18-.06c-.62-.04-.72-.26-.72-.58 0-.26.04-.5.08-.72l1.88-11.06zm9.34-1.52l-.24-.22c-.52.26-1.02.46-1.58.6-.56.12-1.12.2-1.62.24l-.08.42h.96c.36 0 .68.06.68.46 0 .12 0 .3-.04.5l-.84 4.68c-.42 2.32-1.24 6.16-1.76 7.72l.14.22 1.38-.32c.16-1.14.44-3.14 1.24-4.58.9-1.62 2.96-3.56 3.8-3.56.22 0 .44.14.44.42 0 .36-.1 1.02-.3 1.8l-1.02 3.92c-.12.44-.26 1.04-.26 1.52 0 .5.2.8.62.8.3 0 .7-.2 1-.38.72-.42 1.4-.92 2.18-1.5l-.2-.36-.52.34c-.46.3-.98.6-1.22.6-.14 0-.26-.18-.26-.4 0-.24.06-.5.14-.8l1.28-5.12c.12-.52.22-1.02.22-1.5 0-.34-.12-.7-.64-.7-.7 0-2.24.9-3.6 2.16-.66.62-1.18 1.32-1.74 2.02l-.08-.04 1.92-8.94zm9.2 9.76c.46-.12.92-.3 1.38-.5 1.28-.56 2.48-1.38 2.48-2.94 0-1.02-.8-1.52-1.74-1.52-1.14 0-2.46.96-3.32 1.62-.78.6-1.22 1.5-1.5 2.42-.28.92-.62 2.32-.62 3.26 0 1.64.78 2.56 2.44 2.56 1.3 0 2.9-1.16 3.98-2.06l-.16-.38-.48.34c-.68.48-1.84 1.16-2.66 1.16-1.12 0-1.6-.82-1.6-1.88 0-.5.04-1.06.16-1.68l1.64-.4zm-1.36-.8c.26-1.06.72-2.58 1.8-3.08.22-.1.66-.24.92-.24.68 0 1.02.4 1.02 1.04 0 1-.88 1.92-1.74 2.32-.7.32-1.42.54-2.18.7l.18-.74zm15.26-8.36c-.54.02-1.08.06-1.62.06s-1.08-.04-1.62-.06l-.1.56.7.04c.3.02.66.12.92.28.22.14.68.64.68.76 0 .18-.06.44-.1.68l-1.76 9.48c-.08.48-.22 1-.38 1.2-.14.18-.38.24-.7.28l-.62.06-.1.56c.74-.02 1.48-.06 2.22-.06.74 0 1.46.04 2.2.06l.1-.56-.84-.06c-.48-.04-.8-.1-.9-.36-.1-.28-.1-.64-.02-1.12l1.6-9.24h.04l6.72 11.5h1l1.88-11.06c.22-1.34.48-2.04.56-2.18.08-.14.4-.2.64-.22l.74-.04.1-.56c-.58.02-1.38.06-2.16.06-.8 0-1.58-.04-2.14-.06l-.1.56.94.04c.5.02.72.14.72.48 0 .22-.06.64-.1.92l-1.6 9.72h-.04l-6.86-11.72zm14.62 5.18c.5 0 1 .14 1.68.38-.5 2.68-1.14 3.8-1.86 4.76-.68.92-1.9 2.34-2.62 2.34-.3 0-.38-.26-.38-.94 0-1.32.62-3.42 1.08-4.64.46-1.2.82-1.9 2.1-1.9zm3.34-.78l-.2-.18-.66.36c-.52-.2-1.04-.38-1.62-.38-1 0-1.54.22-3.04 1.3-1.18.84-2.44 4.94-2.44 6.88 0 .38.08 1.68.68 1.68.28 0 .68-.14 1.56-.78.7-.52 1.92-1.82 3-3.4l.06.02-.54 2.4c-.08.36-.12.7-.12 1.06 0 .36.12.66.52.66.38 0 1.34-.58 2.88-1.88l-.14-.42c-.56.46-1.04.94-1.5.94-.34 0-.32-.5-.28-.68l1.84-7.58zm3.439 1.64l-1.12 5.66c-.08.44-.26 1.04-.26 1.52 0 .5.2.8.62.8.3 0 .7-.14 1.04-.3.72-.36 1.44-1 2.52-1.86l-.2-.36-.9.62c-.46.32-.94.6-1.2.6-.2 0-.28-.18-.28-.4 0-.24.04-.52.08-.8.12-.92.64-3.52 1.04-5.48h2.14l.22-1c-.74.08-1.46.12-2.2.12.24-1.4.48-2.68.9-3.94l-.22-.3c-.48.28-1.14.56-1.56.72l-.5 3.4c-.5.24-1.3.62-1.76.74l-.04.26h1.68zm8.46-.6c.22-.88.14-1.24-.42-1.24-.26 0-.7.1-2.64 1.48l-.56.4.14.4.56-.36c.48-.3.8-.56 1.02-.56.26 0 .36.26.36.46 0 .18-.08.56-.16.88l-1.32 4.8c-.12.44-.26 1.04-.26 1.52 0 .5.2.8.62.8.3 0 .7-.2 1-.38.72-.42 1.4-.92 2.18-1.5l-.2-.36-.52.34c-.46.3-.98.6-1.22.6-.14 0-.26-.18-.26-.4 0-.24.06-.5.14-.8l1.54-6.08zm-.1-3.68c.64 0 1.08-.6 1.08-1.4 0-.42-.32-.76-.72-.76-.62 0-1.16.7-1.16 1.3 0 .54.28.86.8.86zm4.42 12.3c1.3 0 2.76-.82 3.56-1.82 1.04-1.3 1.7-3.3 1.7-4.96 0-1.72-.78-3.08-2.66-3.08-.8 0-1.4.24-2.02.56-2.16 1.12-3.2 3.42-3.2 6.1 0 1.74.64 3.2 2.62 3.2zm.78-.76c-1.5 0-1.88-1.28-1.88-2.56 0-1.46.54-4.46 1.76-5.44.32-.26.8-.34 1.22-.34 1.5 0 1.86 1.34 1.86 2.56 0 1.56-.48 3.94-1.5 5.12-.36.42-.86.66-1.46.66zm9.18-7.62c.22-.94.14-1.48-.36-1.48-.26 0-.7.1-2.64 1.48l-.56.4.14.4.56-.36c.48-.3.8-.56 1.02-.56.26 0 .36.26.36.46 0 .54-.14 1.38-.32 2.26-.36 1.74-.78 3.7-1.32 5.52l.14.22c.48-.14.94-.26 1.4-.34.18-1.28.5-2.92 1.12-4.18.58-1.18 1.7-2.66 2.7-3.34.5-.34.98-.6 1.38-.6.26 0 .34.22.34.46 0 .42-.08.9-.22 1.44l-1.04 4.24c-.1.44-.26 1.04-.26 1.52 0 .5.2.8.62.8.3 0 .7-.2 1-.38.72-.42 1.4-.92 2.18-1.5l-.2-.36-.52.34c-.46.3-.98.6-1.22.6-.14 0-.26-.18-.26-.4 0-.24.06-.5.14-.8l1.22-5.12c.12-.52.22-1.02.22-1.5 0-.34-.12-.7-.64-.7-.7 0-1.84.56-2.96 1.48-.92.76-1.78 1.8-2.66 3.06h-.08l.72-3.06zm11.98-.5c.5 0 1 .14 1.68.38-.5 2.68-1.14 3.8-1.86 4.76-.68.92-1.9 2.34-2.62 2.34-.3 0-.38-.26-.38-.94 0-1.32.62-3.42 1.08-4.64.46-1.2.82-1.9 2.1-1.9zm3.34-.78l-.2-.18-.66.36c-.52-.2-1.04-.38-1.62-.38-1 0-1.54.22-3.04 1.3-1.18.84-2.44 4.94-2.44 6.88 0 .38.08 1.68.68 1.68.28 0 .68-.14 1.56-.78.7-.52 1.92-1.82 3-3.4l.06.02-.54 2.4c-.08.36-.12.7-.12 1.06 0 .36.12.66.52.66.38 0 1.34-.58 2.88-1.88l-.14-.42c-.56.46-1.04.94-1.5.94-.34 0-.32-.5-.28-.68l1.84-7.58zm5.86-5l-.24-.22c-.52.26-1.02.46-1.58.6-.56.12-1.12.2-1.62.24l-.08.42h.96c.36 0 .68.06.68.46 0 .12-.04.3-.06.5-.12 1.12-1.2 6.9-1.7 8.76-.54 1.98-.66 2.58-.66 3.06 0 .5.2.8.62.8.3 0 .7-.2 1-.38.72-.42 1.4-.92 2.18-1.5l-.2-.36-.52.34c-.46.3-.98.6-1.22.6-.14 0-.26-.18-.26-.4 0-.24.08-.5.14-.8l2.56-12.12zm35.906-9.731c-.84-1.554-2.331-2.457-4.095-2.457-2.352 0-4.431 1.575-4.431 4.032 0 2.268 1.596 3.213 3.444 4.053l.966.42c1.47.672 2.919 1.302 2.919 3.15 0 1.785-1.554 3.087-3.255 3.087-1.701 0-2.94-1.323-3.171-2.94l-1.722.483c.504 2.457 2.394 4.095 4.935 4.095 2.751 0 4.977-2.121 4.977-4.893 0-2.52-1.743-3.549-3.801-4.452l-1.05-.462c-1.071-.483-2.478-1.113-2.478-2.478 0-1.449 1.218-2.457 2.625-2.457 1.344 0 2.1.63 2.73 1.722l1.407-.903zm15.855-.903c-1.407-1.05-2.961-1.554-4.725-1.554-4.536 0-8.253 3.717-8.253 8.253 0 4.494 3.78 8.127 8.253 8.127 1.68 0 3.36-.567 4.725-1.554v-2.184c-1.26 1.26-3.003 2.1-4.788 2.1-3.549 0-6.426-3.066-6.426-6.552 0-3.486 2.856-6.552 6.384-6.552 1.827 0 3.57.798 4.83 2.1V2.333zm3.969 14.553h1.764V1.052h-1.764v15.834zm5.607 0h8.211v-1.638h-6.447V9.032h6.258V7.394h-6.258V2.69h6.447V1.052h-8.211v15.834zm11.844 0h1.764V4.685L193.232 17.6V1.052h-1.764v12.264L179.12.38v16.506zm29.904-14.553c-1.407-1.05-2.961-1.554-4.725-1.554-4.536 0-8.253 3.717-8.253 8.253 0 4.494 3.78 8.127 8.253 8.127 1.68 0 3.36-.567 4.725-1.554v-2.184c-1.26 1.26-3.003 2.1-4.788 2.1-3.549 0-6.426-3.066-6.426-6.552 0-3.486 2.856-6.552 6.384-6.552 1.827 0 3.57.798 4.83 2.1V2.333zm3.296 14.553h8.211v-1.638h-6.446V9.032h6.257V7.394h-6.257V2.69h6.446V1.052h-8.211v15.834zm20.223-13.65c-.84-1.554-2.331-2.457-4.095-2.457-2.352 0-4.431 1.575-4.431 4.032 0 2.268 1.596 3.213 3.444 4.053l.966.42c1.47.672 2.919 1.302 2.919 3.15 0 1.785-1.554 3.087-3.255 3.087-1.701 0-2.94-1.323-3.171-2.94l-1.722.483c.504 2.457 2.394 4.095 4.935 4.095 2.751 0 4.977-2.121 4.977-4.893 0-2.52-1.743-3.549-3.801-4.452l-1.05-.462c-1.071-.483-2.478-1.113-2.478-2.478 0-1.449 1.218-2.457 2.625-2.457 1.344 0 2.1.63 2.73 1.722l1.407-.903zm-99.749 64.05h1.806l2.037-10.71h.042l5.082 11.361 5.103-11.361h.042l2.037 10.71h1.806l-3.213-16.737-5.775 13.293-5.754-13.293-3.213 16.737zm20.601 0h8.211v-1.638h-6.447v-6.216h6.258v-1.638h-6.258V53.09h6.447v-1.638h-8.211v15.834zm11.634 0h2.94c2.478 0 4.368-.315 6.258-1.995 1.743-1.554 2.583-3.591 2.583-5.901 0-2.352-.819-4.473-2.625-6.027-1.869-1.596-3.801-1.911-6.174-1.911h-2.982v15.834zm1.764-1.638V53.09h1.281c1.869 0 3.465.252 4.914 1.533 1.365 1.197 2.058 2.94 2.058 4.746 0 1.764-.672 3.423-1.974 4.641-1.449 1.365-3.066 1.638-4.998 1.638h-1.281zm12.621 1.638h1.764V51.452h-1.764v15.834zm17.577-14.553c-1.407-1.05-2.961-1.554-4.725-1.554-4.536 0-8.253 3.717-8.253 8.253 0 4.494 3.78 8.127 8.253 8.127 1.68 0 3.36-.567 4.725-1.554v-2.184c-1.26 1.26-3.003 2.1-4.788 2.1-3.549 0-6.426-3.066-6.426-6.552 0-3.486 2.856-6.552 6.384-6.552 1.827 0 3.57.798 4.83 2.1v-2.184zm3.759 14.553h1.764V51.452h-1.764v15.834zm5.712 0h1.764V55.085L220.574 68V51.452h-1.764v12.264L206.462 50.78v16.506zm17.934 0h8.211v-1.638h-6.447v-6.216h6.258v-1.638h-6.258V53.09h6.447v-1.638h-8.211v15.834zm-91.14-25.2h8.211v-1.638h-6.447v-6.216h6.258v-1.638h-6.258V27.89h6.447v-1.638h-8.211v15.834zm11.319 0h1.764V29.885L158.687 42.8V26.252h-1.764v12.264L144.575 25.58v16.506zm25.536-7.959v1.638h4.704c0 2.94-2.898 4.956-5.649 4.956-1.659 0-3.339-.861-4.494-2.016a6.38 6.38 0 01-1.848-4.473c0-3.57 2.856-6.615 6.468-6.615 2.331 0 4.116 1.113 5.439 2.982l1.281-1.197c-1.68-2.184-3.927-3.423-6.699-3.423-4.557 0-8.253 3.696-8.253 8.232 0 4.452 3.696 8.148 8.148 8.148 2.205 0 4.41-.966 5.859-2.646 1.449-1.68 1.68-3.444 1.638-5.586h-6.594zm9.135 7.959h1.764V26.252h-1.764v15.834zm5.082 0h1.764V29.885L198.44 42.8V26.252h-1.764v12.264L184.328 25.58v16.506zm17.409 0h8.211v-1.638h-6.447v-6.216h6.258v-1.638h-6.258V27.89h6.447v-1.638h-8.211v15.834zm11.214 0h8.211v-1.638h-6.447v-6.216h6.258v-1.638h-6.258V27.89h6.447v-1.638h-8.211v15.834zm12.978-14.196h.525c2.121 0 4.032.252 4.032 2.856 0 2.457-2.016 2.835-4.011 2.835h-.546V27.89zm0 7.245h.441l4.788 6.951h2.163l-5.04-7.098c2.436-.21 3.969-1.932 3.969-4.368 0-3.57-2.793-4.368-5.796-4.368h-2.289v15.834h1.764v-6.951zm9.659 6.951h1.764V26.252h-1.764v15.834zm5.082 0h1.764V29.885L254.782 42.8V26.252h-1.764v12.264L240.67 25.58v16.506zm25.536-7.959v1.638h4.704c0 2.94-2.898 4.956-5.649 4.956-1.659 0-3.339-.861-4.494-2.016a6.38 6.38 0 01-1.848-4.473c0-3.57 2.856-6.615 6.468-6.615 2.331 0 4.116 1.113 5.439 2.982l1.281-1.197c-1.68-2.184-3.927-3.423-6.699-3.423-4.557 0-8.253 3.696-8.253 8.232 0 4.452 3.696 8.148 8.148 8.148 2.205 0 4.41-.966 5.859-2.646 1.449-1.68 1.68-3.444 1.638-5.586h-6.594zM120.01 67.567h1.3V.248h-1.3zM9.62 37.307l-7.46 11.86c-.88 1.4-1.36 1.5-1.76 1.6l-.4.1v.6c.76-.02 1.5-.06 2.22-.06.72 0 1.44.04 2.16.06v-.56l-1.04-.06c-.3-.02-.62-.18-.62-.38s.2-.54.52-1.1l2.04-3.5h4.92l.5 3.76c.02.2.08.46.08.68 0 .3-.28.5-.86.54l-.88.06v.56c.82-.02 1.64-.06 2.44-.06.82 0 1.62.04 2.44.06v-.56l-.52-.06c-.48-.06-.82-.14-.9-.28-.1-.18-.18-.48-.22-.76l-1.74-12.5h-.92zm-.3 2.14h.04l.74 5.7H5.78l3.54-5.7zm11.84 5.36h.46c.1-.82.24-1.92.48-2.56-.48-.36-1.46-.48-1.9-.48-.94 0-1.54.4-3.22 1.48-1.3.84-2.16 3.28-2.16 5.44 0 1.64.62 2.94 2.46 2.94 1.28 0 2.3-.62 3.12-1.3l1-.82-.16-.4-.3.2c-.76.5-1.94 1.3-2.82 1.3-1.46 0-1.78-1.14-1.78-2.38 0-1.62.5-4.54 2.1-5.26.44-.2.78-.22 1.16-.22.38 0 .82.1 1.06.24.28.16.5.34.5.62v1.2zm6-2.06c.5 0 1 .14 1.68.38-.5 2.68-1.14 3.8-1.86 4.76-.68.92-1.9 2.34-2.62 2.34-.3 0-.38-.26-.38-.94 0-1.32.62-3.42 1.08-4.64.46-1.2.82-1.9 2.1-1.9zm3.34-.78l-.2-.18-.66.36c-.52-.2-1.04-.38-1.62-.38-1 0-1.54.22-3.04 1.3-1.18.84-2.44 4.94-2.44 6.88 0 .38.08 1.68.68 1.68.28 0 .68-.14 1.56-.78.7-.52 1.92-1.82 3-3.4l.06.02-.54 2.4c-.08.36-.12.7-.12 1.06 0 .36.12.66.52.66.38 0 1.34-.58 2.88-1.88l-.14-.42c-.56.46-1.04.94-1.5.94-.34 0-.32-.5-.28-.68l1.84-7.58zm5.699.78c.74 0 1.48.1 2.12.46l-.24 1.18c-.32 1.62-1.26 3.46-2.58 4.7-.72.68-1.54 1.14-1.84 1.14-.52 0-.54-.46-.54-.9 0-1.96.82-5.52 1.9-6.28.4-.28.82-.3 1.18-.3zm4.8-5.78l-.24-.22c-.52.26-1.02.46-1.58.6-.56.12-1.12.2-1.62.24l-.08.42h.96c.36 0 .68.06.68.46 0 .12 0 .3-.04.5l-.56 3.08c-.44-.16-1.12-.28-1.62-.28-1.04 0-1.54.44-2.7 1.3-2.2 1.64-2.52 5.34-2.52 6.44 0 .84.04 2.12.88 2.12 1.36 0 3.3-1.82 4.9-4.36l.08.02-.4 1.6c-.16.66-.32 1.36-.32 2.04 0 .46.18.66.58.66.32 0 .88-.32 1.44-.74l1.62-1.2-.2-.38-.88.62c-.3.2-.6.34-.76.34-.24 0-.3-.26-.3-.44 0-.3.1-.68.18-1.08l2.5-11.74zm3.96 9.76c.46-.12.92-.3 1.38-.5 1.28-.56 2.48-1.38 2.48-2.94 0-1.02-.8-1.52-1.74-1.52-1.14 0-2.46.96-3.32 1.62-.78.6-1.22 1.5-1.5 2.42-.28.92-.62 2.32-.62 3.26 0 1.64.78 2.56 2.44 2.56 1.3 0 2.9-1.16 3.98-2.06l-.16-.38-.48.34c-.68.48-1.84 1.16-2.66 1.16-1.12 0-1.6-.82-1.6-1.88 0-.5.04-1.06.16-1.68l1.64-.4zm-1.36-.8c.26-1.06.72-2.58 1.8-3.08.22-.1.66-.24.92-.24.68 0 1.02.4 1.02 1.04 0 1-.88 1.92-1.74 2.32-.7.32-1.42.54-2.18.7l.18-.74zm13.26 3.22c.52-2.52 1.58-3.86 2.26-4.5.86-.82 1.6-1.52 2.4-1.52.3 0 .24.82.1 1.44-.22.98-.92 3.68-1.24 4.7-.14.42-.26 1.04-.26 1.52 0 .5.2.8.62.8.3 0 .7-.2 1-.38.72-.42 1.4-.92 2.18-1.5l-.2-.36-.52.34c-.46.3-.98.6-1.22.6-.14 0-.26-.18-.26-.4 0-.24.06-.5.14-.8l1.5-5.94c.1-.42.38-1.38-.4-1.38-.68 0-1.56.56-2.1.92-1.04.68-2.3 1.68-3.32 3.18l-.04-.04.58-2.6c.1-.42.38-1.46-.4-1.46-.68 0-1.56.56-2.1.92-1.4.94-2 1.78-3 3.12l-.04-.04.62-2.52c.22-.94.14-1.48-.36-1.48-.26 0-.7.1-2.64 1.48l-.56.4.14.4.56-.36c.48-.3.8-.56 1.02-.56.26 0 .36.26.36.46 0 .54-.14 1.38-.32 2.26-.36 1.74-.78 3.7-1.32 5.52l.06.22 1.36-.3.44-2.04c.38-1.72.86-3.3 2.12-4.6.48-.5 1.52-1.52 2.32-1.52.3 0 .22.76.1 1.44-.38 2.14-.96 4.6-1.48 6.8l.1.22 1.38-.3.42-2.14zm12.12-6.14c.22-.88.14-1.24-.42-1.24-.26 0-.7.1-2.64 1.48l-.56.4.14.4.56-.36c.48-.3.8-.56 1.02-.56.26 0 .36.26.36.46 0 .18-.08.56-.16.88l-1.32 4.8c-.12.44-.26 1.04-.26 1.52 0 .5.2.8.62.8.3 0 .7-.2 1-.38.72-.42 1.4-.92 2.18-1.5l-.2-.36-.52.34c-.46.3-.98.6-1.22.6-.14 0-.26-.18-.26-.4 0-.24.06-.5.14-.8l1.54-6.08zm-.1-3.68c.64 0 1.08-.6 1.08-1.4 0-.42-.32-.76-.72-.76-.62 0-1.16.7-1.16 1.3 0 .54.28.86.8.86zm4.98 7.4c.46-.12.92-.3 1.38-.5 1.28-.56 2.48-1.38 2.48-2.94 0-1.02-.8-1.52-1.74-1.52-1.14 0-2.46.96-3.32 1.62-.78.6-1.22 1.5-1.5 2.42-.28.92-.62 2.32-.62 3.26 0 1.64.78 2.56 2.44 2.56 1.3 0 2.9-1.16 3.98-2.06l-.16-.38-.48.34c-.68.48-1.84 1.16-2.66 1.16-1.12 0-1.6-.82-1.6-1.88 0-.5.04-1.06.16-1.68l1.64-.4zm-1.36-.8c.26-1.06.72-2.58 1.8-3.08.22-.1.66-.24.92-.24.68 0 1.02.4 1.02 1.04 0 1-.88 1.92-1.74 2.32-.7.32-1.42.54-2.18.7l.18-.74zm6.14 2.52c-.08.9-.22 1.78-.44 2.64.66.34 1.42.54 2.16.54 1.12 0 2.04-.5 2.9-1.16.88-.68 1.44-1.4 1.44-2.58 0-1.28-1.02-1.7-2.12-1.9l-.86-.16c-.84-.16-1.58-.34-1.58-1.4 0-1.14 1-1.86 2.06-1.86.62 0 1.58.3 1.88.9v1.1h.46c.08-.76.22-1.5.38-2.26-.72-.38-1.36-.54-2.04-.54-1.18 0-2.38.76-3.18 1.56-.52.52-.74 1.04-.74 1.76 0 1.26.8 1.8 1.94 2.02l1.26.24c.8.16 1.2.42 1.2 1.3 0 1.42-1.02 2.18-2.38 2.18-.64 0-1.4-.28-1.84-.7v-1.68h-.5zm14.42 3.18c1.3 0 2.76-.82 3.56-1.82 1.04-1.3 1.7-3.3 1.7-4.96 0-1.72-.78-3.08-2.66-3.08-.8 0-1.4.24-2.02.56-2.16 1.12-3.2 3.42-3.2 6.1 0 1.74.64 3.2 2.62 3.2zm.78-.76c-1.5 0-1.88-1.28-1.88-2.56 0-1.46.54-4.46 1.76-5.44.32-.26.8-.34 1.22-.34 1.5 0 1.86 1.34 1.86 2.56 0 1.56-.48 3.94-1.5 5.12-.36.42-.86.66-1.46.66zm10.86-7.12c.08-.36.24-.88.34-1.12l-.08-.14c-.24.06-.44.12-.64.14-.38.04-1 .04-1.5.04l.42-2.24c.14-.68.32-1.26.46-1.54.3-.58.72-.94 1.36-.94.56 0 1.18.34 1.42.78l.2-.08c.14-.46.4-1.2.56-1.64-.3-.16-1.04-.26-1.4-.26-.2 0-.46.04-.7.14-.64.3-2.36 1.68-2.58 1.92-.16.18-.32.36-.5.76-.18.36-.28.82-.4 1.42l-.3 1.58c-.58.28-1.14.54-1.72.74l-.1.44h1.62c-.08.62-1.34 8.34-1.96 10.12-.64 1.82-1.38 1.8-1.76 1.8-.46 0-.74-.28-.96-.58l-.28.08c-.02.18-.34 1.38-.46 1.6.12.08.5.16.7.16.76 0 1.58-.5 2.2-1.06.82-.74 1.52-1.88 2.02-3.5.54-1.78 1.5-6.52 1.96-8.62h2.08z"
       id="path2"
       style="fill:#ffffff;fill-opacity:1" />
  </g>
</svg>
