<?xml version="1.0" encoding="UTF-8" standalone="no"?>
<svg
   height="170.21538"
   width="923.0769"
   viewBox="-150 -46.1 999.99998 58.851967"
   version="1.1"
   id="svg1"
   sodipodi:docname="Nvidia-White-Horizontal-Logo.wine.svg"
   inkscape:version="1.3 (0e150ed6c4, 2023-07-21)"
   xmlns:inkscape="http://www.inkscape.org/namespaces/inkscape"
   xmlns:sodipodi="http://sodipodi.sourceforge.net/DTD/sodipodi-0.dtd"
   xmlns="http://www.w3.org/2000/svg"
   xmlns:svg="http://www.w3.org/2000/svg">
  <defs
     id="defs1" />
  <sodipodi:namedview
     id="namedview1"
     pagecolor="#ffffff"
     bordercolor="#000000"
     borderopacity="0.25"
     inkscape:showpageshadow="2"
     inkscape:pageopacity="0.0"
     inkscape:pagecheckerboard="0"
     inkscape:deskcolor="#d1d1d1"
     inkscape:zoom="1.3225"
     inkscape:cx="461.62571"
     inkscape:cy="85.066163"
     inkscape:window-width="3440"
     inkscape:window-height="1316"
     inkscape:window-x="-12"
     inkscape:window-y="-12"
     inkscape:window-maximized="1"
     inkscape:current-layer="svg1" />
  <path
     d="m 837.1,39.406872 v -2.8 h 1.7 c 0.9,0 2.3,0.1 2.3,1.2 0,1.2 -0.7,1.5 -1.8,1.5 h -2.2 m 0,2 h 1.2 l 2.8,4.8 h 3 l -3.1,-5 c 1.5,-0.1 2.9,-0.8 2.9,-3 0,-2.7 -1.8,-3.5 -4.9,-3.5 h -4.4 v 11.5 h 2.6 l -0.1,-4.8 m 12.9,-0.9 c 0,-6.8 -5.2,-10.7 -11.1,-10.7 -5.8,0 -11.1,3.9 -11.1,10.7 0,6.8 5.2,10.7 11.1,10.7 5.9,0 11.1,-3.9 11.1,-10.7 m -3.2,0 c 0,4.9 -3.6,8.2 -7.9,8.2 -4.4,0 -7.9,-3.3 -7.9,-8.2 0,-4.9 3.6,-8.2 7.9,-8.2 4.3,0.1 7.9,3.4 7.9,8.2 z m -403.6,-114 v 121.1 h 34.2 v -121.1 z m -268.8,-0.2 v 121.2 h 34.5 v -94.1 l 26.9,0.1 c 8.8,0 15,2.2 19.2,6.7 5.4,5.7 7.6,15.1 7.6,31.9999997 V 47.406872 H 296 v -66.9 c 0,-47.8 -30.5,-54.3 -60.2,-54.3 z m 323.9,0.2 v 121.1 h 55.4 c 29.5,0 39.2,-4.9 49.6,-15.9 7.4,-7.7 12.1,-24.7000003 12.1,-43.3 0,-17 -4,-32.2 -11.1,-41.7 -12.5,-16.9 -30.8,-20.2 -58.1,-20.2 z m 33.9,26.3 h 14.7 c 21.3,0 35.1,9.5 35.1,34.4 0,24.8 -13.7,34.4 -35.1,34.4 h -14.7 z m -138.2,-26.3 -28.5,95.9 -27.3,-95.9 h -36.9 l 39,121.1 h 49.2 l 39.3,-121.1 z m 237.4,121 h 34.2 v -121 h -34.2 z m 95.8,-121 -47.7,121 h 33.7 l 7.6,-21.3 h 56.5 l 7.2,21.3 h 36.6 l -48.2,-121 z m 22.2,22.1 20.7,56.5999997 H 728 Z m -795.5,-2 v -16.6 c 1.6,-0.1 3.3,-0.2 4.9,-0.2 45.6,-1.4 75.4,39.1 75.4,39.1 0,0 -32.2,44.8 -66.8,44.8 -5,0 -9.4,-0.8 -13.4,-2.2 v -50.5 c 17.7,2.2 21.3,10 32,27.7 l 23.7,-20 c 0,0 -17.3,-22.7 -46.5,-22.7 -3.2,0.1 -6.3,0.3 -9.3,0.6 m 0,-55.000002 v 24.800002 c 1.6,-0.1 3.3,-0.2 4.9,-0.3 63.3,-2.2 104.6,51.9 104.6,51.9 0,0 -47.4,57.7 -96.7,57.7 -4.5,0 -8.7,-0.4 -12.7,-1.1 v 15.4 c 3.4,0.4 7,0.7 10.6,0.7 46,0 79.2,-23.5 111.4,-51.2 5.3,4.2999997 27.2,14.6999997 31.7,19.1999997 C 77.1,34.206872 5.8,54.906872 -34.6,54.906872 c -3.9,0 -7.6,-0.2 -11.3,-0.6 v 21.6 H 128.8 V -108.49313 Z m 0,120.000002 v 13.1 c -42.5,-7.6 -54.3,-51.8 -54.3,-51.8 0,0 20.4,-22.6 54.3,-26.3 v 14.4 h -0.1 c -17.7,-2.2 -31.7,14.5 -31.7,14.5 0,0 7.9,27.8999997 31.8,36.1 m -75.5,-40.6 c 0,0 25.2,-37.1 75.5,-41 v -13.5 c -55.7,4.5 -103.9,51.7 -103.9,51.7 0,0 27.3,79 103.9,86.3 v -14.4 c -56.2,-7.1 -75.5,-69.1 -75.5,-69.1 z"
     fill="#ffffff"
     id="path1" />
</svg>
