<?xml version="1.0" encoding="UTF-8" standalone="no"?>
<!-- Created with Inkscape (http://www.inkscape.org/) -->

<svg
   xmlns:dc="http://purl.org/dc/elements/1.1/"
   xmlns:cc="http://creativecommons.org/ns#"
   xmlns:rdf="http://www.w3.org/1999/02/22-rdf-syntax-ns#"
   xmlns:svg="http://www.w3.org/2000/svg"
   xmlns="http://www.w3.org/2000/svg"
   xmlns:sodipodi="http://sodipodi.sourceforge.net/DTD/sodipodi-0.dtd"
   xmlns:inkscape="http://www.inkscape.org/namespaces/inkscape"
   version="1.1"
   id="svg2"
   width="1361.3331"
   height="295.97476"
   viewBox="0 0 1361.3332 295.97476"
   sodipodi:docname="PCWorld_logo_red_2019.svg"
   inkscape:version="0.92.4 (5da689c313, 2019-01-14)">
  <metadata
     id="metadata8">
    <rdf:RDF>
      <cc:Work
         rdf:about="">
        <dc:format>image/svg+xml</dc:format>
        <dc:type
           rdf:resource="http://purl.org/dc/dcmitype/StillImage" />
        <dc:title></dc:title>
      </cc:Work>
    </rdf:RDF>
  </metadata>
  <defs
     id="defs6" />
  <sodipodi:namedview
     pagecolor="#ffffff"
     bordercolor="#666666"
     borderopacity="1"
     objecttolerance="10"
     gridtolerance="10"
     guidetolerance="10"
     inkscape:pageopacity="0"
     inkscape:pageshadow="2"
     inkscape:window-width="3440"
     inkscape:window-height="1346"
     id="namedview4"
     showgrid="false"
     inkscape:zoom="1.2363282"
     inkscape:cx="632.15946"
     inkscape:cy="-72.470482"
     inkscape:window-x="-11"
     inkscape:window-y="-11"
     inkscape:window-maximized="1"
     inkscape:current-layer="svg2" />
  <path
     style="fill:#ffffff;fill-opacity:1;stroke-width:1.33333337"
     d="m 306.42624,293.37155 c -22.10008,-4.66076 -42.15671,-15.1148 -58.70799,-30.60012 -12.99995,-12.1627 -20.5964,-22.63878 -28.47292,-39.26626 -9.31448,-19.66305 -12.67888,-34.64208 -13.54745,-60.31612 -0.77652,-22.95281 0.52902,-36.7503 5.08129,-53.70108 13.83105,-51.50121 55.42363,-87.81141 108.73481,-94.92518 14.42782,-1.92523 40.86636,-0.9385 56.48601,2.10815 12.02862,2.34621 39.57082,10.78672 40.3995,12.38072 0.57308,1.10235 -3.91184,45.5718 -4.67286,46.33281 -0.28066,0.28067 -6.18398,-1.31973 -13.11848,-3.55644 -29.75693,-9.59806 -57.8985,-12.74731 -77.27482,-8.64763 -27.72412,5.86592 -46.10924,23.085125 -55.92265,52.37623 -10.25036,30.59525 -7.88467,67.13679 6.08685,94.02066 5.98692,11.51997 19.20532,25.36772 29.40311,30.80303 22.58952,12.03997 56.11995,11.84279 93.51654,-0.54995 9.02944,-2.99224 16.69977,-5.15784 17.04516,-4.81245 0.3454,0.3454 1.49727,8.65766 2.55972,18.47171 1.06244,9.81405 2.30429,19.99308 2.75965,22.62009 0.81176,4.68297 0.7014,4.83029 -5.64356,7.53424 -10.46173,4.45836 -24.13208,8.28951 -37.06138,10.38656 -17.39586,2.82149 -52.78153,2.47681 -67.65053,-0.65897 z m 529.62618,1.15224 c -11.1938,-1.70627 -26.82278,-6.98626 -36.05244,-12.17967 -4.03333,-2.26952 -12.23224,-9.04785 -18.2198,-15.06297 -8.9127,-8.95374 -11.98668,-13.2039 -16.95485,-23.44219 -8.49827,-17.51304 -10.63333,-27.36424 -10.65715,-49.17228 -0.0235,-21.49894 2.05495,-31.07306 10.62959,-48.96458 22.43592,-46.813895 83.36491,-65.86753 133.34962,-41.70092 33.50191,16.1975 52.50058,49.00711 52.50058,90.6655 0,41.72295 -18.79518,74.09397 -52.64799,90.67591 -16.98626,8.32028 -42.64614,12.12332 -61.94756,9.1812 z m 35.06682,-42.29172 c 13.56802,-6.00179 23.9831,-19.96863 28.18653,-37.7988 4.24194,-17.99351 1.2434,-44.43638 -6.54624,-57.72839 -4.29251,-7.32461 -14.14253,-16.25764 -21.85865,-19.82368 -7.86768,-3.6361 -28.72912,-3.95344 -36.23423,-0.55119 -13.58225,6.15716 -24.1538,18.88383 -28.70343,34.55491 -3.63636,12.52538 -3.45613,36.08088 0.37092,48.47605 5.28711,17.12411 17.02408,29.76618 32.1594,34.63938 8.34602,2.68722 24.53715,1.80968 32.6257,-1.76828 z M 1136,294.48752 c -15.746,-2.57821 -29.6294,-13.29834 -35.3333,-27.28291 -2.5948,-6.36174 -2.6765,-10.05026 -3.0317,-136.87128 L 1097.2699,0 h 24.0317 24.0317 l 0.01,119.66667 c 0.01,77.17825 0.49,121.40407 1.3666,124.55998 2.2705,8.17457 4.9837,10.35872 14.0074,11.27573 l 8.048,0.81786 -2.2666,19.50655 c -1.2467,10.7286 -2.3183,19.65655 -2.3814,19.83988 -0.2754,0.80007 -21.4511,-0.088 -28.1147,-1.17915 z m 112.6667,-0.39548 c -37.6303,-7.43749 -62.7976,-31.25066 -72.8289,-68.91018 -4.2131,-15.81686 -4.2248,-46.29515 -0.024,-61.77117 9.4869,-34.94841 32.4155,-58.09608 66.186,-66.818295 6.4386,-1.66296 14.2957,-2.4177 25.3333,-2.43346 17.1584,-0.0245 26.1869,1.85492 38.2321,7.958655 3.4903,1.76866 6.6659,3.21574 7.0569,3.21574 0.3911,0 0.711,-23.7 0.711,-52.66667 V 0 h 24 24 V 146 292 H 1338.6667 1316 v -5.19164 -5.19165 l -9,4.44239 c -17.1642,8.4722 -40.1181,11.63313 -58.3333,8.03294 z m 41.1391,-42.60528 c 12.6006,-6.16492 20.3347,-17.67324 24.0877,-35.84267 5.7758,-27.96278 -0.8095,-59.12692 -15.2512,-72.17413 -16.5298,-14.93371 -46.1981,-12.87168 -61.4474,4.27078 -20.8416,23.42898 -21.0489,69.25742 -0.4223,93.35494 12.1797,14.22929 35.7492,18.84736 53.0332,10.39108 z M 0,155.18512 V 18.37021 l 56.999999,0.65677 c 61.351931,0.70691 74.278431,1.84777 92.419911,8.15675 23.07065,8.02319 36.24489,22.8045 42.15781,47.30047 3.10232,12.852255 3.00952,48.29928 -0.15928,60.84913 -7.71501,30.55478 -26.33428,50.66491 -56.02393,60.50982 -15.53688,5.15193 -30.22882,6.7705 -61.727845,6.80041 l -24.333333,0.0231 v 44.66667 44.66666 H 24.666666 0 Z m 120.80986,-4.26751 c 14.10049,-6.3824 21.44167,-18.92824 22.8383,-39.02986 1.40672,-20.247005 -3.78253,-36.09288 -14.04357,-42.88331 -9.94227,-6.57949 -17.17657,-7.83088 -49.937925,-8.63825 L 49.333332,59.61866 v 47.60986 47.60985 l 32.333333,-0.41919 c 30.450775,-0.39477 32.729835,-0.59864 39.143195,-3.50157 z m 383.39888,132.0824 c -1.49472,-4.95 -9.39498,-32.7 -17.55612,-61.66667 -8.16116,-28.96666 -21.94349,-77.86666 -30.62741,-108.66666 -19.67606,-69.78675 -25.35855,-90.50662 -25.35855,-92.46395 0,-2.29511 50.54773,-2.1664 51.28612,0.1306 1.5348,4.7746 42.67482,151.36503 47.52273,169.33335 3.11621,11.55 6.00904,20.99767 6.42851,20.9948 0.67902,-0.004 8.10722,-27.0395 42.96349,-156.36514 l 9.62296,-35.70366 17.38597,0.37033 17.38597,0.37032 24.92782,86.00001 c 13.71029,47.3 25.58489,88.55 26.38798,91.66667 2.30807,8.95721 4.72355,7.14865 8.01343,-6 1.60549,-6.41667 8.34025,-31.16667 14.96612,-55 C 704.18363,112.16668 714.19372,76.16666 719.80239,56 l 10.1976,-36.66667 25.81857,-0.36266 25.81857,-0.36265 -0.92147,3.69599 c -0.5068,2.03279 -16.84545,57.99599 -36.30811,124.36267 -19.46266,66.36666 -36.95994,126.21667 -38.88283,133 l -3.49619,12.33333 h -22.9516 -22.9516 l -1.2602,-4.33333 c -7.75661,-26.67207 -26.3306,-91.93795 -36.23773,-127.33334 -6.82486,-24.38333 -12.75844,-44.33333 -13.1857,-44.33333 -0.42727,0 -4.91686,15.15 -9.97686,33.66667 -5.06001,18.51666 -15.42548,55.86666 -23.03438,83 -7.60891,27.13333 -14.44163,51.58333 -15.18382,54.33333 l -1.34944,5 H 531.4118 506.92639 Z M 967.99998,194.66668 V 97.333335 h 22.49221 22.49221 l 0.8265,5.000005 c 0.4545,2.75 0.833,7.00267 0.8411,9.45037 l 0.015,4.45037 8.3333,-5.93515 c 11.6684,-8.31045 21.1985,-12.863475 31.4919,-15.045255 9.5247,-2.01886 23.6545,-2.54757 24.5959,-0.92034 0.397,0.68632 -7.0838,39.816475 -8.3752,43.808525 -0.025,0.078 -6.268,0.45939 -13.8728,0.84754 -16.5212,0.8432 -27.4178,4.97092 -34.8555,13.2036 l -4.651,5.14802 v 67.3295 67.32949 h -24.667 -24.66663 v -97.33333 z"
     id="path817"
     inkscape:connector-curvature="0" />
</svg>
