<svg width="4400" height="1988" xmlns="http://www.w3.org/2000/svg" xmlns:xlink="http://www.w3.org/1999/xlink" xml:space="preserve" overflow="hidden"><g transform="translate(17 0)"><path d="M482.174 0.000360892 4377.7 0.000360892 4377.7 165.962 482.174 165.962Z" fill-rule="evenodd"/><path d="M0 363.597 115.458 363.597 115.458 1850.44 0 1850.44Z" fill-rule="evenodd"/><path d="M482.174 363.597 936 363.597 936 676.077 482.174 676.077Z" fill="#6589C0" fill-rule="evenodd"/><path d="M936 363.597 1320 363.597 1320 918.077 936 918.077Z" fill="#595959" fill-rule="evenodd"/><path d="M1320 363.597 1635.44 363.597 1635.44 918.077 1320 918.077Z" fill-rule="evenodd"/><path d="M1635.44 363.597 2101.32 363.597 2101.32 918.077 1635.44 918.077Z" fill="#595959" fill-rule="evenodd"/><path d="M2101.32 363.597 2504.12 363.597 2504.12 676.077 2101.32 676.077Z" fill="#6589C0" fill-rule="evenodd"/><path d="M2504.12 363.597 2994.26 363.597 2994.26 533.325 2504.12 533.325Z" fill="#BD6682" fill-rule="evenodd"/><path d="M2994.26 363.597 3445.59 363.597 3445.59 676.077 2994.26 676.077Z" fill="#8B65A4" fill-rule="evenodd"/><path d="M3445.59 363.597 3919.56 363.597 3919.56 918.077 3445.59 918.077Z" fill="#6FAA68" fill-rule="evenodd"/><path d="M3919.56 363.597 4377.7 363.597 4377.7 918.077 3919.56 918.077Z" fill="#6FAA68" fill-rule="evenodd"/><path d="M2504.12 533.325 2994.26 533.325 2994.26 741.148 2504.12 741.148Z" fill="#BD6682" fill-rule="evenodd"/><path d="M482.174 676.077 936 676.077 936 918.077 482.174 918.077Z" fill="#BD6682" fill-rule="evenodd"/><path d="M2101.32 676.077 2504.12 676.077 2504.12 918.077 2101.32 918.077Z" fill="#BD6682" fill-rule="evenodd"/><path d="M2994.26 676.077 3445.59 676.077 3445.59 918.077 2994.26 918.077Z" fill="#8B65A4" fill-rule="evenodd"/><path d="M2504.12 741.148 2994.26 741.148 2994.26 918.077 2504.12 918.077Z" fill="#BD6682" fill-rule="evenodd"/><path d="M482.174 918.077 936 918.077 936 1115.71 482.174 1115.71Z" fill-rule="evenodd"/><path d="M936 918.077 1320 918.077 1320 1115.71 936 1115.71Z" fill-rule="evenodd"/><path d="M1320 918.077 1635.44 918.077 1635.44 1115.71 1320 1115.71Z" fill="#6589C0" fill-rule="evenodd"/><path d="M1635.44 918.077 2101.32 918.077 2101.32 1115.71 1635.44 1115.71Z" fill-rule="evenodd"/><path d="M2101.32 918.077 2504.12 918.077 2504.12 1115.71 2101.32 1115.71Z" fill-rule="evenodd"/><path d="M2504.12 918.077 2994.26 918.077 2994.26 1115.71 2504.12 1115.71Z" fill="#BD6682" fill-rule="evenodd"/><path d="M2994.26 918.077 3445.59 918.077 3445.59 1115.71 2994.26 1115.71Z" fill="#595959" fill-rule="evenodd"/><path d="M3445.59 918.077 3919.56 918.077 3919.56 1115.71 3445.59 1115.71Z" fill="#595959" fill-rule="evenodd"/><path d="M3919.56 918.077 4377.7 918.077 4377.7 1115.71 3919.56 1115.71Z" fill-rule="evenodd"/><path d="M482.174 1115.71 936 1115.71 936 1313.35 482.174 1313.35Z" fill-rule="evenodd"/><path d="M936 1115.71 1320 1115.71 1320 1313.35 936 1313.35Z" fill-rule="evenodd"/><path d="M1320 1115.71 1635.44 1115.71 1635.44 1313.35 1320 1313.35Z" fill-rule="evenodd"/><path d="M1635.44 1115.71 2101.32 1115.71 2101.32 1313.35 1635.44 1313.35Z" fill-rule="evenodd"/><path d="M2101.32 1115.71 2504.12 1115.71 2504.12 1313.35 2101.32 1313.35Z" fill-rule="evenodd"/><path d="M2504.12 1115.71 2994.26 1115.71 2994.26 1313.35 2504.12 1313.35Z" fill="#BD6682" fill-rule="evenodd"/><path d="M2994.26 1115.71 3445.59 1115.71 3445.59 1313.35 2994.26 1313.35Z" fill="#595959" fill-rule="evenodd"/><path d="M3445.59 1115.71 3919.56 1115.71 3919.56 1313.35 3445.59 1313.35Z" fill="#595959" fill-rule="evenodd"/><path d="M3919.56 1115.71 4377.7 1115.71 4377.7 1313.35 3919.56 1313.35Z" fill="#595959" fill-rule="evenodd"/><path d="M482.174 1313.35 936 1313.35 936 1652.8 482.174 1652.8Z" fill="#6589C0" fill-rule="evenodd"/><path d="M936 1313.35 1320 1313.35 1320 1652.8 936 1652.8Z" fill="#595959" fill-rule="evenodd"/><path d="M1320 1313.35 1635.44 1313.35 1635.44 1652.8 1320 1652.8Z" fill-rule="evenodd"/><path d="M1635.44 1313.35 2101.32 1313.35 2101.32 1652.8 1635.44 1652.8Z" fill="#6589C0" fill-rule="evenodd"/><path d="M2101.32 1313.35 2504.12 1313.35 2504.12 1652.8 2101.32 1652.8Z" fill="#6589C0" fill-rule="evenodd"/><path d="M2504.12 1313.35 2994.26 1313.35 2994.26 1483.08 2504.12 1483.08Z" fill="#6589C0" fill-rule="evenodd"/><path d="M2994.26 1313.35 3445.59 1313.35 3445.59 1652.8 2994.26 1652.8Z" fill="#595959" fill-rule="evenodd"/><path d="M3445.59 1313.35 3919.56 1313.35 3919.56 1652.8 3445.59 1652.8Z" fill="#595959" fill-rule="evenodd"/><path d="M3919.56 1313.35 4377.7 1313.35 4377.7 1652.8 3919.56 1652.8Z" fill="#6FAA68" fill-rule="evenodd"/><path d="M2504.12 1483.08 2994.26 1483.08 2994.26 1652.8 2504.12 1652.8Z" fill="#BD6682" fill-rule="evenodd"/><path d="M482.174 1652.8 936 1652.8 936 1850.44 482.174 1850.44Z" fill="#DB8F33" fill-rule="evenodd"/><path d="M936 1652.8 1320 1652.8 1320 1850.44 936 1850.44Z" fill="#595959" fill-rule="evenodd"/><path d="M1320 1652.8 1635.44 1652.8 1635.44 1850.44 1320 1850.44Z" fill-rule="evenodd"/><path d="M1635.44 1652.8 2101.32 1652.8 2101.32 1850.44 1635.44 1850.44Z" fill="#DB8F33" fill-rule="evenodd"/><path d="M2101.32 1652.8 2504.12 1652.8 2504.12 1850.44 2101.32 1850.44Z" fill="#DB8F33" fill-rule="evenodd"/><path d="M2504.12 1652.8 2994.26 1652.8 2994.26 1850.44 2504.12 1850.44Z" fill="#DB8F33" fill-rule="evenodd"/><path d="M2994.26 1652.8 3445.59 1652.8 3445.59 1850.44 2994.26 1850.44Z" fill-rule="evenodd"/><path d="M3445.59 1652.8 3919.56 1652.8 3919.56 1850.44 3445.59 1850.44Z" fill="#595959" fill-rule="evenodd"/><path d="M3919.56 1652.8 4377.7 1652.8 4377.7 1850.44 3919.56 1850.44Z" fill-rule="evenodd"/><path d="M115.458 361.306 115.458 1852.73" stroke="#FFFFFF" stroke-width="4.58333" stroke-linejoin="round" stroke-miterlimit="10" fill="none" fill-rule="evenodd"/><path d="M482.174 163.67 482.174 1852.73" stroke="#FFFFFF" stroke-width="4.58333" stroke-linejoin="round" stroke-miterlimit="10" fill="none" fill-rule="evenodd"/><path d="M936 163.67 936 1852.73" stroke="#FFFFFF" stroke-width="4.58333" stroke-linejoin="round" stroke-miterlimit="10" fill="none" fill-rule="evenodd"/><path d="M1320 163.67 1320 1852.73" stroke="#FFFFFF" stroke-width="4.58333" stroke-linejoin="round" stroke-miterlimit="10" fill="none" fill-rule="evenodd"/><path d="M1635.44 163.67 1635.44 1852.73" stroke="#FFFFFF" stroke-width="4.58333" stroke-linejoin="round" stroke-miterlimit="10" fill="none" fill-rule="evenodd"/><path d="M2101.32 163.67 2101.32 1852.73" stroke="#FFFFFF" stroke-width="4.58333" stroke-linejoin="round" stroke-miterlimit="10" fill="none" fill-rule="evenodd"/><path d="M2504.12 163.67 2504.12 1852.73" stroke="#FFFFFF" stroke-width="4.58333" stroke-linejoin="round" stroke-miterlimit="10" fill="none" fill-rule="evenodd"/><path d="M2994.26 163.67 2994.26 1852.73" stroke="#FFFFFF" stroke-width="4.58333" stroke-linejoin="round" stroke-miterlimit="10" fill="none" fill-rule="evenodd"/><path d="M3445.59 163.67 3445.59 1852.73" stroke="#FFFFFF" stroke-width="4.58333" stroke-linejoin="round" stroke-miterlimit="10" fill="none" fill-rule="evenodd"/><path d="M3919.56 163.67 3919.56 1852.73" stroke="#FFFFFF" stroke-width="4.58333" stroke-linejoin="round" stroke-miterlimit="10" fill="none" fill-rule="evenodd"/><path d="M479.883 165.962 4379.99 165.962" stroke="#FFFFFF" stroke-width="4.58333" stroke-linejoin="round" stroke-miterlimit="10" fill="none" fill-rule="evenodd"/><path d="M113.166 363.597 4379.99 363.597" stroke="#FFFFFF" stroke-width="4.58333" stroke-linejoin="round" stroke-miterlimit="10" fill="none" fill-rule="evenodd"/><path d="M2501.83 533.325 2996.56 533.325" stroke="#FFFFFF" stroke-width="4.58333" stroke-linejoin="round" stroke-miterlimit="10" fill="none" fill-rule="evenodd"/><path d="M479.883 676.077 938.292 676.077" stroke="#FFFFFF" stroke-width="4.58333" stroke-linejoin="round" stroke-miterlimit="10" fill="none" fill-rule="evenodd"/><path d="M2099.03 676.077 2506.41 676.077" stroke="#FFFFFF" stroke-width="4.58333" stroke-linejoin="round" stroke-miterlimit="10" fill="none" fill-rule="evenodd"/><path d="M2991.97 676.077 3447.88 676.077" stroke="#FFFFFF" stroke-width="4.58333" stroke-linejoin="round" stroke-miterlimit="10" fill="none" fill-rule="evenodd"/><path d="M2501.83 741.148 2996.56 741.148" stroke="#FFFFFF" stroke-width="4.58333" stroke-linejoin="round" stroke-miterlimit="10" fill="none" fill-rule="evenodd"/><path d="M113.166 918.077 4379.99 918.077" stroke="#FFFFFF" stroke-width="4.58333" stroke-linejoin="round" stroke-miterlimit="10" fill="none" fill-rule="evenodd"/><path d="M113.166 1115.71 4379.99 1115.71" stroke="#FFFFFF" stroke-width="4.58333" stroke-linejoin="round" stroke-miterlimit="10" fill="none" fill-rule="evenodd"/><path d="M113.166 1313.35 4379.99 1313.35" stroke="#FFFFFF" stroke-width="4.58333" stroke-linejoin="round" stroke-miterlimit="10" fill="none" fill-rule="evenodd"/><path d="M2501.83 1483.08 2996.56 1483.08" stroke="#FFFFFF" stroke-width="4.58333" stroke-linejoin="round" stroke-miterlimit="10" fill="none" fill-rule="evenodd"/><path d="M113.166 1652.8 4379.99 1652.8" stroke="#FFFFFF" stroke-width="4.58333" stroke-linejoin="round" stroke-miterlimit="10" fill="none" fill-rule="evenodd"/><path d="M4377.7 163.67 4377.7 1852.73" stroke="#FFFFFF" stroke-width="4.58333" stroke-linejoin="round" stroke-miterlimit="10" fill="none" fill-rule="evenodd"/><path d="M113.166 1850.44 4379.99 1850.44" stroke="#FFFFFF" stroke-width="4.58333" stroke-linejoin="round" stroke-miterlimit="10" fill="none" fill-rule="evenodd"/><text fill="#FFFFFF" font-family="Aptos,Aptos_MSFontService,sans-serif" font-weight="400" font-size="83" transform="matrix(1 0 0 1 2103.86 110)">Supervisory Signal</text><text fill="#FFFFFF" font-family="Aptos,Aptos_MSFontService,sans-serif" font-weight="400" font-size="64" transform="matrix(1 0 0 1 3994.57 249)">Data</text><text fill="#FFFFFF" font-family="Aptos,Aptos_MSFontService,sans-serif" font-weight="400" font-size="64" transform="matrix(1 0 0 1 4127.17 249)">-</text><text fill="#FFFFFF" font-family="Aptos,Aptos_MSFontService,sans-serif" font-weight="400" font-size="64" transform="matrix(1 0 0 1 4148.94 249)">Label </text><text fill="#FFFFFF" font-family="Aptos,Aptos_MSFontService,sans-serif" font-weight="400" font-size="64" transform="matrix(1 0 0 1 4080.39 326)">Pairs</text><text fill="#FFFFFF" font-family="Aptos,Aptos_MSFontService,sans-serif" font-weight="400" font-size="64" transform="matrix(1 0 0 1 3504.28 249)">Uniform over </text><text fill="#FFFFFF" font-family="Aptos,Aptos_MSFontService,sans-serif" font-weight="400" font-size="64" transform="matrix(1 0 0 1 3571.43 326)">Classes</text><text fill="#FFFFFF" font-family="Aptos,Aptos_MSFontService,sans-serif" font-weight="400" font-size="64" transform="matrix(1 0 0 1 3041.33 249)">Cross</text><text fill="#FFFFFF" font-family="Aptos,Aptos_MSFontService,sans-serif" font-weight="400" font-size="64" transform="matrix(1 0 0 1 3203.74 249)">-</text><g><text fill="#FFFFFF" font-family="Aptos,Aptos_MSFontService,sans-serif" font-weight="400" font-size="64" transform="matrix(1 0 0 1 3225.51 249)">Modal </text></g><text fill="#FFFFFF" font-family="Aptos,Aptos_MSFontService,sans-serif" font-weight="400" font-size="64" transform="matrix(1 0 0 1 3151.69 326)">Pairs</text><text fill="#FFFFFF" font-family="Aptos,Aptos_MSFontService,sans-serif" font-weight="400" font-size="64" transform="matrix(1 0 0 1 2570.9 249)">Uniform over </text><text fill="#FFFFFF" font-family="Aptos,Aptos_MSFontService,sans-serif" font-weight="400" font-size="64" transform="matrix(1 0 0 1 2566.75 326)">Positive Pairs</text><g><text fill="#FFFFFF" font-family="Aptos,Aptos_MSFontService,sans-serif" font-weight="400" font-size="64" transform="matrix(1 0 0 1 2124.43 249)">Uniform over</text></g><g><text fill="#FFFFFF" font-family="Aptos,Aptos_MSFontService,sans-serif" font-weight="400" font-size="64" transform="matrix(1 0 0 1 2132.63 326)">K</text></g><text fill="#FFFFFF" font-family="Aptos,Aptos_MSFontService,sans-serif" font-weight="400" font-size="64" transform="matrix(1 0 0 1 2166.89 326)">-</text><g><text fill="#FFFFFF" font-family="Aptos,Aptos_MSFontService,sans-serif" font-weight="400" font-size="64" transform="matrix(1 0 0 1 2188.66 326)">Neighbors</text></g><text fill="#FFFFFF" font-family="Aptos,Aptos_MSFontService,sans-serif" font-weight="400" font-size="64" transform="matrix(1 0 0 1 1688.31 249)">Graph Kernel </text><text fill="#FFFFFF" font-family="Aptos,Aptos_MSFontService,sans-serif" font-weight="400" font-size="64" transform="matrix(1 0 0 1 1757.02 326)">Weights</text><text fill="#FFFFFF" font-family="Aptos,Aptos_MSFontService,sans-serif" font-weight="400" font-size="64" transform="matrix(1 0 0 1 1373.74 287)">Identity</text><text fill="#FFFFFF" font-family="Aptos,Aptos_MSFontService,sans-serif" font-weight="400" font-size="64" transform="matrix(1 0 0 1 994.224 287)">Student</text><text fill="#FFFFFF" font-family="Aptos,Aptos_MSFontService,sans-serif" font-weight="400" font-size="64" transform="matrix(1 0 0 1 1212.6 287)">-</text><text fill="#FFFFFF" font-family="Aptos,Aptos_MSFontService,sans-serif" font-weight="400" font-size="64" transform="matrix(1 0 0 1 1230.84 287)">T</text><text fill="#FFFFFF" font-family="Aptos,Aptos_MSFontService,sans-serif" font-weight="400" font-size="64" transform="matrix(1 0 0 1 577.603 287)">Gaussian</text><text fill="#FFFFFF" font-family="Aptos,Aptos_MSFontService,sans-serif" font-weight="400" font-size="60" transform="matrix(1 0 0 1 3968.41 631)">Cross Entropy </text><text fill="#FFFFFF" font-family="Aptos,Aptos_MSFontService,sans-serif" font-weight="400" font-size="50" transform="matrix(1 0 0 1 4014.84 694)">[Good 1963]</text><text fill="#FFFFFF" font-family="Aptos,Aptos_MSFontService,sans-serif" font-weight="400" font-size="60" transform="matrix(1 0 0 1 3579.16 631)">SupCon</text><text fill="#FFFFFF" font-family="Aptos,Aptos_MSFontService,sans-serif" font-weight="400" font-size="50" transform="matrix(1 0 0 1 3533.9 694)">[Khosla 2020]</text><text fill="#FFFFFF" font-family="Aptos,Aptos_MSFontService,sans-serif" font-weight="400" font-size="60" transform="matrix(1 0 0 1 3159.48 510)">CLIP</text><text fill="#FFFFFF" font-family="Aptos,Aptos_MSFontService,sans-serif" font-weight="400" font-size="50" transform="matrix(1 0 0 1 3059.22 573)">[Radford 2021]</text><text fill="#FFFFFF" font-family="Aptos,Aptos_MSFontService,sans-serif" font-weight="400" font-size="60" transform="matrix(1 0 0 1 2642.15 439)">InfoNCE </text><text fill="#FFFFFF" font-family="Aptos,Aptos_MSFontService,sans-serif" font-weight="400" font-size="50" transform="matrix(1 0 0 1 2570.44 502)">[Bachman 2019]</text><text fill="#FFFFFF" font-family="Aptos,Aptos_MSFontService,sans-serif" font-weight="400" font-size="60" transform="matrix(1 0 0 1 2187.56 469)">SNE with </text><text fill="#FFFFFF" font-family="Aptos,Aptos_MSFontService,sans-serif" font-weight="400" font-size="60" transform="matrix(1 0 0 1 2198.54 540)">Uniform </text><text fill="#FFFFFF" font-family="Aptos,Aptos_MSFontService,sans-serif" font-weight="400" font-size="60" transform="matrix(1 0 0 1 2189.58 612)">Affinities</text><text fill="#FFFFFF" font-family="Aptos,Aptos_MSFontService,sans-serif" font-weight="400" font-size="55" transform="matrix(1 0 0 1 1739.43 626)">SNE Graph </text><text fill="#FFFFFF" font-family="Aptos,Aptos_MSFontService,sans-serif" font-weight="400" font-size="55" transform="matrix(1 0 0 1 1720 692)">Embeddings</text><text fill="#FFFFFF" font-family="Aptos,Aptos_MSFontService,sans-serif" font-weight="400" font-size="55" transform="matrix(1 0 0 1 1071.84 626)">Dual </text><text fill="#FFFFFF" font-family="Aptos,Aptos_MSFontService,sans-serif" font-weight="400" font-size="55" transform="matrix(1 0 0 1 1059.67 692)">t</text><text fill="#FFFFFF" font-family="Aptos,Aptos_MSFontService,sans-serif" font-weight="400" font-size="55" transform="matrix(1 0 0 1 1077.02 692)">-</text><text fill="#FFFFFF" font-family="Aptos,Aptos_MSFontService,sans-serif" font-weight="400" font-size="55" transform="matrix(1 0 0 1 1096.07 692)">SNE</text><text fill="#FFFFFF" font-family="Aptos,Aptos_MSFontService,sans-serif" font-weight="400" font-size="60" transform="matrix(1 0 0 1 654.66 510)">SNE </text><text fill="#FFFFFF" font-family="Aptos,Aptos_MSFontService,sans-serif" font-weight="400" font-size="50" transform="matrix(1 0 0 1 561.275 573)">[Hinton 2002]</text><text fill="#FFFFFF" font-family="Aptos,Aptos_MSFontService,sans-serif" font-weight="400" font-size="64" transform="matrix(1 0 0 1 167.332 662)">Gaussian</text><text fill="#FFFFFF" font-family="Aptos,Aptos_MSFontService,sans-serif" font-weight="400" font-size="83" transform="matrix(6.12323e-17 -1 1 6.12323e-17 85.2332 1534)">Learned Representation</text><text fill="#FFFFFF" font-family="Aptos,Aptos_MSFontService,sans-serif" font-weight="400" font-size="60" transform="matrix(1 0 0 1 2651.23 627)">SimCLR</text><text fill="#FFFFFF" font-family="Aptos,Aptos_MSFontService,sans-serif" font-weight="400" font-size="50" transform="matrix(1 0 0 1 2616.56 690)">[Chen 2020]</text><text fill="#FFFFFF" font-family="Aptos,Aptos_MSFontService,sans-serif" font-weight="400" font-size="60" transform="matrix(1 0 0 1 3155.2 787)">CMC</text><text fill="#FFFFFF" font-family="Aptos,Aptos_MSFontService,sans-serif" font-weight="400" font-size="50" transform="matrix(1 0 0 1 3105.63 850)">[Tian 2020]</text><text fill="#FFFFFF" font-family="Aptos,Aptos_MSFontService,sans-serif" font-weight="400" font-size="60" transform="matrix(1 0 0 1 2164.33 788)">LGSimCLR</text><text fill="#FFFFFF" font-family="Aptos,Aptos_MSFontService,sans-serif" font-weight="400" font-size="48" transform="matrix(1 0 0 1 2134.86 848)">[El Banani 2023]</text><text fill="#FFFFFF" font-family="Aptos,Aptos_MSFontService,sans-serif" font-weight="400" font-size="60" transform="matrix(1 0 0 1 543.468 787)">X</text><text fill="#FFFFFF" font-family="Aptos,Aptos_MSFontService,sans-serif" font-weight="400" font-size="60" transform="matrix(1 0 0 1 574.933 787)">-</text><text fill="#FFFFFF" font-family="Aptos,Aptos_MSFontService,sans-serif" font-weight="400" font-size="60" transform="matrix(1 0 0 1 595.122 787)">Sample CL</text><text fill="#FFFFFF" font-family="Aptos,Aptos_MSFontService,sans-serif" font-weight="400" font-size="50" transform="matrix(1 0 0 1 572.733 850)">[</text><text fill="#FFFFFF" font-family="Aptos,Aptos_MSFontService,sans-serif" font-weight="400" font-size="50" transform="matrix(1 0 0 1 587.629 850)">Sobal</text><text fill="#FFFFFF" font-family="Aptos,Aptos_MSFontService,sans-serif" font-weight="400" font-size="50" transform="matrix(1 0 0 1 722.837 850)">2025]</text><text fill="#FFFFFF" font-family="Aptos,Aptos_MSFontService,sans-serif" font-weight="400" font-size="60" transform="matrix(1 0 0 1 2646.15 821)">MoCoV3 </text><text fill="#FFFFFF" font-family="Aptos,Aptos_MSFontService,sans-serif" font-weight="400" font-size="50" transform="matrix(1 0 0 1 2616.56 884)">[Chen 2021]</text><text fill="#FFFFFF" font-family="Aptos,Aptos_MSFontService,sans-serif" font-weight="400" font-size="55" transform="matrix(1 0 0 1 3502.99 1002)">Average Margin </text><text fill="#FFFFFF" font-family="Aptos,Aptos_MSFontService,sans-serif" font-weight="400" font-size="55" transform="matrix(1 0 0 1 3586.88 1068)">SupCon</text><text fill="#FFFFFF" font-family="Aptos,Aptos_MSFontService,sans-serif" font-weight="400" font-size="55" transform="matrix(1 0 0 1 3040.34 1003)">Average Margin </text><text fill="#FFFFFF" font-family="Aptos,Aptos_MSFontService,sans-serif" font-weight="400" font-size="55" transform="matrix(1 0 0 1 3164.34 1069)">CLIP</text><text fill="#FFFFFF" font-family="Aptos,Aptos_MSFontService,sans-serif" font-weight="400" font-size="60" transform="matrix(1 0 0 1 2665.83 1008)">VI</text><text fill="#FFFFFF" font-family="Aptos,Aptos_MSFontService,sans-serif" font-weight="400" font-size="60" transform="matrix(1 0 0 1 2716.25 1008)">-</text><text fill="#FFFFFF" font-family="Aptos,Aptos_MSFontService,sans-serif" font-weight="400" font-size="60" transform="matrix(1 0 0 1 2736.3 1008)">Reg </text><text fill="#FFFFFF" font-family="Aptos,Aptos_MSFontService,sans-serif" font-weight="400" font-size="50" transform="matrix(1 0 0 1 2598.8 1071)">[Bardes 2021]</text><text fill="#FFFFFF" font-family="Aptos,Aptos_MSFontService,sans-serif" font-weight="400" font-size="60" transform="matrix(1 0 0 1 1422.62 1011)">PCA</text><g><text fill="#FFFFFF" font-family="Aptos,Aptos_MSFontService,sans-serif" font-weight="400" font-size="46" transform="matrix(1 0 0 1 1328.48 1069)">[Pearson 1901]</text></g><text fill="#FFFFFF" font-family="Aptos,Aptos_MSFontService,sans-serif" font-weight="400" font-size="64" transform="matrix(1 0 0 1 167.332 1001)">Gaussian </text><text fill="#FFFFFF" font-family="Aptos,Aptos_MSFontService,sans-serif" font-weight="400" font-size="64" transform="matrix(1 0 0 1 237.503 1078)">σ→∞</text><text fill="#FFFFFF" font-family="Aptos,Aptos_MSFontService,sans-serif" font-weight="400" font-size="55" transform="matrix(1 0 0 1 4039.34 1233)">Error rate</text><text fill="#FFFFFF" font-family="Aptos,Aptos_MSFontService,sans-serif" font-weight="400" font-size="55" transform="matrix(1 0 0 1 3608.76 1200)">Triplet </text><text fill="#FFFFFF" font-family="Aptos,Aptos_MSFontService,sans-serif" font-weight="400" font-size="55" transform="matrix(1 0 0 1 3586.9 1266)">SupCon</text><text fill="#FFFFFF" font-family="Aptos,Aptos_MSFontService,sans-serif" font-weight="400" font-size="55" transform="matrix(1 0 0 1 3084.81 1233)">Triplet CLIP</text><text fill="#FFFFFF" font-family="Aptos,Aptos_MSFontService,sans-serif" font-weight="400" font-size="60" transform="matrix(1 0 0 1 2602.66 1205)">Triplet Loss</text><text fill="#FFFFFF" font-family="Aptos,Aptos_MSFontService,sans-serif" font-weight="400" font-size="50" transform="matrix(1 0 0 1 2599.09 1268)">[Schultz 2004]</text><text fill="#FFFFFF" font-family="Aptos,Aptos_MSFontService,sans-serif" font-weight="400" font-size="64" transform="matrix(1 0 0 1 167.332 1198)">Gaussian</text><text fill="#FFFFFF" font-family="Aptos,Aptos_MSFontService,sans-serif" font-weight="400" font-size="64" transform="matrix(1 0 0 1 250.405 1275)">σ→0</text><g><text fill="#FFFFFF" font-family="Aptos,Aptos_MSFontService,sans-serif" font-weight="400" font-size="60" transform="matrix(1 0 0 1 3954.05 1473)">Harmonic Loss </text></g><text fill="#FFFFFF" font-family="Aptos,Aptos_MSFontService,sans-serif" font-weight="400" font-size="50" transform="matrix(1 0 0 1 4020.58 1536)">[Baek 2025]</text><text fill="#FFFFFF" font-family="Aptos,Aptos_MSFontService,sans-serif" font-weight="400" font-size="55" transform="matrix(1 0 0 1 3568.7 1501)">t</text><text fill="#FFFFFF" font-family="Aptos,Aptos_MSFontService,sans-serif" font-weight="400" font-size="55" transform="matrix(1 0 0 1 3586.05 1501)">-</text><text fill="#FFFFFF" font-family="Aptos,Aptos_MSFontService,sans-serif" font-weight="400" font-size="55" transform="matrix(1 0 0 1 3605.09 1501)">SupCon</text><text fill="#FFFFFF" font-family="Aptos,Aptos_MSFontService,sans-serif" font-weight="400" font-size="55" transform="matrix(1 0 0 1 3146.23 1501)">t</text><text fill="#FFFFFF" font-family="Aptos,Aptos_MSFontService,sans-serif" font-weight="400" font-size="55" transform="matrix(1 0 0 1 3163.57 1501)">-</text><text fill="#FFFFFF" font-family="Aptos,Aptos_MSFontService,sans-serif" font-weight="400" font-size="55" transform="matrix(1 0 0 1 3182.48 1501)">CLIP</text><text fill="#FFFFFF" font-family="Aptos,Aptos_MSFontService,sans-serif" font-weight="400" font-size="60" transform="matrix(1 0 0 1 2621.87 1389)">t</text><text fill="#FFFFFF" font-family="Aptos,Aptos_MSFontService,sans-serif" font-weight="400" font-size="60" transform="matrix(1 0 0 1 2640.91 1389)">-</text><text fill="#FFFFFF" font-family="Aptos,Aptos_MSFontService,sans-serif" font-weight="400" font-size="60" transform="matrix(1 0 0 1 2661.1 1389)">SimCNE</text><text fill="#FFFFFF" font-family="Aptos,Aptos_MSFontService,sans-serif" font-weight="400" font-size="50" transform="matrix(1 0 0 1 2610.55 1452)">[</text><text fill="#FFFFFF" font-family="Aptos,Aptos_MSFontService,sans-serif" font-weight="400" font-size="50" transform="matrix(1 0 0 1 2625.44 1452)">Böhm</text><text fill="#FFFFFF" font-family="Aptos,Aptos_MSFontService,sans-serif" font-weight="400" font-size="50" transform="matrix(1 0 0 1 2765.23 1452)">2023]</text><text fill="#FFFFFF" font-family="Aptos,Aptos_MSFontService,sans-serif" font-weight="400" font-size="55" transform="matrix(1 0 0 1 2178.25 1435)">t</text><text fill="#FFFFFF" font-family="Aptos,Aptos_MSFontService,sans-serif" font-weight="400" font-size="55" transform="matrix(1 0 0 1 2195.6 1435)">-</text><text fill="#FFFFFF" font-family="Aptos,Aptos_MSFontService,sans-serif" font-weight="400" font-size="55" transform="matrix(1 0 0 1 2214.64 1435)">SNE with </text><text fill="#FFFFFF" font-family="Aptos,Aptos_MSFontService,sans-serif" font-weight="400" font-size="55" transform="matrix(1 0 0 1 2206.53 1501)">Uniform </text><text fill="#FFFFFF" font-family="Aptos,Aptos_MSFontService,sans-serif" font-weight="400" font-size="55" transform="matrix(1 0 0 1 2197.86 1567)">Affinities</text><text fill="#FFFFFF" font-family="Aptos,Aptos_MSFontService,sans-serif" font-weight="400" font-size="60" transform="matrix(1 0 0 1 1709.28 1468)">t</text><text fill="#FFFFFF" font-family="Aptos,Aptos_MSFontService,sans-serif" font-weight="400" font-size="60" transform="matrix(1 0 0 1 1728.33 1468)">-</text><text fill="#FFFFFF" font-family="Aptos,Aptos_MSFontService,sans-serif" font-weight="400" font-size="60" transform="matrix(1 0 0 1 1748.52 1468)">SNE Graph </text><text fill="#FFFFFF" font-family="Aptos,Aptos_MSFontService,sans-serif" font-weight="400" font-size="60" transform="matrix(1 0 0 1 1722.85 1539)">Embedding</text><text fill="#FFFFFF" font-family="Aptos,Aptos_MSFontService,sans-serif" font-weight="400" font-size="55" transform="matrix(1 0 0 1 1043.49 1468)">Doubly</text><text fill="#FFFFFF" font-family="Aptos,Aptos_MSFontService,sans-serif" font-weight="400" font-size="55" transform="matrix(1 0 0 1 1065.4 1534)">t</text><text fill="#FFFFFF" font-family="Aptos,Aptos_MSFontService,sans-serif" font-weight="400" font-size="55" transform="matrix(1 0 0 1 1082.75 1534)">-</text><text fill="#FFFFFF" font-family="Aptos,Aptos_MSFontService,sans-serif" font-weight="400" font-size="55" transform="matrix(1 0 0 1 1101.79 1534)">SNE</text><text fill="#FFFFFF" font-family="Aptos,Aptos_MSFontService,sans-serif" font-weight="400" font-size="60" transform="matrix(1 0 0 1 635.055 1443)">t</text><text fill="#FFFFFF" font-family="Aptos,Aptos_MSFontService,sans-serif" font-weight="400" font-size="60" transform="matrix(1 0 0 1 654.098 1443)">-</text><text fill="#FFFFFF" font-family="Aptos,Aptos_MSFontService,sans-serif" font-weight="400" font-size="60" transform="matrix(1 0 0 1 674.288 1443)">SNE </text><text fill="#FFFFFF" font-family="Aptos,Aptos_MSFontService,sans-serif" font-weight="400" font-size="50" transform="matrix(1 0 0 1 531.196 1506)">[Van der </text><text fill="#FFFFFF" font-family="Aptos,Aptos_MSFontService,sans-serif" font-weight="400" font-size="50" transform="matrix(1 0 0 1 722.551 1506)">Maaten</text><text fill="#FFFFFF" font-family="Aptos,Aptos_MSFontService,sans-serif" font-weight="400" font-size="50" transform="matrix(1 0 0 1 647.796 1566)">2008]</text><text fill="#FFFFFF" font-family="Aptos,Aptos_MSFontService,sans-serif" font-weight="400" font-size="64" transform="matrix(1 0 0 1 165.04 1505)">Student</text><text fill="#FFFFFF" font-family="Aptos,Aptos_MSFontService,sans-serif" font-weight="400" font-size="64" transform="matrix(1 0 0 1 383.413 1505)">-</text><text fill="#FFFFFF" font-family="Aptos,Aptos_MSFontService,sans-serif" font-weight="400" font-size="64" transform="matrix(1 0 0 1 401.655 1505)">T</text><text fill="#FFFFFF" font-family="Aptos,Aptos_MSFontService,sans-serif" font-weight="400" font-size="60" transform="matrix(1 0 0 1 2626.45 1559)">t</text><text fill="#FFFFFF" font-family="Aptos,Aptos_MSFontService,sans-serif" font-weight="400" font-size="60" transform="matrix(1 0 0 1 2645.49 1559)">-</text><text fill="#FFFFFF" font-family="Aptos,Aptos_MSFontService,sans-serif" font-weight="400" font-size="60" transform="matrix(1 0 0 1 2665.68 1559)">SimCLR</text><text fill="#FFFFFF" font-family="Aptos,Aptos_MSFontService,sans-serif" font-weight="400" font-size="50" transform="matrix(1 0 0 1 2648.66 1622)">[Hu 2023]</text><text fill="#FFFFFF" font-family="Aptos,Aptos_MSFontService,sans-serif" font-weight="400" font-size="55" transform="matrix(1 0 0 1 3549.53 1738)">Supervised </text><text fill="#FFFFFF" font-family="Aptos,Aptos_MSFontService,sans-serif" font-weight="400" font-size="55" transform="matrix(1 0 0 1 3559.98 1804)">Clustering</text><text fill="#FFFFFF" font-family="Aptos,Aptos_MSFontService,sans-serif" font-weight="400" font-size="60" transform="matrix(1 0 0 1 2642.15 1737)">InfoNCE </text><text fill="#FFFFFF" font-family="Aptos,Aptos_MSFontService,sans-serif" font-weight="400" font-size="60" transform="matrix(1 0 0 1 2542.69 1808)">Clustering </text><text fill="#FFFFFF" font-family="Aptos,Aptos_MSFontService,sans-serif" font-weight="400" font-size="50" transform="matrix(1 0 0 1 2819.91 1805)">[Ours]</text><text fill="#FFFFFF" font-family="Aptos,Aptos_MSFontService,sans-serif" font-weight="400" font-size="60" transform="matrix(1 0 0 1 2241.42 1743)">DCD</text><text fill="#FFFFFF" font-family="Aptos,Aptos_MSFontService,sans-serif" font-weight="400" font-size="50" transform="matrix(1 0 0 1 2175.53 1806)">[Yang 2012]</text><g><text fill="#FFFFFF" font-family="Aptos,Aptos_MSFontService,sans-serif" font-weight="400" font-size="60" transform="matrix(1 0 0 1 1652.38 1743)">Normalized Cuts</text></g><text fill="#FFFFFF" font-family="Aptos,Aptos_MSFontService,sans-serif" font-weight="400" font-size="50" transform="matrix(1 0 0 1 1760.11 1806)">[Shi 2000]</text><text fill="#FFFFFF" font-family="Aptos,Aptos_MSFontService,sans-serif" font-weight="400" font-size="55" transform="matrix(1 0 0 1 1009.58 1771)">t K</text><text fill="#FFFFFF" font-family="Aptos,Aptos_MSFontService,sans-serif" font-weight="400" font-size="55" transform="matrix(1 0 0 1 1068.24 1771)">-</text><text fill="#FFFFFF" font-family="Aptos,Aptos_MSFontService,sans-serif" font-weight="400" font-size="55" transform="matrix(1 0 0 1 1087.15 1771)">Means</text><text fill="#FFFFFF" font-family="Aptos,Aptos_MSFontService,sans-serif" font-weight="400" font-size="60" transform="matrix(1 0 0 1 597.345 1743)">K</text><text fill="#FFFFFF" font-family="Aptos,Aptos_MSFontService,sans-serif" font-weight="400" font-size="60" transform="matrix(1 0 0 1 628.902 1743)">-</text><text fill="#FFFFFF" font-family="Aptos,Aptos_MSFontService,sans-serif" font-weight="400" font-size="60" transform="matrix(1 0 0 1 648.954 1743)">Means </text><text fill="#FFFFFF" font-family="Aptos,Aptos_MSFontService,sans-serif" font-weight="400" font-size="50" transform="matrix(1 0 0 1 520.025 1806)">[Macqueen 1967]</text><text fill="#FFFFFF" font-family="Aptos,Aptos_MSFontService,sans-serif" font-weight="400" font-size="64" transform="matrix(1 0 0 1 197.181 1736)">Cluster </text><g><text fill="#FFFFFF" font-family="Aptos,Aptos_MSFontService,sans-serif" font-weight="400" font-size="64" transform="matrix(1 0 0 1 125.108 1813)">Probabilities</text></g><rect x="2272" y="1885" width="53.0002" height="62.9999" fill="#8B65A4"/><text fill="#FFFFFF" font-family="Aptos,Aptos_MSFontService,sans-serif" font-weight="400" font-size="64" transform="matrix(1 0 0 1 2348.15 1931)">Multimodal SSL</text><text fill="#FFFFFF" font-family="Aptos,Aptos_MSFontService,sans-serif" font-weight="400" font-size="64" transform="matrix(1 0 0 1 1808.88 1926)">Unimodal SSL</text><rect x="1724" y="1884" width="52.9999" height="61.9999" fill="#BD6682"/><rect x="2859" y="1886" width="53" height="61.9999" fill="#6FAA68"/><text fill="#FFFFFF" font-family="Aptos,Aptos_MSFontService,sans-serif" font-weight="400" font-size="64" transform="matrix(1 0 0 1 2937.29 1931)">Supervised Learning</text><rect x="1088" y="1884" width="52.9999" height="61.9999" fill="#DB8F33"/><text fill="#FFFFFF" font-family="Aptos,Aptos_MSFontService,sans-serif" font-weight="400" font-size="64" transform="matrix(1 0 0 1 1166.23 1926)">Cluster Learning</text><rect x="221" y="1884" width="52.9999" height="61.9999" fill="#6589C0"/><text fill="#FFFFFF" font-family="Aptos,Aptos_MSFontService,sans-serif" font-weight="400" font-size="64" transform="matrix(1 0 0 1 300.819 1926)">Dimensionality Reduction</text><rect x="3579" y="1887" width="53" height="62.0002" fill="#595959"/><text fill="#FFFFFF" font-family="Aptos,Aptos_MSFontService,sans-serif" font-weight="400" font-size="64" transform="matrix(1 0 0 1 3668.75 1929)">Interpretation of Gaps</text></g></svg>