<?xml version="1.0" encoding="UTF-8" standalone="no"?>
<!-- Created with Inkscape (http://www.inkscape.org/) -->

<svg
   xmlns:dc="http://purl.org/dc/elements/1.1/"
   xmlns:cc="http://creativecommons.org/ns#"
   xmlns:rdf="http://www.w3.org/1999/02/22-rdf-syntax-ns#"
   xmlns:svg="http://www.w3.org/2000/svg"
   xmlns="http://www.w3.org/2000/svg"
   xmlns:sodipodi="http://sodipodi.sourceforge.net/DTD/sodipodi-0.dtd"
   xmlns:inkscape="http://www.inkscape.org/namespaces/inkscape"
   version="1.1"
   id="svg2"
   width="994.32361"
   height="160.45116"
   viewBox="0 0 994.32361 160.45116"
   sodipodi:docname="pureai.svg"
   inkscape:version="0.92.4 (5da689c313, 2019-01-14)">
  <metadata
     id="metadata8">
    <rdf:RDF>
      <cc:Work
         rdf:about="">
        <dc:format>image/svg+xml</dc:format>
        <dc:type
           rdf:resource="http://purl.org/dc/dcmitype/StillImage" />
        <dc:title></dc:title>
      </cc:Work>
    </rdf:RDF>
  </metadata>
  <defs
     id="defs6" />
  <sodipodi:namedview
     pagecolor="#ffffff"
     bordercolor="#666666"
     borderopacity="1"
     objecttolerance="10"
     gridtolerance="10"
     guidetolerance="10"
     inkscape:pageopacity="0"
     inkscape:pageshadow="2"
     inkscape:window-width="3440"
     inkscape:window-height="1346"
     id="namedview4"
     showgrid="false"
     inkscape:zoom="2.1163054"
     inkscape:cx="456.32298"
     inkscape:cy="38.122955"
     inkscape:window-x="-11"
     inkscape:window-y="-11"
     inkscape:window-maximized="1"
     inkscape:current-layer="svg2" />
  <path
     style="fill:#ffffff;fill-opacity:1"
     d="m 222.98486,159.90846 c -23.09998,-2.61101 -41.91816,-18.01333 -47.32797,-38.73706 -1.5237,-5.83696 -1.7245,-13.05531 -1.77562,-63.83119 l -0.0576,-57.25 h 5 5 v 54.36351 c 0,32.79553 0.40495,56.49881 1.02071,59.74567 1.42161,7.49616 6.0562,16.93407 10.89172,22.17999 13.41852,14.55737 42.0933,18.34269 62.11063,8.19914 5.79002,-2.93402 12.83501,-9.68362 16.32723,-15.64263 1.45625,-2.48491 3.54818,-8.03873 4.64872,-12.34181 1.88079,-7.3538 2.00099,-11.08815 2.00099,-62.16383 V 0.09021 h 5 5 v 56.45078 c 0,37.71439 -0.37042,58.20962 -1.11603,61.75 -1.88948,8.97175 -7.42174,18.99556 -14.2182,25.76173 -12.70457,12.64794 -31.2734,18.2555 -52.50453,15.85574 z M 0.28376122,156.84021 c -0.2624,-0.6875 -0.36078,-36.125 -0.21862,-78.75 l 0.25848,-77.5 L 27.323621,0.31282 c 15.72485,-0.16155 29.92319,0.17035 34,0.79478 17.78135,2.72352 31.65263,14.16016 36.65025,30.21753 3.453739,11.09691 2.030269,29.59376 -2.90036,37.68756 -4.61977,7.58353 -6.95981,10.382 -11.81054,14.12431 -5.26914,4.06511 -15.3875,8.20168 -22.68935,9.27582 l -3.75,0.55165 v -4.86974 c 0,-5.22165 -0.0835,-5.14353 7,-6.5503 8.90538,-1.7686 17.17085,-8.48688 21.38574,-17.38264 2.63875,-5.56922 3.16635,-7.97575 3.459,-15.77745 0.62794,-16.7406 -4.88226,-27.41036 -17.38701,-33.66761 -8.02781,-4.01703 -12.54826,-4.57615 -37.20773,-4.60207 l -23.25,-0.02445 v 74 74 H 5.7922412 c -3.104,0 -5.21414998,-0.47884 -5.50847998,-1.25 z M 372.53639,157.46964 c -0.39202,-0.39202 -0.71277,-35.96276 -0.71277,-79.0461 V 0.09021 h 26.42764 c 30.04624,0 39.7013,0.96075 47.54003,4.73056 20.09516,9.66422 27.95244,33.69876 18.91405,57.85602 -3.0618,8.18339 -10.47913,16.55644 -17.99266,20.31099 -3.41468,1.70634 -6.81163,3.10243 -7.54878,3.10243 -1.90358,0 -1.77846,0.39071 2.50612,7.82553 2.11552,3.67096 6.22736,11.17447 9.13743,16.67447 2.91007,5.5 9.72919,18.13627 15.1536,28.08059 5.42441,9.94433 9.86257,18.4033 9.86257,18.79772 0,0.39442 -2.75861,0.58315 -6.13024,0.41941 l -6.13024,-0.29772 -6.69601,-12.5 c -3.68281,-6.875 -11.4992,-21.49395 -17.36976,-32.48655 L 428.82362,92.61711 v -7.26345 c 0,-6.86557 0.12325,-7.26349 2.25,-7.26424 4.19428,-0.001 14.24306,-5.58903 18.05001,-10.0366 5.57435,-6.51237 7.94844,-13.73287 8.0433,-24.46261 0.0678,-7.66945 -0.30205,-9.8259 -2.50169,-14.58648 -3.27477,-7.08743 -8.63957,-12.46062 -15.75514,-15.77979 -5.47406,-2.55345 -6.09446,-2.61321 -30.83001,-2.96954 l -25.24352,-0.36365 -0.25648,73.84973 -0.25647,73.84973 -4.53723,0.2961 c -2.49548,0.16286 -4.85798,-0.0246 -5.25,-0.41667 z M 552.82362,79.1004 V 0.09021 h 43 43 v 5 5 h -38 -38 v 68.98866 68.98865 l 40.25,0.26135 40.25,0.26134 v 4.5 4.5 l -45.25,0.26019 -45.25,0.26019 z m 224.68955,78.23981 c -0.23567,-0.4125 1.77694,-6.6 4.47247,-13.75 2.69554,-7.15 6.93303,-18.4 9.41665,-25 2.48363,-6.6 6.12636,-16.275 8.09497,-21.5 1.9686,-5.225 10.87813,-29.075 19.79894,-53 l 16.21966,-43.5 5.49313,-0.29511 5.49312,-0.2951 6.23704,16.7951 c 3.43036,9.23731 7.53738,20.17011 9.1267,24.29511 8.82917,22.91569 42.95777,115.01412 42.95777,115.92459 0,0.63122 -2.1775,1.07541 -5.2718,1.07541 h -5.27181 l -9.8992,-26.25 c -8.83919,-23.43917 -16.20142,-43.10976 -27.22858,-72.75 -1.94388,-5.225 -6.30054,-17.25546 -9.68147,-26.73436 -3.38093,-9.4789 -6.39053,-17.2414 -6.68802,-17.25 -0.29748,-0.009 -1.35016,3.02186 -2.33929,6.73436 -0.98913,3.7125 -3.78955,11.925 -6.22316,18.25 -2.4336,6.325 -6.28966,16.45 -8.56901,22.5 -2.27935,6.05 -5.8166,15.36894 -7.86054,20.70876 -2.04394,5.33983 -3.4727,9.95233 -3.17502,10.25 0.29768,0.29768 6.98519,0.54124 14.86115,0.54124 h 14.31991 l 1.54476,3.69713 c 2.61837,6.26665 2.51879,6.30287 -17.32855,6.30287 h -17.8734 l -2.60407,6.75 c -1.43225,3.7125 -5.56899,14.85 -9.19277,24.75 -3.62378,9.9 -7.01339,19.0125 -7.53247,20.25 -0.79876,1.90427 -1.70629,2.25 -5.9062,2.25 -2.72934,0 -5.15525,-0.3375 -5.39091,-0.75 z m 206.79175,-0.44479 c -0.274,-0.71787 -0.3819,-36.18021 -0.2398,-78.80521 l 0.2585,-77.5 h 5 5 v 78.5 78.5 l -4.7602,0.30521 c -3.2266,0.20688 -4.9207,-0.11528 -5.2585,-1 z m -397.28609,-78.55521 0.30479,-4.75 h 19 19 l 0.30479,4.75 0.30479,4.75 h -19.60958 -19.60958 z"
     id="path830"
     inkscape:connector-curvature="0" />
</svg>
