<?xml version="1.0" encoding="UTF-8" standalone="no"?>
<!-- Created with Inkscape (http://www.inkscape.org/) -->

<svg
   xmlns:dc="http://purl.org/dc/elements/1.1/"
   xmlns:cc="http://creativecommons.org/ns#"
   xmlns:rdf="http://www.w3.org/1999/02/22-rdf-syntax-ns#"
   xmlns:svg="http://www.w3.org/2000/svg"
   xmlns="http://www.w3.org/2000/svg"
   xmlns:sodipodi="http://sodipodi.sourceforge.net/DTD/sodipodi-0.dtd"
   xmlns:inkscape="http://www.inkscape.org/namespaces/inkscape"
   version="1.1"
   id="svg2"
   width="680.36707"
   height="571.94214"
   viewBox="0 0 680.36707 571.94214"
   sodipodi:docname="SLT.svg"
   inkscape:version="0.92.4 (5da689c313, 2019-01-14)">
  <metadata
     id="metadata8">
    <rdf:RDF>
      <cc:Work
         rdf:about="">
        <dc:format>image/svg+xml</dc:format>
        <dc:type
           rdf:resource="http://purl.org/dc/dcmitype/StillImage" />
        <dc:title></dc:title>
      </cc:Work>
    </rdf:RDF>
  </metadata>
  <defs
     id="defs6" />
  <sodipodi:namedview
     pagecolor="#ffffff"
     bordercolor="#666666"
     borderopacity="1"
     objecttolerance="10"
     gridtolerance="10"
     guidetolerance="10"
     inkscape:pageopacity="0"
     inkscape:pageshadow="2"
     inkscape:window-width="3440"
     inkscape:window-height="1346"
     id="namedview4"
     showgrid="false"
     inkscape:zoom="1.2826087"
     inkscape:cx="217.90227"
     inkscape:cy="241.4603"
     inkscape:window-x="-11"
     inkscape:window-y="-11"
     inkscape:window-maximized="1"
     inkscape:current-layer="svg2" />
  <path
     style="fill:#fffff8;fill-opacity:1"
     d="m 63.353012,570.50892 c -5.21273,-0.75219 -8.85239,-0.86717 -9.43595,-0.29809 -0.5225,0.50953 -4.18264,0.92642 -8.13364,0.92642 -7.11281,0 -7.21929,-0.0395 -10.8,-4.00288 -4.10307,-4.54161 -4.51041,-7.10307 -1.59344,-10.02004 2.55044,-2.55044 5.97708,-1.13077 5.97708,2.47632 0,4.45932 0.99829,5.5466 5.09264,5.5466 2.13326,0 6.02262,-0.54237 8.64301,-1.20526 5.77536,-1.46102 15.26435,-7.39491 15.26435,-9.54549 0,-2.21353 4.61458,-11.68449 6.42528,-13.18724 0.83575,-0.69361 2.99446,-1.32882 4.79714,-1.41156 2.83162,-0.12998 3.31863,0.20298 3.57929,2.4471 0.37243,3.20642 6.83141,9.62201 10.13918,10.07107 1.80472,0.24501 2.66241,1.1907 3.29078,3.62841 0.46744,1.81337 1.50654,3.54902 2.30911,3.85699 0.80257,0.30798 1.459218,1.18681 1.459218,1.95297 0,0.96054 1.25276,1.39301 4.03518,1.39301 4.69981,0 8.96482,2.4244 8.96482,5.09596 0,2.43727 -4.17647,3.4878 -7.83741,1.97139 -2.12829,-0.88157 -3.8601,-0.87673 -7.230588,0.0202 -7.10077,1.88963 -17.0606,2.32238 -18.01223,0.78262 -0.62549,-1.01208 -1.68483,-1.07917 -4.62949,-0.29319 -2.70125,0.721 -6.3011,0.66093 -12.30433,-0.20533 z m 57.014048,-13.35813 c -0.825,-0.5406 -3.4125,-0.98981 -5.75,-0.99823 -2.3375,-0.008 -4.25,-0.41021 -4.25,-0.89287 0,-1.58972 2.94405,-3.35789 4.55908,-2.73814 0.97047,0.3724 3.09989,-0.64997 5.49471,-2.63813 3.09483,-2.56929 3.91392,-3.93755 3.92818,-6.56191 0.0319,-5.86838 4.03916,-11.12153 11.30426,-14.81887 4.20177,-2.13836 4.96496,-2.25705 6.25,-0.97202 0.80507,0.80507 1.46377,2.81461 1.46377,4.46564 0,2.92984 0.11398,2.99926 4.75,2.89268 2.6125,-0.0601 6.775,0.3187 9.25,0.84169 4.10392,0.86719 4.52758,1.235 4.81336,4.17875 0.18956,1.95262 0.86704,3.22787 1.71481,3.22787 0.77081,0 1.87327,0.88159 2.44993,1.95908 1.47692,2.75965 9.50348,6.12056 16.13473,6.75598 6.18305,0.59248 6.65846,0.26956 8.41368,-5.71506 0.83485,-2.84652 1.58108,-3.56352 3.99675,-3.84023 3.33149,-0.38162 4.43898,-1.60405 4.46143,-4.92447 0.0179,-2.64774 -5.11623,-6.2174 -8.98469,-6.24687 -1.375,-0.0105 -3.09204,-0.39448 -3.81565,-0.85333 -1.5961,-1.01212 -4.18435,-5.82496 -4.18435,-7.78079 0,-0.77939 -0.65141,-1.66705 -1.44757,-1.97256 -2.9068,-1.11545 -6.62591,-7.41194 -7.64994,-12.95141 -0.85319,-4.61531 -0.74935,-6.35582 0.57696,-9.67058 1.64867,-4.12043 1.34989,-8.45891 -0.82204,-11.93672 -0.79397,-1.27135 -0.75958,-2.65159 0.12716,-5.10382 0.66849,-1.84867 1.21543,-4.58089 1.21543,-6.0716 0,-1.49072 0.675,-2.96941 1.5,-3.28599 1.72371,-0.66145 2.01175,-5.88543 0.53821,-9.76113 -0.63492,-1.66996 -0.61502,-2.74401 0.0586,-3.1603 0.57666,-0.35639 0.73619,-1.9243 0.36688,-3.60576 -0.49283,-2.24382 -0.20353,-3.30415 1.17688,-4.31354 1.75854,-1.28587 1.73903,-1.50086 -0.49742,-5.48008 -2.01441,-3.58416 -2.23481,-4.9426 -1.63725,-10.09126 0.46733,-4.02693 1.13211,-5.94956 2.0571,-5.94956 1.97889,0 3.437,3.28634 3.437,7.74643 0,2.13285 0.9417,5.827 2.09266,8.20921 1.39382,2.88489 1.9034,5.36871 1.52593,7.43783 -0.3117,1.70859 -1.16915,7.47801 -1.90545,12.82093 -0.87558,6.35356 -1.94704,10.38658 -3.09705,11.65732 -1.60448,1.77293 -1.63164,2.3229 -0.31035,6.28561 1.4133,4.23869 1.09515,10.48531 -0.84927,16.67465 -0.71262,2.26834 -0.60861,2.31338 3.81145,1.65055 3.7947,-0.56905 5.0414,-0.31371 7.55995,1.54833 2.53769,1.8762 3.92726,2.15418 8.76346,1.75312 4.64426,-0.38513 6.18571,-0.98602 8.03014,-3.1303 2.29997,-2.67388 3.86239,-3.29783 4.73251,-1.88994 0.42081,0.68088 -2.06212,7.2463 -4.24935,11.23626 -0.93774,1.71062 -5.95124,2.93045 -14.48893,3.52529 -6.54412,0.45594 -7.38296,0.84339 -5.84669,2.70054 0.57971,0.7008 1.20634,2.62417 1.3925,4.27417 0.3236,2.86801 0.57177,3.01338 5.64062,3.30407 3.89346,0.22328 5.46436,0.75464 5.91273,2 0.33582,0.93276 1.43736,2.8904 2.44787,4.3503 1.0105,1.4599 1.83727,3.60351 1.83727,4.76357 0,2.10677 -0.26893,2.8066 -3.35721,8.73635 -0.90353,1.73486 -1.64279,3.78104 -1.64279,4.54705 0,0.76602 -1.77055,3.12166 -3.93456,5.23476 l -3.93456,3.842 -7.31544,-0.76518 c -8.37638,-0.87616 -12.52767,-0.95684 -33.31544,-0.64751 -8.25,0.12277 -16.8,0.10047 -19,-0.0495 -2.2,-0.15001 -5.35,0.0543 -7,0.45392 -1.65,0.39966 -3.675,0.28435 -4.5,-0.25625 z M 82.867062,537.13725 c -1.65,-0.41985 -7.275,-0.81938 -12.5,-0.88785 -6.26573,-0.0821 -10.47515,-0.63305 -12.36431,-1.61831 -1.57537,-0.82161 -4.76556,-1.49384 -7.08932,-1.49384 -3.5355,0 -4.73233,-0.5575 -7.33357,-3.41607 -1.7097,-1.87884 -4.03201,-3.70916 -5.16067,-4.06739 -1.12867,-0.35822 -2.05213,-1.0944 -2.05213,-1.63595 0,-0.54154 -1.33161,-1.44883 -2.95914,-2.01619 -1.62753,-0.56736 -3.23285,-1.89395 -3.56739,-2.94798 -0.33453,-1.05403 -1.46474,-1.91642 -2.51156,-1.91642 -2.07261,0 -6.96191,-8.97417 -6.96191,-12.7784 0,-1.15882 -1.28598,-3.00111 -2.89428,-4.14632 -2.00859,-1.43024 -3.07074,-3.21066 -3.47092,-5.81809 -0.31716,-2.06646 -1.05688,-6.68219 -1.64383,-10.25719 -2.086168,-12.70641 -2.304197,-22.31458 -0.598975,-26.39575 0.880435,-2.10718 2.473605,-4.01785 3.594635,-4.311 1.5586,-0.40759 2.01337,-1.35935 2.01337,-4.21371 0,-2.85802 0.74157,-4.40597 3.29761,-6.88337 1.81368,-1.75789 4.03336,-3.19617 4.93261,-3.19617 0.89925,0 1.92065,-0.9 2.26978,-2 0.70537,-2.22242 4.38256,-2.71744 6.25762,-0.84238 0.87682,0.87682 1.53035,0.84828 2.69425,-0.11768 0.84515,-0.70141 2.74579,-1.04415 4.22364,-0.76164 1.47785,0.28251 3.74264,0.0327 5.03287,-0.5552 1.71319,-0.78058 2.6622,-0.75252 3.51875,0.10403 0.64508,0.64508 2.21752,1.17287 3.49431,1.17287 1.50578,0 2.72166,0.8784 3.46051,2.5 0.6265,1.375 1.52074,2.5 1.98722,2.5 0.46648,0 2.71177,1.35 4.98953,3 2.27776,1.65 4.74886,3 5.49134,3 0.74248,0 1.34996,0.38326 1.34996,0.85169 0,0.46842 1.3259,2.23911 2.94644,3.93485 3.18208,3.32974 7.05356,10.23765 7.05356,12.58572 0,0.91464 -1.48025,1.70203 -4,2.12774 -3.69889,0.62492 -4,0.91827 -4,3.89677 0,1.77153 -0.5625,3.98674 -1.25,4.92269 -1.07778,1.46727 -1.69434,1.53357 -4.47517,0.48126 -2.52811,-0.95667 -3.94831,-0.95896 -6.571,-0.0106 -1.8402,0.66543 -4.60479,1.20987 -6.14352,1.20987 h -2.79769 l 2.78536,3.65179 c 3.0192,3.95838 3.66866,8.92992 1.36869,10.47723 -0.77917,0.52418 -3.08657,0.75477 -5.12755,0.51242 -4.44614,-0.52794 -6.47883,1.20131 -4.8937,4.16315 2.31934,4.33372 -2.46719,4.34281 -6.02716,0.0114 -2.34584,-2.85413 -3.13281,-3.17606 -7.24385,-2.96325 -3.43934,0.17803 -5.7167,-0.4086 -8.95612,-2.30702 -5.02792,-2.94651 -5.66829,-3.06998 -5.66829,-1.09283 0,0.79908 1.7774,2.88123 3.94978,4.627 2.80021,2.25031 3.94657,3.93754 3.93875,5.79713 -0.0228,5.41867 1.37559,9.24958 3.9833,10.91238 1.44549,0.92172 3.21619,2.47117 3.93487,3.44323 0.71869,0.97206 1.94464,1.76738 2.72432,1.76738 0.77969,0 2.11573,1.35 2.96898,3 0.96574,1.86754 2.33277,3 3.62139,3 2.21741,0 7.87861,2.96971 7.87861,4.1329 0,1.43464 8.99701,4.09417 12.20771,3.60862 1.81076,-0.27384 4.41729,0.0708 5.79229,0.76588 3.8446,1.94347 24.96202,-0.85671 26.87197,-3.56323 1.04496,-1.48077 2.55667,-1.94417 6.342268,-1.94417 3.45611,0 5.7449,-0.6093 7.51289,-2 1.39842,-1.1 3.13138,-2 3.85102,-2 1.9419,0 4.42185,-4.05068 4.42185,-7.22251 0,-2.52667 0.32788,-2.77749 3.63084,-2.77749 3.55558,0 3.61812,-0.0674 3.01706,-3.25 -1.32804,-7.032 -1.28746,-7.23386 1.51945,-7.55845 2.03918,-0.2358 3.15025,-1.33578 4.7179,-4.67081 1.1278,-2.3993 3.04124,-5.05627 4.25208,-5.90437 2.05492,-1.43933 2.1183,-1.81979 0.95173,-5.71346 -1.27867,-4.26779 -11.85692,-15.90291 -14.45839,-15.90291 -1.49509,0 -6.63067,-5.15729 -6.63067,-6.6587 0,-0.57709 -1.14862,-2.28864 -2.55249,-3.80344 -3.62246,-3.90869 -2.88828,-5.96813 2.2612,-6.34292 3.11188,-0.22648 4.35046,-0.80601 4.80877,-2.25 0.3886,-1.2244 1.51851,-1.94494 3.04991,-1.94494 1.33793,0 2.43261,-0.40186 2.43261,-0.89301 0,-2.23761 3.47414,-2.02691 5.96754,0.36191 1.45304,1.39211 3.19261,2.5311 3.8657,2.5311 2.49129,0 13.17716,6.08624 14.66043,8.35 1.63314,2.49248 5.90699,4.91601 6.90656,3.91644 0.32987,-0.32988 0.59977,-2.04663 0.59977,-3.81501 0,-2.41995 -1.11044,-4.41938 -4.48933,-8.08334 -3.46379,-3.75602 -4.49178,-5.64066 -4.5,-8.25001 -0.008,-2.57474 -0.86303,-4.1858 -3.58187,-6.75 -1.96416,-1.85245 -3.95884,-3.36808 -4.43261,-3.36808 -0.47378,0 -1.14706,-0.9 -1.49619,-2 -0.34913,-1.1 -1.44935,-2 -2.44494,-2 -0.9956,0 -2.35996,-0.66245 -3.03192,-1.47212 -0.97697,-1.17717 -0.90132,-1.79256 0.37755,-3.07143 2.05633,-2.05632 2.0365,-4.11241 -0.0509,-5.28059 -1.22086,-0.68322 -1.48957,-1.72684 -1.03276,-4.01091 0.33961,-1.69807 0.23595,-3.3232 -0.23036,-3.6114 -1.43943,-0.88961 -1.93399,-5.7945 -0.82884,-8.22005 0.57738,-1.26719 3.05027,-3.27241 5.49532,-4.45604 3.70763,-1.79483 5.00985,-1.97886 7.84522,-1.10866 1.9326,0.59314 3.63563,0.66163 3.94644,0.15872 0.83535,-1.35166 -3.69282,-6.92752 -5.62588,-6.92752 -1.76885,0 -2.91893,-1.92078 -2.91893,-4.87499 0,-1.0679 -1.22205,-2.07119 -3.25,-2.66821 -2.86537,-0.84357 -3.25,-1.37101 -3.25,-4.4568 0,-2.96748 0.49119,-3.72822 3.22836,-5 4.04054,-1.87737 4.11899,-3.24169 0.26994,-4.69454 -2.13881,-0.80731 -2.82518,-1.59304 -2.38763,-2.73327 0.52351,-1.36425 1.80393,-1.50101 8.68236,-0.92738 11.85582,0.98874 15.53387,2.32104 17.71846,6.41816 2.96185,5.55481 6.63944,14.10285 8.11579,18.86399 1.74376,5.62353 3.36236,6.14948 4.86965,1.58233 0.98116,-2.97292 0.90514,-4.29678 -0.43972,-7.65791 -1.59477,-3.98572 -1.29556,-5.503 1.54828,-7.85138 0.93866,-0.77512 1.74734,-10 0.87663,-10 -0.42471,0 -1.83193,-1.11723 -3.12716,-2.48272 -1.29523,-1.3655 -3.16039,-2.4905 -4.1448,-2.5 -3.50346,-0.0338 -9.78213,-4.13608 -12.69498,-8.29444 -1.62691,-2.32256 -3.62165,-4.91258 -4.43275,-5.75561 -0.81111,-0.84302 -1.94401,-3.31802 -2.51756,-5.5 -6.63402,-25.23785 -6.6424,-25.47029 -1.05555,-29.24601 7.43507,-5.02479 10.99068,-4.26745 10.99068,2.34101 0,3.78401 0.36368,4.72011 2,5.14802 1.47862,0.38667 2,1.36402 2,3.7491 0,3.89369 4.10502,12.04065 6.06693,12.04065 2.0297,0 2.33795,-3.14382 0.89713,-9.14981 -1.11116,-4.63183 -1.05755,-5.55857 0.45511,-7.86717 1.35805,-2.07265 1.46423,-2.91859 0.51055,-4.06771 -1.38405,-1.66767 -0.61152,-11.13351 1.0437,-12.78873 1.53017,-1.53017 1.24,-6.20456 -0.47342,-7.62658 -0.825,-0.68469 -1.5,-1.88709 -1.5,-2.67201 0,-1.91231 6.81369,-8.84964 7.75654,-7.89729 1.06442,1.07516 0.35939,18.85337 -0.79339,20.00615 -1.2865,1.2865 -1.22639,7.20277 0.0983,9.67804 0.74904,1.3996 0.74639,5.28031 -0.009,13.18426 -1.90961,19.98093 -1.64347,26.51005 1.30703,32.06407 1.42093,2.67477 3.09801,5.48314 3.72684,6.24084 1.21605,1.46525 1.01866,3.10965 -1.60804,13.39594 -0.98159,3.84396 -1.46513,8.54311 -1.18335,11.5 0.74539,7.82179 -2.18977,12.07393 -7.44852,10.79057 -3.54852,-0.86599 -5.84641,-3.30319 -5.84641,-6.20088 0,-1.43018 -1.65471,-5.20763 -3.67714,-8.39434 -3.10429,-4.89137 -4.07796,-5.74738 -6.25,-5.49468 -2.04966,0.23846 -2.54105,0.80771 -2.41643,2.79933 0.23473,3.75149 1.94145,9.63842 3.23461,11.15702 0.62898,0.73864 2.16262,2.91798 3.40808,4.84298 1.80279,2.78641 8.27081,7.41109 12.90232,9.22525 0.3858,0.15111 1.00915,3.29962 1.38522,6.99668 0.58247,5.72598 0.34902,7.50395 -1.57559,12 -3.46581,8.09639 -5.70267,10.77807 -8.99027,10.77807 -4.34467,0 -8.27384,-5.13427 -7.41847,-9.69377 0.55945,-2.98211 0.24103,-3.86998 -2.22472,-6.20339 -1.58268,-1.49775 -3.35545,-3.56248 -3.93947,-4.5883 -0.61692,-1.0836 -1.55972,-1.55743 -2.25,-1.13082 -2.58953,1.60042 -0.36031,11.10947 2.84272,12.12607 1.40493,0.44591 1.93821,1.74831 2.16642,5.29086 0.24216,3.75931 0.65278,4.67157 2.05272,4.56046 1.31203,-0.10413 1.75,0.61909 1.75,2.88976 0,3.09699 1.68111,5.05862 5.8124,6.78229 2.2552,0.94092 2.3014,1.23077 1.86761,11.71581 -0.68684,16.6013 -1.97347,20.14044 -7.35055,20.21923 -1.65275,0.0242 -2.33307,-0.74352 -2.85182,-3.2182 -0.37471,-1.7875 -2.26027,-4.89498 -4.19014,-6.9055 -1.92987,-2.01053 -4.03281,-4.71053 -4.67321,-6 -1.23086,-2.47842 -5.18761,-3.67118 -6.80686,-2.05193 -0.61587,0.61587 0.1451,2.22271 2.11533,4.46668 1.69248,1.92763 3.07724,3.90204 3.07724,4.38757 0,0.48554 0.8318,2.45113 1.84845,4.36799 1.01664,1.91685 2.13173,6.63519 2.47796,10.48519 l 0.62952,7 -6.34072,7 c -3.4874,3.85 -7.63999,8.4685 -9.22797,10.26334 -1.58798,1.79483 -4.12474,4.45672 -5.63724,5.91529 -1.5125,1.45858 -2.75,3.46136 -2.75,4.45062 0,1.97536 -6.49062,6.87075 -9.10969,6.87075 -0.90498,0 -2.20562,0.675 -2.89031,1.5 -0.68469,0.825 -2.42729,1.50614 -3.87244,1.51365 -4.18633,0.0218 -7.12756,1.10474 -7.12756,2.62442 0,0.77264 -1.2375,1.89588 -2.749998,2.49608 -1.5125,0.6002 -3.94443,1.71555 -5.40429,2.47856 -2.85525,1.49232 -5.59931,1.59504 -10.34571,0.38729 z m 85.107948,-110.75 c 2.14001,-2.81911 1.60452,-5.67226 -1.64975,-8.79005 -1.72742,-1.65497 -2.95092,-3.78832 -2.83147,-4.93709 0.45881,-4.41261 -6.1387,-11.91089 -8.44808,-9.60151 -0.78073,0.78073 -0.18604,2.78849 2.1179,7.1503 1.7619,3.33562 3.20345,6.63932 3.20345,7.34157 0,0.70224 0.9,2.09129 2,3.08678 1.10722,1.00202 2,3.07997 2,4.65499 0,3.2123 1.62607,3.70582 3.60795,1.09501 z m -0.60795,-76.429 c 0,-3.28773 -2.2447,-8.821 -3.57844,-8.821 -2.00347,0 -3.37501,-2.48156 -4.42156,-8 -1.08946,-5.74473 -2.77363,-8.62637 -4.20507,-7.19493 -0.4933,0.4933 -0.58072,4.98445 -0.19618,10.07838 0.66557,8.81662 0.81929,9.27616 3.79745,11.35238 1.70709,1.1901 3.46366,2.74889 3.90349,3.46399 1.35638,2.20527 4.70031,1.58005 4.70031,-0.87882 z m 227.26721,164.103 c -9.21531,-1.77181 -15.98842,-7.17664 -18.35461,-14.64667 -0.70791,-2.23485 -1.38143,-12.81639 -1.64938,-25.91289 l -0.45288,-22.13556 -3.90472,-1.53382 c -2.8559,-1.12183 -3.74181,-1.95838 -3.29818,-3.11444 0.50775,-1.32317 2.62509,-1.58062 12.99955,-1.58062 11.28652,0 12.39301,0.16138 12.39301,1.80755 0,1.14801 -1.45952,2.45149 -4,3.57235 l -4,1.7648 v 20.71576 c 0,19.49669 0.13241,20.97786 2.25,25.16958 3.34592,6.62317 7.51365,8.96996 15.93,8.96996 9.80042,0 13.13593,-1.65165 15.44549,-7.64817 1.61116,-4.18319 1.86909,-7.74589 1.8716,-25.85183 l 0.003,-21 -4.23371,-2 c -2.55821,-1.2085 -4.1358,-2.59363 -3.98631,-3.5 0.20307,-1.23117 2.29103,-1.5 11.65038,-1.5 12.54546,0 14.9419,1.16267 8.61503,4.17974 -1.98424,0.94623 -3.80798,2.64287 -4.05275,3.77033 -0.24476,1.12746 -0.56824,11.73863 -0.71883,23.58038 -0.26381,20.74376 -0.36571,21.71203 -2.78894,26.5 -2.07959,4.10898 -3.46493,5.42996 -8,7.6283 -6.07093,2.94284 -14.92831,4.07062 -21.71766,2.76525 z m 61.94976,-0.0378 c -5.96533,-0.99279 -11.83102,-3.69371 -14.54916,-6.69933 -1.78905,-1.97827 -1.74847,-2.15683 1.72391,-7.58503 4.32528,-6.76151 6.27148,-6.62147 7.21875,0.51943 0.35923,2.708 1.04505,5.16585 1.52404,5.46188 2.58617,1.59834 11.66844,2.09553 16.30577,0.89262 5.97917,-1.55098 8.55972,-4.38468 8.55972,-9.39944 0,-5.91539 -3.99288,-8.97087 -19.56372,-14.97081 -4.5089,-1.73741 -9.19477,-4.31914 -10.62938,-5.85635 -5.60104,-6.00164 -6.22513,-17.21213 -1.31647,-23.64772 4.14549,-5.43501 11.21282,-7.9203 21.05389,-7.40377 6.60319,0.34658 9.03083,0.94935 12.85915,3.1929 2.59559,1.52112 4.94776,3.36115 5.22705,4.08897 0.53904,1.40469 -6.21255,11.52045 -7.68914,11.52045 -1.46464,0 -2.94138,-3.6787 -2.94138,-7.32727 0,-4.14378 -1.03168,-4.67273 -9.11391,-4.67273 -10.99011,0 -14.97954,3.35785 -13.48084,11.34664 0.85146,4.53867 3.75755,6.8838 12.59475,10.16361 9.94746,3.69186 15.09709,6.32439 17.37684,8.88318 5.25649,5.89988 6.33851,17.61794 2.19046,23.72234 -4.28033,6.29908 -16.06813,9.64807 -27.35033,7.77041 z M 261.98929,512.5952 c -0.42859,-1.11688 0.64481,-2.07212 3.89301,-3.46446 l 4.48476,-1.92242 v -28.03553 -28.03554 h -6.82906 -6.82907 l -2.35923,5.03706 c -1.55791,3.32621 -2.88967,4.93491 -3.92094,4.73631 -1.24975,-0.24068 -1.5617,-1.79617 -1.5617,-7.78707 v -7.4863 h 26.5 26.5 v 7.5 c 0,6.39383 -0.25087,7.5 -1.70097,7.5 -0.99738,0 -2.68357,-1.86139 -4.07644,-4.5 l -2.37547,-4.5 -6.67356,-0.29569 -6.67356,-0.29569 v 28.38563 28.38563 l 4,1.32012 c 2.73902,0.90396 4,1.90015 4,3.16006 0,1.69145 -1.04053,1.83994 -12.89301,1.83994 -10.6943,0 -12.99393,-0.26298 -13.48476,-1.54207 z m 46.04444,0.8754 c -1.41527,-1.41526 -0.55865,-3.14363 1.85877,-3.75036 1.38899,-0.34861 3.38603,-1.49444 4.43787,-2.54628 1.78097,-1.78097 1.91677,-3.68694 1.97537,-27.72457 0.0346,-14.19666 -0.27494,-26.3112 -0.68788,-26.92119 -0.41294,-0.60999 -2.45287,-1.71816 -4.53318,-2.4626 -2.45801,-0.8796 -3.67802,-1.89183 -3.48433,-2.89093 0.48077,-2.47983 33.46877,-2.23108 40.03391,0.30188 7.23773,2.79245 10.13574,7.22309 10.50967,16.0678 0.45077,10.66199 -2.29096,14.46527 -14.59105,20.24044 -0.55928,0.26259 6.99273,14.72851 9.905,18.97309 1.7599,2.56502 4.56814,4.93894 7.43877,6.28829 6.20637,2.91734 5.33454,4.52251 -2.65166,4.88206 -6.23839,0.28086 -6.58661,0.16703 -10.03346,-3.27982 -1.96393,-1.96393 -6.1115,-8.4608 -9.21682,-14.4375 -3.10533,-5.9767 -6.2073,-11.0821 -6.89328,-11.34533 -0.68597,-0.26323 -2.36933,-0.42229 -3.7408,-0.35346 -2.48571,0.12476 -2.49446,0.16075 -2.77671,11.41672 l -0.28314,11.29157 4.49096,1.98657 c 3.12854,1.3839 4.31961,2.43308 3.92615,3.45843 -0.45464,1.18474 -2.94965,1.47184 -12.79115,1.47184 -6.72449,0 -12.52635,-0.3 -12.89301,-0.66667 z m 32.83333,-35.8776 c 6.58771,-1.02635 9.41789,-10.63631 5.60489,-19.03161 -2.44494,-5.38319 -7.06806,-7.63049 -14.86081,-7.22387 l -5.74408,0.29973 -0.27702,13.56576 -0.27702,13.56577 6.27702,-0.3542 c 3.45236,-0.1948 7.62702,-0.56452 9.27702,-0.82158 z m 165.16667,35.87758 c -1.39022,-1.39022 -0.52837,-2.38809 3.83333,-4.43833 l 4.5,-2.11525 v -27.88988 -27.88987 h -6.50924 -6.50925 l -3.10448,5.04543 c -1.70746,2.77498 -3.6158,4.87498 -4.24075,4.66666 -0.71219,-0.23739 -1.13628,-3.14687 -1.13628,-7.79542 v -7.41667 l 26.25,-0.2666 26.25,-0.26661 v 8.01661 c 0,9.73468 -1.63991,10.63413 -5.5,3.0166 l -2.53369,-5 h -6.00791 c -5.5708,0 -6.08081,0.19176 -7.01001,2.63573 -0.58308,1.53362 -0.96519,13.24293 -0.91383,28.00299 l 0.0883,25.36724 4.43859,2.02202 c 2.44122,1.1121 4.43859,2.68576 4.43859,3.49701 0,1.22339 -2.18924,1.47501 -12.83333,1.47501 -7.05834,0 -13.13334,-0.3 -13.5,-0.66667 z M 106.07591,492.51277 c -0.38987,-0.38987 -0.71182,-2.99635 -0.71544,-5.79219 -0.004,-3.38995 -0.66845,-6.0827 -1.99341,-8.08333 -1.09275,-1.65 -1.98979,-3.74157 -1.99341,-4.64793 -0.004,-0.90636 -1.12617,-3.60636 -2.494538,-6 l -2.48796,-4.35207 -0.012,4.05887 c -0.0265,8.91665 -5.37075,9.52108 -7.91759,0.89547 -1.16315,-3.93935 -1.18286,-5.60197 -0.11669,-9.84698 1.95996,-7.80368 2.68667,-8.76965 6.33129,-8.41576 2.91663,0.2832 3.57383,1.0847 8.042568,9.8084 2.67651,5.225 4.54542,8.375 4.15311,7 -0.3923,-1.375 -0.94506,-4.00084 -1.22836,-5.83519 -0.46948,-3.03989 -0.30826,-3.30551 1.82085,-3 3.49475,0.50147 6.55217,7.99788 7.58424,18.59559 0.46967,4.82275 0.26175,6.65988 -0.90541,8 -0.83329,0.95678 -1.94655,3.0896 -2.4739,4.7396 -0.91959,2.87728 -4.00523,4.4636 -5.59331,2.87552 z m 90.97782,-15.12243 c -0.40159,-3.89102 -0.17797,-6.39377 0.69245,-7.75 0.93724,-1.46034 1.16282,-5.30295 0.83252,-14.18164 -0.44089,-11.85166 -0.53034,-12.2526 -3.33235,-14.93709 -3.17674,-3.04352 -3.73374,-6.83357 -1.46105,-9.94166 0.78003,-1.06675 1.59012,-1.71526 1.8002,-1.44113 0.21009,0.27414 1.61184,2.01323 3.115,3.86466 2.54944,3.14009 2.73492,4.01339 2.76108,13 0.0154,5.29857 0.0608,12.10877 0.10086,15.13377 0.0401,3.025 -0.17997,8.2 -0.48892,11.5 -0.30896,3.3 -0.5943,7.0125 -0.6341,8.25 -0.0398,1.2375 -0.6844,2.25 -1.43246,2.25 -0.92021,0 -1.55193,-1.85867 -1.95323,-5.74691 z M 62.377632,437.64998 c -0.67888,-0.81799 -0.95402,-2.05549 -0.61143,-2.75 2.28754,-4.63737 4.54665,-7.30606 6.41761,-7.58113 2.62541,-0.38599 5.18325,-3.79546 5.18325,-6.90901 0,-1.25532 1.11674,-4.59728 2.48163,-7.42658 1.56575,-3.24563 2.26267,-6.01661 1.88834,-7.50808 -0.32728,-1.30397 -0.0283,-3.04467 0.66675,-3.88217 1.02553,-1.23569 0.9749,-1.74511 -0.27203,-2.73702 -2.13426,-1.69776 -3.10407,-13.18239 -1.49625,-17.71874 0.68228,-1.925 2.70099,-5.60608 4.48603,-8.18018 1.78504,-2.57409 3.24553,-5.8043 3.24553,-7.17824 0,-1.44152 2.95665,-6.86365 6.99057,-12.81983 3.84481,-5.67696 6.99481,-10.88425 7,-11.57175 0.005,-0.6875 -0.80456,-1.25 -1.79944,-1.25 -0.99488,0 -2.48306,0.5625 -3.30706,1.25 -1.77652,1.48221 -6.73524,7.90864 -8.96544,11.61905 -1.00599,1.67368 -2.45648,2.63095 -3.98653,2.63095 -4.42396,0 -5.25549,-3.89247 -5.66101,-26.5 -0.33888,-18.89225 -0.72209,-30.40355 -1.7144,-51.5 -0.20697,-4.4 -0.87991,-11.6 -1.49544,-16 -0.61552,-4.4 -1.21861,-9.575 -1.34019,-11.5 -0.17596,-2.78591 -0.68012,-3.5652 -2.47106,-3.81955 -1.2375,-0.17575 -2.27393,-0.40075 -2.30319,-0.5 -0.0292,-0.0992 -0.28661,-4.60718 -0.57191,-10.01762 -0.48125,-9.12641 -0.38709,-9.81219 1.30318,-9.49138 1.35877,0.2579 1.90009,1.424 2.12942,4.58718 0.24188,3.33632 0.69917,4.24137 2.14301,4.24137 1.00953,0 2.09453,0.675 2.41112,1.5 1.03437,2.69553 3.0931,1.59169 7.46027,-4 4.39372,-5.62569 7.65435,-7.02846 8.88467,-3.82229 0.43338,1.12938 -0.14882,2.19157 -1.78139,3.25 -3.86023,2.50266 -12.92518,12.10836 -12.92518,13.6962 0,0.79555 0.74854,2.58887 1.66342,3.98516 1.46,2.22823 2.17867,7.40652 2.3008,16.57806 0.0334,2.50803 0.26906,2.64927 3.53578,2.11916 3.21687,-0.52203 3.5,-0.36606 3.5,1.92801 0,1.37279 -0.836,3.56917 -1.85778,4.88084 -1.46373,1.87903 -1.96673,4.73403 -2.3715,13.4605 -0.28254,6.0916 -1.04531,12.06892 -1.69504,13.28294 -0.90735,1.69542 -0.90806,2.96298 -0.003,5.46579 0.83611,2.31222 0.89379,4.59243 0.19861,7.85188 -0.66291,3.1082 -0.64216,5.19647 0.0642,6.45858 0.57412,1.02584 1.07102,5.69017 1.10421,10.36517 0.0671,9.44852 0.98668,12.29166 3.01557,9.32344 0.68552,-1.00289 1.5372,-3.02146 1.89263,-4.48572 0.47771,-1.96802 2.4026,-3.64449 7.38143,-6.42881 5.7574,-3.21972 7.851528,-3.83117 14.424528,-4.21167 6.64994,-0.38496 8.08925,-0.16036 10.64789,1.66155 3.7682,2.68319 4.44554,6.23341 2.07599,10.88114 -2.09493,4.10907 -1.38172,5.21829 3.37232,5.24476 1.99779,0.0111 2.75,0.51846 2.75,1.85479 0,2.35078 -3.96814,4.16052 -9.12258,4.16052 -5.55407,0 -16.10175,6.31254 -22.981808,13.75408 -4.8836,5.28213 -13.58413,19.89073 -12.49507,20.97979 0.24419,0.24419 2.16465,-1.50853 4.26768,-3.89494 7.90855,-8.9742 16.818578,-16.78842 19.171588,-16.81375 3.44642,-0.0371 7.93828,4.70187 8.69345,9.17169 0.74176,4.39044 -2.41086,12.13207 -5.64551,13.8632 -2.24559,1.20181 -2.6755,0.43257 -3.10276,-5.55175 -0.44996,-6.30236 -3.17048,-5.9822 -9.527688,1.12127 -2.88953,3.22872 -5.2545,6.20791 -5.25549,6.62041 -0.001,0.4125 0.9146,1.66641 2.03466,2.78647 2.67682,2.67682 1.86648,3.70558 -3.55978,4.5193 -3.48297,0.5223 -4.47669,1.09007 -4.47669,2.55777 0,1.03755 0.3375,1.89335 0.75,1.90177 0.4125,0.008 1.36171,0.40289 2.10935,0.8766 1.13147,0.7169 1.14123,1.4645 0.0582,4.45956 -0.71563,1.97904 -0.99899,3.90043 -0.62968,4.26974 0.88918,0.88917 8.65661,-4.21135 11.30223,-7.42168 3.127808,-3.79543 5.857318,-2.39902 5.059768,2.58858 -0.5104,3.19187 -0.15469,4.27636 2.37251,7.23336 4.56946,5.34658 3.63703,11.0256 -2.02238,12.31739 -6.054878,1.38206 -15.832138,3.95058 -19.594918,5.14767 -2.29283,0.72944 -6.14353,1.07185 -8.75,0.77806 -4.60039,-0.51852 -4.65514,-0.49023 -4.65514,2.40536 0,1.61153 -0.54,3.47005 -1.2,4.13005 -1.65786,1.65786 -5.30313,1.50362 -6.78943,-0.28727 z m 22.23943,-14.56531 c 2.69775,-0.7492 3.75,-1.58944 3.75,-2.99442 0,-2.73218 -4.68531,-2.59726 -7.68555,0.22131 -4.05837,3.81265 -2.85667,4.6594 3.93555,2.77311 z m -55.81598,0.55258 c 0.51114,-2.72462 0.32733,-3.5 -0.82969,-3.5 -2.05106,0 -3.06445,-1.93988 -1.7172,-3.28713 1.43316,-1.43316 1.45349,-7.71287 0.025,-7.71287 -0.71352,0 -0.85744,-1.36403 -0.41823,-3.96369 0.57723,-3.41664 0.31334,-4.32001 -1.91211,-6.54546 -3.03642,-3.03642 -3.21105,-4.30793 -0.83176,-6.05636 1.66667,-1.22475 1.66667,-1.42783 0,-4.26453 -0.9625,-1.6382 -1.75,-3.55511 -1.75,-4.2598 0,-0.70469 -0.94421,-2.28633 -2.09825,-3.51474 -2.99338,-3.18631 -3.03067,-16.55164 -0.0551,-19.75851 1.09339,-1.17839 2.30356,-4.37968 2.69793,-7.13691 0.39334,-2.75 1.33173,-6.21515 2.08531,-7.70034 1.82472,-3.59622 1.75609,-8.43758 -0.12985,-9.16129 -0.825,-0.31658 -1.5,-1.48972 -1.5,-2.60699 -7e-5,-1.40539 -0.65578,-2.03138 -2.12788,-2.03138 -1.91172,0 -2.06475,-0.39436 -1.50685,-3.88324 0.45009,-2.81473 0.2101,-4.22422 -0.87219,-5.12245 -1.01047,-0.83861 -1.49315,-3.11612 -1.49315,-7.04533 0,-3.82766 -0.51113,-6.31725 -1.5,-7.30612 -1.77412,-1.77412 -1.90963,-4.00894 -0.4127,-6.80598 0.85206,-1.5921 0.64697,-2.93007 -0.94798,-6.18426 -3.12507,-6.37615 -5.2472474,-14.37442 -4.5505114,-17.15044 0.345404,-1.3762 0.916723,-2.49702 1.2695994,-2.49071 1.078337,0.0193 4.140062,7.36014 3.957472,9.48853 -0.24423,2.84698 2.13796,9.5 3.40157,9.5 0.68953,0 0.86363,1.92548 0.4961,5.4865 -0.31144,3.01757 -0.1494,5.74413 0.3601,6.05902 0.50949,0.31488 0.92635,2.34596 0.92635,4.5135 0,2.16754 0.4345,3.94098 0.96556,3.94098 0.53105,0 1.26537,2.2601 1.63181,5.02244 0.36643,2.76235 1.00208,5.23001 1.41255,5.48369 0.41047,0.25368 2.57961,-0.54296 4.82032,-1.77032 3.35612,-1.83833 4.30272,-2.00069 5.37189,-0.9214 1.06487,1.07495 0.98268,1.48799 -0.45787,2.30077 -0.96565,0.54484 -2.99065,2.0931 -4.5,3.44057 -2.59349,2.31534 -2.64173,2.51102 -0.87807,3.56181 1.62727,0.96952 1.77845,1.88732 1.18089,7.16912 -0.37692,3.33149 -1.6667,7.76808 -2.86619,9.8591 -1.83504,3.19893 -1.98266,4.121 -0.93089,5.81446 1.69833,2.73447 1.57354,4.34261 -0.5552,7.1549 -2.49573,3.29713 -2.54565,7.27681 -0.15018,11.97233 1.11706,2.18962 1.73854,4.45437 1.38106,5.03279 -0.35748,0.57841 0.57206,3.29692 2.06564,6.04112 l 2.7156,4.98946 -2.27407,2.42064 c -2.19326,2.33461 -2.03113,3.92595 0.40048,3.93089 0.75303,0.002 1.22155,2.3061 1.32145,6.5 0.0851,3.5737 0.87256,10.09763 1.74983,14.49763 2.00688,10.06558 2.06736,9.5 -1.0159,9.5 -2.44273,0 -2.56891,-0.22592 -1.95469,-3.5 z m 166.576568,0.25 c 0.022,-4.67316 4.08845,-27.64113 6.59507,-37.25 3.76654,-14.43866 4.04443,-19.30539 1.3985,-24.49185 -1.55237,-3.0429 -1.85988,-4.55243 -1.08518,-5.32713 1.49051,-1.49051 1.3564,-3.29844 -0.54134,-7.29763 -2.22261,-4.68381 -1.47539,-13.033 1.54617,-17.27639 2.29175,-3.21847 4.00779,-9.5496 6.12755,-22.607 1.50268,-9.25623 1.6206,-9.56311 3.41079,-8.87615 1.67849,0.64409 2.21732,7.83818 0.6592,8.80115 -0.48326,0.29867 -1.07546,3.26386 -1.316,6.58931 -0.26515,3.66555 -1.05741,6.66632 -2.01211,7.62102 -1.12889,1.12889 -1.4225,2.70982 -1.03703,5.58374 0.5022,3.7442 0.39591,3.96399 -1.60925,3.32757 -1.79634,-0.57013 -2.14696,-0.28213 -2.14696,1.76353 0,1.34472 -0.675,3.00514 -1.5,3.68983 -1.89842,1.57555 -1.90826,4.30983 -0.0286,7.94469 0.80926,1.56495 1.76659,4.8051 2.12738,7.20034 0.3608,2.39523 1.49867,5.75809 2.52861,7.473 1.41677,2.35904 1.87261,5.07726 1.87261,11.16667 0,4.42675 -0.37462,8.19863 -0.8325,8.38197 -1.66403,0.66628 -6.1675,12.16987 -6.1675,15.75417 0,2.02354 -0.42484,4.10666 -0.94408,4.62916 -1.28537,1.29342 -4.09339,20.59072 -3.38848,23.2863 0.44848,1.71499 0.12687,2.1637 -1.55081,2.1637 -1.5315,0 -2.1137,-0.622 -2.10604,-2.25 z m 55.67344,-14.39931 c -1.3046,-1.3046 -0.6702,-2.39946 2.06597,-3.56549 6.51345,-2.77573 6.25,-1.47004 6.25,-30.97572 v -26.88055 l -4.58328,-1.96463 c -7.73907,-3.31735 -5.40544,-4.4643 9.08328,-4.4643 14.21032,0 16.38522,0.98742 9.69389,4.40109 -2.27001,1.15807 -4.1973,2.98031 -4.55178,4.3037 -0.33814,1.26237 -0.62095,13.62471 -0.62846,27.47189 -0.0121,22.39203 0.16513,25.21243 1.60277,25.5 0.88904,0.17782 6.06256,0.18097 11.49673,0.007 l 9.8803,-0.31635 2.62727,-4.4831 c 4.02496,-6.86807 5.87928,-5.72333 5.87928,3.62949 v 7.4863 l -24.06597,0.26736 c -13.23629,0.14705 -24.37379,-0.0405 -24.75,-0.41667 z m 53.98264,-0.0174 c -1.36019,-1.36019 -0.57049,-2.41016 3.08333,-4.09951 2.0625,-0.9536 4.08061,-2.18382 4.48469,-2.73382 0.40408,-0.55 0.74158,-13.05349 0.75,-27.78554 l 0.0153,-26.78549 -4.58328,-1.96463 c -8.83174,-3.78572 -5.7664,-4.4643 20.16661,-4.4643 h 23.91667 l 0.29998,6.33731 c 0.27914,5.89686 -0.72863,9.16269 -2.8274,9.16269 -0.4304,0 -1.93048,-1.95882 -3.33353,-4.35294 -2.47751,-4.22755 -2.72933,-4.37158 -8.74171,-5 -11.66931,-1.21969 -13.83496,-0.94132 -14.92209,1.91804 -0.53639,1.4108 -0.97525,7.10202 -0.97525,12.64714 v 10.08204 l 11.99926,-0.55284 c 6.59959,-0.30407 12.22259,-0.1915 12.49554,0.25015 0.27296,0.44165 0.23734,2.0977 -0.0791,3.68012 l -0.57543,2.87713 -11.67011,-0.0244 -11.67016,-0.0244 -0.28318,11.91682 c -0.15575,6.55425 0.0693,12.19968 0.5,12.54539 0.43075,0.34572 5.53867,0.45704 11.35093,0.2474 l 10.56775,-0.38118 2.4258,-4.44064 c 3.67373,-6.72508 5.37418,-5.57586 5.73076,3.87305 l 0.29207,7.73916 h -23.8754 c -13.13147,0 -24.1754,-0.3 -24.54206,-0.66667 z m 76.33333,-1.15693 c -6.28418,-2.34101 -13.98851,-10.38501 -16.5,-17.22746 -1.52268,-4.14846 -1.98784,-7.83551 -1.94906,-15.4489 0.0447,-8.78222 0.39611,-10.7608 2.88543,-16.24748 3.04402,-6.70928 9.45499,-13.48528 14.87402,-15.72092 19.24897,-7.94121 38.2783,-0.3289 44.26959,17.70919 2.54935,7.67538 2.2561,21.63362 -0.61346,29.2001 -2.97676,7.84915 -9.62898,14.54083 -17.31314,17.41584 -7.10697,2.65906 -18.97648,2.80695 -25.65338,0.31963 z m 25.02765,-6.8041 c 3.21523,-1.28648 4.62286,-2.70163 6.71411,-6.75 3.48939,-6.75494 4.43055,-22.57669 1.81196,-30.46053 -4.01648,-12.09248 -10.94357,-16.83187 -23.30841,-15.94717 -3.71869,0.26607 -8.11251,1.18253 -9.76404,2.03657 -4.42088,2.28612 -7.21635,8.08796 -8.32639,17.28094 -2.01507,16.68811 2.52612,29.14854 12.22903,33.55481 5.19569,2.35946 15.11731,2.49662 20.64374,0.28538 z m 27.63902,7.96107 c -1.3953,-1.39529 -0.52379,-2.42874 3.83333,-4.54559 l 4.5,-2.18627 v -27.64068 -27.64067 l -4.05013,-1.33666 c -4.52915,-1.49476 -5.14122,-2.05581 -4.09301,-3.75186 0.49645,-0.80326 5.75452,-1.23784 16.68402,-1.37894 21.35641,-0.27571 27.61049,1.73801 32.04785,10.31892 2.47646,4.78895 1.63496,17.32888 -1.43902,21.4442 -4.08908,5.47429 -9.28443,7.61765 -19.79756,8.16756 l -9.35215,0.48918 v 10.73041 10.73042 l 4.99127,2.07428 c 3.69493,1.53554 4.83589,2.4792 4.39301,3.63332 -0.50013,1.30333 -2.76771,1.55905 -13.8246,1.55905 -7.27449,0 -13.52635,-0.3 -13.89301,-0.66667 z m 35.47306,-36.31086 c 3.44771,-1.62348 4.86113,-4.91786 4.85653,-11.31952 -0.007,-9.82679 -5.29567,-14.70295 -15.9466,-14.70295 h -6.04966 v 14.13151 14.1315 l 7.25,-0.49876 c 3.9875,-0.27432 8.43788,-1.05812 9.88973,-1.74178 z m 12.55697,36.3409 c -1.37357,-1.37357 -0.63631,-2.35353 3.26986,-4.34631 4.27915,-2.18306 4.98776,-3.14665 7.36644,-10.01706 0.85689,-2.475 3.42703,-9.675 5.71142,-16 2.28439,-6.325 5.96527,-16.675 8.17973,-23 4.25542,-12.15441 6.29187,-15 10.73476,-15 3.28103,0 3.3051,0.0498 12.57899,26 14.23218,39.82457 12.42868,35.86003 17.30106,38.03203 7.3958,3.29688 5.07824,4.43447 -9.67084,4.747 -12.23052,0.25915 -13.16812,0.14774 -13.16812,-1.56479 0,-1.12264 1.36897,-2.49663 3.5,-3.51285 4.06108,-1.9366 4.0968,-2.24329 1.18809,-10.20139 l -2.19302,-6 -12.06229,-0.27929 -12.06229,-0.27929 -2.35906,7.52214 c -1.29749,4.13718 -2.16835,7.6512 -1.93525,7.80895 0.2331,0.15774 2.14577,1.0701 4.25038,2.02747 6.50797,2.96043 4.22266,4.17042 -8.46146,4.48005 -6.30943,0.15402 -11.78521,-0.0335 -12.1684,-0.41666 z m 42.3033,-27.77803 c 0,-2.02869 -9.45387,-26.5096 -9.99968,-25.89431 -0.82885,0.93435 -9.00032,23.97136 -9.00032,25.37369 0,0.51474 4.27159,0.93528 9.5,0.93528 5.225,0 9.5,-0.1866 9.5,-0.41466 z m 28.6265,26.88372 c -0.44986,-1.17231 0.56801,-2.10991 3.88188,-3.57579 l 4.49162,-1.98686 -0.004,-27.7032 -0.004,-27.70321 -4.43636,-1.82428 c -7.4462,-3.06197 -5.10924,-4.36965 8.75438,-4.89865 26.77308,-1.02158 36.83544,3.21625 38.36833,16.1591 1.16953,9.87487 -1.9456,16.14272 -10.05464,20.2306 -2.26832,1.14349 -4.27522,2.21226 -4.45978,2.37505 -0.18456,0.16279 2.00221,4.84716 4.8595,10.40971 5.31248,10.3423 8.88984,14.24728 14.28571,15.59399 1.90664,0.47586 2.62978,1.16996 2.25,2.15965 -0.3078,0.80212 -0.55964,1.6466 -0.55964,1.87662 0,0.23001 -2.83367,0.41821 -6.29705,0.41821 -5.98945,0 -6.48094,-0.18832 -10.06139,-3.85503 -2.07038,-2.12026 -6.32421,-8.75776 -9.45294,-14.75 -5.58203,-10.69083 -5.75888,-10.90079 -9.43862,-11.20534 l -3.75,-0.31036 v 11.63463 11.63462 l 4.01121,1.67574 c 2.49309,1.04153 3.90771,2.24344 3.73774,3.17574 -0.42188,2.31396 -25.24346,2.75966 -26.12245,0.46906 z m 35.88011,-36.03922 c 4.14859,-1.96864 5.94848,-6.09295 5.16227,-11.82898 -1.37861,-10.05808 -5.55594,-13.60086 -16.03691,-13.60086 h -6.63197 v 13.5 13.5 h 7.09887 c 4.37953,0 8.36639,-0.60148 10.40774,-1.57016 z m 26.95358,36.50575 c -0.80004,-1.2945 0.16731,-2.20418 5.46494,-5.13908 l 3.07487,-1.70349 v -27.08205 -27.08204 l -4.58328,-1.96463 c -7.76354,-3.32784 -5.4425,-4.39094 11.16371,-5.11325 8.20576,-0.35693 18.06957,-0.23556 21.91957,0.26971 18.95442,2.48752 27.5,13.45789 27.5,35.30307 0,12.16297 -1.90203,18.41049 -7.29858,23.97336 -7.33612,7.56221 -12.63757,8.93199 -36.33845,9.38906 -15.28238,0.29471 -20.32164,0.0896 -20.90278,-0.85066 z m 43.82702,-7.46722 c 4.13477,-1.45253 5.14484,-2.38272 7.41116,-6.82505 3.7526,-7.35564 4.46002,-22.48352 1.44954,-30.99788 -4.6046,-13.02291 -10.5805,-16.89261 -25.37757,-16.43324 l -9.27034,0.2878 -0.26678,26.98509 c -0.14672,14.8418 -0.0237,27.61839 0.27327,28.39243 0.7383,1.92396 19.15879,0.91712 25.78072,-1.40915 z M 38.866922,383.76081 c -1.39292,-1.01853 -1.61819,-1.96295 -1.0061,-4.21797 0.43378,-1.59807 0.83764,-3.97878 0.89746,-5.29046 0.10748,-2.35628 1.23441,-3.37586 5.08075,-4.59677 1.64855,-0.52329 1.73055,-0.77863 0.5,-1.55684 -0.80958,-0.51199 -2.70947,-0.93779 -4.22197,-0.94621 -2.04609,-0.0114 -2.75,-0.51 -2.75,-1.94792 0,-2.75323 2.90909,-3.3378 12.59519,-2.53095 5.67185,0.47246 9.18601,1.27555 10.60325,2.42316 3.06054,2.47828 1.55396,3.87953 -3.55232,3.30398 -4.91241,-0.5537 -6.17678,0.48596 -5.22121,4.29326 0.3751,1.49453 1.33481,2.44316 2.4717,2.44316 2.23651,0 4.53054,2.49985 3.63046,3.9562 -0.35481,0.57409 -2.5873,1.0438 -4.96109,1.0438 -6.23493,0 -10.56598,1.05181 -10.56598,2.56598 0,2.04096 -1.52509,2.50177 -3.50014,1.05758 z M 190.09669,366.26894 c -3.49423,-0.79674 -5.52958,-4.64159 -5.14452,-9.71818 0.16326,-2.15243 0.3234,-4.25101 0.35587,-4.66351 0.0325,-0.4125 0.94319,-0.75 2.02384,-0.75 2.19427,0 4.03518,2.75 4.03518,6.02788 0,1.27082 0.77198,2.36124 1.8761,2.64997 1.59563,0.41727 2.61228,1.78482 4.88576,6.57215 0.41179,0.8671 -3.99519,0.80219 -8.03223,-0.11831 z m -8.10563,-40.51032 c -4.85157,-8.27856 -2.17916,-14.87134 5.626,-13.87922 3.50228,0.44517 3.75,0.70064 3.75,3.86726 0,4.72963 3.16696,4.66586 5.43298,-0.10941 2.31522,-4.87898 4.56702,-4.61602 4.56702,0.53333 0,5.49877 -5.2186,10.96667 -10.46667,10.96667 -2.20598,0 -3.43941,0.44727 -3.28333,1.19061 0.1375,0.65484 -0.4817,1.35209 -1.376,1.54944 -1.06467,0.23496 -2.53187,-1.18691 -4.25,-4.11868 z m -96.873998,-0.3107 c -1.93244,-0.505 -2.29415,-2.36652 -0.75826,-3.90241 0.65566,-0.65566 0.60133,-2.02607 -0.16031,-4.04389 -1.22431,-3.24359 0.18134,-8.13607 5.70721,-19.86437 1.29568,-2.75 2.49204,-5.49979 2.65857,-6.11064 0.16653,-0.61085 2.408,-2.92172 4.98103,-5.13525 4.349828,-3.74209 5.016718,-3.99203 9.499998,-3.5605 7.18333,0.69142 7.32176,0.7983 7.32176,5.65256 0,5.69068 1.94889,7.57257 5.45981,5.27212 4.08123,-2.67412 8.7911,-1.83047 6.3308,1.134 -0.95639,1.15239 -0.73618,1.78017 1.11402,3.17577 3.99235,3.01144 2.43502,5.47409 -3.91671,6.19361 -6.30665,0.71441 -10.98792,2.62308 -10.98792,4.48003 0,0.70437 -2.025,3.33475 -4.5,5.84529 -2.475,2.51054 -4.5,5.19256 -4.5,5.96004 0,2.48852 -6.713858,5.60287 -11.807158,5.47697 -2.58106,-0.0638 -5.48034,-0.3218 -6.44284,-0.57333 z m 14.85078,-13.3479 c 1.899698,-0.67964 3.527338,-2.39589 4.721178,-4.97822 1.66921,-3.61061 1.69016,-4.12915 0.25,-6.18528 -0.86458,-1.23436 -1.57196,-3.49415 -1.57196,-5.02178 0,-2.49722 -0.34637,-2.77749 -3.432608,-2.77749 -2.68992,0 -3.58097,0.48682 -4.11828,2.25 -0.37712,1.2375 -1.36955,3.02906 -2.2054,3.98124 -1.26498,1.44103 -1.29928,1.99688 -0.20464,3.31584 1.06428,1.28237 1.07866,2.23845 0.0754,5.01292 -1.92492,5.32328 0.0901,6.69107 6.48632,4.40277 z m -57.77263,11.00086 c -0.91952,-0.53655 -1.95952,-2.28527 -2.31111,-3.88605 -0.35159,-1.60077 -1.28676,-3.15897 -2.07815,-3.46266 -0.79139,-0.30368 -1.43889,-1.45472 -1.43889,-2.55786 0,-2.9479 4.77039,-4.9539 12.54777,-5.27647 6.75484,-0.28015 6.76671,-0.2759 7.59298,2.71941 1.05097,3.80986 0.29218,6.22782 -2.20287,7.01972 -1.0779,0.34211 -2.64144,1.94013 -3.47453,3.55115 -1.6004,3.09483 -5.21672,3.88749 -8.6352,1.89276 z M 260.55437,308.3341 c -2.37199,-0.91073 -5.67704,-2.79488 -7.34458,-4.187 l -3.03188,-2.53113 3.34458,-5.7389 c 4.14342,-7.10963 6.00764,-7.12775 7.26322,-0.0706 1.11587,6.27193 2.87482,7.33075 12.17806,7.33075 6.97189,0 11.65379,-1.73103 13.37365,-4.94461 1.59124,-2.97326 1.21923,-8.60865 -0.72036,-10.91229 -2.01142,-2.38896 -11.32411,-7.08843 -19.02163,-9.59891 -6.83615,-2.22955 -11.69097,-6.83472 -13.2298,-12.54948 -3.76204,-13.97118 5.85174,-24.40152 22.50143,-24.41263 5.87614,-0.004 7.86999,0.47077 12.41876,2.95662 7.77191,4.24726 8.04632,5.11335 3.58688,11.32057 -2.06449,2.87361 -4.26031,5.06192 -4.87962,4.86293 -0.61931,-0.199 -1.5449,-2.68841 -2.05686,-5.53202 -1.06841,-5.93438 -1.9905,-6.49929 -10.63272,-6.51403 -6.41563,-0.0109 -11.70109,2.53795 -12.58766,6.07035 -1.01037,4.02563 0.56108,9.05313 3.47926,11.13105 1.51411,1.07814 6.90591,3.62246 11.98177,5.65404 16.51952,6.61182 19.52493,10.12222 18.98119,22.17051 -0.28839,6.39027 -0.66127,7.55987 -3.30801,10.37609 -4.8519,5.16259 -9.76866,6.88527 -19.48299,6.82621 -5.39334,-0.0328 -10.07625,-0.65688 -12.81269,-1.70755 z m 44.50939,1.16652 c -1.57253,-1.57253 -0.45034,-2.9616 3.80705,-4.71243 l 4.49625,-1.84905 v -27.68178 -27.68178 l -4.25,-1.46916 c -2.45815,-0.84975 -4.25,-2.10159 -4.25,-2.96917 0,-1.22128 1.6583,-1.5 8.92466,-1.5 h 8.92466 l 6.57534,9.19617 c 3.61644,5.05789 9.27534,13.05647 12.57534,17.77461 8.8749,12.68878 15.52082,21.9046 16.57132,22.97922 0.5722,0.58534 0.92868,-7.67936 0.92868,-21.53083 v -22.48084 l -4.25,-1.46916 c -2.45815,-0.84975 -4.25,-2.10159 -4.25,-2.96917 0,-1.24942 1.99074,-1.5 11.91667,-1.5 13.13724,0 15.83495,1.24783 8.92141,4.12662 -2.11095,0.87899 -4.16869,2.11009 -4.57277,2.73577 -0.40408,0.62569 -0.74158,14.77598 -0.75,31.44511 l -0.0153,30.3075 -4.22426,-0.3075 -4.22426,-0.3075 -18.02574,-25.68828 c -9.91416,-14.12855 -18.37174,-26.02455 -18.79463,-26.43555 -0.42288,-0.411 -0.64788,9.75717 -0.5,22.59593 l 0.26889,23.3432 4.28133,1.56043 c 2.82827,1.03083 4.18174,2.08035 3.98792,3.09235 -0.23953,1.2506 -2.41282,1.58334 -11.83463,1.81195 -6.34767,0.15402 -11.85473,-0.0335 -12.23792,-0.41666 z m 97.25652,-0.30849 c -4.19343,-1.27314 -10.49643,-5.67736 -13.71752,-9.58511 -4.52859,-5.49396 -6.73813,-13.37285 -6.72202,-23.96977 0.0334,-22.01694 12.16197,-34.68671 33.21402,-34.69627 9.0201,-0.004 13.73994,1.63789 20.30498,7.06387 7.69127,6.35679 12.07348,21.03202 10.08823,33.78364 -2.81609,18.08832 -14.88586,28.46267 -32.88164,28.26281 -4.2566,-0.0473 -8.88532,-0.4339 -10.28605,-0.85917 z m 22.96709,-7.63967 c 4.56853,-1.82796 6.08419,-3.8308 8.55128,-11.29987 2.71631,-8.22355 1.79761,-23.75908 -1.82496,-30.86077 -3.85695,-7.56117 -8.87903,-10.62644 -18.1796,-11.0961 -10.19043,-0.5146 -15.29568,1.81815 -18.39115,8.40349 -3.34462,7.11538 -4.53566,16.42879 -3.16351,24.73742 1.74911,10.59127 5.25577,16.17373 12.58763,20.03899 3.98328,2.09992 15.25809,2.14235 20.42031,0.0768 z m 47.11,1.33479 c -1.19047,-3.9875 -5.3968,-18.00518 -9.3474,-31.15039 l -7.18291,-23.90039 -4.30903,-1.92252 c -7.16578,-3.19708 -4.94462,-4.24667 9.64091,-4.55573 12.48762,-0.2646 13.16812,-0.17817 13.16812,1.67245 0,1.34357 -1.09029,2.3113 -3.5,3.10658 -1.925,0.63531 -3.5,1.74016 -3.5,2.45524 0,1.32172 12.89,46.76809 13.41331,47.2914 0.15715,0.15715 1.30465,-3.20905 2.54999,-7.48045 1.24534,-4.27141 3.73213,-12.71619 5.52621,-18.76619 1.79407,-6.05 4.2712,-14.4463 5.50471,-18.65844 2.18871,-7.47384 2.33646,-7.68222 6.13006,-8.64514 2.58141,-0.65523 4.0952,-0.6503 4.50618,0.0147 0.58823,0.95177 3.89109,11.88757 12.01717,39.78891 3.7336,12.8195 4.0401,13.6456 4.78613,12.89957 0.23857,-0.23857 2.98064,-9.20107 6.09347,-19.91667 3.11284,-10.71559 6.06765,-20.82993 6.56624,-22.4763 1.4029,-4.63244 1.18285,-5.09529 -3.09347,-6.5066 -2.77171,-0.91475 -4,-1.89486 -4,-3.19179 0,-1.7386 0.83457,-1.85165 11.73792,-1.58995 9.49344,0.22787 11.79018,0.56856 12.01121,1.78174 0.16925,0.92894 -1.22729,2.12664 -3.6683,3.146 -3.38131,1.41204 -4.15107,2.33597 -5.41537,6.5 -0.81059,2.6697 -3.8245,12.504 -6.69759,21.854 -2.87308,9.35 -6.25057,20.53686 -7.50552,24.85969 -1.25496,4.32284 -2.67806,8.25602 -3.16245,8.74041 -0.48438,0.48438 -2.88752,1.15517 -5.3403,1.49064 l -4.4596,0.60993 -5.39661,-18.35033 c -2.96813,-10.09269 -6.38571,-21.69873 -7.59462,-25.7912 l -2.19802,-7.44087 -2.04437,6.94087 c -6.3504,21.56036 -9.26686,31.5946 -10.77621,37.07618 -1.61611,5.86926 -1.84766,6.1615 -5.33977,6.73899 -6.79852,1.12429 -6.80902,1.11667 -9.12009,-6.62431 z m -314.51899,-4.7749 c -2.74378,-1.60828 -6.91155,-3.21249 -9.26173,-3.56492 -7.97109,-1.19534 -10.67456,-5.44651 -11.91566,-18.73717 -0.56058,-6.00311 -0.43245,-6.53119 2.33671,-9.63042 2.27931,-2.55099 3.78407,-3.30829 6.77731,-3.41081 3.81436,-0.13065 3.8602,-0.0867 5.32215,5.09774 1.23061,4.36409 1.99224,5.41885 4.60228,6.37355 3.94646,1.44353 10.6699,9.91427 11.24661,14.16939 0.2406,1.77515 0.65832,4.24004 0.92828,5.47754 0.26996,1.2375 0.20848,3.375 -0.13663,4.75 -0.83487,3.32642 -3.57687,3.18103 -9.89932,-0.5249 z m 5.48868,-7.39177 c 0,-0.77916 -0.3637,-1.56666 -0.80821,-1.75 -0.44452,-0.18333 -2.26614,-2.47083 -4.04804,-5.08333 -1.78191,-2.6125 -3.74528,-4.75 -4.36305,-4.75 -0.61777,0 -1.94891,-0.74724 -2.95809,-1.66054 -2.61654,-2.36793 -3.1185,-1.24159 -2.1537,4.83256 l 0.84629,5.32798 4.90469,1.21229 c 2.69758,0.66676 5.37166,1.67926 5.9424,2.25 1.45903,1.45903 2.63771,1.28969 2.63771,-0.37896 z m -109.314178,6.46195 c -1.86393,-3.15538 -3.57815,-3.70846 -6.55544,-2.11506 -2.57455,1.37786 -4.94486,-0.36882 -3.54588,-2.61294 0.89164,-1.43027 0.55264,-2.10224 -1.90617,-3.77847 -6.62,-4.51301 -5.7851,-8.61255 1.2227,-6.0037 16.69981,6.21697 19.33767,8.06625 18.90696,13.25475 -0.27484,3.31075 -0.63176,3.74193 -3.31563,4.00542 -2.44661,0.2402 -3.3432,-0.27277 -4.80654,-2.75 z m 157.349618,0.70472 c 0.0195,-0.6875 0.67854,-2.375 1.46456,-3.75 0.78602,-1.375 1.44508,-3.30924 1.46456,-4.29831 0.0195,-0.98906 0.93544,-3.66109 2.03544,-5.93783 1.1,-2.27673 2,-5.405 2,-6.95169 0,-4.22001 1.65305,-3.38333 2.38728,1.20831 0.4333,2.70971 0.15828,4.95764 -0.84358,6.89502 -0.81757,1.58101 -1.78454,4.73842 -2.14881,7.01648 -0.40284,2.51923 -1.48066,4.71512 -2.75111,5.60498 -2.55873,1.79219 -3.65495,1.85692 -3.60834,0.21304 z m -35.53544,-31.6403 c 0,-7.65895 0.3375,-14.26685 0.75,-14.6842 1.10127,-1.11424 0.91421,-4.4255 -0.25,-4.4255 -1.11241,0 -1.32857,-2.98018 -0.39301,-5.41821 0.33384,-0.86999 1.23384,-1.58179 2,-1.58179 1.6208,0 1.77096,-2.19536 0.46227,-6.75849 -0.78006,-2.71991 -0.6299,-3.40628 0.92756,-4.23981 3.24757,-1.73805 5.00744,-0.19263 4.95963,4.35529 -0.0394,3.75169 -0.49669,6.44518 -2.52827,14.89301 -0.75748,3.14978 1.39952,3.86746 3.61187,1.20174 1.64822,-1.98598 5.33933,-1.47742 5.7725,0.79535 0.21578,1.13218 -0.57885,2.09376 -2.25772,2.73206 -1.42488,0.54174 -3.05195,2.00555 -3.6157,3.25292 -0.56376,1.24736 -1.67405,3.39293 -2.46733,4.76793 -0.79327,1.375 -1.48319,4.525 -1.53314,7 -0.11139,5.51967 -2.12629,11.40723 -4.02719,11.76754 -1.16053,0.21997 -1.41147,-2.2082 -1.41147,-13.65784 z m 18.13762,11.04237 c -1.35339,-1.49548 -1.5209,-2.8488 -0.89281,-7.21316 0.63032,-4.37987 1.27188,-5.65223 3.47292,-6.88764 2.57777,-1.44687 2.8307,-1.3806 5.59754,1.4667 1.59377,1.64011 3.65073,4.44808 4.57101,6.23991 1.64413,3.20122 1.63144,3.27693 -0.73003,4.35288 -1.74425,0.79474 -2.96835,0.79257 -4.46402,-0.008 -2.6813,-1.43499 -3.19223,-1.39103 -3.19223,0.27468 0,0.75765 -0.60669,1.88106 -1.34821,2.49646 -1.02492,0.85062 -1.74768,0.6775 -3.01417,-0.72195 z M 30.777702,272.63725 c -0.71924,-2.8657 -1.63855,-3.13524 -3.41064,-1 -0.68469,0.825 -2.53979,1.5 -4.12244,1.5 -4.30391,0 -3.89038,-3.99165 0.95125,-9.18213 3.49105,-3.74259 4.14162,-4.046 7.37487,-3.43944 3.4352,0.64445 3.5621,0.82869 4.05904,5.89341 0.54947,5.60005 -0.44645,8.72816 -2.77885,8.72816 -0.79517,0 -1.72812,-1.125 -2.07323,-2.5 z m 65.10512,-3.8363 c -5.28976,-1.61834 -6.79686,-4.55798 -5.97978,-11.6637 0.34784,-3.025 0.71262,-6.625 0.81062,-8 0.30368,-4.26072 5.49367,-12.93815 8.93852,-14.94481 3.187598,-1.85681 5.587208,-3.78658 13.118278,-10.54978 2.14687,-1.92798 4.28437,-3.50541 4.75,-3.50541 0.46563,0 0.86635,2.3625 0.89049,5.25 0.0241,2.8875 0.7746,7.05 1.66768,9.25 2.92043,7.19412 1.40533,19.61639 -2.9593,24.26324 -1.64021,1.74627 -1.8547,2.53433 -0.93903,3.45 1.7345,1.7345 1.44937,4.58049 -0.56324,5.62202 -3.10227,1.60543 -15.49417,2.12564 -19.734238,0.82844 z m 11.902558,-8.98032 c 1.34543,-0.9838 2.05771,-3.61966 2.81777,-10.42735 1.077,-9.64646 0.5664,-14.25603 -1.57912,-14.25603 -1.72801,0 -10.782408,6.47276 -11.934728,8.53184 -1.42492,2.5462 0.0634,3.02603 3.354918,1.08165 2.3924,-1.41322 3.31604,-1.53205 4.46923,-0.57499 2.09108,1.73544 1.86034,2.50554 -2.04639,6.82982 -3.977778,4.40292 -4.087208,4.84831 -1.9433,7.90917 1.76237,2.51614 4.2164,2.84012 6.86162,0.90589 z m 112.41349,-0.37436 c -0.48868,-11.06705 -0.2236,-19.96175 0.63084,-21.16771 1.51763,-2.14199 1.76909,-16.85601 0.33189,-19.42001 -1.49693,-2.67056 -3.7289,-11.51736 -4.47093,-17.7213 -0.29602,-2.475 -1.03142,-5.10634 -1.63421,-5.84741 -0.60279,-0.74108 -1.02756,-3.89108 -0.94393,-7 0.13945,-5.18416 -0.11717,-5.9012 -3.09665,-8.65259 -2.34594,-2.16635 -4.34635,-3.0465 -7.19876,-3.16735 -8.89762,-0.37694 -12.76645,-1.18496 -15.29105,-3.19356 -1.46246,-1.16354 -5.69651,-4.43271 -9.40901,-7.26481 -7.86258,-5.99801 -8.52727,-8.23374 -3.11963,-10.4932 l 3.63036,-1.51686 -3.13036,-3.22972 c -3.46769,-3.57774 -3.86656,-5.12313 -1.64342,-6.36726 1.26648,-0.70876 1.15528,-1.30665 -0.75,-4.03241 -1.23032,-1.76015 -2.65152,-3.20805 -3.15821,-3.21755 -0.50669,-0.01 -1.77375,-0.80478 -2.81568,-1.76728 -1.04193,-0.9625 -4.67736,-3.1 -8.07874,-4.75 -3.5872,-1.74014 -6.32207,-3.74512 -6.51232,-4.77429 -0.28681,-1.55145 0.21557,-1.69512 4,-1.14392 7.92214,1.15386 12.9044,4.40109 24.11738,15.71872 11.46681,11.57381 14.24153,15.03144 13.29357,16.56527 -1.09022,1.76401 0.6111,4.13422 2.9675,4.13422 1.53012,0 2.94168,1.02452 4.0901,2.96864 2.77038,4.68988 5.83532,4.92559 3.48221,0.26779 -1.59796,-3.16302 -3.12276,-8.83845 -3.12276,-11.62317 0,-1.50961 -0.45207,-3.58944 -1.0046,-4.62185 -0.69243,-1.29382 -0.64255,-2.67172 0.16052,-4.43426 1.78383,-3.91509 2.81744,-3.46886 7.53155,3.25154 1.02701,1.46409 1.91537,5.81586 2.42833,11.89546 0.63563,7.53348 1.2453,10.05132 2.84654,11.75576 1.12071,1.19295 2.03766,3.27736 2.03766,4.63203 0,1.35468 0.70718,3.47269 1.57152,4.70671 1.07428,1.53375 1.4892,4.02088 1.31134,7.86052 -0.2202,4.75362 0.0762,5.88925 1.92848,7.38914 1.89733,1.53637 2.18866,2.76457 2.18866,9.22712 0,5.83615 0.41674,7.98465 1.91929,9.89483 1.82624,2.32169 4.24373,11.04885 4.24645,15.32974 0.002,3.63766 -1.81637,10.16311 -3.50406,12.57263 -0.91392,1.30481 -1.66168,4.05011 -1.66168,6.10066 0,4.80588 -1.89381,13.64304 -3.08093,14.37673 -0.50549,0.31241 -0.99476,-1.14604 -1.08726,-3.241 z m -214.9315624,-0.059 c -0.577638,-1.5125 -1.311503,-5.9 -1.630811,-9.75 -0.319308,-3.85 -1.225806,-7.99494 -2.014439,-9.21098 -0.92883403,-1.43222 -1.49043203,-5.30667 -1.59443803,-11 -0.139226,-7.62131 0.184991,-9.50078 2.44030303,-14.14626 2.223214,-4.57936 2.479043,-6.00929 1.761904,-9.84795 -0.62091,-3.32357 -0.478661,-5.00511 0.547317,-6.4699 0.973726,-1.39019 1.227637,-3.72866 0.85321,-7.85791 -0.387097,-4.26896 -0.08539,-6.82214 1.101822,-9.32399 0.899187,-1.8949 1.634886,-4.24826 1.634886,-5.22969 0,-0.98143 0.828719,-2.71342 1.8415974,-3.84887 1.745864,-1.95713 3.458853,-7.02817 6.042383,-17.88758 1.19029,-5.00315 5.68594,-11.67679 7.86602,-11.67684 1.51679,-4e-5 1.59956,1.95695 0.16918,3.99997 -0.81037,1.15746 -0.91007,0.9291 -0.43658,-1 0.33749,-1.375 -0.9774,0.2 -2.92198,3.5 -3.54023,6.00786 -4.32688,8.5 -2.68306,8.5 1.49812,0 3.18447,-2.67479 2.61763,-4.15195 -0.29663,-0.77299 0.11447,-2.29253 0.91355,-3.37674 1.32638,-1.79969 1.40231,-1.57955 0.87217,2.52869 -0.31938,2.475 -0.90512,4.725 -1.30164,5 -1.12195,0.7781 -2.10394,7.90435 -1.97369,14.32299 0.13081,6.44679 -1.34171,9.47286 -3.66951,7.54096 -2.67335,-2.21869 -6.1356434,4.76206 -4.912422,9.90453 1.834762,7.71339 0.931354,14.94102 -3.5778554,28.62441 -1.292474,3.92207 -1.704619,6.93203 -1.232341,9 0.390277,1.70891 0.625093,4.53575 0.521814,6.28186 -0.10328,1.74612 0.308481,3.48147 0.915025,3.85633 0.711535,0.43975 1.023373,4.28051 0.878921,10.82525 -0.123138,5.57902 0.11556,10.93117 0.53044,11.89367 0.543059,1.25987 0.297319,1.75 -0.877414,1.75 -0.897457,0 -2.104353,-1.2375 -2.681992,-2.75 z m 153.5077924,-3.75 c -0.90093,-1.375 -2.26792,-2.5 -3.03775,-2.5 -0.76983,0 -2.31263,-1.4625 -3.42845,-3.25 -1.76838,-2.83289 -1.94507,-4.25123 -1.37668,-11.05124 0.55178,-6.60135 0.38531,-8.09601 -1.08233,-9.71774 -1.06726,-1.1793 -1.99831,-4.46619 -2.42049,-8.54503 -0.65249,-6.30404 -0.57289,-6.67158 1.62579,-7.50752 1.27153,-0.48343 2.31187,-1.55863 2.31187,-2.38932 0,-0.95636 1.65684,-1.92755 4.517,-2.64775 2.48435,-0.62556 4.79435,-1.58616 5.13334,-2.13466 0.98575,-1.59497 -5.62975,-6.12422 -9.04657,-6.19366 -2.8491,-0.0579 -3.10377,-0.34132 -3.10377,-3.45409 0,-4.47128 2.57352,-6.25741 5.36976,-3.72685 1.09276,0.98893 5.7316,3.09475 10.30854,4.6796 6.22909,2.15694 8.3217,3.32873 8.3217,4.6599 0,1.27541 -0.91916,1.86698 -3.25,2.09172 -3.75441,0.36199 -3.78712,0.43726 -1.62433,3.73809 1.2511,1.90943 1.46608,3.68695 0.93302,7.71481 -0.38096,2.87856 -0.66278,6.69624 -0.62627,8.48374 0.0365,1.7875 -0.38335,3.25 -0.93302,3.25 -0.54967,0 -0.9994,1.30186 -0.9994,2.89301 0,1.64908 -0.64497,3.14051 -1.5,3.46862 -1.11743,0.42879 -1.5,2.2102 -1.5,6.98454 0,4.47689 0.45219,6.78423 1.5,7.65383 1.80618,1.499 1.94363,4.15637 0.3,5.8 -0.93333,0.93333 -0.93333,1.2 0,1.2 0.66,0 1.2,0.675 1.2,1.5 0,2.62972 -5.70614,1.87812 -7.59196,-1 z m -119.408038,-12 c -0.68469,-0.825 -1.88775,-1.5 -2.67347,-1.5 -0.78572,0 -2.08062,-1.56055 -2.87756,-3.46788 -1.58141,-3.78487 -1.9489,-9.53212 -0.60949,-9.53212 0.46172,0 1.35207,-1.125 1.97857,-2.5 1.24621,-2.73515 5.18195,-3.49466 5.18195,-1 0,0.825 0.69083,1.5 1.53518,1.5 2.20829,0 6.46482,2.99687 6.46482,4.55165 0,0.76013 -1.38079,1.45477 -3.25,1.63499 -2.08295,0.20084 -3.25,0.852 -3.25,1.81336 0,0.96136 1.16705,1.61252 3.25,1.81336 2.6685,0.25729 3.25,0.73918 3.25,2.69329 0,4.27111 -6.4093,7.11495 -9,3.99335 z M 205.73246,226.25561 c -4.19142,-0.82684 -10.58866,-8.393 -10.16676,-12.02445 0.47498,-4.0883 4.11269,-4.02612 5.33304,0.0912 0.79311,2.67581 1.65672,3.42731 4.77277,4.15316 2.09245,0.48742 4.05962,0.63104 4.37149,0.31917 0.31188,-0.31188 -0.61262,-2.58 -2.05445,-5.04029 -3.30784,-5.64441 -3.30238,-6.83121 0.0296,-6.43352 3.6573,0.43651 6.53806,4.72962 7.10034,10.5814 0.42684,4.44224 0.2085,5.12137 -2.27449,7.07449 -1.51067,1.18829 -3.02348,2.10129 -3.36181,2.02889 -0.33833,-0.0724 -2.02571,-0.4099 -3.74974,-0.75 z M 53.867062,221.13725 c -1.19248,-1.31768 -3.07997,-2 -5.53254,-2 -4.00975,0 -6.55233,-2.03347 -5.61072,-4.48727 0.38336,-0.99901 1.92949,-1.51273 4.55286,-1.51273 4.27357,0 5.45156,-0.89525 4.48666,-3.40976 -0.8418,-2.19367 -4.61575,-1.99203 -7.66913,0.40976 -3.17077,2.49413 -6.90616,2.56464 -9.07214,0.17126 -2.36183,-2.60979 -2.0932,-3.59965 1.77829,-6.55257 2.79854,-2.13455 4.51374,-2.61869 9.27749,-2.61869 7.59899,0 9.82206,1.59445 11.20339,8.03535 0.59431,2.77118 2.04236,6.3394 3.21789,7.92939 1.17568,1.59019 1.86588,3.59826 1.53402,4.46307 -0.86212,2.24665 -5.98878,1.97807 -8.16607,-0.42781 z m 46.807638,-3.25 c -1.482118,-3.77653 -1.924638,-6.6533 -1.576708,-10.25 0.5885,-6.08353 1.624438,-7.5 5.485128,-7.5 1.97638,0 3.13522,-0.58593 3.46113,-1.75 0.26947,-0.9625 3.18276,-3.86175 6.47397,-6.44277 4.81074,-3.77266 6.41193,-4.53166 8.16643,-3.87108 1.90784,0.71832 2.13793,1.43454 1.82886,5.69277 -0.19445,2.6791 -0.75695,5.629 -1.25,6.55534 -0.49305,0.92634 -0.89645,2.9941 -0.89645,4.59501 0,1.64076 -0.87262,3.70047 -2,4.72073 -1.1,0.99549 -2,2.62604 -2,3.62344 0,2.32961 -10.14249,9.87656 -13.27329,9.87656 -1.91709,0 -2.74443,-0.9829 -4.41907,-5.25 z m 9.61978,-5.38486 c 2.134,-2.71293 3.0058,-11.36514 1.14516,-11.36514 -2.22985,0 -5.07258,5.39948 -5.07258,9.63486 0,5.01733 0.99649,5.45635 3.92742,1.73028 z m -96.228518,7.85464 c -2.370483,-2.61935 -2.123833,-5.66838 0.90937,-11.24137 2.30916,-4.24269 2.47774,-5.18778 1.46999,-8.24129 -0.83119,-2.51852 -0.84352,-4.22433 -0.0457,-6.32273 1.29069,-3.39478 2.60728,-4.37832 5.88871,-4.39908 1.33169,-0.008 3.22743,-0.74489 4.21275,-1.63659 1.93435,-1.75056 4.87428,-1.24173 4.85271,0.8399 -0.007,0.70476 -2.25132,3.75638 -4.98672,6.78138 -5.39167,5.9625 -5.49713,6.2026 -3.9742,9.0482 0.80628,1.50656 0.45686,2.77644 -1.63289,5.93426 -1.46229,2.20965 -3.04889,4.01754 -3.52581,4.01754 -0.47691,0 -0.86711,0.45 -0.86711,1 0,0.55 1.3813,1 3.06955,1 2.61125,0 3.02184,0.33594 2.75,2.25 -0.43065,3.03228 -5.68612,3.6599 -8.12065,0.96978 z m 169.033918,-9.71208 c -0.97194,-1.3362 -2.03867,-3.78697 -2.37051,-5.44615 -0.33184,-1.65918 -1.22411,-3.53189 -1.98282,-4.16157 -1.90747,-1.58306 -1.725,-3.6447 0.42439,-4.79502 2.45707,-1.31498 3.69796,-0.33975 6.66282,5.23639 3.03296,5.7042 3.43518,11.67485 0.7833,11.62723 -0.9625,-0.0173 -2.54523,-1.12468 -3.51718,-2.46088 z m 23.56935,-7.06709 c -0.9912,-1.41566 -3.48967,-4.19122 -5.55217,-6.1679 -2.24047,-2.14725 -3.75,-4.53567 -3.75,-5.93334 0,-1.28665 0.29392,-2.33937 0.65316,-2.33937 2.07902,0 13.34684,6.22514 13.34684,7.37374 0,0.75694 0.27295,2.74101 0.60656,4.40905 0.4816,2.40801 0.18334,3.25929 -1.44784,4.13226 -1.73478,0.92843 -2.33476,0.69905 -3.85655,-1.47444 z M 73.090022,203.44004 c -0.25318,-0.44154 -1.03591,-2.60279 -1.7394,-4.80279 -1.23339,-3.85717 -5.07606,-8.5 -7.03508,-8.5 -1.51014,0 -1.0997,-2.70593 0.68046,-4.48608 0.89592,-0.89592 2.24592,-1.37806 3,-1.07143 0.75408,0.30663 2.01564,0.81898 2.80347,1.13856 0.92109,0.37364 1.9994,-0.51539 3.02081,-2.49058 2.21615,-4.28556 6.07753,-6.7248 8.05179,-5.08632 2.34133,1.94314 1.80641,3.70268 -2.56858,8.44899 -3.91991,4.2526 -3.99062,4.44749 -2,5.51284 2.36573,1.2661 2.79166,5.51531 0.67504,6.73433 -0.76369,0.43983 -1.55119,1.6624 -1.75,2.71682 -0.38403,2.03682 -2.36825,3.22896 -3.13851,1.88566 z m -37.92949,-10.84265 c -1.09965,-1.09965 0.34113,-3.55657 4.11228,-7.01258 3.36902,-3.08747 3.51987,-3.48162 2.4338,-6.35895 -1.56745,-4.15264 -0.67726,-7.08861 2.14927,-7.08861 1.86043,0 2.36828,0.70487 2.89897,4.02361 0.54567,3.41248 1.21061,4.28584 4.3778,5.75 4.22471,1.95305 5.1972,2.97348 5.2191,5.47639 0.0111,1.27481 -0.78606,1.75 -2.9359,1.75 -2.54084,0 -7.67817,1.1585 -15.57422,3.51209 -1.11398,0.33204 -2.32048,0.30867 -2.6811,-0.0519 z m 66.154998,-11.21014 c -3.959998,-10.86794 -3.908998,-10.80801 -7.987578,-9.38621 -3.82846,1.33461 -4.95436,0.82725 -4.23856,-1.90999 0.91531,-3.50014 13.720268,-8.98276 19.126538,-8.18929 1.99166,0.29231 3.64524,-0.11576 4.68587,-1.1564 0.88447,-0.88446 2.70097,-1.60811 4.03669,-1.60811 2.1468,0 2.42857,0.44238 2.42857,3.81291 0,4.25524 -3.26881,8.21675 -8.37077,10.14464 -2.53079,0.95631 -2.79827,1.44725 -2.25862,4.14548 0.80868,4.04343 -0.81753,6.89697 -3.93054,6.89697 -1.80631,0 -2.76458,-0.75473 -3.4916,-2.75 z m 57.27936,-3.25459 c -3.1674,-1.32062 -3.81363,-3.73372 -1.87759,-7.01117 2.1022,-3.55875 2.07243,-3.98424 -0.27881,-3.98424 -1.96502,0 -5.07143,-2.44902 -5.07143,-3.99819 0,-0.47043 1.41914,-1.56329 3.15364,-2.42857 3.40371,-1.69799 12.84636,-2.16888 12.84636,-0.64063 0,0.51294 0.90048,1.21842 2.00106,1.56773 1.10059,0.34931 2.50742,1.58126 3.12631,2.73766 0.96392,1.80109 0.73725,2.38519 -1.58095,4.07388 -3.19127,2.32468 -2.0102,3.64845 3.2769,3.67281 2.62128,0.0121 3.25284,0.38499 2.98964,1.76531 -0.31213,1.63698 -2.39083,2.33144 -14.31296,4.78172 -1.1,0.22607 -3.02247,-0.0153 -4.27217,-0.53631 z M 53.976162,169.75395 c -4.65165,-1.33845 -10.12235,-7.44002 -9.20934,-10.27131 0.67777,-2.10177 5.87132,-5.34539 8.55883,-5.34539 0.98809,0 2.38903,0.71393 3.11321,1.58651 0.93981,1.1324 2.47758,1.46049 5.37244,1.14623 2.84351,-0.30869 5.02718,0.13818 7.30576,1.49505 5.51979,3.28696 3.87,5.77221 -3.83179,5.77221 -3.49784,0 -3.91821,0.26444 -3.91821,2.46482 0,3.39592 -2.636,4.52005 -7.3909,3.15188 z m 71.109508,-11.8667 c -0.97093,-5.81052 -2.54778,-8.75 -4.69386,-8.75 -1.37157,0 -2.02475,-0.65835 -2.02475,-2.04078 0,-1.97681 0.36826,-2.01965 11.75,-1.36687 6.4625,0.37064 12.3125,1.11909 13,1.66322 3.86184,3.05647 -1.64024,11.74443 -7.43774,11.74443 -1.75682,0 -3.47234,0.45 -3.81226,1 -0.33992,0.55 -1.8826,1 -3.42817,1 -2.39235,0 -2.89089,-0.48319 -3.35322,-3.25 z m 42.1104,-2.47567 c -0.83876,-0.97588 -1.80429,-2.56183 -2.14563,-3.52433 -0.49813,-1.40464 -1.81091,-1.75 -6.652,-1.75 -6.6441,0 -7.93917,-1.53468 -3.78138,-4.481 l 2.25,-1.59441 -2.5,-1.91258 c -1.375,-1.05192 -5.875,-3.25703 -10,-4.90026 l -7.5,-2.98768 -2.32248,2.93796 c -2.13431,2.69994 -6.17752,4.0734 -6.17752,2.09849 0,-1.16627 -4.6287,-3.16052 -7.33561,-3.16052 -1.23283,0 -3.94174,-0.86683 -6.0198,-1.92628 -4.72941,-2.4112 -9.95359,-1.77727 -12.07844,1.46566 -1.37287,2.09527 -1.29127,2.67973 0.96724,6.92739 1.35664,2.55148 2.46661,5.27987 2.46661,6.06309 0,2.57398 -4.51874,4.45497 -12.277928,5.11086 -6.21251,0.52515 -8.11042,0.33485 -10.17918,-1.02066 -3.42562,-2.24455 -3.2001,-4.03474 0.80602,-6.39841 1.8419,-1.08675 4.84122,-4.27895 6.66517,-7.09378 2.21162,-3.41311 4.41553,-5.51537 6.61638,-6.3112 2.650028,-0.95827 5.375968,-3.7281 4.143078,-4.2098 -0.15045,-0.0588 -1.94378,-0.95594 -3.985178,-1.99368 -2.65375,-1.34904 -4.89717,-1.72781 -7.87109,-1.32892 -5.86508,0.78667 -6.57724,1.79911 -5.11395,7.27019 2.16937,8.11101 -0.08109,9.44554 -15.92832,9.44554 -7.95982,0 -8.875,-0.19026 -8.875,-1.84501 0,-1.01476 0.9,-2.6595 2,-3.65499 1.1,-0.99549 2,-2.41523 2,-3.15499 0,-0.73975 0.64286,-1.34501 1.42857,-1.34501 0.78572,0 2.20362,-0.7875 3.1509,-1.75 0.94727,-0.9625 3.11692,-2.23784 4.82142,-2.8341 2.11468,-0.73973 3.20896,-1.8515 3.44493,-3.5 0.1902,-1.32874 0.77639,-2.94056 1.30265,-3.5818 1.33686,-1.62897 -2.43075,-2.69133 -6.70258,-1.88993 -3.12965,0.58713 -3.33593,0.85564 -2.78263,3.62212 0.96805,4.84024 -1.71901,6.91776 -9.06825,7.01121 -10.36358,0.13179 -20.87568,5.17089 -16.59501,7.95503 0.825,0.53658 3.975,0.86127 7,0.72153 5.31248,-0.2454 5.51067,-0.16149 5.81306,2.46106 0.26054,2.25966 -0.15884,2.83043 -2.5,3.40249 -1.54718,0.37806 -3.88625,1.51875 -5.19792,2.53488 -3.10867,2.40824 -4.21576,2.33695 -10.11248,-0.65114 -8.71699,-4.41724 -9.3739,-9.19211 -2.15426,-15.65868 4.79446,-4.29435 10.81039,-6.63667 21.4016,-8.33276 2.83928,-0.45469 3.75,-1.07199 3.75,-2.5418 0,-1.27338 1.20418,-2.44441 3.5,-3.40366 6.23069,-2.60335 4.17995,-3.56445 -7.60564,-3.56445 -10.33917,0 -11.30744,0.1698 -14.02944,2.46021 -1.60809,1.35311 -4.46395,2.74914 -6.34637,3.10229 -2.01676,0.37834 -4.06787,1.62693 -4.99361,3.03979 -3.91763,5.97905 -6.50724,0.42495 -2.96652,-6.36247 0.78609,-1.5069 1.43203,-3.71966 1.43542,-4.91724 0.003,-1.19758 1.07526,-3.01838 2.38195,-4.04621 1.30668,-1.02784 2.68654,-3.28367 3.06636,-5.01296 0.68418,-3.115069 1.96841,-4.216649 11.85554,-10.169389 3.5189,-2.11862 3.79948,-2.5498 2.34924,-3.61024 -0.90581,-0.66235 -1.64693,-1.67591 -1.64693,-2.25237 0,-0.57645 2.7,-3.72309 6,-6.99252 4.1223,-4.08411 6,-6.7205 6,-8.42429 0,-1.68098 1.2588,-3.49147 3.90751,-5.62003 2.9645,-2.38234 4.07246,-4.11652 4.59103,-7.1859 0.70346,-4.16378 4.43646,-7.99837 9.19054,-9.44066 1.67788,-0.50903 2.44689,-1.90601 3.29312,-5.98226 1.27158,-6.12516 3.20878,-8.23697 11.0178,-12.01093 7.812028,-3.77541 11.587438,-7.45225 14.030158,-13.663852 2.54254,-6.4654001 4.05801,-8.3089581 9.91562,-12.0622871 7.8476,-5.02843 13.62839,-3.75728003 19.12014,4.204359 1.31619,1.908148 2.43253,2.259029 7,2.200217 7.47018,-0.09619 21.43046,-1.780384 27.2953,-3.292961 6.56918,-1.69423 27.1169,-0.627256 35.13878,1.824639 6.10337,1.8655 7.23077,2.9315381 11.65541,11.0209771 1.44854,2.648328 2.3233,3.090448 7,3.537928 2.93952,0.28126 10.33255,0.99587 16.42894,1.58803 19.34904,1.87941 25.24745,5.34673 23.93192,14.06813 -1.07246,7.10996 -0.75287,9.7634 1.44005,11.95632 1.50428,1.50428 2.04368,3.34197 2.04368,6.96264 0,2.70543 0.63337,6.19293 1.4075,7.75 3.82818,7.7 3.85387,7.85282 2.58472,15.37716 -1.83794,10.89653 -3.25668,13.56882 -8.46304,15.94059 -6.99932,3.18855 -14.11279,4.539349 -17.82837,3.38548 -4.22091,-1.31081 -11.23542,-1.06338 -16.20081,0.571459 -5.42252,1.78536 -6.5,2.80959 -6.5,6.17879 0,4.54174 -3.46957,3.83761 -6.05419,-1.22867 l -2.09485,-4.10623 2.24884,-2.393769 c 1.23685,-1.31657 2.98039,-2.39377 3.87451,-2.39377 0.89413,0 2.15994,-0.53425 2.81292,-1.18723 0.81356,-0.81356 6.31284,-1.20698 17.47271,-1.25 15.324,-0.0591 16.45446,-0.19561 19.14763,-2.31277 1.57418,-1.2375 3.40423,-2.25 4.06677,-2.25 2.03993,0 3.52566,-4.79253 3.52566,-11.37274 0,-5.27001 -0.3718,-6.62792 -2.31445,-8.45295 -1.27295,-1.19587 -2.73545,-2.15934 -3.25,-2.14104 -1.40277,0.0499 -4.70823,3.1128 -6.70901,6.21673 -0.97496,1.5125 -2.48542,2.75 -3.35658,2.75 -0.96103,0 -1.36861,0.56114 -1.03639,1.42689 0.30115,0.78478 -0.1007,1.96488 -0.89301,2.62244 -0.79231,0.65756 -1.44056,2.21819 -1.44056,3.46808 0,1.86789 -0.66771,2.36413 -3.75,2.78704 -2.0625,0.28298 -8.19524,1.24751 -13.62832,2.14338 -5.43307,0.89588 -10.09063,1.41655 -10.35013,1.15705 -1.11211,-1.11211 1.16943,-2.64169 6.39954,-4.29033 3.64967,-1.15046 6.31796,-2.73329 7.65398,-4.54036 1.12808,-1.52581 2.75392,-2.78082 3.61299,-2.78893 1.78078,-0.0168 3.18464,-0.78816 12.42397,-6.82633 3.65337,-2.38759 7.9032,-5.87052 9.44405,-7.73984 2.55355,-3.0979 2.74759,-3.889 2.19196,-8.93692 -0.77498,-7.04073 -3.09895,-9.46474 -10.48881,-10.94034 -6.66537,-1.33093 -7.21187,-2.84368 -1.28633,-3.56066 4.33863,-0.52496 9.688,-3.57803 9.74568,-5.56219 0.0362,-1.24376 -2.57474,-2.71341 -8.96858,-5.04834 -3.17088,-1.15795 -9.16512,-1.78636 -20.29465,-2.12759 l -15.79464,-0.48428 -3.99125,-5.87737 c -5.29881,-7.802848 -9.31731,-9.790773 -22.25173,-11.007802 -11.08691,-1.0431931 -14.57071,-0.6277021 -19.41773,2.315835 -4.06781,2.47033 -4.1532,5.061212 -0.29401,8.920397 1.71964,1.71965 2.71847,3.57493 2.38812,4.43581 -0.31232,0.81391 -0.0363,2.12033 0.61341,2.90317 1.41496,1.70493 -0.22869,5.55119 -2.37224,5.55119 -1.81578,0 -8.84157,-8.68057 -10.08528,-12.46064 -0.88302,-2.683815 -1.50672,-3.075798 -5.33168,-3.350849 -4.68264,-0.336726 -9.16832,1.783989 -9.16832,4.334539 0,1.85651 -1.46011,1.85262 -8.66131,-0.023 -11.61794,-3.02609 -18.40739,-1.38395 -23.67404,5.72595 -1.82849,2.46844 -1.90803,3.20779 -0.84195,7.82629 0.64752,2.80519 1.1773,6.36426 1.1773,7.90904 0,1.89246 0.81553,3.34306 2.5,4.44676 2.14476,1.4053 2.5,2.38916 2.5,6.92388 0,7.00332 1.25249,8.38827 8.46873,9.36434 l 5.96873,0.80733 0.80028,4.04676 c 0.67544,3.41546 1.30363,4.19518 4.02685,4.9982 1.88492,0.55582 4.06004,2.26987 5.23099,4.12214 1.10243,1.74387 2.76627,3.38254 3.69742,3.64147 0.93115,0.25893 3.34616,3.10712 5.36669,6.32931 2.02053,3.22219 4.98867,7.20853 6.59585,8.85853 1.60719,1.65 5.43004,6.063649 8.49523,9.808109 3.06519,3.74446 7.32271,7.9126 9.46115,9.26254 4.82912,3.04849 5.59541,7.06704 1.13808,5.96827 -1.5125,-0.37284 -4.1,-1.53589 -5.75,-2.58455 -1.65,-1.04866 -5.3625,-3.13613 -8.25,-4.63883 -4.02059,-2.09237 -5.25,-3.27099 -5.25,-5.0331 0,-1.68424 -1.34008,-3.12549 -5,-5.37746 -5.37602,-3.30789 -6.16636,-4.78721 -3,-5.615229 1.1,-0.28766 2,-0.8347 2,-1.21565 0,-0.38095 -2.31182,-3.09112 -5.13738,-6.02259 -5.16684,-5.36055 -10.78149,-8.05156 -16.79904,-8.05156 -1.44021,0 -3.54648,-0.64993 -4.68059,-1.4443 -1.71703,-1.20265 -4.3136,-1.95352 -8.55353,-2.47347 -0.3688,-0.0452 -0.95701,-1.38647 -1.30712,-2.98054 -0.6377,-2.9034 -2.66381,-4.05935 -7.16535,-4.08804 -2.72735,-0.0174 -3.3134,-1.63651 -4.05008,-11.18968 -0.45344,-5.88007 -0.25979,-8.1747 0.79706,-9.44463 0.93153,-1.11935 1.56239,-5.3958 1.89603,-12.85275 0.57257,-12.79732 2.18316,-16.36093 9.22642,-20.41451 3.2785,-1.886867 4.79089,-2.159839 8.8633,-1.59974 5.32274,0.732063 5.53219,0.573215 3.66028,-2.775909 -2.5511,-4.56428 -6.12859,-7.7364311 -8.725,-7.7364311 -2.0849,0 -3.48596,1.304173 -7.06291,6.5744891 -2.45415,3.615969 -5.44855,8.228471 -6.65422,10.250001 -3.13443,5.25546 -9.119648,10.13285 -14.053848,11.45254 -4.35237,1.16409 -4.62889,1.54803 -5.70144,7.91661 -0.44475,2.64082 -1.25349,3.88498 -2.83732,4.36493 -3.67892,1.11484 -6.76821,4.60964 -9.89286,11.19143 -2.18625,4.60515 -3.49535,6.25 -4.97422,6.25 -1.69996,0 -1.90845,0.4491 -1.36249,2.93485 0.48622,2.21373 0.13717,3.44229 -1.42054,5 -1.13583,1.13583 -2.73411,2.06515 -3.55173,2.06515 -0.81762,0 -2.14466,1.575 -2.94897,3.5 -0.80432,1.925 -1.97491,3.5 -2.60132,3.5 -0.77074,0 -0.92494,1.26658 -0.47699,3.91795 0.63625,3.76595 0.51965,3.98547 -3.00569,5.65835 -2.0172,0.95722 -4.12514,2.74452 -4.68431,3.97178 -0.55918,1.22726 -2.09206,2.72135 -3.40641,3.32021 -1.60885,0.73304 -2.38973,1.920839 -2.38973,3.635019 0,1.76836 -0.73405,2.82528 -2.40286,3.45976 -1.32157,0.50246 -2.69813,1.39132 -3.05902,1.97525 -0.98912,1.60043 2.54892,1.27037 5.96188,-0.55618 5.63588,-3.01622 25.18231,-1.17364 28.8055,2.7154 1.88317,2.02134 5.38826,2.10841 10.22104,0.2539 0.76149,-0.29221 2.53977,0.62397 3.95175,2.03594 4.87349,4.87349 8.34772,4.90145 19.021708,0.15311 2.21508,-0.98538 5.58844,-1.16063 12.89308,-0.66979 l 9.89308,0.66476 4.83426,5.39741 c 5.75245,6.42258 9.4842,9.04949 12.87958,9.06641 1.7973,0.009 4.18648,1.86213 8.5,6.59303 3.3,3.61931 7.02226,6.98425 8.2717,7.47763 1.40747,0.55579 2.5035,2.05607 2.88101,3.94361 0.34477,1.72387 1.96344,4.10917 3.7283,5.4941 2.53799,1.99161 2.9194,2.76661 2.04755,4.16042 -1.53787,2.45855 -2.85799,2.63255 -4.59955,0.60626 z m -38.24779,-24.52221 c 0.32577,-0.32577 -0.57174,-1.35503 -1.99446,-2.28723 -1.42272,-0.9322 -2.58676,-2.31816 -2.58676,-3.0799 0,-1.29708 -2.56041,-1.89809 -6,-1.4084 -2.21904,0.31592 -2.6138,1.02602 -1.09292,1.96598 0.74203,0.4586 1.02662,1.35568 0.63242,1.99351 -1.62418,2.62798 0.28225,3.92249 5.39585,3.6639 2.77945,-0.14055 5.32009,-0.52209 5.64587,-0.84786 z M 141.38712,17.613085 c 1.7372,-2.093197 0.70095,-2.793106 -2.94855,-1.991539 -4.40256,0.966964 -3.93337,2.477429 1.05605,3.399704 0.34515,0.0638 1.19678,-0.569874 1.8925,-1.408165 z m 66.72994,105.444065 c -1.02813,-0.59883 -1.75,-2.21193 -1.75,-3.91057 0,-1.59021 -0.47657,-3.18583 -1.05905,-3.54582 -0.58248,-0.36 -0.96557,-1.62405 -0.85131,-2.80902 0.11425,-1.18497 -0.14975,-2.98741 -0.58667,-4.00541 -1.65597,-3.85833 5.52102,-4.13867 9.56243,-0.37352 l 2.22383,2.07181 -2.14461,1.73661 c -1.68445,1.36398 -2.14462,2.8287 -2.14462,6.82631 0,5.29226 -0.33604,5.70684 -3.25,4.00961 z m -25.77761,-13.97148 c -0.60388,-1.12838 -0.95722,-3.04088 -0.78518,-4.25 0.25765,-1.81088 1.062,-2.25263 4.56279,-2.50592 3.69266,-0.26717 4.25,-0.0438 4.25,1.70295 0,1.10574 -0.52223,3.15662 -1.16052,4.5575 -1.43537,3.15029 -5.29715,3.42892 -6.86709,0.49547 z m -107.519988,-0.0255 c -0.25276,-0.40896 0.10493,-2.47143 0.79485,-4.58326 1.52381,-4.664409 4.65909,-5.524399 8.84841,-2.4271 1.55285,1.14806 3.29158,2.08739 3.86385,2.08739 0.57227,0 1.04049,0.675 1.04049,1.5 0,1.04272 -1.049,1.5 -3.44098,1.5 -1.89254,0 -3.68704,0.39812 -3.98776,0.8847 -0.71353,1.15451 -6.52334,2.00186 -7.11886,1.03827 z m 58.047598,-3.12047 c -8.58724,-2.02833 -8.98933,-2.24718 -9.31642,-5.07086 -0.30695,-2.649799 -0.16839,-2.731589 4.62787,-2.731589 7.95303,0 15.19968,3.922669 13.83181,7.487269 -0.6389,1.66494 -3.07354,1.74887 -9.14326,0.31518 z M 94.532472,96.540561 c -1.59091,-1.11432 -2.18682,-2.3957 -1.9725,-4.24145 0.38853,-3.34613 2.54606,-3.76972 7.458428,-1.4643 2.89547,1.35887 3.92703,2.48683 4.16508,4.55432 0.29658,2.57575 0.0753,2.74812 -3.52749,2.74812 -2.114158,0 -4.869738,-0.71851 -6.123518,-1.59669 z m 79.214678,0.1448 c -0.33211,-0.86547 0.009,-2.31475 0.75803,-3.22063 0.74904,-0.90587 1.36188,-2.77141 1.36188,-4.14563 0,-3.36705 1.86147,-3.7836 4.45721,-0.99741 1.51645,1.62773 2.04931,3.3094 1.83896,5.80368 -0.27622,3.27534 -0.54929,3.53282 -4.05421,3.82272 -2.70108,0.22342 -3.92786,-0.13172 -4.36187,-1.26273 z M 72.945232,95.245341 c -4.82929,-0.74879 -5.67489,-2.66614 -1.90672,-4.32338 1.5557,-0.6842 3.09935,-1.6218 3.43034,-2.08356 0.33098,-0.46175 2.35224,-0.69591 4.49168,-0.52035 2.89327,0.23742 3.98307,0.81016 4.25355,2.23544 0.36221,1.90862 -3.33885,5.65994 -5.34702,5.41962 -0.55,-0.0658 -2.76482,-0.39331 -4.92183,-0.72777 z m 116.265948,-2.55086 c -0.91127,-2.00002 -0.74945,-3.01695 0.89279,-5.61069 1.50714,-2.38037 1.79505,-3.82408 1.15807,-5.80724 -0.46624,-1.45161 -1.09083,-4.25798 -1.38797,-6.23636 -0.38436,-2.55911 -1.25504,-3.92274 -3.01738,-4.72571 -2.04667,-0.93253 -2.45205,-1.78454 -2.33277,-4.90295 0.0794,-2.07585 -0.15857,-4.72325 -0.52883,-5.8831 -0.83534,-2.61678 1.50247,-4.80192 4.21601,-3.94068 2.22713,0.70686 3.12286,3.31341 3.14231,9.14396 0.01,2.86939 0.73415,4.93296 2.42171,6.8969 3.54533,4.12595 3.7792,8.86391 1.04938,21.25864 -0.67603,3.06952 -4.18177,2.94912 -5.61332,-0.19277 z m -83.34412,-2.55723 c -2.2,-1.01842 -4.60144,-1.88505 -5.33652,-1.92584 -1.378878,-0.0765 -8.975828,-5.05162 -12.871178,-8.42911 -1.73629,-1.50546 -3.07084,-1.77617 -6.25,-1.26781 -3.62558,0.57976 -4.0423,0.43374 -4.0423,-1.41645 0,-2.82493 6.43652,-5.56472 9.98342,-4.24958 1.38412,0.51321 2.41016,1.4449 2.28008,2.07044 -0.13007,0.62553 1.33243,1.88183 3.25,2.79178 1.91758,0.90995 3.4865,2.05318 3.4865,2.54051 0,0.48733 1.73931,0.88606 3.865138,0.88606 2.35095,0 4.86122,0.78351 6.40773,2 1.39842,1.1 3.94823,2 5.66624,2 4.07406,0 5.00121,2.40106 1.91878,4.96908 -2.85278,2.37668 -3.28709,2.37829 -8.35789,0.0309 z m 100.65161,-13.88514 c -1.97282,-1.25023 -0.97413,-4.56569 1.48133,-4.91773 2.50751,-0.35951 3.9279,2.42217 2.26187,4.42962 -1.31814,1.58826 -1.88961,1.66278 -3.7432,0.48811 z m -40.15161,-6.61486 c -0.68469,-0.825 -2.04164,-1.5 -3.01546,-1.5 -2.76076,0 -3.19756,-2.8921 -0.9199,-6.09078 2.35002,-3.3003 4.93536,-3.83768 4.93536,-1.02585 0,1.04236 0.89308,2.11691 2,2.40638 2.82483,0.73871 2.93554,7.71025 0.12244,7.71025 -1.03265,0 -2.43775,-0.675 -3.12244,-1.5 z m -75.749998,-1.16228 c -0.6875,-0.27741 -1.25,-1.08679 -1.25,-1.79861 0,-0.71182 -0.675,-1.85442 -1.5,-2.53911 -1.73726,-1.4418 -1.95818,-5.27536 -0.46482,-8.06574 2.2395,-4.18454 6.251,-0.88212 5.25533,4.32638 -0.31789,1.6629 -0.0849,2.73936 0.59291,2.73936 0.61412,0 1.11658,1.35 1.11658,3 0,2.90377 -0.9223,3.47872 -3.75,2.33772 z m 150.749998,-3.22931 c 0,-0.60963 0.47387,-1.10841 1.05305,-1.10841 0.57918,0 2.67936,-1.1051 4.66705,-2.45577 3.65403,-2.48298 5.2799,-2.51578 5.2799,-0.10653 0,1.33814 -3.24958,2.96737 -8.25,4.13627 -1.73262,0.40502 -2.75,0.23278 -2.75,-0.46556 z m -106.17857,-3.54211 c -0.72679,-0.78854 -2.64525,-3.26354 -4.26326,-5.5 -1.618,-2.23647 -3.4938,-4.0663 -4.16844,-4.0663 -1.45902,0 -5.38973,-6.06297 -5.38973,-8.31347 0,-0.86757 -1.2375,-2.17052 -2.75,-2.89544 -1.63479,-0.78353 -2.75,-2.12364 -2.75,-3.30456 0,-1.66418 0.67609,-1.98653 4.16649,-1.98653 2.29157,0 4.50407,-0.3375 4.91667,-0.75 0.41259,-0.4125 2.02287,-0.75 3.57838,-0.75 2.37474,0 3.16967,0.72642 4.95778,4.53046 2.5732,5.47425 5.43358,7.77919 7.96954,6.42198 3.12781,-1.67395 5.07992,-1.15718 4.73069,1.25233 -0.23982,1.65465 -1.50476,2.57177 -5.06955,3.67557 -5.29656,1.64003 -5.98326,2.77203 -2.25,3.70902 1.94562,0.48832 2.5,1.26867 2.5,3.51905 0,1.59037 -0.45,2.89159 -1,2.89159 -0.55,0 -1,0.675 -1,1.5 0,1.90391 -2.44905,1.94276 -4.17857,0.0663 z m 119.17857,-1.94386 c 0,-1.88465 2.56096,-3.85999 4.4793,-3.45502 1.43207,0.30233 1.43128,0.53725 -0.009,2.58258 -1.7539,2.49127 -4.47063,3.02144 -4.47063,0.87244 z m -14,-3.03911 c 0,-0.87083 0.7125,-1.58333 1.58333,-1.58333 1.76593,0 1.45839,2.15276 -0.39583,2.77083 -0.65313,0.21771 -1.1875,-0.31666 -1.1875,-1.1875 z m 5.18816,-3.32185 c 0.41489,-2.15437 3.81184,-2.99366 3.81184,-0.94179 0,0.80648 -0.7118,1.73948 -1.58179,2.07332 -2.34801,0.90102 -2.59714,0.77461 -2.23005,-1.13153 z m -61.65282,-2.20429 c -1.03583,-1.67601 0.36334,-3.05719 3.097,-3.05719 1.85498,0 2.42684,0.45891 2.18077,1.75 -0.37516,1.96837 -4.27255,2.93367 -5.27777,1.30719 z m 29.53632,-11.44124 -2.09146,-3.38406 -6.4901,0.52097 c -5.68726,0.45652 -6.4901,0.30689 -6.4901,-1.20957 0,-0.95179 0.9,-1.96588 2,-2.25354 1.1,-0.28766 2,-1.09738 2,-1.79939 0,-1.48186 2.23471,-2.50819 5.33179,-2.44873 3.5044,0.0673 9.39492,5.9847 10.19317,10.23972 0.92137,4.91136 -1.51173,5.09417 -4.4533,0.3346 z m -24.62551,1.29692 c -0.94095,-1.52249 1.10241,-3.30008 2.96977,-2.58351 0.89841,0.34476 1.3022,1.24162 0.96023,2.13279 -0.68249,1.77855 -2.94872,2.03846 -3.93,0.45072 z m 1.30564,-5.7543 c -1.51152,-0.91221 -2.74902,-2.22107 -2.75,-2.90857 -9.9e-4,-0.6875 -0.40365,-1.25 -0.8948,-1.25 -1.78981,0 -2.04355,-3.16719 -0.44873,-5.60118 1.40752,-2.14815 2.26691,-2.45472 6.16055,-2.19761 5.22246,0.34486 6.58066,2.31622 2.6305,3.81806 -2.54053,0.96591 -2.60937,1.14638 -1.08129,2.8349 1.92527,2.12739 2.19925,7.18732 0.38198,7.0544 -0.6875,-0.0503 -2.4867,-0.83778 -3.99821,-1.75 z m 10.15122,-13.26346 c -1.32166,-1.15768 -3.48421,-2.963984 -4.80567,-4.014 -3.2984,-2.620857 -1.95388,-3.451059 3.14621,-1.94269 6.68011,1.975666 10.00185,5.98596 6.17466,7.45459 -2.08156,0.79877 -1.77845,0.89932 -4.5152,-1.4979 z"
     id="path817"
     inkscape:connector-curvature="0" />
</svg>
