<?xml version="1.0" encoding="UTF-8" standalone="no"?>
<!-- Generator: Adobe Illustrator 19.2.1, SVG Export Plug-In . SVG Version: 6.00 Build 0)  -->

<svg
   xmlns:dc="http://purl.org/dc/elements/1.1/"
   xmlns:cc="http://creativecommons.org/ns#"
   xmlns:rdf="http://www.w3.org/1999/02/22-rdf-syntax-ns#"
   xmlns:svg="http://www.w3.org/2000/svg"
   xmlns="http://www.w3.org/2000/svg"
   xmlns:sodipodi="http://sodipodi.sourceforge.net/DTD/sodipodi-0.dtd"
   xmlns:inkscape="http://www.inkscape.org/namespaces/inkscape"
   version="1.1"
   id="layer"
   x="0px"
   y="0px"
   viewBox="0 0 600.09998 136.7"
   xml:space="preserve"
   sodipodi:docname="techrepublic-logo-vector.svg"
   width="600.09998"
   height="136.7"
   inkscape:version="0.92.4 (5da689c313, 2019-01-14)"><metadata
   id="metadata47"><rdf:RDF><cc:Work
       rdf:about=""><dc:format>image/svg+xml</dc:format><dc:type
         rdf:resource="http://purl.org/dc/dcmitype/StillImage" /><dc:title></dc:title></cc:Work></rdf:RDF></metadata><defs
   id="defs45" /><sodipodi:namedview
   pagecolor="#ffffff"
   bordercolor="#666666"
   borderopacity="1"
   objecttolerance="10"
   gridtolerance="10"
   guidetolerance="10"
   inkscape:pageopacity="0"
   inkscape:pageshadow="2"
   inkscape:window-width="2496"
   inkscape:window-height="1570"
   id="namedview43"
   showgrid="false"
   inkscape:zoom="0.36196319"
   inkscape:cx="304.8"
   inkscape:cy="63.3"
   inkscape:window-x="-11"
   inkscape:window-y="-11"
   inkscape:window-maximized="1"
   inkscape:current-layer="layer" />
<style
   type="text/css"
   id="style2">
	.st0{fill:#2378B8;}
</style>
<g
   id="g12"
   style="fill:#ffffff;fill-opacity:1"
   transform="translate(-21.2,-252.6)">
	<path
   class="st0"
   d="m 23.5,311 -2.3,11.5 c 0,0 13.9,8 23.3,28.7 8.3,18.2 10.3,38.1 10.3,38.1 l 3.5,-9.5 c 0,0 -1.9,-19.3 -10.4,-38.1 C 37.2,318 23.5,311 23.5,311 Z"
   id="path4"
   style="fill:#ffffff;fill-opacity:1"
   inkscape:connector-curvature="0" />
	<path
   class="st0"
   d="M 27.5,289.4 25,302.7 c 0,0 15.2,10.2 23.4,28.5 9.9,22 11.5,43.5 11.5,43.5 l 3.9,-11 c 0,0 -1.1,-18.1 -9.5,-38.7 C 43.5,298.2 27.5,289.4 27.5,289.4 Z"
   id="path6"
   style="fill:#ffffff;fill-opacity:1"
   inkscape:connector-curvature="0" />
	<path
   class="st0"
   d="m 45.8,299.5 c 0,0 6.6,-19.6 22.9,-19.3 15.9,0.3 22.4,14 37.5,12.7 21.7,-1.9 36.6,-30 36.6,-30 l -2.2,-10.3 c 0,0 -13.3,24.5 -34.7,25.4 -14.1,0.6 -19,-11 -34,-12 -20.3,-1.3 -27.7,21.7 -27.7,21.7 z"
   id="path8"
   style="fill:#ffffff;fill-opacity:1"
   inkscape:connector-curvature="0" />
	<path
   class="st0"
   d="m 65.6,349.4 c 0,0 8.6,-17.3 24.2,-17.1 14.2,0.2 21.5,13.9 36.7,12.8 C 144.2,343.8 155,319 155,319 l -2,-9.2 c 0,0 -9.3,21.2 -27.1,21.9 -14.1,0.5 -18.5,-11.2 -33.5,-12.3 -17.1,-1.2 -26.2,16.4 -26.2,16.4 z"
   id="path10"
   style="fill:#ffffff;fill-opacity:1"
   inkscape:connector-curvature="0" />
</g>
<g
   id="g40"
   style="fill:#ffffff;fill-opacity:1"
   transform="translate(-21.2,-252.6)">
	<path
   class="st0"
   d="m 213.5,284.8 -0.4,10.5 c -0.6,-0.1 -9.2,-0.3 -14.6,-0.3 -0.9,11.2 -1.5,28.2 -1.6,37.1 h -15.2 c 1.1,-11.3 1.9,-22.8 2.1,-37.1 -4.9,0 -9.8,0.2 -14.7,0.3 l 0.4,-10.5 c -0.1,0 44,0 44,0 z"
   id="path14"
   style="fill:#ffffff;fill-opacity:1"
   inkscape:connector-curvature="0" />
	<path
   class="st0"
   d="m 217.1,309.6 c 0.4,-3.1 2.5,-6.4 6.4,-6.4 3.5,0 5.2,2.2 5.2,6.4 z m 24.4,6.6 c 0.4,-1.8 0.5,-3.6 0.5,-5.4 0,-10 -6.5,-15.6 -18.3,-15.6 -19.2,0 -20.7,16.2 -20.7,20.1 0,14.2 10,17.7 21.5,17.7 4.2,0 8.4,-0.5 12.6,-1.4 l 1.7,-10.1 c -4,1.2 -8.4,2.4 -12.6,2.4 -4.8,0 -9.5,-2 -9.5,-7.7 z"
   id="path16"
   style="fill:#ffffff;fill-opacity:1"
   inkscape:connector-curvature="0" />
	<path
   class="st0"
   d="m 275.2,307.2 c -3,-1 -6.1,-1.7 -9.2,-1.7 -5.6,0 -9.1,3.2 -9.1,8.9 0,5.4 2.9,8.2 8.3,8.2 3,0 6.1,-0.7 9,-1.7 l -1.7,10.8 c -3.5,0.9 -7.1,1.3 -10.7,1.3 -11.8,0 -18.5,-6.4 -18.5,-18.3 0,-3.8 0.9,-19.5 19.1,-19.5 4.7,0 8.5,0.4 12.2,1.4 z"
   id="path18"
   style="fill:#ffffff;fill-opacity:1"
   inkscape:connector-curvature="0" />
	<path
   class="st0"
   d="m 293.5,283.9 c -0.3,2.7 -1.1,12.1 -1.3,17 l 0.2,0.1 c 3.2,-4.7 6.9,-5.9 13.8,-5.9 7.1,0 13.2,2.7 13.2,11.5 0,2 -1,16.4 -1,25.4 h -14.2 c 0.4,-6.3 1.1,-12.6 1.1,-18.8 0,-3.5 -1.1,-6.8 -5.3,-6.8 -3.7,0 -6.1,2.5 -7.1,5.9 -1.2,3.8 -1.5,12 -1.8,19.7 h -14.4 c 1,-9 2.5,-30.7 2.5,-48.2 z"
   id="path20"
   style="fill:#ffffff;fill-opacity:1"
   inkscape:connector-curvature="0" />
	<path
   class="st0"
   d="m 338.6,294 c -0.8,12.6 -1.1,25.3 -1.3,38.1 h -14.9 c 1.7,-14.9 2.2,-28.9 2.3,-48.2 h 25.5 c 3.5,0 17.3,0.4 17.3,12.8 0,7.6 -4.5,11.7 -11.3,14.1 2.8,7.2 6.4,14.1 9.4,21.3 h -16 c -2.6,-9.2 -6,-18 -9.3,-27 1.2,0.2 2.4,0.4 3.5,0.4 4.2,0 9.2,-1.6 9.2,-6.6 0,-4.8 -4.8,-4.8 -8.2,-4.8 h -6.2 z"
   id="path22"
   style="fill:#ffffff;fill-opacity:1"
   inkscape:connector-curvature="0" />
	<path
   class="st0"
   d="m 379,309.6 c 0.4,-3.1 2.5,-6.4 6.4,-6.4 3.5,0 5.2,2.2 5.2,6.4 z m 24.4,6.6 c 0.4,-1.8 0.5,-3.6 0.5,-5.4 0,-10 -6.5,-15.6 -18.3,-15.6 -19.2,0 -20.7,16.2 -20.7,20.1 0,14.2 10,17.7 21.5,17.7 4.2,0 8.4,-0.5 12.6,-1.4 l 1.7,-10.1 c -4,1.2 -8.4,2.4 -12.6,2.4 -4.8,0 -9.5,-2 -9.5,-7.7 z"
   id="path24"
   style="fill:#ffffff;fill-opacity:1"
   inkscape:connector-curvature="0" />
	<path
   class="st0"
   d="m 419.7,305.8 c 1.7,-0.4 3.5,-0.8 5.3,-0.8 5.3,0 8,3.3 8,8.5 0,4.3 -1.9,9.6 -7.1,9.6 -4.9,0 -6.9,-4.8 -6.9,-9 0,-2.8 0.3,-5.6 0.7,-8.3 z m -1.9,42.7 c 0,-6.6 0.4,-13.4 0.6,-20.1 3.7,3 8.1,4.5 12.8,4.5 10.4,0 15.5,-9.6 15.5,-18.9 0,-9.8 -4.9,-18.8 -19.6,-18.8 -8.1,0 -14.5,0.8 -21,1.9 0,17.2 -1,34.4 -2.5,51.5 z"
   id="path26"
   style="fill:#ffffff;fill-opacity:1"
   inkscape:connector-curvature="0" />
	<path
   class="st0"
   d="m 474.8,327.4 -0.1,-0.2 c -3,4.3 -7.4,5.6 -12.6,5.6 -10,0 -12.9,-4.9 -12.9,-11 0,-2.3 1.3,-18.8 1.3,-25.9 h 14.1 c -0.3,6.4 -1.3,12.8 -1.3,19.2 0,3.5 1.2,6.4 5.1,6.4 3.7,0 5.7,-2.9 6.4,-6.1 0.9,-4 1.1,-12.3 1.3,-19.5 h 14 c -1.2,12 -1.7,24 -2,36 h -13.3 z"
   id="path28"
   style="fill:#ffffff;fill-opacity:1"
   inkscape:connector-curvature="0" />
	<path
   class="st0"
   d="m 506.8,305.8 c 1.7,-0.4 3.5,-0.8 5.3,-0.8 5.3,0 8,3.3 8,8.5 0,4.3 -1.9,9.6 -7.1,9.6 -4.9,0 -6.9,-4.8 -6.9,-9 -0.1,-2.8 0.2,-5.6 0.7,-8.3 z m -1.8,21.7 h 0.1 c 2.8,3.7 6.5,5.4 11.3,5.4 11.6,0 17.3,-9.7 17.3,-20.4 0,-11.3 -6.6,-17.4 -17.7,-17.4 -1.5,0 -2.9,0.1 -4.3,0.2 -1.4,0.1 -2.8,0.4 -4.3,0.7 0.3,-5.1 0.6,-8.7 1.1,-12.1 h -14.4 c -0.2,16.1 -1.3,32.1 -2.5,48.2 H 505 Z"
   id="path30"
   style="fill:#ffffff;fill-opacity:1"
   inkscape:connector-curvature="0" />
	<path
   class="st0"
   d="m 551.8,283.9 c -0.8,8.1 -2.4,35.5 -2.6,48.2 h -14.4 c 1.4,-16 2.2,-32.1 2.6,-48.2 z"
   id="path32"
   style="fill:#ffffff;fill-opacity:1"
   inkscape:connector-curvature="0" />
	<path
   class="st0"
   d="m 552.7,332 c 1.2,-10.9 1.7,-21.7 1.9,-36 H 569 c -1.2,12 -1.3,24 -1.3,36 z m 2.3,-40.5 0.1,-8.5 h 14 l -0.4,8.5 z"
   id="path34"
   style="fill:#ffffff;fill-opacity:1"
   inkscape:connector-curvature="0" />
	<path
   class="st0"
   d="m 602.8,307.2 c -3,-1 -6.1,-1.7 -9.2,-1.7 -5.6,0 -9.1,3.2 -9.1,8.9 0,5.4 2.9,8.2 8.3,8.2 3,0 6.1,-0.7 9,-1.7 l -1.7,10.8 c -3.5,0.9 -7.2,1.3 -10.8,1.3 -11.8,0 -18.5,-6.4 -18.5,-18.3 0,-3.8 0.9,-19.5 19.1,-19.5 4.7,0 8.5,0.4 12.2,1.4 z"
   id="path36"
   style="fill:#ffffff;fill-opacity:1"
   inkscape:connector-curvature="0" />
	<path
   class="st0"
   d="m 619.3,330.2 c -1.2,1.2 -2.7,1.8 -4.4,1.8 -1.8,0 -3.3,-0.6 -4.5,-1.8 -1.2,-1.2 -1.8,-2.7 -1.8,-4.5 0,-1.8 0.7,-3.4 2,-4.6 1.2,-1.1 2.7,-1.7 4.3,-1.7 1.7,0 3.2,0.6 4.5,1.8 1.2,1.2 1.9,2.7 1.9,4.5 -0.1,1.8 -0.7,3.3 -2,4.5 z m -8.1,-8.2 c -1,1 -1.5,2.2 -1.5,3.7 0,1.5 0.5,2.7 1.5,3.7 1,1 2.2,1.5 3.7,1.5 1.4,0 2.7,-0.5 3.7,-1.5 1,-1 1.5,-2.3 1.5,-3.7 0,-1.4 -0.5,-2.6 -1.5,-3.7 -1,-1.1 -2.2,-1.6 -3.7,-1.6 -1.5,0.1 -2.7,0.6 -3.7,1.6 z m 0.9,7.2 v -7 c 0.4,0 1.1,0 2,0 0.9,0 1.3,0 1.4,0 0.5,0 1,0.2 1.4,0.4 0.6,0.3 0.9,0.9 0.9,1.7 0,0.6 -0.2,1 -0.5,1.3 -0.3,0.3 -0.7,0.4 -1.2,0.5 0.4,0.1 0.8,0.2 1,0.4 0.4,0.3 0.6,0.9 0.6,1.6 v 0.6 c 0,0.1 0,0.1 0,0.2 0,0.1 0,0.1 0.1,0.2 l 0.1,0.2 h -1.7 c -0.1,-0.2 -0.1,-0.5 -0.1,-1 0,-0.4 -0.1,-0.7 -0.1,-0.9 -0.1,-0.2 -0.3,-0.4 -0.5,-0.5 -0.1,-0.1 -0.3,-0.1 -0.6,-0.1 h -0.4 -0.4 v 2.5 z m 3.3,-5.6 c -0.3,-0.1 -0.6,-0.2 -1.1,-0.2 h -0.4 v 2.1 h 0.7 c 0.4,0 0.8,-0.1 1,-0.3 0.2,-0.2 0.4,-0.5 0.4,-0.8 0,-0.4 -0.2,-0.7 -0.6,-0.8 z"
   id="path38"
   style="fill:#ffffff;fill-opacity:1"
   inkscape:connector-curvature="0" />
</g>
</svg>