<?xml version="1.0" encoding="UTF-8" standalone="no"?>
<!-- Created with Inkscape (http://www.inkscape.org/) -->

<svg
   xmlns:dc="http://purl.org/dc/elements/1.1/"
   xmlns:cc="http://creativecommons.org/ns#"
   xmlns:rdf="http://www.w3.org/1999/02/22-rdf-syntax-ns#"
   xmlns:svg="http://www.w3.org/2000/svg"
   xmlns="http://www.w3.org/2000/svg"
   xmlns:sodipodi="http://sodipodi.sourceforge.net/DTD/sodipodi-0.dtd"
   xmlns:inkscape="http://www.inkscape.org/namespaces/inkscape"
   version="1.1"
   id="svg2"
   width="548.44635"
   height="69.999992"
   viewBox="0 0 548.44635 69.999992"
   sodipodi:docname="TechQuila-Logo-com.svg"
   inkscape:version="0.92.4 (5da689c313, 2019-01-14)">
  <metadata
     id="metadata8">
    <rdf:RDF>
      <cc:Work
         rdf:about="">
        <dc:format>image/svg+xml</dc:format>
        <dc:type
           rdf:resource="http://purl.org/dc/dcmitype/StillImage" />
        <dc:title></dc:title>
      </cc:Work>
    </rdf:RDF>
  </metadata>
  <defs
     id="defs6" />
  <sodipodi:namedview
     pagecolor="#ffffff"
     bordercolor="#666666"
     borderopacity="1"
     objecttolerance="10"
     gridtolerance="10"
     guidetolerance="10"
     inkscape:pageopacity="0"
     inkscape:pageshadow="2"
     inkscape:window-width="3440"
     inkscape:window-height="1346"
     id="namedview4"
     showgrid="false"
     inkscape:zoom="2.1163054"
     inkscape:cx="291.97299"
     inkscape:cy="-42.38078"
     inkscape:window-x="-11"
     inkscape:window-y="-11"
     inkscape:window-maximized="1"
     inkscape:current-layer="svg2" />
  <path
     style="fill:#ffffff;fill-opacity:1"
     d="m 44.839781,62.831006 c -4.567713,-4.42907 -7.39342,-7.97152 -7.39342,-9.26877 0,-1.32886 3.671345,-5.75733 10,-12.06224 l 10,-9.962473 v 11.731243 11.73123 h 22 22.000009 v -18.5 V 18 H 86.221389 70.996416 L 78.446361,10.5 85.896306,3 h 10.550055 10.550069 l 7.22497,7.273516 7.22496,7.273516 v 18.226484 18.22648 h -6.49999 c -3.575,0 -6.5,0.32692 -6.5,0.72649 0,0.39956 3.25124,3.99956 7.22497,8 l 7.22496,7.27351 h -10.89622 c -8.73573,0 -11.25883,-0.32815 -12.724974,-1.65498 -1.701665,-1.53999 -1.955825,-1.53999 -3.657485,0 -1.578151,1.4282 -4.675907,1.65498 -22.60658,1.65498 H 52.233202 Z m 339.526129,3.27405 -2.14032,-2.89494 -4.63962,2.14217 c -7.13668,3.29509 -19.8327,2.98775 -26.85618,-0.65013 -6.60453,-3.42088 -11.53347,-8.33868 -15.01949,-14.98558 -2.35228,-4.48514 -2.73785,-6.40839 -2.74991,-13.716576 -0.012,-7.287549 0.38248,-9.307427 2.76575,-14.160544 3.32613,-6.773074 9.02258,-12.172899 16.40896,-15.554494 4.68471,-2.144733 6.55142,-2.435974 13.62001,-2.12497 9.50401,0.418157 15.34206,2.794237 21.4648,8.736155 6.13049,5.949443 8.65783,12.121998 9.05037,22.103853 0.31701,8.061256 0.15188,8.860956 -3.19914,15.492966 l -3.53341,6.99297 2.70432,2.82607 2.70431,2.82606 -3.5,2.90407 c -1.925,1.59723 -3.82403,2.91617 -4.22006,2.93096 -0.39604,0.0148 -1.68321,-1.27582 -2.86039,-2.86804 z m -13.66955,-8.56305 c 2.0625,-0.34795 3.75,-1.15928 3.75,-1.80297 0,-0.64369 -2.02942,-3.23074 -4.50982,-5.749 l -4.50982,-4.57867 3.46754,-3.36087 3.46753,-3.36086 4.63496,5.15518 c 2.54922,2.83535 5.06525,5.15518 5.59117,5.15518 1.59361,0 4.81307,-8.24352 4.83648,-12.38398 0.0375,-6.629761 -2.13229,-11.82562 -6.95036,-16.643693 -7.4024,-7.402401 -16.66275,-8.951776 -25.92292,-4.337238 -19.26393,9.599621 -15.28734,38.211861 5.89524,42.417331 1.925,0.38217 4.175,0.56602 5,0.40854 0.825,-0.15747 3.1875,-0.571 5.25,-0.91895 z m 50.41355,10.23486 c -4.86405,-1.28869 -10.25125,-6.6305 -11.60575,-11.50798 -0.57566,-2.07289 -1.04916,-9.28139 -1.05222,-16.01889 L 408.44594,28 h 4.38176 4.38175 l 0.40883,13.121496 c 0.40097,12.86916 0.46201,13.16723 3.17401,15.5 3.70597,3.18774 12.2009,3.3806 15.45298,0.35083 2.82697,-2.63372 3.15907,-4.31365 3.45407,-17.47233 L 439.94594,28.5 h 4.5 4.5 l 0.32043,9.999996 c 0.58271,18.18556 -2.93469,25.97161 -13.09605,28.98921 -5.72298,1.69955 -9.4622,1.77096 -15.06083,0.28766 z m -223.16355,-1.17734 c -6.79839,-2.99627 -12.4374,-11.65187 -12.47804,-19.15318 -0.0313,-5.78079 4.15295,-13.602557 9.11699,-17.042636 5.24546,-3.635108 14.72829,-4.536163 19.95469,-1.896088 7.79927,3.939749 11.50662,9.239844 12.52518,17.906254 l 0.65654,5.58612 h -16.13768 c -8.87572,0 -16.13768,0.37156 -16.13768,0.82569 0,1.37735 4.32084,4.97321 7.35933,6.12452 3.56465,1.35068 8.99382,0.006 12.22238,-3.02697 l 2.29918,-2.15997 3.62799,2.24222 3.62798,2.24222 -2.81843,2.96773 c -6.03196,6.35149 -16.33771,8.68107 -23.81843,5.38409 z m 18.29379,-25.84953 c -2.17293,-3.37143 -8.18743,-6.042086 -11.81358,-5.245649 -3.12861,0.687157 -8.98021,4.977719 -8.98021,6.584549 0,0.50111 5.00489,0.9111 11.12197,0.9111 h 11.12197 z m 32.84347,25.78519 c -13.32087,-4.74875 -17.68586,-21.57661 -8.35376,-32.205296 7.15495,-8.149032 19.46024,-9.597647 27.77426,-3.269664 l 2.44224,1.858844 -3.16273,3.183963 -3.16273,3.183963 -3.98004,-1.5925 c -3.05066,-1.22063 -4.81175,-1.36285 -7.54179,-0.60905 -11.47686,3.16891 -9.60897,20.91455 2.20145,20.91455 2.22845,0 5.20637,-0.52608 6.61759,-1.16908 2.27681,-1.03738 2.90168,-0.84733 5.54705,1.6871 1.63966,1.57089 2.9812,3.18172 2.9812,3.57963 0,0.3979 -2.33835,1.88871 -5.19634,3.31291 -5.76396,2.8723 -10.36593,3.19244 -16.1664,1.12463 z m 266.86274,0.11114 c -7.05757,-3.25533 -12.43649,-11.53188 -12.47804,-19.19998 -0.0315,-5.81334 4.15174,-13.60172 9.17565,-17.08329 C 516.25054,27.863701 517.68473,27.5 523.93389,27.5 c 6.11655,0 7.75695,0.39602 11.26979,2.720703 l 4.11126,2.720702 0.31571,-2.220702 c 0.2611,-1.836602 1.05081,-2.273889 4.56571,-2.528201 l 4.25,-0.307498 v 19.057502 19.05749 h -4.5 c -3.8439,0 -4.5,-0.29366 -4.5,-2.01418 0,-1.90393 -0.22534,-1.86507 -4.11657,0.71003 -4.90971,3.24909 -14.48017,4.21213 -19.38343,1.95048 z m 16,-11.68858 c 9.282,-9.27025 -3.69007,-24.1792 -14.20643,-16.32761 -1.53571,1.14658 -3.40543,3.69589 -4.15493,5.66513 -1.21254,3.18585 -1.15751,4.0006 0.49931,7.39259 2.25497,4.61656 7.51315,7.64342 11.86205,6.82835 1.65,-0.30924 4.35,-1.91055 6,-3.55846 z m -370.5,-14.42153 V 15.072424 l -9.75,-0.286212 L 141.94636,14.5 141.64157,9.75 141.33678,5 h 24.05479 24.05479 v 5 5 h -9.5 -9.5 v 25.499996 25.5 h -4.5 -4.5 z M 281.44636,35 V 4 h 4.5 4.5 v 13 c 0,7.15 0.17004,13 0.37788,13 0.20783,0 2.10416,-0.721289 4.21407,-1.602865 2.59999,-1.086346 5.82771,-1.476054 10.01628,-1.209346 7.50227,0.477708 12.84801,3.751181 16.45455,10.075957 2.11478,3.70868 2.4609,5.76184 2.77925,16.48625 l 0.36362,12.25 h -5.10282 -5.10283 v -11.48422 c 0,-11.11551 -0.0883,-11.58303 -2.75,-14.56174 -5.39029,-6.032271 -15.65077,-4.384794 -19.49845,3.13077 -1.3111,2.56094 -1.74883,5.85399 -1.75,13.16519 l -0.002,9.75 h -4.5 -4.5 z M 461.67429,47.249996 461.94636,28.5 h 4.5 4.5 l 0.27207,18.749996 0.27206,18.75 h -5.04413 -5.04413 z M 484.44636,35 V 4 h 4.5 4.5 v 31 30.999996 h -4.5 -4.5 z M 34.222118,30.955578 33.946361,14.5 23.886915,14.217121 13.827468,13.934241 6.913734,6.967121 0,0 H 40.948153 81.896306 L 74.446361,7.5 66.996416,15 h -6.275027 -6.275028 v 6.268762 6.268761 l -9.974243,9.936813 -9.974243,9.93682 z M 462.25335,21.25 c -2.35911,-2.746821 -2.89706,-5.210134 -1.6537,-7.572442 1.55424,-2.952964 2.78874,-3.644257 6.54001,-3.662245 5.65174,-0.0271 8.37431,6.917079 4.3067,10.984687 -2.46692,2.466923 -7.17895,2.595065 -9.19301,0.25 z"
     id="path817"
     inkscape:connector-curvature="0" />
</svg>
