<?xml version="1.0" encoding="utf-8"?>
<!-- Generator: Adobe Illustrator 19.2.1, SVG Export Plug-In . SVG Version: 6.00 Build 0)  -->
<svg version="1.1" id="layer" xmlns="http://www.w3.org/2000/svg" xmlns:xlink="http://www.w3.org/1999/xlink" x="0px" y="0px"
	 viewBox="0 0 652 652" style="enable-background:new 0 0 652 652;" xml:space="preserve">
<style type="text/css">
	.st0{fill:#201A42;}
	.st1{fill:#FFFFFF;}
	.st2{fill:#FF5D28;}
</style>
<rect x="25.4" y="251.9" class="st0" width="600" height="147.7"/>
<g>
	<path class="st1" d="M195.6,332.9c-0.7,0.6-1.6,1-2.7,1h-28.3c0.4,4,1.8,7.1,4.5,9.4c2.7,2.4,5.8,3.5,9.5,3.5
		c2.6,0,4.7-0.4,6.3-1.2c1.6-0.7,3-1.7,4.3-2.9c0.9-0.5,1.6-0.7,2.4-0.7c1,0,1.7,0.3,2.2,1c0.6,0.6,1,1.4,1,2.2
		c0,1.2-0.5,2.1-1.6,3.1c-1.6,1.6-3.6,2.9-6.2,4s-5.2,1.6-7.9,1.6c-4.4,0-8.1-1-11.4-2.8c-3.3-1.8-5.9-4.4-7.7-7.6
		c-1.8-3.3-2.7-6.9-2.7-11.1c0-4.5,1-8.4,2.8-11.9s4.3-6,7.3-7.8s6.3-2.8,9.7-2.8s6.6,0.9,9.6,2.7s5.5,4.2,7.3,7.3
		c1.8,3.1,2.8,6.6,2.8,10.5C196.8,331.4,196.4,332.2,195.6,332.9z M169.3,319.6c-2.2,1.7-3.6,4.3-4.4,7.8h23.7v-0.6
		c-0.3-2.9-1.5-5.1-3.8-6.9c-2.2-1.8-4.9-2.8-7.8-2.8S171.5,317.9,169.3,319.6z"/>
	<path class="st1" d="M238.6,311.9c2.8,1.4,4.3,3.1,4.3,5.1c0,1-0.3,1.7-0.9,2.5c-0.6,0.7-1.4,1.1-2.2,1.1c-0.7,0-1.3-0.1-1.6-0.3
		c-0.4-0.2-1-0.5-1.6-1.1c-0.3-0.3-0.9-0.7-1.5-1.2c-0.6-0.3-1.6-0.6-2.8-0.9s-2.2-0.3-3.2-0.3c-2.8,0-5.2,0.6-7.4,1.9
		c-2.1,1.3-3.8,3.1-5,5.3c-1.2,2.2-1.8,4.8-1.8,7.6c0,2.9,0.5,5.3,1.7,7.6c1.2,2.2,2.8,4.1,4.9,5.3s4.5,1.9,7.2,1.9
		c2.8,0,5-0.4,6.7-1.3c0.4-0.2,0.9-0.5,1.5-1.1c0.5-0.4,1-0.7,1.4-1c0.4-0.2,0.9-0.3,1.5-0.3c1.1,0,1.9,0.3,2.6,1
		c0.6,0.6,1,1.5,1,2.6c0,1.2-0.7,2.2-2.1,3.3c-1.4,1.1-3.3,2-5.7,2.7c-2.4,0.6-4.9,1.1-7.7,1.1c-4.1,0-7.7-1-10.8-2.9
		c-3.1-1.9-5.6-4.5-7.2-7.9c-1.7-3.3-2.6-7.1-2.6-11.2c0-4.2,0.9-7.9,2.7-11.2s4.3-6,7.4-7.9c3.2-1.9,6.7-2.9,10.9-2.9
		C232.3,310,235.8,310.6,238.6,311.9z"/>
	<path class="st1" d="M290.2,327.7v21.5c0,1.1-0.3,2-1.1,2.8c-0.7,0.7-1.6,1.2-2.8,1.2c-1.1,0-1.9-0.4-2.7-1.2
		c-0.7-0.7-1.1-1.7-1.1-2.8v-21.5c0-6.9-3-10.5-8.9-10.5c-3.2,0-5.8,1-7.9,3c-2.1,2-3.1,4.5-3.1,7.5v21.5c0,1.1-0.3,2-1.1,2.8
		c-0.7,0.7-1.6,1.2-2.8,1.2s-2-0.3-2.8-1.1c-0.7-0.7-1.1-1.6-1.1-2.8v-52c0-1.1,0.3-2,1.1-2.8c0.7-0.7,1.6-1.2,2.7-1.2
		c1.2,0,2,0.4,2.8,1.2s1.1,1.7,1.1,2.8v20.3c1.4-2.1,3.2-3.8,5.7-5.3c2.5-1.5,5-2.2,7.7-2.2C285.5,310.2,290.2,316.1,290.2,327.7z"
		/>
	<path class="st1" d="M424.9,313c3,1.8,5.2,4.5,6.9,7.8s2.6,7.1,2.6,11.2c0,4.2-0.9,7.9-2.6,11.2s-4.1,5.9-6.9,7.8
		c-3,1.9-6.2,2.8-9.7,2.8c-2.8,0-5.3-0.6-7.8-1.8c-2.5-1.3-4.4-2.8-5.9-4.5v17.9c0,1.1-0.3,2-1.1,2.8c-0.7,0.7-1.6,1.2-2.8,1.2
		c-1.1,0-1.9-0.3-2.7-1.1c-0.7-0.7-1.1-1.6-1.1-2.8v-50.8c0-1.2,0.3-2,1.1-2.8s1.6-1.2,2.8-1.2c1.2,0,2,0.4,2.8,1.2s1.1,1.7,1.1,2.8
		v2.4c1.3-1.9,3.2-3.5,5.7-4.8c2.5-1.4,5.1-2,7.9-2C418.7,310.2,421.9,311.2,424.9,313z M420.9,344.8c2-1.3,3.5-3,4.6-5.2
		c1.1-2.2,1.6-4.7,1.6-7.5c0-2.8-0.5-5.3-1.6-7.5c-1.1-2.2-2.7-4-4.6-5.2c-2-1.3-4.2-1.9-6.6-1.9c-2.6,0-4.8,0.6-6.7,1.9
		c-1.9,1.3-3.5,3-4.6,5.2c-1.1,2.2-1.6,4.8-1.6,7.6c0,2.8,0.5,5.3,1.6,7.6c1.1,2.2,2.7,4.1,4.6,5.2c2,1.3,4.3,1.9,6.7,1.9
		C416.6,346.8,418.8,346.1,420.9,344.8z"/>
	<path class="st1" d="M454.4,352c-0.7,0.7-1.7,1.2-2.8,1.2c-1.1,0-1.9-0.4-2.7-1.2c-0.7-0.7-1.1-1.7-1.1-2.8v-51.8
		c0-1.1,0.4-2,1.2-2.8s1.7-1.2,2.8-1.2s1.9,0.4,2.7,1.2s1.1,1.7,1.1,2.8v51.8C455.6,350.3,455.2,351.2,454.4,352z"/>
	<path class="st1" d="M508,343.2c-1.9,3.3-4.5,5.9-7.7,7.8c-3.2,1.9-6.8,2.8-10.7,2.8c-4,0-7.5-1-10.7-2.8c-3.2-1.9-5.8-4.5-7.7-7.8
		c-1.9-3.3-2.8-7.1-2.8-11.2s1-8,2.8-11.3c1.9-3.4,4.5-6,7.7-7.9c3.2-1.9,6.8-2.8,10.7-2.8c4,0,7.5,1,10.7,2.8
		c3.2,1.9,5.8,4.5,7.7,7.9s2.8,7.2,2.8,11.3S509.8,339.9,508,343.2z M501.4,324.2c-1.2-2.2-2.9-4.1-4.9-5.3c-2-1.3-4.4-1.9-6.8-1.9
		c-2.6,0-4.8,0.6-6.8,1.9c-2,1.3-3.7,3-4.9,5.3c-1.2,2.2-1.8,4.9-1.8,7.8c0,2.9,0.6,5.3,1.8,7.7c1.2,2.2,2.9,4.1,4.9,5.2
		c2,1.2,4.4,1.9,6.8,1.9c2.6,0,4.8-0.6,6.8-1.9c2-1.3,3.7-3,4.9-5.2c1.2-2.2,1.8-4.8,1.8-7.7C503.2,329.1,502.5,326.6,501.4,324.2z"
		/>
	<path class="st1" d="M548.3,311.1c1.1,0.7,1.5,1.6,1.5,2.7c0,1.3-0.3,2.2-1,2.9s-1.5,1-2.5,1c-0.5,0-1.2-0.2-2.1-0.5
		c-1.2-0.4-2-0.5-2.7-0.5c-1.7,0-3.3,0.5-4.9,1.7c-1.6,1.2-2.9,2.8-3.8,4.7c-1,2-1.5,4.3-1.5,6.7V349c0,1.1-0.3,2-1.1,2.8
		c-0.7,0.7-1.6,1.2-2.8,1.2c-1.2,0-2-0.3-2.8-1.1s-1.1-1.6-1.1-2.8v-34.3c0-1.1,0.3-2,1.1-2.8s1.6-1.2,2.7-1.2c1.2,0,2,0.4,2.8,1.2
		s1.1,1.7,1.1,2.8v4.1c1.2-2.7,3-4.8,5.3-6.4s5-2.5,8-2.6C546,310,547.2,310.3,548.3,311.1z"/>
	<path class="st1" d="M594.9,332.9c-0.7,0.6-1.6,1-2.7,1h-28.3c0.4,4,1.8,7.1,4.5,9.4c2.7,2.4,5.8,3.5,9.5,3.5
		c2.6,0,4.7-0.4,6.3-1.2c1.6-0.7,3-1.7,4.3-2.9c0.9-0.5,1.6-0.7,2.4-0.7c1,0,1.7,0.3,2.2,1c0.6,0.6,1,1.4,1,2.2
		c0,1.2-0.5,2.1-1.6,3.1c-1.6,1.6-3.6,2.9-6.2,4c-2.6,1.1-5.2,1.6-7.9,1.6c-4.4,0-8.1-1-11.4-2.8c-3.3-1.8-5.9-4.4-7.7-7.6
		c-1.8-3.3-2.7-6.9-2.7-11.1c0-4.5,1-8.4,2.8-11.9c1.8-3.4,4.3-6,7.3-7.8c3-1.8,6.3-2.8,9.7-2.8s6.6,0.9,9.6,2.7s5.5,4.2,7.3,7.3
		c1.8,3.1,2.8,6.6,2.8,10.5C596.1,331.4,595.7,332.2,594.9,332.9z M568.6,319.6c-2.2,1.7-3.6,4.3-4.4,7.8H588v-0.6
		c-0.3-2.9-1.5-5.1-3.8-6.9c-2.2-1.8-4.9-2.8-7.8-2.8S570.9,317.9,568.6,319.6z"/>
	<g>
		<polygon class="st1" points="346.1,303.4 325.6,282.9 309.5,298.8 330,319.2 309.5,339.7 325.6,355.5 346.1,335.1 362,319.2 		"/>
		
			<rect x="355.6" y="286.9" transform="matrix(0.7071 -0.7071 0.7071 0.7071 -103.4195 346.7749)" class="st2" width="22.7" height="22.7"/>
		
			<rect x="355.2" y="329.2" transform="matrix(0.7071 -0.7072 0.7072 0.7071 -133.4334 358.9558)" class="st2" width="22.7" height="22.7"/>
	</g>
	<polygon class="st1" points="85.4,356.6 111.6,356.6 111.6,322.8 111.6,296.6 85.4,296.6 54.5,296.6 54.5,322.8 85.4,322.8 	"/>
	<rect x="118.1" y="296.6" class="st2" width="26.5" height="26.5"/>
</g>
</svg>
