<?xml version="1.0" encoding="UTF-8" standalone="no"?>
<!-- Generator: Adobe Illustrator 19.2.1, SVG Export Plug-In . SVG Version: 6.00 Build 0)  -->

<svg
   version="1.1"
   id="layer"
   x="0px"
   y="0px"
   viewBox="0 0 600 147.7"
   xml:space="preserve"
   sodipodi:docname="tech-xplore-vector-logo.svg"
   width="600"
   height="147.7"
   inkscape:version="1.3 (0e150ed6c4, 2023-07-21)"
   xmlns:inkscape="http://www.inkscape.org/namespaces/inkscape"
   xmlns:sodipodi="http://sodipodi.sourceforge.net/DTD/sodipodi-0.dtd"
   xmlns="http://www.w3.org/2000/svg"
   xmlns:svg="http://www.w3.org/2000/svg"><defs
   id="defs10" /><sodipodi:namedview
   id="namedview10"
   pagecolor="#ffffff"
   bordercolor="#000000"
   borderopacity="0.25"
   inkscape:showpageshadow="2"
   inkscape:pageopacity="0.0"
   inkscape:pagecheckerboard="0"
   inkscape:deskcolor="#d1d1d1"
   inkscape:zoom="1.6226994"
   inkscape:cx="300.42533"
   inkscape:cy="73.950851"
   inkscape:window-width="3440"
   inkscape:window-height="1316"
   inkscape:window-x="-12"
   inkscape:window-y="-12"
   inkscape:window-maximized="1"
   inkscape:current-layer="layer" />&#10;<style
   type="text/css"
   id="style1">&#10;	.st0{fill:#201A42;}&#10;	.st1{fill:#FFFFFF;}&#10;	.st2{fill:#FF5D28;}&#10;</style>&#10;<rect
   x="0"
   y="0"
   class="st0"
   width="600"
   height="147.7"
   id="rect1" />&#10;<g
   id="g10"
   transform="translate(-25.4,-251.89999)">&#10;	<path
   class="st1"
   d="m 195.6,332.9 c -0.7,0.6 -1.6,1 -2.7,1 h -28.3 c 0.4,4 1.8,7.1 4.5,9.4 2.7,2.4 5.8,3.5 9.5,3.5 2.6,0 4.7,-0.4 6.3,-1.2 1.6,-0.7 3,-1.7 4.3,-2.9 0.9,-0.5 1.6,-0.7 2.4,-0.7 1,0 1.7,0.3 2.2,1 0.6,0.6 1,1.4 1,2.2 0,1.2 -0.5,2.1 -1.6,3.1 -1.6,1.6 -3.6,2.9 -6.2,4 -2.6,1.1 -5.2,1.6 -7.9,1.6 -4.4,0 -8.1,-1 -11.4,-2.8 -3.3,-1.8 -5.9,-4.4 -7.7,-7.6 -1.8,-3.3 -2.7,-6.9 -2.7,-11.1 0,-4.5 1,-8.4 2.8,-11.9 1.8,-3.5 4.3,-6 7.3,-7.8 3,-1.8 6.3,-2.8 9.7,-2.8 3.4,0 6.6,0.9 9.6,2.7 3,1.8 5.5,4.2 7.3,7.3 1.8,3.1 2.8,6.6 2.8,10.5 0,1 -0.4,1.8 -1.2,2.5 z m -26.3,-13.3 c -2.2,1.7 -3.6,4.3 -4.4,7.8 h 23.7 v -0.6 c -0.3,-2.9 -1.5,-5.1 -3.8,-6.9 -2.2,-1.8 -4.9,-2.8 -7.8,-2.8 -2.9,0 -5.5,0.8 -7.7,2.5 z"
   id="path1" />&#10;	<path
   class="st1"
   d="m 238.6,311.9 c 2.8,1.4 4.3,3.1 4.3,5.1 0,1 -0.3,1.7 -0.9,2.5 -0.6,0.7 -1.4,1.1 -2.2,1.1 -0.7,0 -1.3,-0.1 -1.6,-0.3 -0.4,-0.2 -1,-0.5 -1.6,-1.1 -0.3,-0.3 -0.9,-0.7 -1.5,-1.2 -0.6,-0.3 -1.6,-0.6 -2.8,-0.9 -1.2,-0.3 -2.2,-0.3 -3.2,-0.3 -2.8,0 -5.2,0.6 -7.4,1.9 -2.1,1.3 -3.8,3.1 -5,5.3 -1.2,2.2 -1.8,4.8 -1.8,7.6 0,2.9 0.5,5.3 1.7,7.6 1.2,2.2 2.8,4.1 4.9,5.3 2.1,1.2 4.5,1.9 7.2,1.9 2.8,0 5,-0.4 6.7,-1.3 0.4,-0.2 0.9,-0.5 1.5,-1.1 0.5,-0.4 1,-0.7 1.4,-1 0.4,-0.2 0.9,-0.3 1.5,-0.3 1.1,0 1.9,0.3 2.6,1 0.6,0.6 1,1.5 1,2.6 0,1.2 -0.7,2.2 -2.1,3.3 -1.4,1.1 -3.3,2 -5.7,2.7 -2.4,0.6 -4.9,1.1 -7.7,1.1 -4.1,0 -7.7,-1 -10.8,-2.9 -3.1,-1.9 -5.6,-4.5 -7.2,-7.9 -1.7,-3.3 -2.6,-7.1 -2.6,-11.2 0,-4.2 0.9,-7.9 2.7,-11.2 1.8,-3.3 4.3,-6 7.4,-7.9 3.2,-1.9 6.7,-2.9 10.9,-2.9 4,0.6 7.5,1.2 10.3,2.5 z"
   id="path2" />&#10;	<path
   class="st1"
   d="m 290.2,327.7 v 21.5 c 0,1.1 -0.3,2 -1.1,2.8 -0.7,0.7 -1.6,1.2 -2.8,1.2 -1.1,0 -1.9,-0.4 -2.7,-1.2 -0.7,-0.7 -1.1,-1.7 -1.1,-2.8 v -21.5 c 0,-6.9 -3,-10.5 -8.9,-10.5 -3.2,0 -5.8,1 -7.9,3 -2.1,2 -3.1,4.5 -3.1,7.5 v 21.5 c 0,1.1 -0.3,2 -1.1,2.8 -0.7,0.7 -1.6,1.2 -2.8,1.2 -1.2,0 -2,-0.3 -2.8,-1.1 -0.7,-0.7 -1.1,-1.6 -1.1,-2.8 v -52 c 0,-1.1 0.3,-2 1.1,-2.8 0.7,-0.7 1.6,-1.2 2.7,-1.2 1.2,0 2,0.4 2.8,1.2 0.8,0.8 1.1,1.7 1.1,2.8 v 20.3 c 1.4,-2.1 3.2,-3.8 5.7,-5.3 2.5,-1.5 5,-2.2 7.7,-2.2 9.6,0.1 14.3,6 14.3,17.6 z"
   id="path3" />&#10;	<path
   class="st1"
   d="m 424.9,313 c 3,1.8 5.2,4.5 6.9,7.8 1.7,3.3 2.6,7.1 2.6,11.2 0,4.2 -0.9,7.9 -2.6,11.2 -1.7,3.3 -4.1,5.9 -6.9,7.8 -3,1.9 -6.2,2.8 -9.7,2.8 -2.8,0 -5.3,-0.6 -7.8,-1.8 -2.5,-1.3 -4.4,-2.8 -5.9,-4.5 v 17.9 c 0,1.1 -0.3,2 -1.1,2.8 -0.7,0.7 -1.6,1.2 -2.8,1.2 -1.1,0 -1.9,-0.3 -2.7,-1.1 -0.7,-0.7 -1.1,-1.6 -1.1,-2.8 v -50.8 c 0,-1.2 0.3,-2 1.1,-2.8 0.8,-0.8 1.6,-1.2 2.8,-1.2 1.2,0 2,0.4 2.8,1.2 0.8,0.8 1.1,1.7 1.1,2.8 v 2.4 c 1.3,-1.9 3.2,-3.5 5.7,-4.8 2.5,-1.4 5.1,-2 7.9,-2 3.5,-0.1 6.7,0.9 9.7,2.7 z m -4,31.8 c 2,-1.3 3.5,-3 4.6,-5.2 1.1,-2.2 1.6,-4.7 1.6,-7.5 0,-2.8 -0.5,-5.3 -1.6,-7.5 -1.1,-2.2 -2.7,-4 -4.6,-5.2 -2,-1.3 -4.2,-1.9 -6.6,-1.9 -2.6,0 -4.8,0.6 -6.7,1.9 -1.9,1.3 -3.5,3 -4.6,5.2 -1.1,2.2 -1.6,4.8 -1.6,7.6 0,2.8 0.5,5.3 1.6,7.6 1.1,2.2 2.7,4.1 4.6,5.2 2,1.3 4.3,1.9 6.7,1.9 2.3,-0.1 4.5,-0.8 6.6,-2.1 z"
   id="path4" />&#10;	<path
   class="st1"
   d="m 454.4,352 c -0.7,0.7 -1.7,1.2 -2.8,1.2 -1.1,0 -1.9,-0.4 -2.7,-1.2 -0.7,-0.7 -1.1,-1.7 -1.1,-2.8 v -51.8 c 0,-1.1 0.4,-2 1.2,-2.8 0.8,-0.8 1.7,-1.2 2.8,-1.2 1.1,0 1.9,0.4 2.7,1.2 0.8,0.8 1.1,1.7 1.1,2.8 v 51.8 c 0,1.1 -0.4,2 -1.2,2.8 z"
   id="path5" />&#10;	<path
   class="st1"
   d="m 508,343.2 c -1.9,3.3 -4.5,5.9 -7.7,7.8 -3.2,1.9 -6.8,2.8 -10.7,2.8 -4,0 -7.5,-1 -10.7,-2.8 -3.2,-1.9 -5.8,-4.5 -7.7,-7.8 -1.9,-3.3 -2.8,-7.1 -2.8,-11.2 0,-4.1 1,-8 2.8,-11.3 1.9,-3.4 4.5,-6 7.7,-7.9 3.2,-1.9 6.8,-2.8 10.7,-2.8 4,0 7.5,1 10.7,2.8 3.2,1.9 5.8,4.5 7.7,7.9 1.9,3.4 2.8,7.2 2.8,11.3 0,4.1 -1,7.9 -2.8,11.2 z m -6.6,-19 c -1.2,-2.2 -2.9,-4.1 -4.9,-5.3 -2,-1.3 -4.4,-1.9 -6.8,-1.9 -2.6,0 -4.8,0.6 -6.8,1.9 -2,1.3 -3.7,3 -4.9,5.3 -1.2,2.2 -1.8,4.9 -1.8,7.8 0,2.9 0.6,5.3 1.8,7.7 1.2,2.2 2.9,4.1 4.9,5.2 2,1.2 4.4,1.9 6.8,1.9 2.6,0 4.8,-0.6 6.8,-1.9 2,-1.3 3.7,-3 4.9,-5.2 1.2,-2.2 1.8,-4.8 1.8,-7.7 0,-2.9 -0.7,-5.4 -1.8,-7.8 z"
   id="path6" />&#10;	<path
   class="st1"
   d="m 548.3,311.1 c 1.1,0.7 1.5,1.6 1.5,2.7 0,1.3 -0.3,2.2 -1,2.9 -0.7,0.7 -1.5,1 -2.5,1 -0.5,0 -1.2,-0.2 -2.1,-0.5 -1.2,-0.4 -2,-0.5 -2.7,-0.5 -1.7,0 -3.3,0.5 -4.9,1.7 -1.6,1.2 -2.9,2.8 -3.8,4.7 -1,2 -1.5,4.3 -1.5,6.7 V 349 c 0,1.1 -0.3,2 -1.1,2.8 -0.7,0.7 -1.6,1.2 -2.8,1.2 -1.2,0 -2,-0.3 -2.8,-1.1 -0.8,-0.8 -1.1,-1.6 -1.1,-2.8 v -34.3 c 0,-1.1 0.3,-2 1.1,-2.8 0.8,-0.8 1.6,-1.2 2.7,-1.2 1.2,0 2,0.4 2.8,1.2 0.8,0.8 1.1,1.7 1.1,2.8 v 4.1 c 1.2,-2.7 3,-4.8 5.3,-6.4 2.3,-1.6 5,-2.5 8,-2.6 1.5,0.1 2.7,0.4 3.8,1.2 z"
   id="path7" />&#10;	<path
   class="st1"
   d="m 594.9,332.9 c -0.7,0.6 -1.6,1 -2.7,1 h -28.3 c 0.4,4 1.8,7.1 4.5,9.4 2.7,2.4 5.8,3.5 9.5,3.5 2.6,0 4.7,-0.4 6.3,-1.2 1.6,-0.7 3,-1.7 4.3,-2.9 0.9,-0.5 1.6,-0.7 2.4,-0.7 1,0 1.7,0.3 2.2,1 0.6,0.6 1,1.4 1,2.2 0,1.2 -0.5,2.1 -1.6,3.1 -1.6,1.6 -3.6,2.9 -6.2,4 -2.6,1.1 -5.2,1.6 -7.9,1.6 -4.4,0 -8.1,-1 -11.4,-2.8 -3.3,-1.8 -5.9,-4.4 -7.7,-7.6 -1.8,-3.3 -2.7,-6.9 -2.7,-11.1 0,-4.5 1,-8.4 2.8,-11.9 1.8,-3.4 4.3,-6 7.3,-7.8 3,-1.8 6.3,-2.8 9.7,-2.8 3.4,0 6.6,0.9 9.6,2.7 3,1.8 5.5,4.2 7.3,7.3 1.8,3.1 2.8,6.6 2.8,10.5 0,1 -0.4,1.8 -1.2,2.5 z m -26.3,-13.3 c -2.2,1.7 -3.6,4.3 -4.4,7.8 H 588 v -0.6 c -0.3,-2.9 -1.5,-5.1 -3.8,-6.9 -2.2,-1.8 -4.9,-2.8 -7.8,-2.8 -2.9,0 -5.5,0.8 -7.8,2.5 z"
   id="path8" />&#10;	<g
   id="g9">&#10;		<polygon
   class="st1"
   points="309.5,298.8 330,319.2 309.5,339.7 325.6,355.5 346.1,335.1 362,319.2 346.1,303.4 325.6,282.9 "
   id="polygon8" />&#10;		&#10;			<rect
   x="355.60001"
   y="286.89999"
   transform="matrix(0.7071,-0.7071,0.7071,0.7071,-103.4195,346.7749)"
   class="st2"
   width="22.700001"
   height="22.700001"
   id="rect8" />&#10;		&#10;			<rect
   x="355.20001"
   y="329.20001"
   transform="matrix(0.7071,-0.7072,0.7072,0.7071,-133.4334,358.9558)"
   class="st2"
   width="22.700001"
   height="22.700001"
   id="rect9" />&#10;	</g>&#10;	<polygon
   class="st1"
   points="111.6,322.8 111.6,296.6 85.4,296.6 54.5,296.6 54.5,322.8 85.4,322.8 85.4,356.6 111.6,356.6 "
   id="polygon9" />&#10;	<rect
   x="118.1"
   y="296.60001"
   class="st2"
   width="26.5"
   height="26.5"
   id="rect10" />&#10;</g>&#10;</svg>
