<?xml version="1.0" encoding="UTF-8" standalone="no"?>
<svg
   xmlns:dc="http://purl.org/dc/elements/1.1/"
   xmlns:cc="http://creativecommons.org/ns#"
   xmlns:rdf="http://www.w3.org/1999/02/22-rdf-syntax-ns#"
   xmlns:svg="http://www.w3.org/2000/svg"
   xmlns="http://www.w3.org/2000/svg"
   xmlns:sodipodi="http://sodipodi.sourceforge.net/DTD/sodipodi-0.dtd"
   xmlns:inkscape="http://www.inkscape.org/namespaces/inkscape"
   width="2279.4028"
   height="672.44293"
   viewBox="0 0 175.74743 51.846964"
   version="1.1"
   id="svg8"
   sodipodi:docname="the-yomiuri-shimbun (1).svg"
   inkscape:version="0.92.4 (5da689c313, 2019-01-14)">
  <metadata
     id="metadata14">
    <rdf:RDF>
      <cc:Work
         rdf:about="">
        <dc:format>image/svg+xml</dc:format>
        <dc:type
           rdf:resource="http://purl.org/dc/dcmitype/StillImage" />
        <dc:title></dc:title>
      </cc:Work>
    </rdf:RDF>
  </metadata>
  <defs
     id="defs12" />
  <sodipodi:namedview
     pagecolor="#ffffff"
     bordercolor="#666666"
     borderopacity="1"
     objecttolerance="10"
     gridtolerance="10"
     guidetolerance="10"
     inkscape:pageopacity="0"
     inkscape:pageshadow="2"
     inkscape:window-width="3440"
     inkscape:window-height="1346"
     id="namedview10"
     showgrid="false"
     inkscape:zoom="0.3776"
     inkscape:cx="797.9503"
     inkscape:cy="135.4034"
     inkscape:window-x="-11"
     inkscape:window-y="-11"
     inkscape:window-maximized="1"
     inkscape:current-layer="svg8" />
  <path
     style="clip-rule:evenodd;fill:#ffffff;fill-opacity:1;fill-rule:evenodd"
     inkscape:connector-curvature="0"
     id="path4"
     d="m 52.828845,44.891966 c 0.119,-0.186 0.37,-0.568 0.37,-0.781 0,-0.291 -0.356,-0.33 -0.568,-0.33 -0.119,0 -0.542,0.039 -0.542,-0.133 0,-0.172 0.185,-0.225 0.304,-0.225 0.397,0 0.82,0.053 1.217,0.053 0.397,0 0.793,-0.053 1.203,-0.053 0.106,0 0.278,0.053 0.278,0.199 0,0.172 -0.278,0.158 -0.383,0.158 -0.754,0 -1.217,0.807 -1.6,1.361 l -1.626,2.434 c -0.384,0.582 -0.37,0.543 -0.357,1.23 v 1.48 c 0,0.846 -0.053,1.098 0.86,1.098 0.119,0 0.344,-0.014 0.344,0.158 0,0.146 -0.106,0.172 -0.225,0.172 -0.503,0 -0.979,-0.053 -1.481,-0.053 -0.503,0 -1.005,0.053 -1.508,0.053 -0.119,0 -0.225,-0.025 -0.225,-0.172 0,-0.172 0.211,-0.158 0.331,-0.158 0.925,0 0.859,-0.264 0.859,-1.098 v -1.666 c 0,-0.555 -0.039,-0.635 -0.356,-1.098 l -1.812,-2.684 c -0.396,-0.582 -0.595,-1.059 -1.362,-1.059 -0.132,0 -0.37,0.027 -0.37,-0.172 0,-0.158 0.132,-0.186 0.265,-0.186 0.396,0 0.793,0.053 1.19,0.053 0.608,0 1.216,-0.053 1.825,-0.053 0.105,0 0.238,0.041 0.238,0.158 0,0.199 -0.212,0.199 -0.357,0.199 -0.199,0 -0.648,-0.027 -0.648,0.264 0,0.186 0.225,0.49 0.317,0.635 l 2.01,2.977 z m 5.684,-1.68 c 2.513,0 4.602,1.746 4.602,4.297 0,2.553 -2.089,4.311 -4.602,4.311 -2.38,0 -4.615,-1.904 -4.615,-4.311 0,-2.407 2.235,-4.297 4.615,-4.297 z m 2.526,1.561 c -0.635,-0.754 -1.507,-1.203 -2.499,-1.203 -1.031,0 -1.983,0.436 -2.618,1.242 -0.608,0.754 -0.833,1.746 -0.833,2.697 0,0.992 0.238,1.996 0.886,2.764 0.634,0.768 1.56,1.178 2.565,1.178 1.019,0 1.917,-0.49 2.552,-1.27 0.622,-0.793 0.82,-1.68 0.82,-2.672 0,-1.018 -0.212,-1.93 -0.873,-2.736 z m 7.441,5.064 2.724,-6.242 c 0.08,-0.172 0.211,-0.172 0.357,-0.172 h 1.467 c 0.146,0 0.384,-0.066 0.384,0.146 0,0.184 -0.186,0.211 -0.317,0.211 -0.172,0 -0.463,-0.039 -0.582,0.105 -0.159,0.186 -0.105,0.701 -0.105,0.939 v 5.461 c 0,0.211 -0.014,0.74 0.145,0.926 0.132,0.158 0.331,0.172 0.516,0.172 0.132,0 0.41,-0.027 0.41,0.172 0,0.145 -0.146,0.158 -0.251,0.158 -0.423,0 -0.846,-0.053 -1.269,-0.053 -0.529,0 -1.058,0.053 -1.574,0.053 -0.106,0 -0.251,-0.014 -0.251,-0.158 0,-0.199 0.277,-0.172 0.41,-0.172 0.198,0 0.476,-0.066 0.622,-0.186 0.225,-0.186 0.198,-0.674 0.198,-0.912 v -5.99 h -0.093 l -2.936,6.877 c -0.04,0.092 -0.079,0.236 -0.198,0.236 -0.133,0 -0.172,-0.158 -0.199,-0.25 l -2.605,-6.705 h -0.092 l -0.384,5.449 c -0.053,0.807 -0.066,1.48 0.873,1.48 0.132,0 0.41,-0.014 0.41,0.172 0,0.158 -0.172,0.158 -0.291,0.158 -0.396,0 -0.793,-0.053 -1.19,-0.053 -0.396,0 -0.793,0.053 -1.177,0.053 -0.119,0 -0.211,-0.025 -0.211,-0.158 0,-0.158 0.224,-0.172 0.343,-0.172 0.741,0 0.78,-0.344 0.82,-0.992 l 0.41,-5.857 c 0.053,-0.674 0,-0.754 -0.714,-0.754 -0.132,0 -0.317,-0.027 -0.317,-0.211 0,-0.213 0.238,-0.146 0.383,-0.146 h 1.534 c 0.251,0 0.264,0.172 0.344,0.385 z m 6.807,-4.973 c 0,-0.832 0.066,-1.084 -0.86,-1.084 -0.118,0 -0.33,0 -0.33,-0.172 0,-0.145 0.092,-0.186 0.225,-0.186 0.502,0 0.979,0.053 1.481,0.053 0.502,0 1.005,-0.053 1.507,-0.053 0.119,0 0.225,0.041 0.225,0.186 0,0.172 -0.225,0.172 -0.344,0.172 -0.925,0 -0.86,0.252 -0.86,1.084 v 5.422 c 0,0.846 -0.053,1.084 0.86,1.098 0.119,0 0.344,-0.014 0.344,0.158 0,0.146 -0.106,0.172 -0.225,0.172 -0.502,0 -0.979,-0.053 -1.48,-0.053 -0.503,0 -1.005,0.053 -1.508,0.053 -0.119,0 -0.225,-0.025 -0.225,-0.172 0,-0.172 0.212,-0.158 0.33,-0.158 0.926,0 0.86,-0.264 0.86,-1.098 z m 10.325,0.53 c 0,-0.316 0.014,-1.045 -0.146,-1.309 -0.158,-0.291 -0.489,-0.305 -0.793,-0.305 -0.119,0 -0.357,0.014 -0.357,-0.172 0,-0.145 0.146,-0.186 0.278,-0.186 0.397,0 0.793,0.053 1.19,0.053 0.344,0 0.688,-0.053 1.031,-0.053 0.106,0 0.278,0.014 0.278,0.172 0,0.186 -0.304,0.186 -0.423,0.186 -0.754,0 -0.661,0.502 -0.688,1.111 v 4.125 c 0,0.846 -0.013,1.48 -0.727,2.104 -0.661,0.568 -1.613,0.699 -2.486,0.699 -0.78,0 -1.812,-0.131 -2.459,-0.607 -0.807,-0.555 -0.781,-1.322 -0.781,-2.195 v -4.152 c 0,-0.832 0.066,-1.084 -0.859,-1.084 -0.119,0 -0.331,0 -0.331,-0.172 0,-0.145 0.092,-0.186 0.225,-0.186 0.502,0 0.979,0.053 1.481,0.053 0.502,0 1.005,-0.053 1.507,-0.053 0.119,0 0.225,0.041 0.225,0.186 0,0.172 -0.225,0.172 -0.344,0.172 -0.925,0 -0.859,0.252 -0.859,1.084 v 3.729 c 0,0.582 -0.026,1.549 0.278,2.037 0.41,0.674 1.415,0.859 2.142,0.859 0.754,0 1.6,-0.172 2.142,-0.715 0.49,-0.502 0.476,-1.096 0.476,-1.758 z m 2.895,-0.516 c 0,-0.846 0.066,-1.098 -0.859,-1.098 -0.12,0 -0.331,0 -0.331,-0.158 0,-0.146 0.093,-0.199 0.238,-0.199 0.423,0 0.873,0.053 1.296,0.053 0.768,0 1.508,-0.053 2.261997,-0.053 1.256,0 2.498,0.621 2.498,2.01 0,1.203 -0.99,1.904 -2.088,2.051 0.422,0.066 0.621,0.527 0.807,0.873 l 1.07,2.062 c 0.238,0.463 0.436,0.965 1.018,0.965 0.105,0 0.344,0 0.344,0.186 0,0.131 -0.131,0.145 -0.238,0.145 h -1.4 c -0.266,0 -0.344,-0.252 -0.449,-0.449 l -1.297,-2.578 c -0.477,-0.926 -0.463,-1.031 -1.466997,-1.031 -0.105,0 -0.225,-0.014 -0.291,0.066 -0.08,0.092 -0.066,0.408 -0.066,0.527 v 2.037 c 0,0.846 -0.053,1.084 0.859,1.098 0.118997,0 0.343997,-0.014 0.343997,0.158 0,0.146 -0.105,0.172 -0.225,0.172 -0.501997,0 -0.978997,-0.053 -1.479997,-0.053 -0.504,0 -1.006,0.053 -1.508,0.053 -0.119,0 -0.225,-0.025 -0.225,-0.172 0,-0.172 0.211,-0.158 0.331,-0.158 0.925,0 0.859,-0.264 0.859,-1.098 v -5.409 z m 1.045,2.248 c 0,0.33 0.449,0.238 0.674,0.238 0.608997,0 1.149997,-0.053 1.651997,-0.438 0.438,-0.33 0.609,-0.818 0.609,-1.348 0,-1.217 -0.729,-1.877 -1.904,-1.877 -1.003997,0 -1.030997,0.131 -1.030997,1.057 z m 6.622997,-2.262 c 0,-0.832 0.064,-1.084 -0.861,-1.084 -0.117,0 -0.33,0 -0.33,-0.172 0,-0.145 0.094,-0.186 0.225,-0.186 0.504,0 0.979,0.053 1.482,0.053 0.502,0 1.004,-0.053 1.506,-0.053 0.119,0 0.225,0.041 0.225,0.186 0,0.172 -0.225,0.172 -0.342,0.172 -0.926,0 -0.861,0.252 -0.861,1.084 v 5.422 c 0,0.846 -0.053,1.084 0.861,1.098 0.117,0 0.342,-0.014 0.342,0.158 0,0.146 -0.105,0.172 -0.225,0.172 -0.502,0 -0.979,-0.053 -1.48,-0.053 -0.501,0 -1.004,0.053 -1.508,0.053 -0.119,0 -0.225,-0.025 -0.225,-0.172 0,-0.172 0.213,-0.158 0.33,-0.158 0.926,0 0.861,-0.264 0.861,-1.098 z m 9.190998,2.725 c -0.965,-0.424 -1.918,-0.965 -1.918,-2.143 0,-1.389 1.256,-2.234 2.553,-2.234 0.516,0 1.283,0.092 1.771,0.291 0.252,0.092 0.225,0.25 0.238,0.488 0.014,0.344 0.039,0.688 0.053,1.031 0,0.094 -0.053,0.16 -0.145,0.16 -0.146,0 -0.172,-0.213 -0.213,-0.305 -0.291,-0.912 -0.688,-1.402 -1.719,-1.402 -0.873,0 -1.705,0.451 -1.705,1.416 0,1.137 1.453,1.6 2.314,1.971 0.436,0.197 0.99,0.475 1.309,0.818 0.383,0.424 0.635,1.006 0.635,1.574 0,0.74 -0.357,1.402 -0.926,1.877 -0.596,0.49 -1.35,0.688 -2.115,0.688 -0.648,0 -1.441,-0.184 -1.998,-0.516 -0.225,-0.145 -0.184,-0.502 -0.184,-0.74 0,-0.344 0,-0.674 0.039,-1.018 0.014,-0.105 0.053,-0.264 0.197,-0.264 0.172,0 0.172,0.33 0.186,0.436 0.133,1.137 0.74,1.852 1.943,1.852 0.992,0 1.971,-0.676 1.971,-1.719 0,-1.059 -0.713,-1.574 -1.613,-1.971 z m 6.279,2.697 c 0,0.846 -0.051,1.084 0.861,1.098 0.119,0 0.344,-0.014 0.344,0.158 0,0.146 -0.107,0.172 -0.225,0.172 -0.504,0 -0.98,-0.053 -1.482,-0.053 -0.502,0 -1.004,0.053 -1.506,0.053 -0.119,0 -0.227,-0.025 -0.227,-0.172 0,-0.172 0.213,-0.158 0.332,-0.158 0.924,0 0.859,-0.264 0.859,-1.098 v -5.422 c 0,-0.832 0.064,-1.084 -0.859,-1.084 -0.119,0 -0.332,0 -0.332,-0.172 0,-0.145 0.094,-0.186 0.227,-0.186 0.502,0 0.979,0.053 1.48,0.053 0.501,0 1.004,-0.053 1.508,-0.053 0.117,0 0.225,0.041 0.225,0.186 0,0.172 -0.225,0.172 -0.344,0.172 -0.926,0 -0.861,0.252 -0.861,1.084 v 1.707 c 0,0.488 -0.025,0.488 0.463,0.488 h 3.703 c 0.438,0 0.463,-0.039 0.463,-0.488 v -1.707 c 0,-0.832 0.066,-1.084 -0.859,-1.084 -0.119,0 -0.33,0 -0.33,-0.172 0,-0.145 0.092,-0.186 0.225,-0.186 0.502,0 0.979,0.053 1.48,0.053 0.501,0 1.006,-0.053 1.508,-0.053 0.119,0 0.225,0.041 0.225,0.186 0,0.172 -0.225,0.172 -0.344,0.172 -0.926,0 -0.859,0.252 -0.859,1.084 v 5.422 c 0,0.846 -0.053,1.084 0.859,1.098 0.119,0 0.344,-0.014 0.344,0.158 0,0.146 -0.105,0.172 -0.225,0.172 -0.502,0 -0.979,-0.053 -1.48,-0.053 -0.504,0 -1.006,0.053 -1.508,0.053 -0.119,0 -0.225,-0.025 -0.225,-0.172 0,-0.172 0.211,-0.158 0.33,-0.158 0.926,0 0.859,-0.264 0.859,-1.098 v -2.367 c 0,-0.488 0,-0.488 -0.463,-0.488 h -3.662 c -0.463,0 -0.504,0.025 -0.504,0.488 z m 8.754,-5.422 c 0,-0.832 0.066,-1.084 -0.859,-1.084 -0.119,0 -0.33,0 -0.33,-0.172 0,-0.145 0.092,-0.186 0.225,-0.186 0.502,0 0.979,0.053 1.48,0.053 0.504,0 1.006,-0.053 1.508,-0.053 0.119,0 0.225,0.041 0.225,0.186 0,0.172 -0.225,0.172 -0.344,0.172 -0.926,0 -0.859,0.252 -0.859,1.084 v 5.422 c 0,0.846 -0.053,1.084 0.859,1.098 0.119,0 0.344,-0.014 0.344,0.158 0,0.146 -0.105,0.172 -0.225,0.172 -0.502,0 -0.979,-0.053 -1.48,-0.053 -0.501,0 -1.006,0.053 -1.508,0.053 -0.119,0 -0.225,-0.025 -0.225,-0.172 0,-0.172 0.211,-0.158 0.33,-0.158 0.926,0 0.859,-0.264 0.859,-1.098 z m 7.998,4.973 2.725,-6.242 c 0.078,-0.172 0.211,-0.172 0.355,-0.172 h 1.469 c 0.145,0 0.383,-0.066 0.383,0.146 0,0.184 -0.186,0.211 -0.316,0.211 -0.172,0 -0.463,-0.039 -0.582,0.105 -0.158,0.186 -0.105,0.701 -0.105,0.939 v 5.461 c 0,0.211 -0.014,0.74 0.145,0.926 0.133,0.158 0.33,0.172 0.516,0.172 0.133,0 0.41,-0.027 0.41,0.172 0,0.145 -0.145,0.158 -0.252,0.158 -0.422,0 -0.846,-0.053 -1.268,-0.053 -0.529,0 -1.059,0.053 -1.574,0.053 -0.105,0 -0.252,-0.014 -0.252,-0.158 0,-0.199 0.277,-0.172 0.41,-0.172 0.199,0 0.477,-0.066 0.621,-0.186 0.225,-0.186 0.199,-0.674 0.199,-0.912 v -5.99 h -0.094 l -2.936,6.877 c -0.039,0.092 -0.078,0.236 -0.197,0.236 -0.133,0 -0.172,-0.158 -0.199,-0.25 l -2.604,-6.705 h -0.094 l -0.383,5.449 c -0.053,0.807 -0.066,1.48 0.873,1.48 0.131,0 0.41,-0.014 0.41,0.172 0,0.158 -0.172,0.158 -0.291,0.158 -0.396,0 -0.793,-0.053 -1.191,-0.053 -0.396,0 -0.793,0.053 -1.176,0.053 -0.119,0 -0.213,-0.025 -0.213,-0.158 0,-0.158 0.225,-0.172 0.344,-0.172 0.742,0 0.781,-0.344 0.82,-0.992 l 0.41,-5.857 c 0.053,-0.674 0,-0.754 -0.713,-0.754 -0.133,0 -0.318,-0.027 -0.318,-0.211 0,-0.213 0.238,-0.146 0.383,-0.146 h 1.535 c 0.25,0 0.264,0.172 0.344,0.385 z m 6.979,-5.025 c 0,-0.529 0.092,-1.109 -0.596,-1.109 -0.25,0 -0.475,0.105 -0.635,0.105 -0.078,0 -0.145,-0.041 -0.145,-0.119 0,-0.225 0.463,-0.291 0.607,-0.318 0.742,-0.131 1.852,-0.158 2.619,-0.158 0.82,0 1.852,0 2.617,0.33 0.676,0.291 1.244,0.873 1.244,1.652 0,1.045 -0.939,1.627 -1.838,1.812 1.189,0.146 2.367,1.004 2.367,2.34 0,0.754 -0.424,1.455 -1.031,1.852 -0.662,0.463 -1.35,0.516 -2.129,0.516 -1.086,0 -2.143,-0.053 -3.227,-0.053 -0.266,0 -0.557,0.053 -0.834,0.053 -0.119,0 -0.225,-0.053 -0.225,-0.197 0,-0.172 0.211,-0.133 0.33,-0.133 0.926,0 0.873,-0.291 0.873,-1.137 v -5.436 z m 1.045,1.507 c 0,0.607 0.066,0.635 0.648,0.635 h 0.713 c 0.568,0 1.164,-0.053 1.613,-0.477 0.33,-0.305 0.49,-0.754 0.49,-1.217 0,-1.322 -1.098,-1.797 -2.248,-1.797 -0.277,0 -0.873,0 -1.084,0.238 -0.16,0.17 -0.133,0.527 -0.133,0.752 v 1.866 z m 0,3.637 c 0,0.422 -0.027,1.031 0.383,1.281 0.291,0.186 0.926,0.199 1.27,0.199 0.635,0 1.217,-0.08 1.707,-0.529 0.408,-0.369 0.66,-0.965 0.66,-1.52 0,-0.768 -0.344,-1.416 -1.018,-1.785 -0.662,-0.385 -1.363,-0.385 -2.104,-0.385 -0.779,0 -0.898,-0.119 -0.898,0.609 z m 13.076,-4.562 c 0,-0.316 0.014,-1.045 -0.146,-1.309 -0.158,-0.291 -0.488,-0.305 -0.793,-0.305 -0.119,0 -0.355,0.014 -0.355,-0.172 0,-0.145 0.145,-0.186 0.277,-0.186 0.396,0 0.793,0.053 1.189,0.053 0.344,0 0.688,-0.053 1.031,-0.053 0.105,0 0.277,0.014 0.277,0.172 0,0.186 -0.305,0.186 -0.422,0.186 -0.754,0 -0.662,0.502 -0.689,1.111 v 4.125 c 0,0.846 -0.012,1.48 -0.727,2.104 -0.66,0.568 -1.613,0.699 -2.486,0.699 -0.779,0 -1.811,-0.131 -2.459,-0.607 -0.807,-0.555 -0.779,-1.322 -0.779,-2.195 v -4.152 c 0,-0.832 0.064,-1.084 -0.861,-1.084 -0.117,0 -0.33,0 -0.33,-0.172 0,-0.145 0.094,-0.186 0.225,-0.186 0.504,0 0.979,0.053 1.482,0.053 0.502,0 1.004,-0.053 1.506,-0.053 0.119,0 0.227,0.041 0.227,0.186 0,0.172 -0.227,0.172 -0.344,0.172 -0.926,0 -0.861,0.252 -0.861,1.084 v 3.729 c 0,0.582 -0.025,1.549 0.279,2.037 0.408,0.674 1.414,0.859 2.141,0.859 0.754,0 1.602,-0.172 2.143,-0.715 0.49,-0.502 0.477,-1.096 0.477,-1.758 v -3.623 z m 9.148,-0.516 c 0,-0.834 0.053,-1.098 -0.871,-1.098 -0.119,0 -0.332,0 -0.332,-0.145 0,-0.146 0.105,-0.213 0.238,-0.213 0.396,0 0.768,0.053 1.164,0.053 0.396,0 0.768,-0.053 1.15,-0.053 0.119,0 0.225,0.066 0.225,0.213 0,0.145 -0.211,0.145 -0.344,0.145 -0.912,0 -0.859,0.277 -0.859,1.098 v 6.717 c 0,0.066 0.025,0.252 -0.092,0.252 -0.146,0 -0.266,-0.211 -0.332,-0.318 l -5.553,-7.219 v 5.977 c 0,0.82 -0.066,1.098 0.859,1.098 0.119,0 0.33,-0.039 0.33,0.133 0,0.145 -0.092,0.197 -0.225,0.197 -0.396,0 -0.768,-0.053 -1.164,-0.053 -0.369,0 -0.766,0.053 -1.15,0.053 -0.133,0 -0.238,-0.053 -0.238,-0.197 0,-0.172 0.225,-0.133 0.344,-0.133 0.926,0 0.859,-0.277 0.859,-1.098 v -5.408 c 0,-0.834 0.066,-1.098 -0.859,-1.098 -0.119,0 -0.33,0 -0.33,-0.145 0,-0.199 0.172,-0.213 0.318,-0.213 h 1.639 c 0.277,0.066 0.385,0.252 0.543,0.463 l 4.68,6.07 z m -131.828995,5.408 c 0,0.846 -0.053,1.084 0.859,1.098 0.119,0 0.344,-0.014 0.344,0.158 0,0.146 -0.106,0.172 -0.225,0.172 -0.502,0 -0.979,-0.053 -1.481,-0.053 -0.502,0 -1.005,0.053 -1.507,0.053 -0.119,0 -0.225,-0.025 -0.225,-0.172 0,-0.172 0.211,-0.158 0.331,-0.158 0.925,0 0.859,-0.264 0.859,-1.098 v -5.422 c 0,-0.832 0.066,-1.084 -0.859,-1.084 -0.119,0 -0.331,0 -0.331,-0.172 0,-0.145 0.092,-0.186 0.225,-0.186 0.502,0 0.979,0.053 1.481,0.053 0.502,0 1.005,-0.053 1.507,-0.053 0.119,0 0.225,0.041 0.225,0.186 0,0.172 -0.225,0.172 -0.344,0.172 -0.925,0 -0.859,0.252 -0.859,1.084 v 1.707 c 0,0.488 -0.026,0.488 0.463,0.488 h 3.703 c 0.436,0 0.462,-0.039 0.462,-0.488 v -1.707 c 0,-0.832 0.066,-1.084 -0.859,-1.084 -0.119,0 -0.33,0 -0.33,-0.172 0,-0.145 0.092,-0.186 0.225,-0.186 0.502,0 0.978,0.053 1.48,0.053 0.503,0 1.005,-0.053 1.508,-0.053 0.119,0 0.225,0.041 0.225,0.186 0,0.172 -0.225,0.172 -0.344,0.172 -0.926,0 -0.859,0.252 -0.859,1.084 v 5.422 c 0,0.846 -0.053,1.084 0.859,1.098 0.119,0 0.344,-0.014 0.344,0.158 0,0.146 -0.106,0.172 -0.225,0.172 -0.503,0 -0.979,-0.053 -1.481,-0.053 -0.502,0 -1.004,0.053 -1.507,0.053 -0.119,0 -0.225,-0.025 -0.225,-0.172 0,-0.172 0.211,-0.158 0.33,-0.158 0.926,0 0.859,-0.264 0.859,-1.098 v -2.367 c 0,-0.488 0,-0.488 -0.462,-0.488 h -3.663 c -0.463,0 -0.503,0.025 -0.503,0.488 z m 9.798,-3.9 c 0,0.621 0.119,0.621 0.661,0.621 0.397,0 1.084,0.014 1.6,-0.053 0.331,-0.039 0.397,-0.529 0.463,-0.912 0.013,-0.08 0.053,-0.225 0.172,-0.225 0.066,0 0.145,0.025 0.145,0.131 -0.013,0.371 -0.039,0.768 -0.066,1.139 0.027,0.422 0.053,0.818 0.066,1.242 0,0.211 -0.079,0.238 -0.145,0.238 -0.119,0 -0.159,-0.146 -0.172,-0.225 -0.066,-0.385 -0.172,-0.781 -0.463,-0.848 -0.516,-0.117 -1.203,-0.117 -1.6,-0.117 -0.529,0 -0.661,0 -0.661,0.449 v 2.301 c 0,1.217 0.582,1.229 1.627,1.229 1.137,0 1.864,-0.025 2.313,-1.189 0.04,-0.092 0.133,-0.449 0.291,-0.449 0.093,0 0.132,0.053 0.132,0.145 0,0.105 -0.026,0.213 -0.053,0.318 l -0.198,1.4 c -0.013,0.094 -0.039,0.08 -0.146,0.08 h -5.17 c -0.265,0 -0.555,0.053 -0.82,0.053 -0.119,0 -0.225,-0.053 -0.225,-0.197 0,-0.146 0.212,-0.16 0.344,-0.16 0.912,0 0.859,-0.264 0.859,-1.109 v -5.383 c 0,-0.82 0.053,-1.084 -0.859,-1.084 -0.132,0 -0.344,0 -0.344,-0.158 0,-0.133 0.106,-0.199 0.225,-0.199 0.82,0 1.666,0.053 2.486,0.053 1.137,0 2.248,-0.053 3.372,-0.053 0.251,0 0.185,0.318 0.185,0.49 v 1.137 c 0,0.078 0.013,0.277 -0.119,0.277 -0.119,0 -0.172,-0.172 -0.211,-0.264 l -0.198,-0.371 c -0.199,-0.41 -0.384,-0.648 -0.82,-0.779 -0.436,-0.133 -1.005,-0.133 -1.454,-0.133 -0.212,0 -0.794,0 -1.005,0.08 -0.251,0.092 -0.212,0.383 -0.212,0.607 z m -21.068,-0.824 c 0,-0.094 0.053,-0.252 0.08,-0.318 l 1.024,-2.164 c 0.026,-0.092 0.053,-0.186 0.172,-0.186 0.08,0 0.119,0.066 0.119,0.146 0.013,0.119 0,0.199 0.105,0.277 0.172,0.146 0.45,0.105 0.662,0.105 h 4.31 c 0.212,0 0.489,0.041 0.662,-0.105 0.106,-0.078 0.092,-0.158 0.106,-0.277 0,-0.08 0.039,-0.146 0.119,-0.146 0.119,0 0.146,0.094 0.172,0.186 l 0.96,2.229 c 0.026,0.066 0.079,0.225 0.079,0.316 -0.634,-1.057 -1.938,-1.844 -3.142,-1.844 -0.595,0 -0.542,-0.027 -0.542,0.648 v 5.857 c 0,0.846 -0.053,1.098 0.86,1.098 0.119,0 0.344,-0.014 0.344,0.158 0,0.146 -0.106,0.172 -0.225,0.172 -0.502,0 -0.979,-0.053 -1.481,-0.053 -0.502,0 -1.005,0.053 -1.507,0.053 -0.119,0 -0.225,-0.025 -0.225,-0.172 0,-0.172 0.212,-0.158 0.331,-0.158 0.926,0 0.86,-0.264 0.86,-1.098 v -6.123 c 0,-0.475 -0.172,-0.383 -0.582,-0.383 -1.205,0 -2.626,0.723 -3.261,1.782 z M 9.3738449,1.0589665 c 0,0 -2.543,1.145 -2.034,3.433 0.508,2.289 2.542,2.797 4.5770001,3.052 2.035,0.254 3.306,0.636 4.196,0 0.89,-0.636 0.381,-0.763 1.017,-1.271 0.636,-0.508 1.398,-1.271 0.254,-2.416 -1.144,-1.145 -4.45,-3.17899999 -8.0100001,-2.798 z m 154.7339951,3.449 c -1.064,0.061 -1.99,0.111 -2.293,0.111 -0.764,0 -1.207,-0.636 -1.779,-0.381 l -2.098,0.954 c 0,0 0.699,0.445 0.572,0.763 -0.129,0.318 -1.209,5.2760005 -0.764,6.8660005 0.445,1.59 0.953,2.606 2.162,2.86 0,0 7.627,-0.572 8.836,-0.572 1.207,0 2.287,-0.89 2.287,-0.89 0,0 -0.508,8.9 0.637,11.315 0,0 -0.062,7.755999 0.572,8.835999 0.634,1.08 0.762,1.08 1.334,1.336 l 1.082,-1.082 c 0,0 -0.699,-0.699 -0.826,-1.145 -0.127,-0.443 0.635,-1.588 0.826,-2.033 0.189,-0.445 0.189,-5.657999 0.189,-7.755999 0,-2.098 -0.316,-11.062 -0.127,-12.396 0.191,-1.3350005 1.145,-3.6240005 1.018,-4.5770005 -0.127,-0.954 -0.381,-2.226 -1.906,-2.098 -1.527,0.127 -2.225,-0.381 -2.607,-0.318 -0.381,0.063 -1.018,0.636 -1.461,0.572 -0.445,-0.063 -0.572,-0.572 -1.527,-0.572 -0.574,0 -2.511,0.116 -4.127,0.207 z m -0.066,4.106 c 1.002,0.039 2.088,0.105 2.541,0.138 0.891,0.063 4.387,-0.127 4.387,-0.127 -0.064,0.509 0.127,1.7800005 0.254,2.2890005 0.127,0.509 -0.254,1.844 -0.762,1.907 -0.51,0.063 -1.844,0.063 -2.416,0.317 -0.572,0.254 -2.67,0.254 -4.006,0.318 -1.334,0.063 -2.479,0 -2.924,-0.445 -0.445,-0.445 0.445,-0.826 1.209,-0.699 0.762,0.127 3.559,-0.254 4.576,-0.254 1.017,0 1.906,-0.382 2.479,-0.954 0.572,-0.572 -0.189,-0.954 -1.08,-1.1450005 -0.891,-0.191 -1.717,0.1270005 -3.115,0 -1.398,-0.127 -3.369,-0.127 -3.369,-0.127 l 0.191,-1.208 c 0.185,-0.062 1.072,-0.048 2.035,-0.01 z m -10.174,11.3050005 c 1.92,-0.074 4.508,-0.268 4.832,-0.36 0.445,-0.127 1.082,-0.572 1.398,-0.508 0.318,0.063 0,2.162 0,2.162 -1.717,-0.255 -8.676,0.413 -8.676,0.413 0.062,-1.208 0.73,-1.685 0.73,-1.685 0.38,0.016 1.001,0.005 1.716,-0.022 z m 2.733,4.514 c -1.17,0.043 -2.289,0.095 -2.732,0.147 -1.08,0.127 -2.605,-0.191 -3.24,0.191 l 0.572,-1.525 c 0,0 0.953,-0.509 4.004,-0.382 3.051,0.127 3.814,-0.063 4.832,-0.254 l 0.062,1.716 c 0,0 -1.803,0.045 -3.498,0.107 z m -0.01,1.408 3.953,-0.371 -0.062,1.843 c -2.162,-0.062 -9.41,0.637 -11.381,1.336 -1.527,0.541 -2.225,1.333999 -2.287,1.587999 -0.064,0.256 2.225,0.826 2.225,0.826 2.988,-1.08 11.252,-1.461 11.252,-1.461 l 0.318,4.959 1.398,0.699 c 0.381,-0.699 1.016,-5.912 1.016,-5.912 0.191,-1.208999 0.51,-4.068999 0.637,-4.831999 0.127,-0.763 0.953,-2.225 0.953,-2.225 l 0.064,-2.86 c 0.762,-0.127 1.588,-0.381 1.906,-0.699 0.318,-0.318 0.064,-1.271 0.064,-1.271 l 0.318,-0.699 c -2.1,-0.509 -4.387,0.699 -5.914,0.89 -1.082,0.136 -4.021,-0.113 -6.998,-0.36 a 232.886,232.886 0 0 0 -3.553,-0.276 c -3.814,-0.254 -6.549,2.988 -6.549,2.988 l 1.59,1.399 1.652,-0.572 1.398,0.954 c 0,0 -0.953,5.022 -1.207,5.784 -0.254,0.764 2.033,0.51 2.033,0.51 l 0.764,-1.652 c 0.5,-0.039 3.697,-0.334 6.41,-0.586 z m -8.385,-12.16 c 1.281,-0.074 2.506,-0.097 3.057,0.029 0,0 -0.381,-0.763 0,-1.145 0.381,-0.382 0.572,-1.526 0.191,-1.462 -0.383,0.063 -0.127,0.381 -1.209,0.508 -1.08,0.127 -3.941,0.318 -4.641,0.254 -0.7,-0.064 -1.334,1.589 -1.461,2.162 0,10e-4 2.098,-0.233 4.063,-0.346 z m 0.004,1.904 c -1.924,0.128 -4.279,0.303 -4.576,0.414 0,0 -0.002,10.688 -0.254,11.952 -0.318,1.587999 -0.381,3.813999 -3.814,7.183999 0,0 -1.652,-2.799 -1.779,-3.561 -0.127,-0.764 -0.381,-1.779 0.381,-1.525 l 0.381,0.508 c 0,0 1.781,-1.018 2.035,-6.992999 0.254,-5.976 0.127,-10.044 0.127,-10.044 0,0 -1.145,-2.797 -1.652,-3.9410005 -0.51,-1.144 0.762,-5.849 1.779,-5.849 0.764,0 0.254,0.636 1.398,1.018 0,0 1.908,0.635 2.162,0.19 0.254,-0.445 0.764,-0.826 2.289,-0.699 0.484,0.04 1.061,0.074 1.652,0.118 1.27,0.095 2.611,0.234 3.305,0.581 0,0 2.607,-1.271 3.18,-1.398 l 1.906,1.653 c 0,0 -1.588,1.335 -1.779,2.479 -0.191,1.145 1.08,6.2300005 -4.195,7.7560005 -0.001,-0.002 -1.161,0.065 -2.546,0.157 z m 0.256,-6.6240005 c -1.381,0.022 -2.861,-0.019 -2.861,-0.019 v 1.6530005 c 1.271,-0.8270005 5.213,-0.572 5.531,-0.572 0.318,0 -0.064,-0.7000005 -0.064,-1.0180005 0,-0.317 0.191,-0.572 -0.316,-0.254 -0.224,0.139 -1.228,0.193 -2.29,0.21 z m -36.68,5.0030005 c 0,0 0.953,1.525 0.889,2.542 -0.062,1.017 -0.627,7.514 0,10.234 0.191,0.826 0,3.495999 -0.127,4.321999 -0.127,0.828 -0.127,0.891 0.318,1.654 0.445,0.762 1.398,1.525 1.398,1.525 0,0 0.191,-1.652 0.572,-2.098 0.381,-0.446 2.416,-6.038999 2.098,-10.743999 0,0 4.451,-0.509 5.467,-0.381 0,0 0.064,6.293 -0.127,7.883 -0.191,1.589999 -0.318,3.940999 0,4.702999 0.318,0.764 2.352,2.227 2.352,2.227 0,0 1.527,-2.035 1.59,-5.086 0.064,-3.052999 0.254,-9.662999 0.254,-9.662999 0,0 5.213,-0.381 6.039,-0.063 0.828,0.318 1.654,0.318 1.654,0.318 0,0 2.033,-1.717 2.225,-2.543 0.189,-0.827 -0.572,-1.844 -1.336,-1.971 -0.762,-0.127 -3.305,0.127 -4.195,0.445 -0.889,0.317 -0.889,-0.064 -2.479,-0.191 -1.59,-0.127 -9.154,-0.064 -11.252,0.254 l -0.51,-3.306 -1.016,-0.191 c 0,0 0.699,-0.636 1.145,-0.508 0.443,0.127 0.699,0.826 1.334,1.081 0.637,0.254 8.455,-2.035 9.535,-2.543 1.082,-0.508 1.971,-2.1620005 2.797,-2.6060005 0,0 0,-4.196 -5.213,-2.988 0,0 -1.715,0.763 -2.225,1.525 0,0 -1.08,-0.445 -2.225,0.064 -1.145,0.508 -1.971,0.381 -3.75,1.843 0,0 -1.717,0.7630005 -2.225,1.7800005 -0.51,1.017 -0.637,1.525 -0.637,1.525 0,0 -1.842,0.258 -2.35,0.957 z m -5.404,12.461 c 0,0 -0.318,1.842 0.254,2.985999 0.572,1.144 1.271,3.053 3.053,2.67 1.779,-0.381 1.844,-1.779 1.271,-2.605 -0.573,-0.825999 -1.145,-2.224999 -1.971,-2.351999 -0.826,-0.129 -2.035,-0.129 -2.607,-0.699 z m -1.145,-9.473 -3.686,0.699 -0.383,-1.017 0.318,-2.289 c 0,0 2.734,0.191 3.75,-0.127 v 2.734 z m -3.685,0.699 -0.682,0.204 -1.226998,0.368 z m -1.908998,0.572 -2.033,0.382 c 0,0 -1.717,-0.318 -2.543,0.508 -0.826,0.826 -0.445,1.208 -0.127,1.589 0.316,0.381 1.398,1.335 2.541,1.081 1.145,-0.254 3.370998,-0.127 3.370998,-0.127 l 0.508,-0.572 -0.127,1.653 c 0,0 -4.194998,0.127 -5.593998,0.572 -1.398,0.445 -6.929997,1.335 -6.548997,2.733 0.381,1.398 0.473,1.4 2.161997,1.717 1.018,0.191 3.623,0.191 4.641,-0.127 0,0 -1.525,2.860999 -2.797,3.241999 -1.272,0.381 -0.955,1.145 -0.955,1.145 0,0 1.018,1.018 1.082,2.033 0,0 1.525,-0.572 3.051,-0.254 0,0 3.369,-5.720999 3.369,-6.737999 0,-1.017 -0.191,-1.207 -0.191,-1.207 l 1.653998,-0.637 c 0,0 -0.064,3.75 -0.127,5.020999 -0.064,1.271 -0.445,2.162 -0.191,3.561 0.254,1.399 0.254,1.525 0.254,1.525 l 2.225,-0.189 c 0,0 -0.127,-1.654 0,-2.289 0.129,-0.637 0.891,-1.271 1.271,-2.543 0.383,-1.270999 0.699,-3.749999 0.637,-5.276999 0,0 4.322,0.382 4.387,-0.063 0.062,-0.445 0,-0.508 0.062,-0.763 0.064,-0.254 1.908,-1.462 1.463,-2.098 -0.445,-0.636 -1.908,-0.89 -3.369,-0.509 -1.463,0.382 -2.098,0.509 -2.543,0.445 v -1.017 c 0,0 2.416,-0.254 3.623,-1.145 1.207,-0.891 2.924,-1.589 2.607,-1.971 -0.318,-0.381 -2.1,-1.208 -2.988,-1.144 0,0 1.207,-1.653 1.145,-2.289 -0.064,-0.636 -0.637,-1.335 -0.445,-1.526 0.189,-0.19 2.033,-0.318 2.033,-0.318 0,0 0,-0.826 0.51,-1.208 l 1.588,-1.081 c 0,0 -2.225,-1.0810005 -3.75,-1.0170005 -1.525,0.064 -8.391,0.8270005 -10.552998,1.1440005 -2.162,0.318 -3.75,0.7 -4.387,0.827 -0.635,0.127 -1.844,1.843 -1.461,2.352 0.381,0.509 1.018,1.145 1.398,1.208 0.38,0.063 2.986,0.063 2.986,0.063 z m -1.144,-16.2740005 c -0.818,0.117 -1.906,0.827 -1.08,2.162 0.826,1.335 1.525,4.005 2.225,4.132 0.699998,0.127 5.784998,0 6.165998,0.127 0.383,0.127 2.967,-2.303 3.242,-2.67 0.572,-0.763 -0.826,-1.843 -2.543,-2.225 -1.717,-0.382 -6.229,-1.78 -8.009998,-1.526 z M 64.801845,24.313967 a 7.988,7.988 0 0 0 2.229,-0.497 c 1.335,-0.508 5.531,-1.653 7.247,-1.145 1.717,0.509 0.763,0.636 -0.063,1.145 -0.826,0.508 -2.352,0.572 -3.433,0.636 -1.081,0.063 -3.205,0.635 -4.577,0.635 -0.405,0 -0.792,-0.054 -1.066,-0.104 0.279,0.651 -0.088,1.497 -0.391,2.024 0.58,-0.619 2.168,-1.62 6.416,-1.793 h 5.721 c 0,0 -0.127,-2.289 0.382,-3.305 l 0.127,-1.399 c 0,0 -0.198,-1.042 -0.162,-1.979 l -0.855,0.962 c -0.763,0 -2.034,0.254 -4.069,-0.127 -2.034,-0.382 -6.483,0.508 -7.501,1.017 -0.481,0.241 -0.593,1.021 -0.509,1.885 0.631,-0.226 5.862,-2.06 8.01,-1.821 2.289,0.255 2.479,0.382 2.353,0.636 -0.126,0.254 -0.254,0.699 -0.89,0.763 -0.636,0.064 -2.479,-0.19 -3.369,0.127 -0.89,0.317 -3.242,0.89 -4.196,1.017 a 5.332,5.332 0 0 1 -1.815,-0.085 c 0.097,0.509 0.245,1.008 0.411,1.408 z m 20.793,9.993999 c -1.073,-0.135 -2.606,-1.527 -3.624,-2.289 -1.017,-0.764 -4.196,-3.114999 -3.75,-3.813999 0.445,-0.699 1.144,-1.59 3.624,-1.018 2.479,0.572 4.831,1.59 5.657,2.224999 0.827,0.637 1.654,1.844 0.891,2.354 -0.763,0.508 -0.891,0.189 -1.271,0.826 -0.383,0.634 -1.019,1.778 -1.527,1.716 z m -27.208,-0.702 c -1.052,0 -3.497,-2.098 -3.051,-3.051 0.445,-0.953 1.335,-2.288999 3.433,-1.905999 2.098,0.381 2.445,-0.107 3.369,0.508 0.571,0.380999 -2.162,4.448999 -3.751,4.448999 z m 18.862,-15.328999 c 0.043,-0.462 0.157,-0.869 0.399,-1.071 0.763,-0.636 0.636,-1.144 1.398,-0.508 0.762,0.636 1.653,1.525 1.653,2.416 0,0.89 -0.763,1.017 -0.763,2.034 0,1.017 0.764,2.012 -0.127,3.051 -0.763,0.89 -2.542,3.052 -2.542,3.052 0,0 -10.807,-0.383 -12.841,0.254 -0.508,1.145 -1.144,1.525 -2.035,0.635 -0.89,-0.889 -2.034,-3.305 -2.034,-3.305 -0.763,-0.763 0.508,-2.543 0.508,-2.543 0.636,-1.525 0.763,-2.797 1.78,-3.306 2.645,-1.322 9.536,-1.525 11.062,-1.652 1.29,-0.108 3.034,0.692 3.542,0.943 z m -0.745,-4.885 5.34,0.763 1.653,-1.399 -6.229,-1.018 z m -3.56,0.381 0.127,-1.653 c 0,0 -2.161,0.636 -4.832,0.381 l -0.254,1.526 z m -9.027,0.891 v -0.89 c 0,0 -2.416,0.127 -3.688,1.271 -1.271,1.145 -1.398,0.763 -1.907,1.018 0,0 0.509,1.907 -2.542,3.179 l -0.636,-3.306 -2.542,-1.525 c 0,0 -0.509,-2.924 0.763,-4.4500005 0,0 2.416,-1.398 5.467,1.1450005 0,0 6,-0.371 10.472,-0.772 a 0.179,0.179 0 0 1 -0.046,-0.118 c 0,-0.3810005 0.127,-1.2710005 0.127,-1.2710005 0,0 -4.068,0.89 -5.849,0.509 -1.779,-0.382 -4.958,-1.399 -4.322,-3.052 0.636,-1.652 2.543,-2.924 4.958,-2.924 l 4.832,0.127 c 0,0 -0.127,-2.66999999 0.635,-3.05199999 0.763,-0.381 1.272,-1.144 1.907,0.254 0.636,1.39899999 1.526,3.05199999 1.526,3.05199999 0,0 4.45,0 5.34,0.89 0.89,0.89 -0.254,2.161 -1.78,2.416 -1.526,0.255 -4.577,1.78 -5.34,2.67 a 1.92,1.92 0 0 1 -0.392,0.3470005 c 1.175,-0.12 2.135,-0.2380005 2.68,-0.3470005 0.635,-0.127 3.687,-1.907 8.137,-0.636 l 2.416,0.636 c 0,0 -0.339,-1.738 1.78,-2.162 1.271,-0.256 2.034,-0.129 2.034,-0.129 0,0 -0.382,3.4330005 -1.271,4.4500005 -0.89,1.017 -0.508,1.144 -1.78,1.398 -1.272,0.254 -2.162,1.272 -2.543,2.289 -0.381,1.018 0.509,0.509 -0.636,0.509 -1.144,0 -4.577,-0.763 -7.882,-0.381 -3.306,0.381 -6.739,1.398 -10.553,1.271 0,0 -1.78,0.763 -3.052,1.144 -1.271,0.382 -1.653,-1.271 -0.763,-1.653 z m -29.878,9.273 -4.895,0.644 -0.572,-0.572 5.465,-0.651 2.544,-0.303 c 0,0 0.699,-0.636 1.017,-0.381 0,0 0.636,0.127 0.381,0.636 -0.254,0.508 0.127,0.826 -0.318,0.826 -0.445,0 -1.271,-0.508 -1.271,-0.508 z m -0.002,-2.051 c -2.225,0.314 -4.956,0.914 -4.956,0.914 l -0.89,-0.954 c 0.445,-0.508 0.826,-0.127 1.526,0 0.604,0.11 2.541,-0.446 4.246,-0.763 0.266,-0.049 0.527,-0.093 0.776,-0.127 1.843,-0.254 1.97,-0.699 1.97,-0.699 0.509,-0.763 0.89,-0.127 0.89,-0.127 l -0.063,1.844 -1.081,-0.254 c -0.498,-0.06 -1.406,0.024 -2.418,0.166 z m -0.19,-3.102 c -1.773,-0.038 -3.812,0.212 -5.211,1.283 0,0 -1.208,-0.381 -1.971,0.572 -0.763,0.954 -2.352,2.734 -2.225,4.832 0.127,2.097 1.589,3.496 3.497,3.242 1.292,-0.172 3.985,-0.559 6.358,-0.744 1.13,-0.088 2.187,-0.131 2.986,-0.082 3.115,0.191 4.46,-2.003 4.259,-2.606 -0.19,-0.572 -0.826,-2.924 -0.699,-3.496 0.127,-0.572 0.89,-2.542 0.318,-2.988 0,0 -1.907,-0.954 -3.624,0.445 a 18.656,18.656 0 0 0 -3.688,-0.458 z m 0.38,7.801 c -1.812,0.188 -4.318,0.463 -4.829,0.602 -0.699,0.191 -1.653,-0.381 -0.89,-0.572 0,0 3.232,-0.395 5.468,-0.76 0.868,-0.141 1.587,-0.277 1.907,-0.384 1.145,-0.382 1.638,-1.332 1.78,-0.763 0.127,0.508 -0.317,1.208 -0.127,1.717 0,0 -0.445,-0.129 -1.716,0 -0.345,0.033 -0.921,0.092 -1.593,0.16 z m -1.968,-12.685 0.127,1.78 2.034,-0.127 0.127,-1.907 z m -1.398,0.128 -3.179,0.636 0.381,2.034 -0.762,1.653 c -0.382,0.826 -0.573,0.763 -0.573,1.208 l -0.445,-0.763 c 0,0 -0.191,-0.89 0,-1.78 l -2.225,-2.733 -0.89,-1.081 0.317,-0.826 2.416,-0.127 1.272,1.398 c 0,0 -0.509,-1.144 1.525,-1.525 2.034,-0.382 9.281,-1.145 11.188,-0.509 l 1.017,1.017 1.271,-0.254 c 0,0 1.907,0.254 1.907,0.89 l -0.763,0.636 -0.89,0.254 -1.271,2.67 -1.271,-0.127 v -3.688 l -2.162,0.127 -0.127,1.399 1.526,1.017 c 0,0 -0.381,1.398 -2.416,1.78 -2.034,0.381 -5.467,0.763 -6.611,0.635 -1.145,-0.127 -2.035,-1.271 -2.035,-1.271 l 2.67,-0.763 z m 7.883,15.129 c 0,0 4.866,5.733999 8.519,5.212999 0.89,-0.127 0.381,-1.271 0,-2.416 -0.382,-1.145 0.127,-1.779 -1.018,-2.543 -1.291,-0.860999 -4.45,-2.286999 -7.501,-0.253999 z m -20.216,4.322999 1.018,-0.381 1.398,0.637 2.797,-2.162 c 0,0 -1.398,-3.050999 0.254,-3.179999 1.653,-0.127 3.687,0.51 3.687,0.51 0,0 1.145,3.304999 -0.127,3.560999 -1.271,0.254 -1.653,-0.637 -3.179,0 -1.525,0.635 -2.288,1.398 -3.433,2.033 -1.144,0.636 -2.669,-10e-4 -2.415,-1.018 z m 7.883,-21.994999 c -0.5,0.094 -4.45,0.127 -5.213,0 -0.763,-0.127 -0.635,-0.89 -0.254,-1.271 0.381,-0.3810005 2.67,-2.1620005 6.484,-2.4160005 3.814,-0.254 4.069,-0.128 4.069,-0.128 v -1.398 c 0,0 -1.653,-0.381 -3.179,0.254 -1.525,0.636 -3.178,0.381 -3.687,-0.763 -0.509,-1.144 0.89,-2.924 2.67,-3.051 1.779,-0.127 3.56,-0.127 3.56,-0.127 0,0 -0.127,-2.41599999 1.907,-2.41599999 2.034,0 2.034,1.77999999 2.034,2.41599999 0,0 2.543,-0.381 3.814,0.508 1.271,0.89 1.526,1.653 1.526,1.653 0,0 -0.763,1.271 -1.78,1.271 -1.017,0 -3.306,0.381 -3.306,0.381 l 0.128,1.146 c 0,0 8.518,-1.271 13.604,0.636 l 1.907,1.525 c 0,0 -1.145,3.1790005 -2.924,3.0520005 -1.78,-0.127 -12.714,-3.1790005 -15.002,-3.1790005 -10e-4,0 -4.324,1.5260005 -6.358,1.9070005 z m -10.571,16.582 c -0.458,0.93 -0.962,1.837999 -1.381,2.487999 -1.144,1.779 -3.306,1.779 -4.5770001,1.908 -1.271,0.127 -2.034,0.127 -2.924,-0.764 l -0.509,3.051 -0.89,1.018 0.254,-3.305 c 0,0 -1.907,-1.908 -2.161,-4.577999 -0.254,-2.67 0.127,-3.433 0.127,-3.433 0,0 1.78,0.635 2.67,0.763 0.89,0.127 5.4090001,-1.542 7.2470001,-1.017 0.89,0.254 0.763,0.254 0.763,0.254 l 0.254,-0.89 c 0,0 2.038,-0.687 2.416,0.636 0.161,0.565 -0.495,2.254 -1.289,3.869 z m -2.525,-0.054 v -1.525 c 0,0 -1.399,1.018 -2.67,1.018 -1.2710001,0 -1.5260001,-0.254 -2.1620001,0 l -0.636,0.762 c 0,0 0.89,1.397999 0.763,1.907999 l 0.89,0.254 c 0,0 0,-1.397999 3.8140001,-0.635 v -1.781999 z m -9.0260001,-6.357 c 0,0 5.34,-2.289 9.1540001,-2.289 1.526,0 1.833,-0.138 1.907,0.381 0.127,0.89 0.254,1.908 -0.636,2.035 -0.89,0.127 -3.687,1.78 -6.9930001,1.653 -3.306,-0.127 -3.941,-1.144 -3.432,-1.78 z m 1.906,-5.086 c 0,0 2.416,-2.161 3.8140001,-1.653 1.398,0.509 2.543,-0.254 3.306,-0.381 0.763,-0.127 1.144,-0.127 1.907,0.635 0.763,0.763 0.254,1.908 -1.399,2.67 -1.653,0.763 -5.5940001,0.763 -6.6110001,0.381 -1.017,-0.38 -1.017,-1.652 -1.017,-1.652 z m -5.9749996,-4.068 c 0,0 6.9919996,-4.3230005 8.6459996,-3.6870005 1.6520001,0.636 2.7970001,0.636 4.0680001,0.381 1.271,-0.254 6.229,-1.399 6.611,-0.763 0.381,0.635 0.381,2.9240005 -0.127,3.4330005 -0.508,0.508 -4.45,0 -6.103,0.636 -1.653,0.635 -3.9410001,1.653 -5.9760001,1.653 -2.035,0 -4.704,0.127 -5.594,0.127 -0.89,0 -2.2879996,-1.653 -1.5249996,-1.78 z" />
</svg>
