<?xml version="1.0" encoding="UTF-8" standalone="no"?>
<!-- Created with Inkscape (http://www.inkscape.org/) -->

<svg
   version="1.1"
   id="svg1"
   width="2509.4021"
   height="662.79395"
   viewBox="0 0 2509.4021 662.79393"
   sodipodi:docname="Toyota_Research_Institute_Logo.jpg"
   inkscape:version="1.3 (0e150ed6c4, 2023-07-21)"
   xmlns:inkscape="http://www.inkscape.org/namespaces/inkscape"
   xmlns:sodipodi="http://sodipodi.sourceforge.net/DTD/sodipodi-0.dtd"
   xmlns="http://www.w3.org/2000/svg"
   xmlns:svg="http://www.w3.org/2000/svg">
  <defs
     id="defs1" />
  <sodipodi:namedview
     id="namedview1"
     pagecolor="#ffffff"
     bordercolor="#000000"
     borderopacity="0.25"
     inkscape:showpageshadow="2"
     inkscape:pageopacity="0.0"
     inkscape:pagecheckerboard="0"
     inkscape:deskcolor="#d1d1d1"
     inkscape:zoom="0.75602602"
     inkscape:cx="1251.941"
     inkscape:cy="331.3378"
     inkscape:window-width="3440"
     inkscape:window-height="1316"
     inkscape:window-x="-12"
     inkscape:window-y="-12"
     inkscape:window-maximized="1"
     inkscape:current-layer="g1" />
  <g
     inkscape:groupmode="layer"
     inkscape:label="Image"
     id="g1"
     transform="translate(-82.597882,-368.23009)">
    <path
       style="fill:#ffffff"
       d="m 296.41236,1030.2255 c -24.68389,-2.7202 -33.94282,-10.1477 -52.53967,-42.147 -15.63544,-26.90362 -24.33602,-41.98636 -33.32455,-57.76919 -5.42506,-9.52577 -12.06853,-20.99086 -14.76326,-25.47797 -2.85284,-4.75039 -4.60042,-8.67791 -4.18352,-9.40206 0.39379,-0.68403 0.35925,-0.92125 -0.0767,-0.52716 -0.62872,0.56829 -6.45246,-7.16136 -6.45246,-8.56412 0,-0.1959 -4.26872,-7.64022 -9.48604,-16.54295 -5.21733,-8.90272 -10.72101,-18.41358 -12.23041,-21.13523 -1.50941,-2.72165 -5.72105,-10.01609 -9.3592,-16.20986 -3.63816,-6.19378 -7.99659,-13.74485 -9.6854,-16.78016 -1.68882,-3.0353 -9.29262,-16.22746 -16.89734,-29.3159 -30.985672,-53.32925 -35.221325,-60.66374 -38.319248,-66.35387 -3.700797,-6.79748 -3.361078,-6.54383 3.976602,2.96907 34.190166,44.32566 86.262986,94.10295 142.618956,136.33188 55.67454,41.71831 130.55939,85.41985 190.37176,111.09776 5.98763,2.57053 12.22268,5.2646 13.85567,5.98682 12.72791,5.62914 42.4516,16.75625 63.34021,23.71154 42.52609,14.1598 86.02694,24.6588 122.72164,29.6189 8.56032,1.1571 -12.55774,1.3334 -156.37113,1.3054 -91.44742,-0.018 -169.38556,-0.376 -173.19587,-0.7959 z m 362.28415,-12.8234 C 692.83253,938.59646 713.36626,835.6735 716.36299,728.35547 720.00314,597.9958 698.8156,473.3408 656.78175,377.81445 c -2.52463,-5.73751 -1.10431,-4.40313 3.16031,2.96907 2.12545,3.67423 16.70334,28.94845 32.39533,56.16495 15.69199,27.21649 31.61713,54.82887 35.38922,61.36083 3.77208,6.53195 20.2302,35.03505 36.5736,63.3402 16.3434,28.30516 36.18529,62.59794 44.09309,76.20619 23.04719,39.66107 27.51058,50.506 26.67958,64.82475 -0.88126,15.18468 8.7032,-2.16391 -161.84335,292.94846 -8.96526,15.5134 -16.72268,28.6515 -17.23872,29.1959 -0.51605,0.5443 0.70152,-2.7959 2.7057,-7.4227 z M 1172.2886,877.26469 c -12.9536,-1.70138 -20.4632,-4.6324 -26.775,-10.4505 -5.7912,-5.33808 -8.4391,-10.53504 -9.104,-17.86792 l -0.5255,-5.79499 11.7303,0.28004 11.7303,0.28005 0.6094,2.96907 c 0.9888,4.8176 2.6351,7.05385 6.6096,8.97791 4.2155,2.04075 14.7722,2.97831 21.7511,1.93176 9.1969,-1.37916 14.1684,-10.32057 9.2295,-16.59947 -2.4967,-3.17398 -7.4867,-5.15698 -17.9373,-7.12809 -30.4833,-5.74955 -40.473,-12.80507 -40.473,-28.58526 0,-18.44036 12.0924,-29.00055 35.4379,-30.94749 24.3405,-2.02991 42.5535,8.68613 45.2428,26.61958 l 0.6987,4.6589 h -11.9887 c -10.1675,0 -11.9887,-0.23298 -11.9887,-1.53369 0,-3.14884 -3.2004,-7.5712 -6.4669,-8.93603 -7.5046,-3.13562 -23.8163,-0.89877 -26.2217,3.59583 -1.4351,2.68154 -1.1602,8.12822 0.5323,10.54453 1.7469,2.49416 9.7729,5.674 16.8161,6.66246 2.7217,0.38196 8.5114,1.58789 12.866,2.67985 21.4047,5.36736 30.4865,14.68882 28.7841,29.54375 -1.5721,13.71763 -10.5094,23.18832 -25.5891,27.11606 -5.6641,1.47533 -20.104,2.62253 -24.9682,1.98365 z m 422.4408,-0.49325 c -24.737,-4.13217 -42.8944,-25.63566 -42.8944,-50.79912 0,-22.54143 13.8839,-41.85794 35.3654,-49.20346 9.3771,-3.20649 22.8199,-3.20649 32.1971,0 12.764,4.3646 23.0684,13.12873 29.4163,25.01919 1.639,3.07001 2.98,5.85351 2.98,6.18556 0,0.33206 -5.567,0.60374 -12.3712,0.60374 -6.8041,0 -12.3711,-0.3652 -12.3711,-0.81155 0,-1.86086 -7.4424,-9.3078 -11.2404,-11.24717 -5.829,-2.97652 -16.1078,-3.5722 -22.1069,-1.28114 -6.2367,2.38182 -12.437,8.30507 -15.2825,14.59969 -2.003,4.43075 -2.3387,6.73551 -2.339,16.05976 -2e-4,9.27343 0.3376,11.61985 2.2796,15.83505 6.1152,13.27299 20.1262,19.40163 33.8978,14.82743 5.1008,-1.69421 14.7914,-9.75655 14.7914,-12.30608 0,-0.66733 4.4086,-1.03682 12.3711,-1.03682 6.8042,0 12.3712,0.27168 12.3712,0.60374 0,2.35225 -7.3237,13.49672 -11.9718,18.2176 -6.9161,7.02423 -19.0992,13.32956 -28.6056,14.80467 -7.3058,1.13366 -9.327,1.12494 -16.487,-0.0711 z m 401.8474,-1.38135 c -16.8422,-3.66319 -28.082,-14.82862 -28.082,-27.89626 v -3.28761 h 10.808 10.8079 l 0.6573,2.99278 c 1.7914,8.15618 10.6846,12.44205 24.1582,11.64255 8.6488,-0.51322 13.2476,-2.50865 15.4075,-6.68541 2.2103,-4.27425 1.8623,-8.35868 -1.0021,-11.76292 -2.8787,-3.42111 -7.7029,-5.20993 -21.744,-8.06281 -19.5387,-3.96988 -28.0022,-8.01805 -33.3616,-15.95714 -2.7421,-4.0621 -2.902,-4.82531 -2.5657,-12.24953 0.3721,-8.21702 1.9285,-12.74112 5.9878,-17.40583 8.8283,-10.14494 30.4129,-14.49887 48.6963,-9.82276 11.2249,2.87085 17.3711,7.04828 21.2121,14.41742 2.1334,4.09296 4.2148,12.83367 3.2789,13.76954 -0.2894,0.28939 -5.3014,0.52617 -11.1377,0.52617 h -10.6115 l -0.6201,-3.30564 c -1.1543,-6.15258 -6.8756,-9.56034 -16.0511,-9.56034 -8.1313,0 -13.8757,1.768 -16.7175,5.14535 -3.1957,3.79782 -3.137,7.75446 0.1735,11.68866 3.2577,3.87165 5.0211,4.57758 18.6444,7.46402 16.6117,3.51961 18.9924,4.21595 25.0584,7.32961 11.7276,6.01974 15.3339,12.34422 13.8879,24.35544 -1.2763,10.60158 -7.5484,19.03669 -17.3933,23.39155 -10.2495,4.53383 -27.2262,5.9409 -39.4916,3.27316 z m 344.5365,0.52604 c -14.1605,-3.06263 -25.0183,-11.32535 -29.0379,-22.09756 -2.0421,-5.47267 -2.1373,-7.29142 -2.1373,-40.82474 v -35.0969 h 10.3434 10.3434 l 0.2958,33.89691 0.2957,33.89691 2.4366,4.25509 c 3.2613,5.69551 7.6341,8.23999 15.1923,8.8402 12.028,0.95516 20.1918,-3.62654 22.9378,-12.87322 1.197,-4.03076 1.4952,-11.31548 1.4952,-36.52541 v -31.49048 h 10.4373 10.4373 l -0.293,36.44395 -0.293,36.44395 -2.9858,5.83558 c -3.8912,7.60486 -11.9674,14.22703 -21.0572,17.26594 -7.3275,2.44976 -21.7158,3.47773 -28.4106,2.02978 z M 936.71379,873.68318 c -0.26785,-0.69893 -0.37103,-22.6481 -0.22928,-48.77593 l 0.25773,-47.50516 30.18557,0.0404 c 28.77321,0.0385 30.4431,0.14275 35.68979,2.22812 6.2731,2.49337 11.017,6.70721 14.0998,12.52449 1.7595,3.32 2.1295,5.71637 2.1474,13.90803 0.02,9.10553 -0.2092,10.31375 -2.8665,15.10986 -2.6139,4.71794 -5.1671,7.0084 -13.0145,11.67524 -1.5995,0.95123 -0.6045,2.97194 10.2825,20.88341 6.6293,10.90665 12.0533,20.13226 12.0533,20.50136 0,0.3691 -5.8964,0.54682 -13.1031,0.39494 l -13.10312,-0.27615 -11.8866,-19.54169 -11.8866,-19.54168 -8.14403,-0.005 -8.14402,-0.005 -0.26835,19.54639 -0.26834,19.54639 -10.65732,0.28109 c -7.97277,0.21029 -10.77999,-0.039 -11.14433,-0.98969 z m 54.97609,-58.68309 c 3.51507,-1.81771 5.12659,-4.61443 5.12659,-8.89697 0,-4.28254 -1.61152,-7.07926 -5.12659,-8.89697 -2.20255,-1.13899 -6.43586,-1.49478 -17.78509,-1.49478 h -14.89451 v 10.39175 10.39175 h 14.89451 c 11.34923,0 15.58254,-0.35579 17.78509,-1.49478 z m 49.46472,10.89672 v -49.01228 l 39.3402,0.25878 39.3402,0.25878 0.2844,9.1394 0.2843,9.1394 -28.4905,0.26266 -28.4905,0.26266 -0.2833,9.64949 -0.2833,9.64948 h 24.7781 24.7781 v 9.38478 9.38477 l -24.4948,0.26471 -24.4948,0.26471 v 10.39176 10.39175 l 28.9853,0.26243 28.9854,0.26243 -0.2843,9.13963 -0.2844,9.13963 -39.835,0.25865 -39.8351,0.25865 z m 201.3651,47.76408 c -0.2632,-0.68667 -0.3625,-22.62581 -0.2208,-48.75364 l 0.2578,-47.50516 39.3402,-0.25878 39.3402,-0.25878 v 9.41342 9.41342 h -28.2062 -28.2062 v 9.89691 9.8969 h 24.2474 24.2475 v 9.40207 9.40206 h -24.2475 -24.2474 v 10.8866 10.88659 h 28.7382 28.7381 l -0.2845,9.15464 -0.2846,9.15464 -39.3669,0.25881 c -30.9632,0.20355 -39.469,-0.008 -39.8453,-0.9897 z m 91.5834,0.18193 c 0,-0.93687 15.0894,-38.66746 33.9185,-84.81186 l 4.9471,-12.12372 h 13.6159 c 9.9644,0 13.751,0.33177 14.1195,1.23712 29.4143,72.27099 38.3062,94.43144 38.3062,95.4675 0,0.96922 -2.8525,1.27477 -11.9008,1.27477 h -11.9008 l -0.9771,-2.72165 c -0.5375,-1.49691 -2.3716,-6.39588 -4.0759,-10.8866 l -3.0987,-8.16495 h -20.4881 -20.4881 l -3.9495,10.63918 -3.9494,10.63917 -12.0394,0.27789 c -8.3683,0.19315 -12.0394,-0.059 -12.0394,-0.82685 z m 65.2269,-38.48656 c 0.9338,-0.57715 -11.5616,-35.68613 -12.7009,-35.68613 -0.8551,0 -13.7868,34.94787 -13.266,35.85129 0.4791,0.83105 24.6033,0.67761 25.9669,-0.16516 z m 54.5256,-9.53576 v -49.06614 l 29.9382,0.37791 c 25.9326,0.32734 30.6327,0.62233 35.13,2.20486 11.6145,4.08703 17.2618,12.7926 17.3194,26.69888 0.053,12.82042 -5.1484,21.91634 -14.8517,25.97064 -3.1607,1.32062 -3.2847,1.54444 -1.9872,3.58754 7.4997,11.80891 22.5338,37.26697 22.5338,38.15752 0,0.79453 -3.8131,1.13492 -12.7136,1.13492 h -12.7136 l -11.8559,-19.54639 -11.8558,-19.5464 -8.5852,-0.28595 -8.5852,-0.28595 v 19.83234 19.83235 h -10.8866 -10.8866 z m 55.4331,-10.97373 c 5.6337,-3.32791 6.569,-10.34948 2.0525,-15.40845 l -2.8855,-3.23211 -16.4134,-0.31402 -16.4135,-0.31403 v 10.45836 10.45835 h 15.435 c 12.624,0 15.943,-0.30014 18.2249,-1.6481 z m 159.7962,58.83641 c -0.2678,-0.69893 -0.371,-22.6481 -0.2293,-48.77593 l 0.2578,-47.50516 H 1680 h 10.8866 l 0.2687,19.05155 0.2688,19.05154 h 20.246 20.2459 l 0.2688,-19.05154 0.2688,-19.05155 11.1433,-0.27992 11.1434,-0.27993 -0.2568,48.77477 -0.2567,48.77477 h -10.8866 -10.8866 l -0.268,-20.04123 -0.2679,-20.04124 h -20.2476 -20.2477 l -0.2679,20.04124 -0.2679,20.04123 -10.6574,0.28109 c -7.9727,0.21029 -10.78,-0.039 -11.1443,-0.98969 z m 149.9666,-47.78624 v -48.00001 h 10.3917 10.3918 v 48.00001 48 h -10.3918 -10.3917 z m 44.5361,0 v -48.00001 h 10.6468 10.6468 l 10.3841,14.86711 c 10.6192,15.20367 12.441,17.74897 21.9442,30.65867 3.0052,4.08247 6.083,8.42474 6.8395,9.64948 0.7566,1.22475 1.7138,2.22681 2.1272,2.22681 0.4133,0 0.7516,-12.91547 0.7516,-28.70103 v -28.70104 h 10.3917 10.3918 v 48.00001 48 l -10.6392,-0.053 -10.6392,-0.053 -16.8247,-23.83139 c -22.6154,-32.03355 -23.6397,-33.43227 -24.4949,-33.4496 -0.4082,-0.008 -0.7422,12.90043 -0.7422,28.686 v 28.70103 h -10.3918 -10.3917 z m 236.3,8.65979 -0.2588,-39.34021 -15.3402,-0.49484 -15.3402,-0.49485 -0.044,-8.16495 -0.044,-8.16495 h 41.3635 41.3636 v 8.41238 8.41237 h -15.3402 c -11.6007,0 -15.3456,0.30157 -15.3622,1.23711 -0.012,0.68041 0,18.49485 0.021,39.58763 l 0.044,38.35052 h -10.402 -10.4019 z m 70.2503,-8.41217 0.2411,-47.75278 9.9032,-0.28205 9.9033,-0.28204 v 48.03462 48.03463 l -10.1443,2e-4 -10.1444,1.9e-4 z m 69.2961,8.41217 -0.2588,-39.34021 -15.0928,-0.2732 -15.0928,-0.2732 v -8.38659 -8.3866 h 41.0722 41.0722 v 8.3866 8.38659 l -15.0928,0.2732 -15.0928,0.2732 -0.2588,39.34021 -0.2588,39.34021 h -10.369 -10.369 z m 203.8763,0 -0.2588,-39.34021 -15.0928,-0.2732 -15.0928,-0.2732 v -8.38659 -8.3866 h 41.0722 41.0721 v 8.41238 8.41237 h -15.3402 -15.3402 v 39.58763 39.58763 h -10.3804 -10.3804 z m 70.2469,-7.91752 c 0.1308,-25.99176 0.2421,-47.59176 0.2474,-48.00001 0.01,-0.40824 17.3788,-0.74227 38.6077,-0.74227 h 38.5979 v 8.41238 8.41237 h -28.0907 c -32.1272,0 -28.839,-1.19752 -29.2158,10.64 -0.387,12.15957 -2.711,11.13319 25.2083,11.13319 h 24.1807 v 8.39509 8.39508 l -24.4948,0.26471 -24.4949,0.26471 -0.2901,9.40206 c -0.32,10.36711 0.222,14.0085 2.0502,13.77534 0.6649,-0.0848 13.5678,-0.10142 28.6729,-0.0369 l 27.4639,0.11727 v 8.41237 8.41237 h -39.3402 l -39.3402,10e-6 z M 1162.0878,724.38192 c -16.2104,-2.10456 -31.901,-9.30548 -46.0756,-21.1455 -10.9223,-9.12337 -22.2712,-27.82123 -26.4683,-43.60753 -3.0161,-11.34445 -3.0565,-31.44247 -0.086,-42.62549 9.148,-34.43601 36.2655,-59.22393 70.9025,-64.81148 9.7445,-1.57196 26.4889,-0.69681 36.362,1.90046 31.713,8.34262 56.7012,35.328 62.8697,67.89459 2.0271,10.70184 1.2548,30.00932 -1.5847,39.6213 -8.2242,27.83904 -29.2546,49.89749 -56.0284,58.7672 -14.0137,4.64251 -25.8421,5.83048 -39.8915,4.00645 z m 20.7049,-31.5909 c 8.0642,-1.48577 18.8561,-7.35592 24.5058,-13.3296 14.839,-15.69001 18.978,-43.33357 10.0439,-67.08082 -4.3168,-11.47417 -14.914,-22.09635 -26.483,-26.54542 -6.8751,-2.64393 -19.5651,-3.60099 -26.8972,-2.02853 -12.9165,2.77009 -25.7569,12.73425 -31.1389,24.1638 -8.7427,18.56665 -8.7625,42.18161 -0.05,59.8863 9.1965,18.68829 29.3615,28.74037 50.0194,24.93427 z m 324.0114,31.61959 c -12.6752,-1.96664 -27.3781,-7.76379 -37.6972,-14.86354 -17.8759,-12.2989 -31.5368,-33.62621 -35.7565,-55.82266 -1.7979,-9.45755 -1.2168,-28.64231 1.1252,-37.14707 9.3256,-33.86536 37.1866,-59.152 70.9841,-64.42522 9.1052,-1.42063 26.8934,-0.6079 35.4887,1.62144 3.5382,0.91769 10.1489,3.38984 14.6905,5.49367 44.4834,20.6062 63.15,73.4114 41.478,117.33503 -11.0383,22.37187 -32.2945,39.60527 -56.5051,45.81142 -9.1234,2.33872 -25.4061,3.30049 -33.8077,1.99693 z m 20.8491,-31.71001 c 12.591,-2.29975 24.9505,-10.92026 31.3755,-21.88371 9.979,-17.0279 10.2454,-46.1224 0.5881,-64.24132 -3.4481,-6.46921 -12.556,-15.58095 -18.7155,-18.72328 -9.9461,-5.07414 -24.853,-6.36054 -35.4581,-3.05986 -8.4964,2.64436 -13.8539,6.06852 -20.1713,12.89203 -9.647,10.41995 -13.9282,22.88791 -13.9635,40.66608 -0.055,27.56726 13.4642,47.7489 35.9102,53.60831 7.7266,2.017 12.5035,2.19039 20.4346,0.74175 z m -538.29696,27.12992 c -0.38916,-0.38916 -0.67101,-30.3494 -0.62633,-66.57831 l 0.0812,-65.87075 -25.78702,-0.26385 -25.78702,-0.26386 v -15.32377 -15.32377 h 70.26803 70.2681 v 15.3402 15.34021 h -25.725 -25.725 l -0.2544,66.5567 -0.2544,66.55671 -17.8753,0.26902 c -9.83143,0.14797 -18.19372,-0.0494 -18.58288,-0.43853 z m 338.80866,-29.87887 v -30.54322 l -20.4077,-32.05472 c -11.2242,-17.6301 -25.3238,-39.84853 -31.3325,-49.37431 -6.0087,-9.52577 -11.5734,-18.32165 -12.3659,-19.54639 l -1.4411,-2.2268 21.6396,0.0197 21.6396,0.0198 19.8797,34.71216 c 10.9338,19.09169 20.2426,34.70928 20.6862,34.70575 0.7274,-0.006 20.3486,-33.3651 34.8866,-59.31307 l 5.6837,-10.14433 h 21.5934 c 17.0123,0 21.4353,0.26245 20.8482,1.23711 -1.1219,1.86236 -35.8404,56.68798 -51.2005,80.85292 l -13.4907,21.22405 v 30.48729 30.48729 h -18.3093 -18.3093 z m 339.1556,29.90503 c -0.3747,-0.37477 -0.6814,-30.44635 -0.6814,-66.82573 v -66.14433 h -25.7319 -25.732 v -15.34021 -15.3402 h 70.2681 70.268 v 15.3402 15.34021 h -25.725 -25.725 l -0.2544,66.5567 -0.2544,66.55671 -17.8753,0.26902 c -9.8314,0.14797 -18.1819,-0.0376 -18.5567,-0.41237 z m 78.9291,-1.04775 c 0.9219,-2.40244 44.2394,-109.42393 56,-138.3553 l 9.6554,-23.75258 23.2165,-0.26498 23.2166,-0.26498 32.0009,78.9454 c 17.6005,43.41996 32.5976,80.40188 33.3269,82.18203 l 1.3259,3.23664 -20.5159,-0.26757 -20.516,-0.26756 -4.2774,-11.38145 c -2.3527,-6.25979 -5.4188,-14.39321 -6.8136,-18.07426 l -2.536,-6.69281 -35.2821,0.25982 -35.2821,0.25983 -6.5843,17.81443 -6.5843,17.81444 -20.5066,0.26784 c -19.1614,0.25028 -20.4631,0.15458 -19.8439,-1.45894 z m 110.5475,-71.33563 c -11.5882,-31.75242 -21.3267,-56.60395 -21.9201,-55.93727 -0.6539,0.73476 -23.743,62.183 -23.743,63.18866 0,0.24782 10.9066,0.45059 24.237,0.45059 h 24.237 z M 83.871183,687.83508 c 1.123994,-1.90516 16.840807,-29.07217 34.926257,-60.37114 35.7764,-61.91522 33.67521,-58.27614 90.0023,-155.87629 21.36181,-37.01444 41.1971,-70.86186 44.07842,-75.2165 7.28815,-11.01482 17.23334,-20.38278 24.52683,-23.10327 14.02647,-5.23189 9.35301,-5.11034 192.58031,-5.00865 167.91595,0.0932 169.69762,0.11451 156.48891,1.87139 -98.78345,13.13916 -217.62862,58.76975 -322.14432,123.68728 -71.65603,44.50751 -135.47003,96.83508 -184.70753,151.46047 -9.75298,10.82022 -25.626904,30.05438 -31.653717,38.35427 -5.120737,7.05207 -6.786784,8.7608 -4.09746,4.20244 z"
       id="path1" />
  </g>
</svg>
