<svg width="184" height="173" xmlns="http://www.w3.org/2000/svg" xmlns:xlink="http://www.w3.org/1999/xlink" overflow="hidden"><defs><clipPath id="clip0"><rect x="735" y="137" width="184" height="173"/></clipPath><clipPath id="clip1"><rect x="741" y="137" width="172" height="173"/></clipPath><clipPath id="clip2"><rect x="741" y="137" width="172" height="173"/></clipPath><clipPath id="clip3"><rect x="741" y="137" width="172" height="173"/></clipPath></defs><g clip-path="url(#clip0)" transform="translate(-735 -137)"><g clip-path="url(#clip1)"><g clip-path="url(#clip2)"><g clip-path="url(#clip3)"><path d="M14.3333 118.25 14.3333 35.8333 157.667 35.8333 157.667 118.25 14.3333 118.25ZM100.333 139.75 71.6667 139.75 71.6667 129 100.333 129 100.333 139.75ZM168.417 129 168.417 25.0833 3.58333 25.0833 3.58333 129 60.9167 129 60.9167 139.75 28.6667 139.75C26.6958 139.75 25.0833 141.363 25.0833 143.333L25.0833 146.917 146.917 146.917 146.917 143.333C146.917 141.363 145.304 139.75 143.333 139.75L111.083 139.75 111.083 129 168.417 129Z" fill="#FFFFFF" transform="matrix(1 0 0 1.00581 741 137)"/></g></g></g><text fill="#FFFFFF" font-family="Segoe UI,Segoe UI_MSFontService,sans-serif" font-weight="400" font-size="25" transform="translate(812.12 210)">TV <tspan font-size="25" x="-51.5667" y="30">Commercial</tspan></text></g></svg>