<?xml version="1.0" encoding="UTF-8" standalone="no"?>
<!-- Created with Inkscape (http://www.inkscape.org/) -->

<svg
   xmlns:dc="http://purl.org/dc/elements/1.1/"
   xmlns:cc="http://creativecommons.org/ns#"
   xmlns:rdf="http://www.w3.org/1999/02/22-rdf-syntax-ns#"
   xmlns:svg="http://www.w3.org/2000/svg"
   xmlns="http://www.w3.org/2000/svg"
   xmlns:xlink="http://www.w3.org/1999/xlink"
   xmlns:sodipodi="http://sodipodi.sourceforge.net/DTD/sodipodi-0.dtd"
   xmlns:inkscape="http://www.inkscape.org/namespaces/inkscape"
   version="1.1"
   id="svg2"
   width="228.80495"
   height="73.903687"
   viewBox="0 0 228.80495 73.903686"
   sodipodi:docname="twiml-channel-logo-FullColor.svg"
   inkscape:version="0.92.4 (5da689c313, 2019-01-14)">
  <metadata
     id="metadata8">
    <rdf:RDF>
      <cc:Work
         rdf:about="">
        <dc:format>image/svg+xml</dc:format>
        <dc:type
           rdf:resource="http://purl.org/dc/dcmitype/StillImage" />
        <dc:title></dc:title>
      </cc:Work>
    </rdf:RDF>
  </metadata>
  <defs
     id="defs6">
    <linearGradient
       inkscape:collect="always"
       id="linearGradient1099">
      <stop
         style="stop-color:#00bdf2;stop-opacity:1;"
         offset="0"
         id="stop1095" />
      <stop
         style="stop-color:#00bdf2;stop-opacity:0;"
         offset="1"
         id="stop1097" />
    </linearGradient>
    <linearGradient
       inkscape:collect="always"
       xlink:href="#linearGradient1099"
       id="linearGradient1101"
       x1="126.32074"
       y1="3.1600144"
       x2="100.67078"
       y2="2.8720777"
       gradientUnits="userSpaceOnUse"
       gradientTransform="translate(-0.15504835,-0.0102944)" />
  </defs>
  <sodipodi:namedview
     pagecolor="#ffffff"
     bordercolor="#666666"
     borderopacity="1"
     objecttolerance="10"
     gridtolerance="10"
     guidetolerance="10"
     inkscape:pageopacity="0"
     inkscape:pageshadow="2"
     inkscape:window-width="3440"
     inkscape:window-height="1346"
     id="namedview4"
     showgrid="false"
     inkscape:zoom="3.6836593"
     inkscape:cx="311.04224"
     inkscape:cy="17.488459"
     inkscape:window-x="-11"
     inkscape:window-y="-11"
     inkscape:window-maximized="1"
     inkscape:current-layer="svg2" />
  <path
     style="fill:#ffffff;fill-opacity:1;stroke-width:0.16"
     d="m 100.54548,73.679797 c -0.637968,-0.277659 -1.020528,-0.825688 -1.020528,-1.461941 0,-0.777661 17.839358,-52.821411 18.366368,-53.581211 0.26342,-0.379779 0.78139,-0.811879 1.29463,-1.08 l 0.85554,-0.446939 h 3.4142 c 2.30628,0 3.55034,0.06203 3.83373,0.19115 0.46642,0.212514 0.87302,0.878074 0.88027,1.440904 0.003,0.202369 -4.11939,12.245865 -9.16,26.763322 l -9.16474,26.395376 -0.72,0.748985 c -1.04862,1.090834 -1.76699,1.2618 -5.26904,1.253999 -2.0049,-0.0045 -2.95419,-0.0686 -3.31043,-0.223645 z M 12.398845,73.500882 C 9.436028,73.002701 6.8490847,71.75464 4.8569855,69.862341 2.8608872,67.966242 1.5612327,65.740109 0.53072223,62.452036 L 0.08495165,61.029704 0.04247583,31.41704 0,1.804376 0.36376725,1.2570407 C 0.56383923,0.95600641 1.0509534,0.54412573 1.4462431,0.34175034 2.131696,-0.00917909 2.3019149,-0.02398593 5.1249516,0.02175036 7.9296322,0.06718926 8.1174267,0.08989322 8.7038445,0.45443152 9.9239087,1.2128668 9.9174607,1.1642819 9.9214377,9.6297053 l 0.00351,7.4800007 h 4.2010563 c 2.310581,0 4.447914,0.0708 4.749626,0.157328 0.725224,0.20799 1.573912,1.049768 1.76999,1.755574 0.08665,0.311904 0.157946,1.757841 0.158435,3.213195 8e-4,2.42729 -0.02887,2.705024 -0.359107,3.358709 -0.198,0.391936 -0.604648,0.875192 -0.903661,1.073902 -0.532353,0.353776 -0.638021,0.361291 -5.08,0.361291 H 9.9249517 v 16.291497 c 0,18.18087 -0.06428,17.125118 1.1248583,18.476046 1.488398,1.690909 5.337908,2.83025 9.572094,2.833055 1.154736,8e-4 1.853731,0.408272 2.268837,1.322707 0.261917,0.576976 0.307184,1.053941 0.307184,3.236694 0,2.927904 -0.197435,3.659192 -1.143671,4.236096 -0.494841,0.301698 -0.784523,0.321686 -4.449302,0.307021 -2.478945,-0.0099 -4.392794,-0.09518 -5.206107,-0.231939 z m 35.352563,-0.07494 C 46.344699,72.729626 46.912944,74.201602 37.028733,45.649998 31.977654,31.059411 27.844952,18.881696 27.844952,18.588409 c 0,-0.664927 0.555603,-1.258355 1.310795,-1.400028 0.300602,-0.05639 2.054647,-0.07917 3.897877,-0.05061 3.294498,0.05105 3.363538,0.05913 4.071328,0.476293 0.396,0.2334 0.870806,0.6294 1.055125,0.88 0.184318,0.2506 2.992318,8.208323 6.24,17.683826 3.247681,9.475506 5.950253,17.179506 6.005717,17.12 0.05546,-0.0595 2.636008,-7.59619 5.734547,-16.74819 3.098537,-9.152 5.807923,-17.008737 6.020856,-17.459416 0.414857,-0.87806 1.213792,-1.553873 2.156625,-1.824275 0.710056,-0.203641 3.264668,-0.199651 4.005951,0.0063 0.71387,0.198295 1.532257,0.74305 1.936489,1.289016 0.167605,0.22637 2.958524,8.18237 6.202042,17.68 3.83133,11.218849 5.936203,17.169198 6.008334,16.985193 0.06106,-0.155776 2.716823,-7.931776 5.901685,-17.28 l 5.790659,-16.996774 0.727311,-0.743227 c 1.001694,-1.023616 1.615779,-1.139948 5.654657,-1.071224 3.47498,0.05913 3.74384,0.122879 4.09513,0.970975 0.10147,0.244966 0.14449,0.64538 0.0956,0.889808 -0.0489,0.244428 -4.16624,12.285996 -9.14968,26.759041 -9.878195,28.688519 -9.22268,26.995434 -10.721048,27.69065 -0.926646,0.429947 -4.353354,0.429947 -5.28,0 -1.489094,-0.690912 -1.140042,0.180565 -7.376168,-18.416023 -3.142779,-9.372 -5.738822,-17.07 -5.768987,-17.106667 -0.03016,-0.03667 -0.08787,-0.03364 -0.128226,0.0067 -0.04036,0.04036 -2.528921,7.23436 -5.530141,15.986667 -3.001219,8.752307 -5.645353,16.446039 -5.875851,17.097183 -0.461309,1.303163 -1.122483,2.102166 -2.06564,2.496242 -0.403125,0.168436 -1.151885,0.239824 -2.514526,0.239734 -1.625147,-1.06e-4 -2.046658,-0.05269 -2.594005,-0.32363 z m 75.990662,0.165104 c -0.46781,-0.18878 -0.85712,-0.782382 -0.85712,-1.306899 0,-0.424974 17.88544,-52.576675 18.31283,-53.397923 0.27304,-0.524645 0.80771,-1.014029 1.52717,-1.397803 0.4672,-0.249215 0.91794,-0.298715 2.72,-0.298715 2.07855,0 2.18879,0.01692 2.92358,0.448844 0.41997,0.246864 0.93239,0.714864 1.1387,1.04 0.20631,0.325135 2.9227,8.204498 6.03642,17.509693 3.11371,9.305196 5.6973,16.918489 5.7413,16.918428 0.044,-6.1e-5 2.70734,-7.685403 5.91854,-17.078537 l 5.83853,-17.078429 0.73408,-0.734107 c 0.88479,-0.884844 1.61061,-1.105892 3.6312,-1.105892 1.75995,0 2.66863,0.291484 3.47135,1.113536 0.57921,0.593175 1.027,1.835004 9.78664,27.139988 5.04881,14.585102 9.17966,26.728229 9.17966,26.984728 0,0.302119 -0.1647,0.631072 -0.4677,0.934053 l -0.46769,0.467693 -3.73231,-0.0035 c -4.13096,-0.0039 -4.53035,-0.08284 -5.46729,-1.08072 -0.5473,-0.582874 -0.34383,-0.01696 -7.07344,-19.673654 -2.89936,-8.46884 -5.30757,-15.398519 -5.35157,-15.399291 -0.044,-8e-4 -2.708,7.743519 -5.92,17.20953 -4.42429,13.038729 -5.94662,17.340378 -6.27981,17.744922 -0.78835,0.957178 -1.55419,1.202727 -3.75117,1.202727 -2.18018,0 -2.76193,-0.163576 -3.61476,-1.016402 -0.62221,-0.622211 -0.19512,0.566237 -7.41039,-20.620945 -2.71913,-7.984534 -4.97987,-14.518334 -5.02387,-14.51955 -0.044,-0.0013 -2.69799,7.68359 -5.89775,17.077347 -3.19976,9.393755 -5.98493,17.340706 -6.18925,17.65989 -0.23178,0.36206 -0.68827,0.73818 -1.21367,1 -0.83456,0.415879 -0.874,0.419575 -4.37074,0.409524 -1.94073,-0.0056 -3.68289,-0.07241 -3.87147,-0.148511 z m 94.75643,-0.01464 c -3.46469,-0.519086 -6.6419,-2.114371 -8.67185,-4.354153 -1.83056,-2.019794 -3.26644,-4.99356 -3.89064,-8.057678 -0.32748,-1.607525 -0.33106,-1.936007 -0.33106,-30.309487 V 2.1707374 l 0.33136,-0.6844825 c 0.1945,-0.4018004 0.57445,-0.83564938 0.92,-1.05051589 0.54574,-0.33936217 0.7972,-0.36991562 3.45078,-0.4193124 2.36919,-0.04410242 2.98157,-0.0076753 3.55546,0.21149553 0.81525,0.31134669 1.42482,0.97667086 1.65536,1.80675216 0.11083,0.3990639 0.16555,10.0370627 0.16614,29.2646147 0,19.73155 0.0536,28.810006 0.16984,29.119999 0.72904,1.943706 3.12546,3.362135 6.55106,3.877539 0.66,0.0993 2.08245,0.23869 3.16099,0.309751 1.75717,0.115773 2.00403,0.169422 2.3752,0.516165 0.80035,0.747694 0.86381,1.04646 0.86381,4.066961 0,3.029557 -0.0619,3.317517 -0.87739,4.08 l -0.42779,0.4 -4.02741,0.02425 c -2.21507,0.01334 -4.45331,-0.03956 -4.97386,-0.117548 z"
     id="path817"
     inkscape:connector-curvature="0" />
  <path
     style="opacity:1;fill:url(#linearGradient1101);fill-opacity:1;stroke:none;stroke-width:1px;stroke-linecap:butt;stroke-linejoin:miter;stroke-opacity:1"
     d="M 97.407455,0.05397698 132.43973,0.00598756 c 0,0 2.35149,0.57587311 1.29572,3.16730214 -1.05577,2.591429 -1.58365,4.0791012 -1.58365,4.0791012 0,0 -0.57588,1.7756088 -3.79117,1.7276193 C 125.14534,8.9320208 93.088407,8.7880525 93.088407,8.7880525 Z"
     id="path819"
     inkscape:connector-curvature="0" />
</svg>
