<svg width="4406" height="2124" xmlns="http://www.w3.org/2000/svg" xmlns:xlink="http://www.w3.org/1999/xlink" xml:space="preserve" overflow="hidden"><defs><clipPath id="clip0"><rect x="-3" y="154" width="4406" height="2124"/></clipPath></defs><g clip-path="url(#clip0)" transform="translate(3 -154)"><rect x="0.499836" y="156.5" width="4400" height="2119" stroke="#000000" stroke-width="4.58333" stroke-miterlimit="8"/><path d="M59.5 1606.67C59.5 1581.17 80.1698 1560.5 105.667 1560.5L1224.33 1560.5C1249.83 1560.5 1270.5 1581.17 1270.5 1606.67L1270.5 1791.33C1270.5 1816.83 1249.83 1837.5 1224.33 1837.5L105.667 1837.5C80.1698 1837.5 59.5 1816.83 59.5 1791.33Z" stroke="#FFFFFF" stroke-width="20.625" stroke-miterlimit="8" fill="none" fill-rule="evenodd"/><text fill="#FFFFFF" font-family="Calibri,Calibri_MSFontService,sans-serif" font-weight="400" font-size="183" transform="translate(107.47 1760)">Shapley Values</text><path d="M1434.5 1606.67C1434.5 1581.17 1455.17 1560.5 1480.67 1560.5L2226.33 1560.5C2251.83 1560.5 2272.5 1581.17 2272.5 1606.67L2272.5 1791.33C2272.5 1816.83 2251.83 1837.5 2226.33 1837.5L1480.67 1837.5C1455.17 1837.5 1434.5 1816.83 1434.5 1791.33Z" stroke="#FFFFFF" stroke-width="20.625" stroke-miterlimit="8" fill="none" fill-rule="evenodd"/><text fill="#FFFFFF" font-family="Calibri,Calibri_MSFontService,sans-serif" font-weight="400" font-size="183" transform="matrix(1 0 0 1 1672.57 1760)">CAM</text><path d="M2426.5 1606.67C2426.5 1581.17 2447.17 1560.5 2472.67 1560.5L3217.33 1560.5C3242.83 1560.5 3263.5 1581.17 3263.5 1606.67L3263.5 1791.33C3263.5 1816.83 3242.83 1837.5 3217.33 1837.5L2472.67 1837.5C2447.17 1837.5 2426.5 1816.83 2426.5 1791.33Z" stroke="#FFFFFF" stroke-width="20.625" stroke-miterlimit="8" fill="none" fill-rule="evenodd"/><text fill="#FFFFFF" font-family="Calibri,Calibri_MSFontService,sans-serif" font-weight="400" font-size="183" transform="translate(2482.03 1760)">GradCAM</text><path d="M3427.5 1599.17C3427.5 1572.84 3448.84 1551.5 3475.17 1551.5L4216.83 1551.5C4243.16 1551.5 4264.5 1572.84 4264.5 1599.17L4264.5 1789.83C4264.5 1816.16 4243.16 1837.5 4216.83 1837.5L3475.17 1837.5C3448.84 1837.5 3427.5 1816.16 3427.5 1789.83Z" stroke="#FFFFFF" stroke-width="20.625" stroke-miterlimit="8" fill="none" fill-rule="evenodd"/><text fill="#FFFFFF" font-family="Calibri,Calibri_MSFontService,sans-serif" font-weight="400" font-size="183" transform="matrix(1 0 0 1 3660.71 1756)">LIME</text><path d="M59.5 642.502C59.5 588.377 103.377 544.5 157.502 544.5L1172.5 544.5C1226.62 544.5 1270.5 588.377 1270.5 642.502L1270.5 1034.5C1270.5 1088.62 1226.62 1132.5 1172.5 1132.5L157.502 1132.5C103.377 1132.5 59.5 1088.62 59.5 1034.5Z" stroke="#FFFFFF" stroke-width="20.625" stroke-miterlimit="8" fill="none" fill-rule="evenodd"/><text fill="#FFFFFF" font-family="Calibri,Calibri_MSFontService,sans-serif" font-weight="400" font-size="165" transform="matrix(1 0 0 1 179.004 794)">Shapley<tspan font-size="165" x="520.873" y="0">-</tspan><tspan font-size="165" x="571.29" y="0">Taylor </tspan><tspan font-size="165" x="251.006" y="198">Indices</tspan></text><path d="M1434.5 642.502C1434.5 588.377 1478.38 544.5 1532.5 544.5L2174.5 544.5C2228.62 544.5 2272.5 588.377 2272.5 642.502L2272.5 1034.5C2272.5 1088.62 2228.62 1132.5 2174.5 1132.5L1532.5 1132.5C1478.38 1132.5 1434.5 1088.62 1434.5 1034.5Z" stroke="#FFFFFF" stroke-width="20.625" stroke-miterlimit="8" fill="none" fill-rule="evenodd"/><text fill="#FFFFFF" font-family="Calibri,Calibri_MSFontService,sans-serif" font-weight="400" font-size="165" transform="matrix(1 0 0 1 1697.53 893)">SAM</text><path d="M2397.5 642.502C2397.5 588.377 2441.38 544.5 2495.5 544.5L3194.5 544.5C3248.62 544.5 3292.5 588.377 3292.5 642.502L3292.5 1034.5C3292.5 1088.62 3248.62 1132.5 3194.5 1132.5L2495.5 1132.5C2441.38 1132.5 2397.5 1088.62 2397.5 1034.5Z" stroke="#FFFFFF" stroke-width="20.625" stroke-miterlimit="8" fill="none" fill-rule="evenodd"/><text fill="#FFFFFF" font-family="Calibri,Calibri_MSFontService,sans-serif" font-weight="400" font-size="165" transform="translate(2596.61 893)">IG SAM</text><path d="M3427.5 642.502C3427.5 588.377 3471.38 544.5 3525.5 544.5L4166.5 544.5C4220.62 544.5 4264.5 588.377 4264.5 642.502L4264.5 1034.5C4264.5 1088.62 4220.62 1132.5 4166.5 1132.5L3525.5 1132.5C3471.38 1132.5 3427.5 1088.62 3427.5 1034.5Z" stroke="#FFFFFF" stroke-width="20.625" stroke-miterlimit="8" fill="none" fill-rule="evenodd"/><text fill="#FFFFFF" font-family="Calibri,Calibri_MSFontService,sans-serif" font-weight="400" font-size="165" transform="matrix(1 0 0 1 3560.12 695)">Shapley<tspan font-size="165" x="520.873" y="0">-</tspan><tspan font-size="165" x="85.6626" y="198">Taylor </tspan><tspan font-size="165" x="71.4314" y="396">Kernel</tspan></text><path d="M10.3125-8.70763e-06 10.3128 375.844-10.3122 375.844-10.3125 8.70763e-06ZM30.9378 365.532 0.000360892 427.407-30.9372 365.532Z" fill="#FFFFFF" transform="matrix(1 0 0 -1 665.5 1559.91)"/><path d="M10.3125-8.70763e-06 10.3128 375.844-10.3122 375.844-10.3125 8.70763e-06ZM30.9378 365.532 0.000360892 427.407-30.9372 365.532Z" fill="#FFFFFF" transform="matrix(1 0 0 -1 1853.5 1559.91)"/><path d="M10.3125-8.70729e-06 10.3128 375.861-10.3122 375.861-10.3125 8.70729e-06ZM30.9378 365.549 0.000360892 427.424-30.9372 365.549Z" fill="#FFFFFF" transform="matrix(1 0 0 -1 2844.5 1559.92)"/><path d="M10.3125-8.88594e-06 10.3128 367.268-10.3122 367.268-10.3125 8.88594e-06ZM30.9378 356.955 0.000360892 418.83-30.9372 356.955Z" fill="#FFFFFF" transform="matrix(1 0 0 -1 3846.5 1551.33)"/><text fill="#FFFFFF" font-family="Calibri,Calibri_MSFontService,sans-serif" font-weight="400" font-size="147" transform="translate(1594.14 2140)">First Order Methods</text><text fill="#FFFFFF" font-family="Calibri,Calibri_MSFontService,sans-serif" font-weight="400" font-size="147" transform="matrix(1 0 0 1 1508.49 379)">Second Order Methods</text></g></svg>