<?xml version="1.0" encoding="UTF-8" standalone="no"?>
<svg
   xml:space="preserve"
   height="65.589165"
   viewBox="0 0 213.117 65.588959"
   width="213.11205"
   version="1.1"
   id="svg1"
   sodipodi:docname="University_of_California,_Berkeley_logo.svg"
   inkscape:version="1.3 (0e150ed6c4, 2023-07-21)"
   xmlns:inkscape="http://www.inkscape.org/namespaces/inkscape"
   xmlns:sodipodi="http://sodipodi.sourceforge.net/DTD/sodipodi-0.dtd"
   xmlns="http://www.w3.org/2000/svg"
   xmlns:svg="http://www.w3.org/2000/svg"><defs
     id="defs1" /><sodipodi:namedview
     id="namedview1"
     pagecolor="#ffffff"
     bordercolor="#000000"
     borderopacity="0.25"
     inkscape:showpageshadow="2"
     inkscape:pageopacity="0.0"
     inkscape:pagecheckerboard="0"
     inkscape:deskcolor="#d1d1d1"
     inkscape:zoom="12.230383"
     inkscape:cx="106.49707"
     inkscape:cy="32.582789"
     inkscape:window-width="3440"
     inkscape:window-height="1316"
     inkscape:window-x="-12"
     inkscape:window-y="-12"
     inkscape:window-maximized="1"
     inkscape:current-layer="svg1" /><g
     transform="matrix(1.25,0,0,-1.25,-322.01325,393.61182)"
     id="g1"
     style="fill:#ffffff"><path
       d="m 274.77,314.89 c -5.595,0 -8.5792,-0.37344 -9.8852,-0.37344 -2.176,0 -4.1032,0.0625 -6.0312,0.0625 -1.0565,0 -1.243,-0.0626 -1.243,-0.49765 0,-0.7455 0.24837,-0.8086 3.0469,-0.8086 1.74,0 2.7359,-0.55959 2.7359,-5.4711 v -28.6 c 0,-0.9325 -0.12515,-1.057 -2.9226,-1.057 -1.368,0 -1.7414,-0.12359 -1.7414,-0.74609 0,-0.6215 0.43531,-0.6836 1.0578,-0.6836 1.989,0 3.357,0.24844 5.968,0.24844 2.7355,0 5.3471,-0.62109 7.9586,-0.62109 8.6425,0 14.425,3.2943 14.425,10.258 0,5.409 -3.6694,7.5234 -6.5914,9.0164 -1.2435,0.6215 -2.425,0.93225 -2.425,1.0562 0,0.186 1.368,0.87041 2.55,1.6789 1.99,1.3675 4.6633,3.5446 4.6633,7.9586 0,4.4145 -3.4821,8.5797 -11.566,8.5797 z m 106.53,-0.0711 c -0.3245,0 -2.3796,-0.91935 -6.5976,-1.1898 -0.919,-0.054 -1.3524,5.7e-4 -1.3524,-0.64843 0,-0.5955 0.54135,-0.70391 1.5148,-0.70391 2.433,0 2.7578,2.5e-4 2.7578,-3.4062 v -29.797 c 0,-0.9735 -0.91972,-0.91954 -3.1367,-0.91954 -1.2985,0 -1.3523,-0.3254 -1.3523,-0.7039 0,-0.4325 0.10784,-0.54063 1.3523,-0.54063 0.757,0 3.6237,0.10782 5.4617,0.10782 0.9745,0 2.164,-0.10782 2.975,-0.10782 1.9465,0 2.325,1.3e-4 2.325,0.54063 0,0.4335 0.10791,0.75781 -2.5961,0.75781 -0.973,0 -1.3516,0.59481 -1.3516,5.0828 0,1.569 0.27032,5.8405 0.27032,26.445 0,1.622 0.27031,3.5698 0.27031,4.2188 0,0.595 -0.27063,0.86485 -0.54063,0.86485 z m -44.897,-0.0539 c -0.487,0 -3.6781,-1.1891 -7.5711,-1.1891 -0.595,0 -0.70313,-0.21653 -0.70313,-0.75703 0,-0.3795 0.21631,-0.54219 2.4328,-0.54219 1.46,0 1.893,-0.48678 1.893,-4.3258 0,-11.411 -0.1625,-27.418 -0.1625,-28.986 0,-0.811 -0.4865,-0.81094 -2.325,-0.81094 -1.298,0 -1.568,-0.2704 -1.568,-0.7039 0,-0.4865 0.32447,-0.54063 1.568,-0.54063 0.757,0 2.7582,0.10782 4.5977,0.10782 1.7305,0 4.2171,-0.10782 5.0281,-0.10782 1.1895,0 1.4602,1.3e-4 1.4602,0.54063 0,0.4335 -0.21616,0.7039 -1.4602,0.7039 -3.3525,0 -3.2438,-3.7e-4 -3.2438,2.5406 v 3.407 c 0,0.487 0.75688,0.86603 1.6219,1.407 0.919,0.595 1.6757,1.1352 1.8922,1.1352 0.3245,0 2.597,-3.4076 4.868,-6.0031 2.271,-2.5955 2.758,-3.9476 3.732,-3.9476 0.757,0 2.3791,0.0539 3.0281,0.0539 0.4865,0 1.1893,-0.0539 1.8383,-0.0539 1.1895,0 1.568,0.10822 1.568,0.48672 0,0.4325 -0.43219,0.7039 -1.7297,0.7039 -1.8385,0 -3.5691,2.6494 -5.4086,4.8664 -3.785,4.543 -4.7578,5.57 -4.7578,6.057 0,0.3785 3.3525,2.7573 6.057,5.4078 1.676,1.622 3.5141,3.9469 3.5141,4.4344 0,0.1625 -0.21594,0.2164 -0.64844,0.2164 -0.6485,0 -3.7861,-0.16172 -4.4891,-0.16172 -0.649,0 -1.6759,0.16172 -2.2164,0.16172 -0.703,0 -0.97344,-0.1079 -0.97344,-0.5414 0,-0.487 0.27025,-0.59453 1.0812,-0.59453 2.379,0 2.5414,-0.10844 2.5414,-0.97344 0,-1.1355 -0.48681,-2.055 -2.5953,-4.0555 -1.7305,-1.623 -7.3558,-6.5977 -8.7078,-6.5977 -0.162,0 -0.21563,0.16241 -0.21563,0.37891 0,8.8145 0.32344,14.871 0.32344,23.091 0,1.7305 0.1086,4.003 0.1086,4.7055 0,0.3245 -0.10813,0.48672 -0.37813,0.48672 z m -63.499,-1.3672 c 5.658,0 8.2695,-5.9691 8.2695,-9.0781 0,-4.9115 -2.0517,-6.0929 -3.8547,-7.4609 0,0 -2.6119,0.37344 -6.4039,0.37344 -1.493,0 -2.3008,-0.12391 -2.3008,0.87109 v 13.491 c 0,1.2435 0.18684,1.8031 4.2898,1.8031 z m 27.266,-13.991 c -4.921,0 -10.059,-4.543 -10.059,-12.168 0,-9.031 6.598,-11.195 11.032,-11.195 4.3805,0 8.9773,3.4081 8.9773,3.6781 0,0.1085 -0.16231,0.43282 -0.43281,0.43282 -0.324,0 -2.2708,-1.2984 -5.8398,-1.2984 -4.1105,0 -9.8976,2.0011 -9.8976,9.4641 0,1.2435 0.1629,1.514 1.0289,1.568 6.164,0.3785 11.572,1.5675 12.978,1.893 1.461,0.3245 2.218,0.54053 2.218,0.75703 0,0.4325 -0.86594,1.7307 -1.7859,2.8117 -1.9465,2.2715 -5.407,4.0562 -8.2195,4.0562 z m 63.057,0 c -4.9205,0 -10.059,-4.543 -10.059,-12.168 0,-9.031 6.5975,-11.195 11.032,-11.195 4.38,0 8.9773,3.4081 8.9773,3.6781 0,0.1085 -0.16281,0.43282 -0.43281,0.43282 -0.3245,0 -2.2716,-1.2984 -5.8406,-1.2984 -4.11,0 -9.8961,2.0011 -9.8961,9.4641 0,1.2435 0.16234,1.514 1.0273,1.568 6.165,0.3785 11.572,1.5675 12.979,1.893 1.46,0.3245 2.2172,0.54053 2.2172,0.75703 0,0.4325 -0.86488,1.7307 -1.7844,2.8117 -1.9475,2.2715 -5.4078,4.0562 -8.2203,4.0562 z m 31.192,0 c -4.9215,0 -10.059,-4.543 -10.059,-12.168 0,-9.031 6.5975,-11.195 11.032,-11.195 4.3805,0 8.9774,3.4081 8.9774,3.6781 0,0.1085 -0.16282,0.43282 -0.43282,0.43282 -0.3245,0 -2.2706,-1.2984 -5.8406,-1.2984 -4.1095,0 -9.8961,2.0011 -9.8961,9.4641 0,1.2435 0.16235,1.514 1.0274,1.568 6.165,0.3785 11.573,1.5675 12.979,1.893 1.46,0.3245 2.2172,0.54053 2.2172,0.75703 0,0.4325 -0.86487,1.7307 -1.7844,2.8117 -1.9465,2.2715 -5.408,4.0562 -8.2195,4.0562 z m -75.43,-0.37813 c -0.866,0 -1.8936,-0.27031 -2.7586,-0.27031 -1.0815,0 -2.1092,0.10859 -3.9477,0.10859 -0.92,0 -0.86563,-0.163 -0.86563,-0.8125 0,-0.595 -2.8e-4,-0.54062 0.97422,-0.54062 3.028,0 2.9195,-0.10816 2.9195,-3.7852 v -14.818 c 0,-0.757 -0.1619,-0.81093 -2.3789,-0.81093 -1.2985,0 -1.3524,-0.10772 -1.3524,-0.64922 0,-0.541 0.10785,-0.54063 1.3524,-0.54063 0.757,0 2.5959,0.27032 4.4344,0.27032 1.731,0 5.3539,-0.27032 6.1109,-0.27032 1.406,0 1.4602,-0.0544 1.4602,0.54063 0,0.4875 -0.0542,0.64922 -1.4602,0.64922 -4.0015,0 -4.1633,5e-4 -4.1633,2.65 v 11.141 c 0,2.271 1.189,3.5688 4.325,3.5688 2.7045,0 3.3539,-2.2172 4.1109,-2.2172 0.3245,0 1.1891,2.3793 1.1891,2.9203 0,1.4055 -2.4872,2.5961 -3.4617,2.5961 -2.5415,0 -5.082,-2.8125 -5.893,-2.8125 -0.2165,0 -0.27031,0.37834 -0.27031,0.86484 0,0.1625 0.10781,1.3522 0.10781,1.6227 0,0.4335 -0.21631,0.59531 -0.43281,0.59531 z m 107.98,-0.0539 c -0.757,0 -2.2171,-0.21641 -3.0281,-0.21641 -1.461,0 -2.4342,0.10781 -3.8938,0.10781 -0.9735,0 -1.1359,3.8e-4 -1.1359,-0.70312 0,-0.541 0.21647,-0.54141 1.893,-0.54141 1.838,0 1.8375,-0.32409 1.8375,-1.9461 0,-0.757 -1.9462,-6.382 -3.2438,-10.275 -0.865,-2.5425 -1.1895,-3.2992 -1.568,-3.2992 -0.2165,0 -0.86572,0.91919 -1.2992,2.0547 -3.244,8.329 -4.65,10.222 -4.65,11.79 0,1.2435 0.32438,1.568 1.6219,1.568 1.1355,0 1.3523,0.0541 1.3523,0.54062 0,0.596 -0.21684,0.81172 -1.3523,0.81172 -1.73,0 -3.6235,-0.16172 -5.1375,-0.16172 -1.2975,0 -1.6758,0.10782 -3.1898,0.10782 -0.9735,0 -1.1352,-0.27082 -1.1352,-0.75782 0,-0.4865 0.0537,-0.54062 1.1352,-0.54062 0.973,0 1.3519,-0.27084 2.7039,-3.5148 2.9745,-7.0305 7.3,-17.035 7.3,-17.63 0,-1.622 -4.6494,-8.0029 -6.5969,-10.436 -1.8385,-2.326 -4.3805,-2.6505 -4.3805,-2.975 0,-0.2705 0.54065,-0.54062 1.4602,-0.54062 1.1895,0 1.5678,0.43243 3.1898,0.64843 1.1905,0.1625 1.8394,0.21675 2.4344,1.4062 1.73,3.5695 4.1641,7.9502 7.5711,16.224 4.272,10.382 6.6519,16.872 7.8414,16.872 0.649,0 1.4055,0.27053 1.4055,0.75703 0,0.5955 -0.27016,0.65 -1.1352,0.65 z m -127.34,-0.70391 c 2.488,0 5.6781,-4.0011 5.6781,-5.3531 0,-0.3245 -0.0534,-0.43263 -0.64844,-0.54063 -4.056,-0.649 -6.9763,-1.3531 -9.7883,-1.3531 -0.6495,0 -0.64922,0.0545 -0.64922,0.325 0,0.758 1.2983,6.9219 5.4078,6.9219 z m 63.056,0 c 2.4885,0 5.6789,-4.0011 5.6789,-5.3531 0,-0.3245 -0.0542,-0.43263 -0.64922,-0.54063 -4.056,-0.649 -6.976,-1.3531 -9.7875,-1.3531 -0.649,0 -0.64922,0.0545 -0.64922,0.325 0,0.758 1.2975,6.9219 5.407,6.9219 z m 31.192,0 c 2.4875,0 5.6789,-4.0011 5.6789,-5.3531 0,-0.3245 -0.0542,-0.43263 -0.64922,-0.54063 -4.056,-0.649 -6.9758,-1.3531 -9.7883,-1.3531 -0.649,0 -0.64922,0.0545 -0.64922,0.325 0,0.758 1.2973,6.9219 5.4078,6.9219 z m -123.02,-2.2188 c 6.7765,0 11.377,-4.3524 11.377,-9.9484 0,-5.409 -3.4812,-8.643 -8.2062,-8.643 -1.99,0 -3.9788,0.43554 -4.6633,1.182 -0.559,0.622 -0.74609,4.1033 -0.74609,4.6633 v 11.13 c 0,1.3675 0.49806,1.6164 2.2391,1.6164 z m 30.831,-25.381 c -1.2775,0 -2.343,-0.77066 -2.343,-2.0477 0,-2.427 3.1977,-1.9943 3.1977,-3.3453 0,-0.538 -0.41181,-1.0023 -1.2453,-1.0023 -0.5595,0 -1.2663,0.26306 -1.8578,0.66406 l -0.52734,-0.92891 c 0.591,-0.411 1.3927,-0.80234 2.3852,-0.80234 1.3825,0 2.5328,0.88772 2.5328,2.1117 0,2.4595 -3.1977,1.7198 -3.1977,3.3562 0,0.538 0.35897,0.92813 1.0555,0.92813 0.6225,0 1.1076,-0.21116 1.6461,-0.48516 l 0.45391,0.90781 c -0.6115,0.3795 -1.3405,0.64375 -2.1,0.64375 z m 25.493,0 c -2.174,0 -3.1445,-1.5518 -3.1445,-3.7258 0,-2.0685 0.96003,-3.7367 3.1445,-3.7367 2.18447,0 3.1453,1.6682 3.1453,3.7367 0,2.174 -0.97131,3.7258 -3.1453,3.7258 z m 16.947,0 c -2.174,0 -3.2406,-1.5622 -3.2406,-3.7367 0,-2.216 0.97194,-3.7258 3.1984,-3.7258 0.971,0 1.8787,0.40184 2.6172,1.0773 l -0.64375,0.82266 c -0.591,-0.5385 -1.2662,-0.83281 -1.9102,-0.83281 -1.3405,0 -1.9742,0.95953 -1.9742,2.6695 0,1.699 0.67612,2.6594 1.9531,2.6594 0.686,0 1.1926,-0.24304 1.7516,-0.70704 l 0.65468,0.84454 c -0.76,0.623 -1.5092,0.9289 -2.4062,0.9289 z m 27.477,0 c -2.1745,0 -3.1445,-1.5518 -3.1445,-3.7258 0,-2.0685 0.96003,-3.7367 3.1445,-3.7367 2.18447,0 3.1453,1.6682 3.1453,3.7367 0,2.174 -0.97131,3.7258 -3.1453,3.7258 z m -100.99,-0.10547 -1.2141,-0.12734 v -7.1133 h 1.2562 v 4.8547 h 0.0211 l 3.05,-4.8547 h 1.1188 v 7.2297 h -1.2562 v -4.75 h -0.0312 l -2.9445,4.7609 z m 16.112,0 v -7.2406 h 4.3906 l 0.0953,1.0664 h -3.2297 v 2.0469 h 2.7125 v 1.0664 h -2.7125 v 1.9945 h 3.05 v 1.0664 z m 45.215,0 v -7.2406 h 1.2555 v 3.1133 h 2.6602 v 1.0664 h -2.6602 v 1.9945 h 2.9656 v 1.0664 z m 19.416,0 -1.4664,-0.11641 -2.5438,-7.1242 h 1.1719 l 0.60078,1.7422 h 2.9133 l 0.60156,-1.7422 h 1.2883 l -2.5656,7.2406 z m 12.071,0 v -7.2406 h 1.2555 v 3.1133 h 2.6602 v 1.0664 h -2.6602 v 1.9945 h 2.9664 v 1.0664 z m 19.775,0 -1.2141,-0.12734 v -7.1133 h 1.2555 v 4.8547 h 0.0219 l 3.0492,-4.8547 h 1.1188 v 7.2297 h -1.2555 v -4.75 h -0.032 l -2.9438,4.7609 z m 12.102,0 -1.4672,-0.11641 -2.5438,-7.1242 h 1.1719 l 0.60156,1.7422 h 2.9125 l 0.60157,-1.7422 h 1.2883 l -2.5648,7.2406 z m -133,-0.0109 v -4.7172 c 0,-1.6255 0.89681,-2.6289 2.6703,-2.6289 1.762,0 2.6594,1.0031 2.6594,2.6391 v 4.707 h -1.2562 v -4.7914 c 0,-0.8975 -0.37912,-1.4875 -1.4031,-1.4875 -1.0345,0 -1.4148,0.59043 -1.4148,1.4984 v 4.7805 h -1.2555 z m 14.33,0 v -7.2297 h 1.2555 v 7.2297 z m 2.4898,0 2.4906,-7.2297 h 1.382 l 2.5016,7.2297 h -1.2352 l -1.382,-4.0422 c 0,0 -0.1371,-0.4111 -0.4961,-1.6461 h -0.0633 c -0.3485,1.235 -0.48516,1.657 -0.48516,1.657 l -1.3828,4.0313 h -1.3297 z m 13.749,0 v -7.2297 h 1.2555 v 2.8922 h 0.60156 c 0.454,0 0.71791,-0.42298 0.92891,-0.85548 l 1.0023,-2.0367 h 1.3828 l -1.3828,2.607 c -0.084,0.169 -0.21097,0.35937 -0.44296,0.49687 v 0.0203 c 0.9495,0.359 1.3617,1.0975 1.3617,1.9625 0,1.256 -0.79193,2.143 -2.3859,2.143 h -2.3211 z m 12.451,0 v -7.2297 h 1.2555 v 7.2297 z m 2.7008,0 v -1.0766 h 1.9109 v -6.1531 h 1.2555 v 6.1641 h 1.8258 l 0.0953,1.0656 z m 5.9094,0 2.2797,-4.1367 v -3.093 h 1.2555 v 3.093 l 2.2805,4.1367 h -1.3836 l -1.0234,-2.0586 c 0,0 -0.12665,-0.26312 -0.48515,-1.0656 h -0.0312 c -0.3805,0.8025 -0.51797,1.0656 -0.51797,1.0656 l -0.96016,2.0586 h -1.4141 z m 41.005,0 v -7.2297 h 4.2742 l 0.0953,1.0664 h -3.1133 v 6.1633 z m 5.5922,0 v -7.2297 h 1.2555 v 7.2297 z m 15.3,0 v -7.2297 h 1.2562 v 2.8922 h 0.60157 c 0.4535,0 0.7179,-0.42298 0.9289,-0.85548 l 1.0024,-2.0367 h 1.3828 l -1.3828,2.607 c -0.084,0.169 -0.21097,0.35937 -0.44297,0.49687 v 0.0203 c 0.9495,0.359 1.3617,1.0975 1.3617,1.9625 0,1.256 -0.79194,2.143 -2.3859,2.143 h -2.3219 z m 13.18,0 v -7.2297 h 1.2555 v 7.2297 z m -61.834,-0.95 c 1.2455,0 1.8469,-1.0869 1.8469,-2.6594 0,-1.5725 -0.61137,-2.6695 -1.8469,-2.6695 -1.245,0 -1.857,1.0975 -1.857,2.6805 0,1.5725 0.61203,2.6484 1.857,2.6484 z m 44.423,0 c 1.2455,0 1.8469,-1.0869 1.8469,-2.6594 0,-1.5725 -0.61187,-2.6695 -1.8469,-2.6695 -1.2455,0 -1.857,1.0975 -1.857,2.6805 0,1.5725 0.61153,2.6484 1.857,2.6484 z m -77.472,-0.12657 h 1.0344 c 0.855,0 1.1297,-0.40106 1.1297,-1.0766 0,-0.686 -0.34859,-1.1289 -1.1086,-1.1289 h -1.0555 z m 82.959,0 h 1.0344 c 0.855,0 1.1297,-0.40106 1.1297,-1.0766 0,-0.686 -0.3486,-1.1289 -1.1086,-1.1289 h -1.0555 z m -26.538,-0.18984 h 0.0211 c 0.496,-1.4985 0.58047,-1.7305 0.58047,-1.7305 l 0.55937,-1.5938 h -2.2906 l 0.55937,1.5938 c 0,0 0.0848,0.23197 0.57031,1.7305 z m 43.948,0 h 0.0211 c 0.496,-1.4985 0.58124,-1.7305 0.58124,-1.7305 l 0.5586,-1.5938 h -2.2906 l 0.56016,1.5938 c 0,0 0.084,0.23197 0.56953,1.7305 z"
       fill="#00326f"
       id="path1"
       style="fill:#ffffff" /></g></svg>
