<?xml version="1.0" encoding="UTF-8" standalone="no"?>
<!-- Created with Inkscape (http://www.inkscape.org/) -->

<svg
   xmlns:dc="http://purl.org/dc/elements/1.1/"
   xmlns:cc="http://creativecommons.org/ns#"
   xmlns:rdf="http://www.w3.org/1999/02/22-rdf-syntax-ns#"
   xmlns:svg="http://www.w3.org/2000/svg"
   xmlns="http://www.w3.org/2000/svg"
   xmlns:sodipodi="http://sodipodi.sourceforge.net/DTD/sodipodi-0.dtd"
   xmlns:inkscape="http://www.inkscape.org/namespaces/inkscape"
   version="1.1"
   id="svg2"
   width="548.40802"
   height="147.83841"
   viewBox="0 0 548.40802 147.83841"
   sodipodi:docname="wevolver-logo.svg"
   inkscape:version="0.92.4 (5da689c313, 2019-01-14)">
  <metadata
     id="metadata8">
    <rdf:RDF>
      <cc:Work
         rdf:about="">
        <dc:format>image/svg+xml</dc:format>
        <dc:type
           rdf:resource="http://purl.org/dc/dcmitype/StillImage" />
        <dc:title></dc:title>
      </cc:Work>
    </rdf:RDF>
  </metadata>
  <defs
     id="defs6" />
  <sodipodi:namedview
     pagecolor="#ffffff"
     bordercolor="#666666"
     borderopacity="1"
     objecttolerance="10"
     gridtolerance="10"
     guidetolerance="10"
     inkscape:pageopacity="0"
     inkscape:pageshadow="2"
     inkscape:window-width="3440"
     inkscape:window-height="1346"
     id="namedview4"
     showgrid="false"
     inkscape:zoom="1.5317604"
     inkscape:cx="333.58451"
     inkscape:cy="-84.931101"
     inkscape:window-x="-11"
     inkscape:window-y="-11"
     inkscape:window-maximized="1"
     inkscape:current-layer="svg2" />
  <path
     style="fill:#ffffff;fill-opacity:1"
     d="m 44.358607,147.09663 c -8.287211,-3.64931 -10.335919,-14.99078 -3.875004,-21.4517 5.041084,-5.04108 12.517981,-4.70475 18.033949,0.81121 2.917103,2.91711 3.341055,3.99007 3.341055,8.45575 0,4.38726 -0.467109,5.62438 -3.284349,8.69853 -2.634802,2.87506 -4.167522,3.66127 -7.75,3.97538 -2.456108,0.21534 -5.365651,-0.005 -6.465651,-0.48917 z m 71.514573,-1.29114 c -4.71126,-3.20126 -6.1812,-6.32344 -5.69913,-12.10504 1.18416,-14.20179 20.78623,-15.85965 24.59103,-2.07981 3.04617,11.03232 -9.57973,20.51238 -18.8919,14.18485 z M 28.35422,106.61932 C 22.352094,96.561341 21.758856,93.497197 25.813695,93.497197 c 1.966039,0 3.43103,1.616387 7.703863,8.500003 5.703832,9.18898 6.492536,13.26477 2.672156,13.80892 -1.790393,0.25501 -3.157786,-1.3482 -7.835494,-9.1868 z m 31.515881,7.89173 c -1.014851,-1.22282 -0.194895,-3.26324 4.627555,-11.51547 5.147818,-8.809004 6.164099,-9.997023 8.3524,-9.763854 4.03218,0.42964 3.51488,3.15676 -2.515861,13.263224 -5.746337,9.62985 -7.8117,11.21204 -10.464094,8.0161 z m 41.545069,-8.04854 c -3.129418,-5.24407 -5.543514,-10.306577 -5.364657,-11.249999 0.454267,-2.396134 5.022007,-2.753872 6.404857,-0.501618 8.32378,13.556987 10.60109,18.342987 9.41061,19.777427 -2.65314,3.19684 -4.68468,1.6367 -10.45081,-8.02581 z m 32.15229,8.91021 c -1.5931,-1.5931 -0.28967,-5.31145 4.68863,-13.37552 4.25429,-6.891279 5.70686,-8.500003 7.67497,-8.500003 3.96336,0 3.37657,3.261938 -2.33855,13.000003 -4.99285,8.50738 -7.85724,11.04333 -10.02505,8.87552 z M 362.02793,97.026142 c -4.3707,-1.062071 -8.9424,-5.539507 -10.30715,-10.094643 -1.53357,-5.118604 -0.69896,-24.775726 1.17784,-27.741098 5.92263,-9.357821 22.72479,-8.859997 28.42461,0.842181 2.83191,4.820461 2.92902,23.528463 0.15155,29.198852 -3.09692,6.322599 -11.55443,9.712545 -19.44685,7.794708 z m 8.32721,-7.463047 c 4.25284,-1.776952 5.0231,-4.223172 4.94384,-15.700877 -0.0663,-9.601909 -1.61761,-13.369433 -5.95302,-14.457552 -7.5642,-1.898493 -10.48735,2.511138 -10.48735,15.820365 0,10.975369 1.66394,14.334149 7.78212,15.70878 0.15516,0.03486 1.82665,-0.58196 3.71441,-1.370716 z m -153.88006,6.62256 c -0.9306,-1.505755 -9.81574,-37.666823 -9.84122,-40.052187 -0.0218,-2.037425 1.60271,-4.105645 3.22475,-4.105645 2.10665,0 3.58693,3.374782 6.39489,14.579216 1.77673,7.089587 3.65222,12.696116 4.16776,12.458953 0.89915,-0.413632 1.73789,-2.877836 6.37045,-18.716348 3.18555,-10.891234 7.47305,-10.958674 10.4388,-0.164195 3.81006,13.867543 5.74767,19.811748 6.45794,19.811748 0.40983,0 2.2287,-6.041408 4.04193,-13.42535 2.11467,-8.61151 3.83038,-13.630113 4.78495,-13.996414 1.72909,-0.663517 5.34328,1.025641 5.34328,2.497285 0,1.709273 -8.97455,37.285837 -10.02414,39.737302 -0.79119,1.847928 -1.63579,2.249943 -4.20187,2 -3.47689,-0.338659 -3.2553,0.164135 -9.28309,-21.062823 -0.89805,-3.1625 -1.98739,-5.75 -2.42076,-5.75 -0.43337,0 -2.27365,5.2875 -4.0895,11.75 -1.81586,6.4625 -3.69518,12.5375 -4.17628,13.5 -0.89601,1.79258 -6.22963,2.488943 -7.18789,0.938458 z m 54.07716,0.171834 c -1.12463,-1.124626 -0.82795,-42.159246 0.3099,-42.862472 1.64415,-1.016144 26.16989,-0.724404 27.21806,0.323767 0.53128,0.531285 0.80655,1.801272 0.61171,2.822193 -0.30903,1.61923 -1.62966,1.920057 -10.34378,2.35622 l -9.98952,0.5 -0.2999,5.75 -0.29991,5.75 7.79991,0.01531 c 8.87178,0.01742 10.61471,0.72195 10.13739,4.097777 -0.32267,2.282088 -0.72175,2.399599 -9.08749,2.675843 l -8.75,0.288933 v 5.961067 5.961067 l 9.25,0.01531 c 10.32725,0.0171 12.07698,0.635868 11.58749,4.097777 -0.33452,2.365922 -0.45669,2.389345 -13.89386,2.663869 -7.45601,0.152327 -13.86851,-0.03517 -14.25,-0.416667 z m 50.77444,-0.610292 c -1.61879,-4.313006 -13.46807,-40.328698 -13.46807,-40.935979 0,-1.278225 3.7806,-2.835442 5.38716,-2.21895 0.91432,0.350861 3.4531,6.397352 6.29663,14.996414 2.62053,7.924683 5.03771,14.408515 5.3715,14.408515 0.3338,0 2.51097,-6.027365 4.83816,-13.394145 2.32719,-7.366779 4.79999,-14.171927 5.4951,-15.122551 1.92756,-2.636097 5.61145,-1.083275 5.61145,2.365323 0,2.168512 -9.47201,32.035864 -12.49559,39.401373 -0.83977,2.045687 -6.3103,2.434422 -7.03634,0.5 z m 76.58246,-0.655585 c -1.10775,-2.069854 -1.48045,-35.889562 -0.43833,-39.77524 0.67616,-2.521169 2.86535,-3.61977 5.52868,-2.774462 1.72358,0.547043 1.85912,1.933906 1.85912,19.022675 v 18.432612 l 9.25,0.01531 c 10.32725,0.0171 12.07698,0.635868 11.58749,4.097777 -0.33393,2.361753 -0.47661,2.389847 -13.53696,2.665583 -12.24804,0.258586 -13.27519,0.137183 -14.25,-1.684258 z m 45.24516,0.706143 c -1.48249,-1.866242 -13.31783,-37.875574 -13.30578,-40.48317 0.0124,-2.689355 3.66401,-4.129645 5.50204,-2.170167 0.69791,0.744029 3.17883,7.202779 5.51315,14.352779 2.33432,7.15 4.6017,13.391073 5.03861,13.869051 0.43692,0.477977 2.90877,-5.696006 5.49302,-13.719963 4.96363,-15.411805 6.71411,-17.826816 10.31296,-14.227974 1.50222,1.502228 1.09206,3.212252 -5.36151,22.352778 -6.54881,19.422983 -7.15075,20.745005 -9.57378,21.026666 -1.42207,0.165307 -3.0505,-0.284693 -3.61871,-1 z m 31.90431,-5.58e-4 c -1.36131,-1.361309 -1.73207,-39.414732 -0.40437,-41.503562 1.16326,-1.830127 27.16316,-1.969476 28.31495,-0.151757 2.35266,3.712882 0.16689,4.753146 -10.64561,5.066514 l -9.96497,0.288805 -0.2999,5.75 -0.29991,5.75 h 8.51472 c 7.28068,0 8.65914,0.269839 9.51116,1.86186 1.92029,3.588104 -0.65413,5.051565 -9.42607,5.358351 l -8,0.279789 -0.2999,5.75 -0.29991,5.75 h 10.01472 c 9.09466,0 10.1162,0.189615 11.1193,2.063922 2.20666,4.123174 -0.0918,4.936078 -13.95665,4.936078 -8.52699,0 -13.07043,-0.392874 -13.87756,-1.2 z m 42.2472,-0.077 c -0.26952,-0.70235 -0.36789,-10.48985 -0.21862,-21.75 l 0.27142,-20.473 9.90587,-0.5 c 13.6469,-0.688829 18.5782,1.513401 20.65442,9.223893 1.36943,5.085669 -0.16124,9.84182 -4.28377,13.310702 l -3.08998,2.600047 4.24722,7.971181 c 4.55281,8.544701 4.44906,10.894177 -0.48105,10.894177 -1.85115,0 -3.31182,-1.763923 -7.45271,-9 -4.90932,-8.578894 -5.31055,-9 -8.57515,-9 h -3.42485 v 7.418213 c 0,4.080016 -0.27314,8.130016 -0.60699,9 -0.73365,1.911874 -6.23645,2.15334 -6.94581,0.304787 z m 21.8028,-25.786212 c 2.25493,-2.781109 2.21475,-5.141277 -0.13696,-8.04552 -1.58107,-1.952542 -2.8374,-2.335242 -7.75,-2.360784 l -5.86304,-0.03048 -0.3068,5.380801 c -0.46223,8.107 -0.13439,8.495951 6.57825,7.80446 4.19129,-0.431758 6.19816,-1.169314 7.47855,-2.748473 z M 7.1283025,85.51461 C 0.54612749,82.653156 -2.0709695,73.674071 1.8181225,67.295746 5.4945435,61.266214 12.467472,59.42993 18.796943,62.824462 c 9.118248,4.89017 8.884017,18.181965 -0.398026,22.586582 -4.062161,1.927622 -7.012396,1.954732 -11.2706145,0.103566 z m 73.0557815,0.0757 c -8.810233,-3.977245 -9.48944,-17.474311 -1.135653,-22.567474 7.12752,-4.34553 16.027203,-1.143349 18.779342,6.756964 2.788297,8.00411 -2.145626,15.858449 -10.555741,16.803733 -2.207985,0.248174 -5.296857,-0.184666 -7.087948,-0.993227 z m 74.174526,0.447401 c -1.1,-0.457992 -3.28942,-2.195788 -4.86538,-3.861768 -2.3574,-2.492051 -2.86539,-3.903764 -2.86539,-7.962985 0,-5.879261 2.03807,-9.421903 6.69046,-11.629608 6.40588,-3.039791 12.99603,-1.166818 16.58079,4.712396 6.26552,10.275792 -4.54908,23.318305 -15.54048,18.741965 z M 68.119175,50.805221 c -1.603447,-2.369413 -4.385063,-6.911268 -6.181371,-10.093011 -2.641292,-4.678442 -3.033446,-6.065212 -2.05016,-7.250002 2.670997,-3.21835 4.793377,-1.60861 10.510513,7.971793 5.82967,9.768985 6.470891,12.844058 2.788197,13.37122 -1.58987,0.227583 -2.913173,-0.817025 -5.067179,-4 z m 28.448281,3.567492 c -1.490814,-1.490814 -0.531167,-4.08619 4.837104,-13.081979 4.48141,-7.509666 5.99645,-9.293536 7.89301,-9.293536 4.38747,0 3.89967,2.93391 -2.15022,12.932754 -5.47943,9.056038 -8.37884,11.643815 -10.579894,9.442761 z M 43.162941,24.041198 C 39.004518,21.505648 36.685346,17.868328 36.56709,13.696458 36.214354,1.2525184 50.258321,-4.6902716 58.574258,4.3839784 68.358474,15.060408 55.445832,31.530558 43.162941,24.041198 Z m 73.062379,0.0965 c -4.65406,-2.92487 -6.36671,-5.97216 -6.36671,-11.32819 0,-14.9991896 21.04633,-17.4951096 24.9602,-2.9600796 2.87042,10.6598896 -9.38339,20.0763996 -18.59349,14.2882696 z"
     id="path819"
     inkscape:connector-curvature="0" />
</svg>
