<?xml version="1.0" encoding="UTF-8" standalone="no"?>
<!-- Generator: Adobe Illustrator 18.1.1, SVG Export Plug-In . SVG Version: 6.00 Build 0)  -->

<svg
   xmlns:dc="http://purl.org/dc/elements/1.1/"
   xmlns:cc="http://creativecommons.org/ns#"
   xmlns:rdf="http://www.w3.org/1999/02/22-rdf-syntax-ns#"
   xmlns:svg="http://www.w3.org/2000/svg"
   xmlns="http://www.w3.org/2000/svg"
   xmlns:sodipodi="http://sodipodi.sourceforge.net/DTD/sodipodi-0.dtd"
   xmlns:inkscape="http://www.inkscape.org/namespaces/inkscape"
   version="1.1"
   id="Capa_1"
   x="0px"
   y="0px"
   viewBox="0 0 261.60198 307.454"
   xml:space="preserve"
   sodipodi:docname="written-paper-svgrepo-com.svg"
   width="261.60199"
   height="307.45401"
   inkscape:version="0.92.4 (5da689c313, 2019-01-14)"><metadata
   id="metadata66"><rdf:RDF><cc:Work
       rdf:about=""><dc:format>image/svg+xml</dc:format><dc:type
         rdf:resource="http://purl.org/dc/dcmitype/StillImage" /><dc:title></dc:title></cc:Work></rdf:RDF></metadata><defs
   id="defs64" /><sodipodi:namedview
   pagecolor="#ffffff"
   bordercolor="#666666"
   borderopacity="1"
   objecttolerance="10"
   gridtolerance="10"
   guidetolerance="10"
   inkscape:pageopacity="0"
   inkscape:pageshadow="2"
   inkscape:window-width="3440"
   inkscape:window-height="1346"
   id="namedview62"
   showgrid="false"
   inkscape:zoom="0.76759448"
   inkscape:cx="130.80101"
   inkscape:cy="153.72699"
   inkscape:window-x="-11"
   inkscape:window-y="-11"
   inkscape:window-maximized="1"
   inkscape:current-layer="Capa_1" />
<g
   id="g29"
   style="fill:#ffffff;fill-opacity:1"
   transform="translate(-22.926)">
	<g
   id="Layer_5_29_"
   style="fill:#ffffff;fill-opacity:1">
		<g
   id="g26"
   style="fill:#ffffff;fill-opacity:1">
			<g
   id="g22"
   style="fill:#ffffff;fill-opacity:1">
				<g
   id="g4"
   style="fill:#ffffff;fill-opacity:1">
					<path
   d="m 241.19,200.541 c 0,2.691 -2.201,4.895 -4.893,4.895 H 71.158 c -2.693,0 -4.895,-2.203 -4.895,-4.895 v -3.261 c 0,-2.691 2.201,-4.894 4.895,-4.894 h 165.139 c 2.691,0 4.893,2.202 4.893,4.894 z"
   id="path2"
   style="fill:#ffffff;fill-opacity:1"
   inkscape:connector-curvature="0" />
				</g>
				<g
   id="g8"
   style="fill:#ffffff;fill-opacity:1">
					<path
   d="m 140.219,64.99 c 0,2.69 -2.201,4.893 -4.895,4.893 H 71.158 c -2.693,0 -4.895,-2.202 -4.895,-4.893 v -3.263 c 0,-2.691 2.201,-4.894 4.895,-4.894 h 64.166 c 2.693,0 4.895,2.202 4.895,4.894 z"
   id="path6"
   style="fill:#ffffff;fill-opacity:1"
   inkscape:connector-curvature="0" />
				</g>
				<g
   id="g12"
   style="fill:#ffffff;fill-opacity:1">
					<path
   d="m 238.713,245.727 c 0,2.69 -2.203,4.892 -4.897,4.892 H 169.65 c -2.693,0 -4.895,-2.202 -4.895,-4.892 v -3.263 c 0,-2.691 2.201,-4.894 4.895,-4.894 h 64.166 c 2.693,0 4.897,2.202 4.897,4.894 z"
   id="path10"
   style="fill:#ffffff;fill-opacity:1"
   inkscape:connector-curvature="0" />
				</g>
				<g
   id="g16"
   style="fill:#ffffff;fill-opacity:1">
					<path
   d="m 174.238,110.172 c 0,2.691 -2.201,4.895 -4.893,4.895 H 71.157 c -2.693,0 -4.895,-2.203 -4.895,-4.895 v -3.261 c 0,-2.691 2.201,-4.893 4.895,-4.893 h 98.188 c 2.691,0 4.893,2.202 4.893,4.893 z"
   id="path14"
   style="fill:#ffffff;fill-opacity:1"
   inkscape:connector-curvature="0" />
				</g>
				<g
   id="g20"
   style="fill:#ffffff;fill-opacity:1">
					<path
   d="m 241.19,155.357 c 0,2.691 -2.201,4.893 -4.893,4.893 H 71.158 c -2.693,0 -4.895,-2.202 -4.895,-4.893 v -3.262 c 0,-2.691 2.201,-4.894 4.895,-4.894 h 165.139 c 2.691,0 4.893,2.202 4.893,4.894 z"
   id="path18"
   style="fill:#ffffff;fill-opacity:1"
   inkscape:connector-curvature="0" />
				</g>
			</g>
			<path
   d="M 272.401,74.521 193.278,9.454 C 186.727,4.062 175.389,0 166.907,0 H 42.442 c -10.76,0 -19.516,8.754 -19.516,19.516 0,0 0,210.024 0,267.839 0,20.099 19.01,20.099 19.463,20.099 48.34,0 222.623,0 222.623,0 10.762,0 19.516,-8.755 19.516,-19.517 V 100.198 c 0,-8.951 -5.215,-19.991 -12.127,-25.677 z M 187.867,29.475 c 0,-4.781 3.959,-1.113 3.959,-1.113 l 62.717,53.585 c 0,0 4.014,3.949 -2.865,3.949 -14.688,0 -58.746,0 -58.746,0 -2.793,0 -5.065,-2.271 -5.065,-5.064 0,0 0,-38.517 0,-51.357 z m 77.145,263.524 c 0,0 -179.055,0 -223.99,0 -0.801,0 -3.643,-0.229 -3.643,-4.182 0,-54.407 0,-269.302 0,-269.302 0,-2.745 2.32,-5.063 5.063,-5.063 h 124.464 c 2.107,0 6.51,1.118 6.51,7.138 v 59.242 c 0,10.761 8.754,19.516 19.516,19.516 h 73.523 c 1.342,0 3.613,0.922 3.613,4.169 0,0.051 0.008,183.419 0.008,183.419 0,2.793 -2.271,5.063 -5.064,5.063 z"
   id="path24"
   style="fill:#ffffff;fill-opacity:1"
   inkscape:connector-curvature="0" />
		</g>
	</g>
</g>
<g
   id="g31"
   transform="translate(-22.926)">
</g>
<g
   id="g33"
   transform="translate(-22.926)">
</g>
<g
   id="g35"
   transform="translate(-22.926)">
</g>
<g
   id="g37"
   transform="translate(-22.926)">
</g>
<g
   id="g39"
   transform="translate(-22.926)">
</g>
<g
   id="g41"
   transform="translate(-22.926)">
</g>
<g
   id="g43"
   transform="translate(-22.926)">
</g>
<g
   id="g45"
   transform="translate(-22.926)">
</g>
<g
   id="g47"
   transform="translate(-22.926)">
</g>
<g
   id="g49"
   transform="translate(-22.926)">
</g>
<g
   id="g51"
   transform="translate(-22.926)">
</g>
<g
   id="g53"
   transform="translate(-22.926)">
</g>
<g
   id="g55"
   transform="translate(-22.926)">
</g>
<g
   id="g57"
   transform="translate(-22.926)">
</g>
<g
   id="g59"
   transform="translate(-22.926)">
</g>
</svg>