<?xml version="1.0" encoding="UTF-8" standalone="no"?>
<!-- Created with Inkscape (http://www.inkscape.org/) -->

<svg
   xmlns:dc="http://purl.org/dc/elements/1.1/"
   xmlns:cc="http://creativecommons.org/ns#"
   xmlns:rdf="http://www.w3.org/1999/02/22-rdf-syntax-ns#"
   xmlns:svg="http://www.w3.org/2000/svg"
   xmlns="http://www.w3.org/2000/svg"
   xmlns:sodipodi="http://sodipodi.sourceforge.net/DTD/sodipodi-0.dtd"
   xmlns:inkscape="http://www.inkscape.org/namespaces/inkscape"
   version="1.1"
   width="493.96484"
   height="152.99802"
   id="svg23413"
   sodipodi:docname="WSJ_Logo.svg"
   inkscape:version="0.92.4 (5da689c313, 2019-01-14)">
  <sodipodi:namedview
     pagecolor="#ffffff"
     bordercolor="#666666"
     borderopacity="1"
     objecttolerance="10"
     gridtolerance="10"
     guidetolerance="10"
     inkscape:pageopacity="0"
     inkscape:pageshadow="2"
     inkscape:window-width="3440"
     inkscape:window-height="1346"
     id="namedview7"
     showgrid="false"
     showguides="false"
     inkscape:zoom="1.0586473"
     inkscape:cx="823.14795"
     inkscape:cy="33.362644"
     inkscape:window-x="-11"
     inkscape:window-y="-11"
     inkscape:window-maximized="1"
     inkscape:current-layer="svg23413" />
  <defs
     id="defs23415" />
  <metadata
     id="metadata23418">
    <rdf:RDF>
      <cc:Work
         rdf:about="">
        <dc:format>image/svg+xml</dc:format>
        <dc:type
           rdf:resource="http://purl.org/dc/dcmitype/StillImage" />
        <dc:title></dc:title>
      </cc:Work>
    </rdf:RDF>
  </metadata>
  <path
     id="path13406"
     style="fill:#ffffff;fill-opacity:1;fill-rule:nonzero;stroke:none"
     d="m 306.08246,0 -11.79101,56.05469 c -1.35249,6.28125 -2.02993,7.73336 -4.63868,8.50586 l -1.64453,0.48242 v 1.74024 h 13.82227 v -1.74024 l -2.0293,-0.38672 c -2.89875,-0.58 -3.67266,-2.12445 -2.22266,-9.4707 l 1.23047,-6.37891 h 11.66211 l 1.70117,8.50391 c 1.0625,5.50875 1.06125,6.5732 -3.09375,7.3457 l -2.02929,0.38672 v 1.74024 h 51.32031 V 44.74805 h -1.83594 c -0.96625,10.1475 -2.99789,19.7168 -11.21289,19.7168 h -3.86523 V 6.5722698 c 0,-2.705 0.87023,-3.57539 2.80273,-3.96289 l 2.60938,-0.58008 V 0.19336 h -20.10157 v 1.7402398 l 2.125,0.57812 c 1.9325,0.58 2.80274,1.35555 2.80274,4.06055 V 60.69532 c 0,2.60874 -1.0643,4.05859 -4.06055,4.05859 -3.47874,0 -4.05819,-1.16008 -5.31445,-6.86133 L 309.94769,0 Z M 105.73285,0.19336 v 22.03516 h 1.83594 c 0.67625,-10.14876 2.70601,-19.7168002 8.69726,-19.7168002 h 2.12696 V 60.30664 c 0,2.7075 -0.86899,3.67446 -2.80274,4.15821 l -2.51172,0.57812 v 1.74024 h 20.875 v -1.74024 l -2.99609,-0.67578 c -1.83625,-0.48375 -2.80273,-1.06305 -2.80273,-4.06055 V 2.5117198 h 2.12695 c 5.99125,0 8.02098,9.5680402 8.69727,19.7168002 h 1.83593 V 0.19336 Z m 37.20899,0 v 1.7402398 l 2.12695,0.57812 c 1.93375,0.58 2.80078,1.35555 2.80078,4.06055 V 60.30664 c 0,2.7075 -0.86703,3.67446 -2.80078,4.15821 l -2.12695,0.57812 v 1.74024 h 19.8125 v -1.74024 l -2.22266,-0.48242 c -1.74,-0.38625 -2.90039,-1.54641 -2.90039,-4.25391 V 33.92383 h 14.59375 v 26.38281 c 0,2.7075 -1.15844,3.86766 -2.89844,4.25391 l -2.22265,0.48242 v 1.74024 h 19.8125 v -1.74024 l -2.12696,-0.57812 c -1.9325,-0.48375 -2.80273,-1.54891 -2.80273,-4.25391 V 6.5722698 c 0,-2.705 0.87023,-3.5768 2.80273,-4.06055 l 2.12696,-0.57812 V 0.19336 h -19.8125 v 1.7402398 l 2.22265,0.57812 c 1.6425,0.48375 2.89844,1.16039 2.89844,3.96289 V 31.31446 H 157.63129 V 6.4746098 c 0,-2.70625 1.06414,-3.47914 2.90039,-3.96289 l 2.22266,-0.57812 V 0.19336 Z m 46.10156,0 v 1.7402398 l 2.125,0.58007 c 2.2225,0.58 2.80273,1.93375 2.80273,4.15625 V 60.30664 c 0,2.7075 -0.87023,3.67446 -2.80273,4.15821 l -2.125,0.58007 v 1.73829 h 34.30859 V 44.74805 h -1.83594 c -1.15875,10.05125 -2.41648,19.7168 -11.11523,19.7168 h -6.66797 V 33.3418 l 2.9961,0.0977 c 4.34874,0.0963 5.6046,1.74039 6.4746,12.27539 h 1.83594 V 18.84575 h -1.83594 c -1.0625,8.40875 -2.22265,11.98453 -6.3789,12.08203 l -3.0918,0.0957 V 2.5137098 h 6.66797 c 7.44125,0 9.08594,9.5660902 10.14844,19.7148502 h 1.83593 V 0.1934 Z m 48.32422,0 v 1.7402398 l 1.83593,0.48242 c 1.73875,0.48374 2.70524,1.35297 3.86524,6.66797 L 255.34223,66.97656 h 3.96289 l 8.34179,-44.13476 9.15039,44.13476 h 3.48047 l 11.79102,-56.05468 c 1.25625,-5.8962502 1.93195,-7.9246202 4.25195,-8.5058602 l 1.83789,-0.48242 V 0.19336 h -13.6289 v 1.7402398 l 2.03125,0.38476 c 2.89875,0.58 3.57515,2.32141 2.22265,9.4726602 l -7.04492,34.6875 -7.16406,-36.7168002 c -0.77375,-3.77 -1.25641,-6.86336 1.93359,-7.44336 l 2.125,-0.38476 V 0.19336 H 259.9809 v 1.7402398 l 1.25781,0.28906 c 1.93375,0.4825 2.22359,1.64395 2.99609,5.3164 l 1.83008,8.7949302 -5.66211,29.86523 -7.3789,-36.4375002 c -0.87,-3.9625 -1.16086,-6.95906 1.93164,-7.53906 l 1.45117,-0.28906 V 0.19336 Z m 123.12695,0 v 1.7402398 l 2.12695,0.57812 c 1.9325,0.58 2.80274,1.35555 2.80274,4.06055 V 60.30664 c 0,2.7075 -0.87024,3.67446 -2.80274,4.15821 l -2.12695,0.57812 v 1.74024 h 31.60547 V 44.74805 h -1.83789 c -0.965,10.1475 -2.99594,19.7168 -11.21094,19.7168 h -3.86523 V 6.5722698 c 0,-2.705 0.87023,-3.57539 2.80273,-3.96289 l 2.60938,-0.58008 V 0.19336 Z m -55.95703,18.94141 5.41211,27.0625 h -10.63672 z"
     inkscape:connector-curvature="0" />
  <path
     id="path13406-1"
     style="fill:#ffffff;fill-opacity:1;fill-rule:nonzero;stroke:none"
     d="m 278.73242,85.44133 c -12.08,0 -17.78516,15.27047 -17.78516,33.73048 0,18.55625 5.89766,33.82617 17.78516,33.82617 12.275,0 17.88086,-15.26992 17.88086,-33.82617 0,-18.46001 -5.89586,-33.73048 -17.88086,-33.73048 z M 13.82226,85.53903 C 5.60726,85.53903 0,92.40114 0,101.38864 c 0,16.33375 21.74609,23.19399 21.74609,38.27149 0,6.86125 -3.18836,10.72851 -7.53711,10.72851 -6.475,0 -10.72867,-7.6332 -11.88867,-19.9082 H 0.48437 v 22.0332 h 1.16016 c 0.96625,-3.18875 2.22265,-3.47851 3.28515,-3.47851 1.8375,0 3.77,3.86718 9.375,3.86718 8.6025,0 15.17383,-7.44125 15.17383,-17.6875 0,-19.8125 -21.74609,-25.03164 -21.74609,-39.43164 0,-3.0925 1.16094,-7.73242 5.99219,-7.73242 6.95875,0 9.56851,8.9889 10.72851,19.91015 h 1.83594 V 85.9238 H 25.1289 c -0.48375,2.12623 -1.35242,3.09375 -2.60742,3.09374 -2.22375,0 -3.38422,-3.47851 -8.69922,-3.47851 z m 416.45117,0.19336 -11.78711,56.05469 c -1.355,6.28125 -2.03257,7.73336 -4.64257,8.50586 l -1.64258,0.48242 v 1.73828 h 13.82031 v -1.73828 l -2.0293,-0.38672 c -2.9,-0.58 -3.6707,-2.12445 -2.2207,-9.4707 l 1.23828,-6.37891 h 11.64453 l 1.70899,8.50391 c 1.16,5.50875 1.0657,6.5732 -3.0918,7.3457 l -2.0293,0.38672 v 1.73828 h 51.22266 v -22.0332 h -1.83594 c -0.96625,10.1475 -2.99597,19.71484 -11.21093,19.71484 h -3.86719 V 92.3027 c 0,-2.705 0.87148,-3.57344 2.80273,-3.96094 l 2.60938,-0.58007 V 85.9238 h -20.10157 v 1.74023 l 2.125,0.58008 c 1.93375,0.58 2.80274,1.35359 2.80274,4.05859 v 54.125 c 0,2.60875 -1.0618,4.0586 -4.06055,4.0586 -3.47875,0 -3.9618,-1.16008 -5.2168,-6.86133 L 434.14257,85.73239 Z M 29.38281,85.9238 v 22.0371 h 1.83594 C 31.895,97.81215 33.92351,88.24411 39.91601,88.24411 h 2.12696 v 57.79492 c 0,2.7075 -0.87149,3.6725 -2.80274,4.15625 l -2.51367,0.58008 v 1.73828 h 20.39258 v -1.73828 l -2.51172,-0.58008 c -2.5125,-0.58 -2.80274,-2.51125 -2.80274,-4.15625 V 88.24411 h 2.125 c 5.99125,0 8.02172,9.56804 8.69922,19.71679 h 1.83594 V 85.9238 Z m 37.20703,0 v 1.74023 l 2.12695,0.58008 c 1.93375,0.58 2.80274,1.35359 2.80274,4.05859 v 53.73633 c 0,2.7075 -0.86899,3.6725 -2.80274,4.15625 l -2.12695,0.58008 v 1.73828 h 19.52539 v -1.73828 l -2.12891,-0.48242 c -1.9325,-0.48375 -2.80273,-1.54641 -2.80273,-4.25391 v -26.28715 h 3.57617 c 2.8025,0 4.25352,1.15977 4.44727,6.57227 l 0.48242,12.37109 c 0.3875,11.11375 3.57578,14.20703 8.98828,14.20703 5.50875,0 6.95703,-3.77093 6.95703,-9.08593 v -2.22266 h -2.02734 v 1.64258 c 0,3.5775 -0.48219,6.08984 -1.83594,6.08984 -1.25625,0 -1.35383,-0.96586 -1.64258,-5.41211 l -0.58203,-8.5039 c -0.7725,-11.695 -2.31961,-15.36853 -10.63086,-16.91602 8.02125,-2.125 12.95117,-8.02094 12.95117,-16.42969 0,-10.92125 -8.6014,-16.14065 -16.8164,-16.14062 z m 38.66016,0 v 1.74023 l 3.09375,0.58008 c 2.2225,0.58 2.80273,1.93375 2.80273,4.15625 v 53.63867 c 0,2.7075 -0.87023,3.6725 -2.80273,4.15625 l -2.12696,0.58008 v 1.74024 h 34.3086 v -22.03516 h -1.83399 c -1.16,10.05125 -2.41773,19.71484 -11.11523,19.71484 h -6.66992 v -31.12109 l 2.99609,0.0977 c 4.34875,0.0963 5.60656,1.7404 6.47656,12.27539 h 1.83594 v -26.86919 h -1.83594 c -1.0625,8.40877 -2.2239,11.98454 -6.3789,12.08204 l -3.09375,0.0957 V 88.244111 h 6.66992 c 7.4425,0 9.08398,9.56804 10.14648,19.716799 h 1.83594 V 85.923801 Z m 37.40234,0 v 1.74023 l 2.12695,0.58008 c 2.22125,0.58 2.80274,1.93375 2.80274,4.15625 v 53.63867 c 0,2.7075 -0.86899,3.6725 -2.80274,4.15625 l -2.12695,0.58008 v 1.74024 h 34.30859 V 130.48044 H 175.125 c -1.16,10.05125 -2.41574,19.71484 -11.11329,19.71484 h -6.66796 v -31.12109 l 2.99414,0.0977 c 4.35,0.0963 5.60601,1.7404 6.47851,12.27539 h 1.83399 v -26.86919 h -1.83399 c -1.065,8.40877 -2.22586,11.98454 -6.38086,12.08204 l -3.09179,0.0957 V 88.244111 h 6.66796 c 7.4425,0 9.08594,9.37554 10.14844,19.716799 h 1.83594 V 85.923801 Z m 36.43555,0 v 22.0371 h 1.83593 c 0.6775,-10.14875 2.70797,-19.71679 8.69922,-19.71679 H 191.75 v 57.79492 c 0,2.7075 -0.86899,3.6725 -2.80274,4.15625 l -2.51367,0.58004 v 1.73828 h 20.87695 v -1.73828 l -2.99804,-0.67578 c -1.83625,-0.48375 -2.80274,-1.06305 -2.80274,-4.06055 V 88.24407 h 2.12695 c 5.99375,0 8.02297,9.56804 8.69922,19.71679 h 1.83399 v -22.0371 z m 60.88867,0 v 1.74023 l 2.41601,0.58008 c 1.9325,0.48375 2.9961,1.16039 2.9961,3.96289 v 46.48828 c 0,6.475 -0.58086,11.69336 -5.41211,11.69336 -3.09375,0 -5.41195,-2.4175 -5.31445,-4.15625 0.2875,-2.9975 5.31492,-2.80101 5.70117,-7.63476 0.29,-3.47875 -1.93414,-4.93 -3.96289,-5.21875 -2.99625,-0.3875 -6.66688,2.12609 -6.76563,7.15234 -0.0975,6.475 4.15555,12.37109 11.4043,12.37109 8.0225,0 14.20898,-5.41336 14.20898,-15.75586 V 92.3027 c 0,-2.705 0.67614,-3.57484 2.60743,-4.05859 l 2.12695,-0.58008 V 85.9238 Z m 57.60351,0 v 1.74023 l 2.12305,0.58008 c 1.93375,0.58 2.60938,1.35359 2.60938,4.05859 v 44.94141 c 0,10.1475 5.89601,15.75391 14.88476,15.75391 8.9875,0 13.4336,-5.60547 13.4336,-16.04297 V 95.00973 c 0,-5.21875 1.06445,-7.05463 5.31445,-7.05469 3.38375,0 4.83594,1.15891 4.83594,4.34766 v 53.73633 c 0,2.7075 -0.87094,3.6725 -2.80469,4.15625 l -2.125,0.58008 v 1.73828 h 19.51953 v -1.73828 l -2.12305,-0.48242 c -1.93375,-0.48375 -2.80468,-1.54641 -2.80468,-4.25391 v -26.28715 h 4.54296 c 2.8025,0 4.25282,0.67602 4.44532,6.57227 l 0.48437,12.37109 c 0.38625,11.11375 3.57649,14.20703 8.99024,14.20703 5.5075,0 6.95703,-3.77093 6.95703,-9.08593 v -2.22266 h -2.03125 v 1.64258 c 0,3.5775 -0.48094,6.08984 -1.83594,6.08984 -1.255,0 -1.35258,-0.96586 -1.64258,-5.41211 l -0.58008,-8.5039 c -0.77375,-11.405 -2.22211,-15.36853 -10.63086,-16.91602 8.0225,-2.125 12.95118,-8.02094 12.95118,-16.42969 0,-10.92125 -8.60141,-16.14065 -16.81641,-16.14062 h -32.95703 v 1.74023 l 1.83594,0.38672 c 3.47875,0.77375 3.57617,2.6107 3.57617,10.43945 v 38.46485 c 0,8.6025 -2.41774,12.75781 -7.92774,12.75781 -4.92625,0 -7.63281,-2.41797 -7.63281,-11.79297 V 92.20696 c 0,-2.70625 0.86789,-3.47914 2.99414,-3.96289 l 2.61133,-0.58008 v -1.74023 z m 78.47461,0 v 1.74023 l 1.35352,0.38672 c 1.54875,0.48375 2.41805,2.22336 4.06055,5.41211 v 46.19727 c 0,6.95875 2.3e-4,10.24617 -3.47852,10.82617 l -1.74023,0.28906 v 1.73828 h 14.20507 v -1.73828 c -6.185,-0.87 -6.18359,-2.99641 -6.18359,-10.53516 V 99.94723 l 21.35938,52.56641 h 4.05664 V 98.77926 c 0,-7.925 -3.2e-4,-9.66476 3.86718,-10.72851 l 1.35352,-0.38672 V 85.9238 h -14.5957 v 1.74023 l 1.64453,0.38672 c 4.92875,0.87 4.92773,2.80344 4.92773,10.14844 v 30.88476 L 389.87695,85.9238 Z m -97.32226,2.12695 c 5.02625,0 7.3457,3.86601 7.3457,30.54102 0,27.93 -2.31945,31.89453 -7.3457,31.89453 -5.025,0 -7.25,-3.96367 -7.25,-31.70117 0,-26.86751 2.41875,-30.73438 7.25,-30.73438 z M 81.18359,88.24407 h 2.90039 c 3.865,0 7.44141,2.51312 7.44141,15.07812 0,12.66002 -2.70469,14.10937 -8.11719,14.10938 h -2.22461 z m 269.25977,0 h 3.86718 c 3.865,0 7.44141,2.51312 7.44141,15.07812 0,12.85377 -2.70469,14.10937 -8.11719,14.10938 h -3.1914 z m 78.28515,16.8164 5.40039,26.86915 h -10.61328 z m 60.98438,38.65821 c -2.31875,0 -4.25196,1.93492 -4.25196,4.54492 0,2.60875 1.93321,4.54297 4.25196,4.54297 2.31875,0 4.25195,-1.93422 4.25195,-4.54297 0,-2.61 -1.9332,-4.54492 -4.25195,-4.54492 z"
     inkscape:connector-curvature="0" />
</svg>
