<?xml version="1.0" encoding="UTF-8" standalone="no"?>
<svg
   id="logo"
   viewBox="0 0 1000 654.51056"
   version="1.1"
   width="1000"
   height="654.51056"
   sodipodi:docname="ZDNet_logo_2022.svg"
   inkscape:version="1.3 (0e150ed6c4, 2023-07-21)"
   xmlns:inkscape="http://www.inkscape.org/namespaces/inkscape"
   xmlns:sodipodi="http://sodipodi.sourceforge.net/DTD/sodipodi-0.dtd"
   xmlns="http://www.w3.org/2000/svg"
   xmlns:svg="http://www.w3.org/2000/svg">
  <sodipodi:namedview
     id="namedview1"
     pagecolor="#ffffff"
     bordercolor="#000000"
     borderopacity="0.25"
     inkscape:showpageshadow="2"
     inkscape:pageopacity="0.0"
     inkscape:pagecheckerboard="0"
     inkscape:deskcolor="#d1d1d1"
     inkscape:zoom="0.76545748"
     inkscape:cx="499.70118"
     inkscape:cy="327.25528"
     inkscape:window-width="1360"
     inkscape:window-height="697"
     inkscape:window-x="-8"
     inkscape:window-y="483"
     inkscape:window-maximized="1"
     inkscape:current-layer="logo" />
  <defs
     id="defs71" />
  <g
     id="g66"
     transform="matrix(0.9596929,0,0,0.9596929,0,1.4643762e-5)"
     style="fill:#ffffff">
    <path
       d="m 359.25,358 v 72 53.54 72 54.46 72 h 72 252 v -72 h -252 v -54.46 h 197.92 v -72 H 431.25 V 430 h 252 v -72 h -252 z"
       id="path56"
       style="fill:#ffffff" />
    <path
       d="M 916,358 H 844 718 v 72 h 126 v 252 h 72 V 430 h 126 v -72 z"
       id="path58"
       style="fill:#ffffff" />
    <path
       d="M 324,252 H 11.87 L 324,143.91 V 72 67.72 0 H 0 V 72 H 311.64 L 0,179.91 V 252 256.11 324 h 324 z"
       id="path60"
       style="fill:#ffffff" />
    <path
       d="M 252.5,670.13 144.41,358 H 72.5 68.22 0.5 v 324 h 72 V 370.36 L 180.41,682 h 72.09 4.11 67.89 V 358 h -72 z"
       id="path62"
       style="fill:#ffffff" />
    <path
       d="m 682.75,162.2 v -0.37 C 682.75,72.6 610.16,-1.52588e-5 520.92,-1.52588e-5 H 358.75 V 324 h 162.21 c 89.21,0 161.79,-72.58 161.79,-161.8 z M 430.75,72 h 90.17 c 23.816,0.0265 46.65,9.4991 63.49,26.3398 16.841,16.8402 26.314,39.6742 26.34,63.4902 v 0.37 c -0.024,23.807 -9.491,46.633 -26.325,63.468 -16.833,16.836 -39.658,26.306 -63.465,26.332 h -90.21 z"
       id="path64"
       style="fill:#ffffff" />
  </g>
</svg>
